<svg xmlns="http://www.w3.org/2000/svg" viewBox="0 0 618 433.83"><defs><style>.cls-1,.cls-2{fill:#05222E;}.cls-2{opacity:0.4;}</style></defs><g id="Layer_2" data-name="Layer 2"><g id="Logos"><g id="campaign-win"><path class="cls-1" d="M264.41,122.06l-3.08.65.95,18.14,3.08-.65c6.62-1.41,13.16-2.8,12.69-11.68C277.57,119.35,271.5,120.55,264.41,122.06Z"/><polygon class="cls-1" points="116.73 160.76 110.39 185.53 125.6 182.29 116.92 160.72 116.73 160.76"/><polygon class="cls-1" points="328.73 115.7 322.38 140.46 337.6 137.23 328.92 115.66 328.73 115.7"/><path class="cls-1" d="M618,0,2.32,130.87V267.46L618,136.6,587.2,74.85ZM64.3,224.69a34.26,34.26,0,0,1-27-5.09c-8.13-5.59-12.17-14.3-12.74-25.1a44.94,44.94,0,0,1,9-28.84c6.52-8.8,16.28-15.36,26.17-17.47a40,40,0,0,1,16.91.12L77.81,171c-4-4.42-10.22-5.93-16.47-4.6-11.2,2.38-18.3,12.86-17.71,24.15.6,11.49,8.69,18.16,20.08,15.74,6-1.27,11.79-5.53,15.37-11.08l1.19,22.68C74.31,221.1,70,223.48,64.3,224.69Zm156.63-35.24-7.33-40.79-.18,0-14.71,45.47-7.28,1.55-18.34-38.45-.19,0-3.68,43.13L151,204.31h0l-14.47,3.07-5.23-11.66-25.21,5.35-4.19,13.68-19.42,4.12,23.26-78.51,20-4.24,26.35,58.32L159.15,129l18-3.83L193.49,161l13.08-42.1,18.2-3.87,14.46,70.5Zm52.51-35.56-10.37,2.21,1.27,24.12L246,184.11l-3.81-72.76,28-5.95c15.12-3.21,25.95,1.8,26.83,18.49C298,141.07,289.4,150.5,273.44,153.89Zm75.1,8.43-5.23-11.67L318.1,156l-4.19,13.67-19.42,4.13L317.75,95.3l20-4.25,30.32,67.12ZM370,157.76,366.2,85l18.3-3.89,3.81,72.76Zm94-32c-6.39,11.41-16.52,18-28.28,20.45-22.13,4.71-38.35-7.56-39.54-30.43C395,92.15,409.67,73.32,432.35,68.5c14.47-3.07,26,1.3,32.81,13.62l-17,11.21c-2.89-6.41-8.45-9.91-15.83-8.34-12,2.56-17.67,15.76-17.09,26.85.6,11.29,7.73,21.38,19.77,18.83,7.94-1.69,13.78-7.23,14.09-15.78l-14.94,3.17-.78-14.86,36.32-7.71C470.1,106.14,469.83,115.37,464.05,125.77Zm70.54-3L498.74,85.32l-.19,0,2.34,44.58-18.3,3.89-3.81-72.76,18.3-3.89,35.84,37.36.19,0L530.78,50l18.29-3.89,3.81,72.76Z"/><path class="cls-1" d="M615.68,303V166.37L0,297.23,30.81,359,0,433.83Zm-97.39-48.33,9.19-2L535.8,271l6.68-21.48,9.28-2,7.37,36-9.33,2-3.74-20.8-.09,0-7.5,23.19-3.71.79L525.4,269l-.1,0-1.88,22-9.28,2Zm-28.2,4.75c10.33-2.2,20.27,3.65,20.85,14.87a23.65,23.65,0,0,1-18.78,24.69c-11.52,2.45-20.3-4.24-20.92-16.25C470.65,271.47,479.76,261.57,490.09,259.38ZM443.48,275.6a23.26,23.26,0,0,1,13.34-8.9,20.35,20.35,0,0,1,8.62.05l.61,11.57a8.68,8.68,0,0,0-8.4-2.34,11.71,11.71,0,0,0-9,12.32c.3,5.85,4.43,9.25,10.24,8a13,13,0,0,0,7.84-5.65l.6,11.57c-3,1.64-5.24,2.85-8.14,3.47a17.44,17.44,0,0,1-13.76-2.6c-4.15-2.85-6.21-7.29-6.5-12.8A22.89,22.89,0,0,1,443.48,275.6ZM429,300.48a4.72,4.72,0,0,1,5.87,4.57,7,7,0,0,1-5.27,6.95,4.75,4.75,0,0,1-5.87-4.58A6.89,6.89,0,0,1,429,300.48Zm-70.8-47.87L394,290l.19,0-2.33-44.48,18.3-3.89L414,314.31l-18.3,3.89-35.85-37.45-.19,0L362,325.37l-18.29,3.88-3.82-72.75Zm-34,7.22L328,332.59l-18.29,3.89-3.82-72.76ZM209.58,284.2l14.69,44.39.18,0,12.29-50.13,14.56-3.09,16.28,44.05.19,0,10.79-49.81,19.05-4L278.92,343l-18.67,4-14.53-39.54-.19,0-11.6,45.11-18.58,4-24.82-68.29Zm-54.75,32.09c10-2.13,18.66,4.24,19.21,14.67s-7.31,20.32-17.26,22.43l-13.24,2.82L141.6,319.1Zm-77,16.37L88,330.49,101.33,360l-1.68-32,9.34-2,18.28,19.06.09,0-1.19-22.68,9.34-2,1.94,37.1-9.33,2-18.29-19.11-.09,0,1.19,22.74-7.47,1.59-.63.13-1.23.26h0l-8.09,1.72-2.68-5.95L78,363.62l-2.14,7-9.9,2.1Z"/><path class="cls-1" d="M154.54,345.61c5.57-1.19,10.17-5.35,9.79-12.58-.35-6.65-4.78-9.48-10.78-8.21l-2.19.47,1.08,20.76Z"/><path class="cls-1" d="M491.67,289.59c5.57-1.18,9.9-6.83,9.56-13.23-.27-5.11-5.08-8.82-10.65-7.63s-9.9,6.83-9.63,11.95C481.29,287.07,486.1,290.78,491.67,289.59Z"/><polygon class="cls-1" points="83.5 343.05 83.4 343.06 80.16 355.69 87.92 354.05 83.5 343.05"/><polygon class="cls-2" points="580.32 173.88 472.07 167.61 37.65 259.95 145.91 266.22 580.32 173.88"/><polygon class="cls-1" points="615.68 302.96 615.68 302.95 615.68 302.96 615.68 302.96"/><polygon class="cls-1" points="615.67 166.37 615.67 166.37 507.42 160.1 472.07 167.61 580.32 173.88 615.67 166.37"/><polygon class="cls-1" points="145.91 266.22 37.65 259.95 2.33 267.46 2.32 267.47 110.56 273.73 145.91 266.22"/></g></g></g></svg>
