<svg xmlns="http://www.w3.org/2000/svg" viewBox="0 0 718 442.97"><defs><style>.cls-1{fill:#05222E;}</style></defs><g id="Layer_2" data-name="Layer 2"><g id="Logos"><g id="creative-outfitters"><path id="logo" class="cls-1" d="M187.05,224.52c8.08,2.84,15.8-2,20.18-14.64,3.85,8.21,9.73,13.29,14.46,15.21,14.75,5.8,28.84-1.3,35-16.41,2.79,6.23,7.19,10.13,12,11.9,14.08,5.35,21.68-4.22,25.06-19.43,2,9.57,5.91,15.76,13,18.3,8.07,3,14.68-1.48,17.79-11.12,2.8,6.82,7.3,11.12,14.31,12.81,8.58,2,14.23-2.32,17.52-9.3,2.17,8,6.29,13.44,13.45,16.06,10,3.57,18.71-5.7,21.05-20.48,5,12.69,11.8,16.81,18.38,16.83,7.6,0,20.27-10.72,23.65-39.72,1.7-14.36.57-33.51-5.63-43.36-3.37-5.36-7-3.38-8.16,6.19-.84,7,2,16.06,7,21.68.57,21.41-5.06,44.5-14.08,45.06-9.28.56-23.08-31.54-15.48-76.32.28-2-.28-2.81-2-1.68-2.24,1.4-4.49,3.65-6.19,8.73-3.78,11.58-4.83,33.75-.79,51.8-3.62,16-11.69,26.07-16.38,24.51-5.91-2-9.86-34.64-3.1-67.87.28-1.12-.57-1.41-2-1.12a10.45,10.45,0,0,0-7.33,7.32c-2.53,7.6-4.78,21.41-4.5,34.92,0,1.16.05,2.27.1,3.39-4.34,12.32-11.14,17.89-15.3,16-6.19-2.54-8.18-22.24-7.61-48.16.29-14.36,1.42-31,3.1-46.74.36-3,.66-5.18.84-7.33.14-1.14.28-2.25.43-3.38.37,0,.78,0,1.17-.07,3.78-.24,5.94-.4,8.82-.63,8.21-.31,16.08-.31,23.66-.31,2.86,0,6.69.31,9.14.31,7.26.31,14.19.94,20.81,1.57a9,9,0,0,0,6.31-1.26c.64-.62.95-1.26-.32-1.57a169.2,169.2,0,0,0-24.29-3.9c-3.72-.25-6.4-.2-9.46-.52-7.24-.31-15.12-.31-23.32-.31h-8.53c-1,0-2.1.06-3.15.1,1-7.37,2-13.83,3-18.75.28-1.69,0-2.25-1.4-1.69a10.68,10.68,0,0,0-6.21,6.76c-1.07,3.73-2.25,8.49-3.47,14-41.38,1.86-85.53,9-116.45,18.21-5.68,1.58-9.78,6-10.42,10.1-.31,1.9,0,2.84,1.9,2.2,39.88-12.8,83.73-20.7,123.49-23.6-.22,1.1-.45,2.21-.68,3.34-.32,1.89-.85,5.36-1.13,7.6a396.09,396.09,0,0,0-4.78,47.88,197,197,0,0,0,.66,26.25c-3.34,12-9.72,18.94-12.77,18.24-6.48-1.4-9-35.49-1.69-65.62.28-1.41-.28-2-1.69-1.68a9.84,9.84,0,0,0-6.48,5.35c-1.69-4-4.22-7.6-7.6-9.57-11.54-7.05-27.59,4.49-34.92,34.06-2.5,10.22-2.87,18.63-1.82,25.36-7.5,15.07-21.22,22.32-30.28,19.14-3.94-1.4-7.6-8.16-8.73-18.59,11.54-.84,25.62-9.86,29.57-26.46,2.81-12.12.56-22.25-8.44-28.73-11-7.89-26.76,3.93-32.11,34.35a56,56,0,0,0-.2,19.89c-5.63,13.93-12.51,18.84-16.41,17-10.71-4.78-5.36-44.48,4.22-65.33,2-4.5.84-8.44-3.38-13-1.41-1.41-3.11-1.69-4.22,0C178.6,146,168.46,153,159.46,152.43c0-13.52-1.41-23.93-5.08-25.92-3.38-2-10.14,3.11-10.7,16.35-.28,8.72,3.39,13.51,8.18,16-.91,14.78-4.44,29.74-5.57,43.61a54,54,0,0,0-16.35-10.91,90.38,90.38,0,0,0,4.11-23.81c.31-7-.32-11.37-2.2-13.56-1.27-1.59-2.21-1-2.53.62-6,37.21-23.13,59.34-43.82,66.32,5.85-13.21,15.12-22.9,26.16-24.49a88,88,0,0,0,4.5-8.18c-.14,0-.28,0-.41,0C92.14,187.7,76.83,203.41,69,220.55c-.42,1-.81,2-1.19,2.94h0a3.43,3.43,0,0,0-.12.33c-.51,1.29-1,2.6-1.45,3.91a.11.11,0,0,1,0,.05c-.48,1.39-.93,2.81-1.34,4.24,0,0,0,0,0,0h0a65,65,0,0,0-2.61,18.15,57.86,57.86,0,0,0,.49,7.15c0-.05,0-.09,0-.13.1,1.1.25,2.12.4,3.17.15.89.3,1.76.47,2.59h0c.35,1.84.74,3.61,1.21,5.28a.08.08,0,0,1,0,0h0c4.13,14.45,12.75,22,20.55,23,2.17.31,3.1-.62,1.54-3.41-9.24-16.56-10.07-37.71-5.34-55.5,18.88-2.13,35.94-12.72,45.22-32.74,7.57,4,14.82,11.65,21.11,22.14a13.94,13.94,0,0,0,1,1.75c13.25,23.16,21.89,59.27,19.45,100.91-3.1,50.49-28.2,86.42-60.41,86.42-35.93,0-57.3-38.72-56.37-91.07a203.26,203.26,0,0,1,9.3-56.91,70.21,70.21,0,0,1,0-25.69c-13.32,21.67-23,50.32-23.28,85.07-.62,64.44,39,98.51,74,97.27,26-.93,63.21-20.75,69.4-89.22,4.24-48.15-6.61-91-25.15-116.67-.07-16.69,2.54-36.94,3.21-52.79h2.26a34.19,34.19,0,0,0,15.48-3.38C164.52,193,170.43,218.88,187.05,224.52ZM265.89,182c3.38-20.83,15.21-37.73,20.84-36.32,4.23,1.13,7.32,8.73,6.77,21.4-1.41,31.54-13.53,49.56-20.56,48.16C267.88,214.1,262.24,204.53,265.89,182Zm-50.68,4.24c2-21.41,12.38-36.91,17.75-35.49,7,2,3.36,40.55-18,45.06A56.22,56.22,0,0,1,215.21,186.23ZM367,126.51c-3.66.57-6.76,5.08-7.32,9.3-.57,4.8,2.24,7.32,6.48,6.77,3.94-.57,7.6-4.8,7-10.14C372.63,128.21,369.53,126.24,367,126.51Zm-19.26,185c3.94-.56,7.6-4.79,7-10.15-.57-4.22-3.66-6.19-6.19-5.9-3.67.56-6.77,5.06-7.33,9.28C340.69,309.57,343.51,312.11,347.73,311.54ZM450,211.86c7.57,9.15,18.61,12.61,29.34,12.61,25.86,0,53.61-18.91,63.08-48.88,2.52-8.52,2.21-18-1-21.44-1.57-1.9-2.2-1.27-2.51.62C535.79,192.62,514.33,216,486,216c-11,0-19.56-4.73-24.92-12.61,12.62-12.62,19.87-32.49,19.55-45.74-.31-11-4.4-21.14-14.19-21.14-14.19,0-26.17,20.19-26.17,43.54,0,11.67,2.52,20.81,6.62,27.44C448.07,209.39,448.76,210.09,450,211.86Zm17.36-68.44c3.46,0,5.66,6.31,6,15.76.31,13.88-6.32,29.66-14.82,39.44-2.86-6-4.11-13.25-4.11-21.45C454.41,160.13,462.61,143.42,467.35,143.42Zm250.13,188c-4-.61-11.25-.81-16.16,4.5v0c-12.59,13.24-25.53,21.37-39.52,24.84-21.85,5.52-41.47.1-58.78-4.69l-16.74-4.29-2-.42a87.54,87.54,0,0,0-3.83-10.56c-5.91-13.51-13.24-34.91-4.79-42.52,1.13-.84,2-2.25.57-3.66-2.82-3.1-7.33-5.07-11.84-.85-11.81,11-17.45,35.49-20.27,50.13-.27,1.46-1.4,5.42-2.26,8.87-.55,2-.74,3.31-1.3,4.93a25.92,25.92,0,0,0-1.27,6.13c-.47.73-.92,1.47-1.33,2.24,0,0-.33.65-.33.65a64.37,64.37,0,0,0-3.47,7.64l-.25.85c-.2.69-.36,1.34-.54,2-5.86,5.55-12,6.7-14.41,5.55C508.52,378,522,341.11,531.62,320c1.68-3.95.55-8.45-3.38-12.67a2.5,2.5,0,0,0-4.23,0c-5.92,7.33-16.06,14.64-25.34,13.8.28-13.23-.85-23.65-4.52-25.9-3.37-1.69-9.85,2.81-10.41,16.61-.28,8.73,3.38,13.51,8.45,16.05a139.76,139.76,0,0,1-6.48,31c-6.47,19.72-20.27,27.6-28.16,25.07-6.47-2-10.14-9.29-11-20,13.23-.84,25.62-8.73,29.85-26.47,2.82-12.12.28-22-8.73-28.73-10.69-7.88-26.76,3.94-31.82,34.36a71.45,71.45,0,0,0-1.06,13c-4.25,9.35-9.93,13.51-13.59,12.09-6.19-2.25-8.16-22.25-7.88-48.16.27-13.23,1.4-29.28,2.81-43.92,13.8,0,27.32.56,39.15,1.69a8.8,8.8,0,0,0,7.89-3.38c.56-.85.84-1.41-.29-1.69-12.11-2.54-29-3.67-45.91-3.67,1.13-10.14,2.54-19.14,3.67-25.62.28-1.41,0-1.7-1.13-1.41-3.09.57-5.35,2.82-6.47,6.47a200.51,200.51,0,0,0-4.8,20.28c-8.73,0-17.46.28-25.62.57,1.42-10.43,2.54-19.43,3.94-25.91.29-1.41-.27-1.7-1.4-1.41-3.11.57-5.08,3.38-6.2,6.47a199,199,0,0,0-5.07,21.13c-5.92.56-11,.85-15.2,1.4-4.8.57-7.32,4.51-8.45,7.33-.57,1.4,0,2,1.69,2,6.2-.84,13.23-2,20.28-2.54a373.3,373.3,0,0,0-4,44.5c-.24,13.73.1,24.83,1.89,33.35a2.24,2.24,0,0,0-.2.44c-3.09,18.3-12.1,30.13-17.17,28.45-5.92-2-9.86-34.64-3.11-67.88.29-1.13-.55-1.4-2-1.13a10.52,10.52,0,0,0-7.33,7.34c-2.53,7.57-4.76,21.3-4.5,34.78-3.07,6.4-7.76,8.5-13.24,7.46-4.22-10.7-9.86-20-15.76-26.48a20.7,20.7,0,0,0-6.76-5.35c1.69-29.57,7-72.1,14.64-100.26.56-2.25.56-2.25-1.41-2-3.09.56-6.19,3.37-8.73,11-8.73,27-15.21,77.16-16.33,111,0,.92-.05,1.87-.07,2.8-3.43,17.41-11.79,25.74-16.73,23.69-6.26-2.39-8.75-22-8.86-47.94-.09-14.37.59-31,1.87-46.82.08-.84.15-1.62.22-2.37,5.26-.55,10.46-1,15.61-1.34a9.09,9.09,0,0,0,7.62-4.69c.44-.92.38-1.47-.78-1.61-7.13-.15-14.48.13-21.83.69,1.05-10.75,2.14-20.17,3.28-26.85.24-1.7-.06-2.25-1.44-1.65a10.63,10.63,0,0,0-6,6.93c-1.44,5.55-3.05,13.33-4.66,22.4-4.92.53-9.82,1.17-14.62,1.89-3.55.71-5.66,1.18-8.85,1.73-5.28.93-10.25,1.92-14.93,3.1s-7.31,5-7.42,8.37c-.41,1.19,0,2.27,1.94,1.73a184.08,184.08,0,0,1,20.28-5.51,89.28,89.28,0,0,1,9.11-2.05c4.58-.79,9.05-1.44,13.49-2-.1.8-.2,1.59-.27,2.34a396.09,396.09,0,0,0-3.53,48,215.23,215.23,0,0,0,1,22.84c-2,13.1-6.82,22.68-10.48,22.77-10.12.27-9.76-39.46-6.62-70.25.24-1.42.22-2.54-2-1.92-4.76,1.26-7.52,3-8.46,10.09-.73,4.53-1.76,19.2-3,35.29-1.73,20.05-6.29,28.61-10.24,28.71-2.25.07-5.35-.41-7.79-6.83-5.71-14.22-4.39-49.75-1.21-68.14.23-2-.05-2-2-1.63-3.65.65-6.36,4.38-7.64,9.48-6.09,25.8-5.77,59.88,4.42,72,4.65,5.51,12,5.88,17.52,2.36,4.71-2.94,8.53-7.84,11.12-16.92,2.42,7,6.25,13.08,11.93,14.9,8.18,2.71,15.44-1.41,17.9-14,2.94,7.8,7.71,12.59,15.35,14.21,8.12,1.69,13.53-2.16,16.72-8.5.71,26.11,5,51.46,19.6,61.43,10.43,7,16.62,2,19.43-7.32,5.63-18.58,4.22-39.71-1.13-58a15.48,15.48,0,0,0,10.75-4.67c1.67,11,5.88,18.39,14.6,21.58,11.32,4,21.06-8.44,21.64-26.81,2.76,5.87,7,9.65,13.28,11.31,10.41,2.82,16.6-4.5,19.7-14.64,2.54,7.88,7.33,12.66,14.65,14.65s12.47-1.13,16-6.49c3.42,11.71,11.09,18.55,19.22,20.85,25.9,7.32,40.26-20,42.51-60.55a8.14,8.14,0,0,0,2.54.29,36,36,0,0,0,15.76-3.66c-12.1,35.48-14.92,58.56,1.41,64.2,10.14,3.46,24.28-1.67,28.39-21.31,9.73,16.72,24.18,17.63,33.95,8.64,4.18-4,6.93-10.4,5-21.16A135,135,0,0,1,600,360l3.46.9c20.06,5.29,42.78,11.29,66.48,4.64,24.49-6.9,42.91-22.24,47.79-33.17,0,0,.24-.78.29-.93C717.9,331.48,717.48,331.42,717.48,331.42ZM312,433.75c-9.28-5.62-12.38-42.24-12.38-78.29,4.78,8.46,10.41,13.81,16.05,16.62C323,400,319.29,438.26,312,433.75Zm90.4-111.51a190.91,190.91,0,0,0,.84,26.47c-3.94,14.64-11.83,21.12-16.33,19.43-6.2-2.53-7.89-22.25-7.61-48.15.29-13,1.41-28.45,2.54-42.81,8.16-.57,16.62-1.13,25.06-1.13A342.71,342.71,0,0,0,402.36,322.24Zm44.49,27.31c2-21.4,12.4-37.17,17.73-35.48,6.48,2,3.11,40.55-18.3,44.5C446.28,355.75,446.57,352.94,446.85,349.55Zm101.23,4.93c3.65-15.17,7.31-32.55,14.32-43.79-2.52,10.7,2.54,24.5,6.77,34.08.64,1.49,1.31,3,2,4.53A41,41,0,0,0,556,350.61,28.45,28.45,0,0,0,548.08,354.48Zm27.56,18.73c-3.74,4.22-14.49.81-22.87-10.65a28.41,28.41,0,0,1,12.17-5.51,40.29,40.29,0,0,1,8.92-1.22C576.75,363.24,578.47,370,575.64,373.21Zm-510.5-150c-30.72-4-49.61-39.78-48.73-89.82C17.67,60.87,59,9.78,82.64,8.84c26.17-1,37.22,50.78,28.07,87.68-.63,3.14,0,3.14,2.52,2.51,8.52-2.51,16.09-13.86,17-31.54C131.52,46.05,122.69-.63,82,0,45.11.63-.31,59.93,0,138.77c.28,56.12,30.37,86.59,62.26,92.84A70.62,70.62,0,0,1,65.14,223.23Z"/></g></g></g></svg>
