<svg xmlns="http://www.w3.org/2000/svg" viewBox="0 0 668 284.44"><defs><style>.cls-1{fill:#1a3135;}</style></defs><g id="Layer_2" data-name="Layer 2"><g id="Logos"><g id="dean-lawn"><path class="cls-1" d="M668,98.52a.52.52,0,0,0-.63-.26c-.48.16-1.93.46-2.26-.24s.59-2.49,1-3a.51.51,0,0,0,0-.66.5.5,0,0,0-.65-.07,95.64,95.64,0,0,1-9,5.15,15.27,15.27,0,0,1-3.51,1.34c-.47.07-.52,0-.61-.22-.17-.35,1.1-1.21,2-1.83,1.54-1,3.46-2.34,4.34-4.15a.49.49,0,0,0,0-.47.5.5,0,0,0-.38-.26c-.12,0-.69-.13-.66-.66a7.73,7.73,0,0,1,1.25-2.64c.9-1.5,1.83-3.06,1.67-4.37-.24-1.84-.14-2.35,1.43-3.63a.51.51,0,0,0,.14-.63.51.51,0,0,0-.58-.27,11,11,0,0,1-4.61.11,4.92,4.92,0,0,1-2.77-2,.51.51,0,0,0-.4-.25.5.5,0,0,0-.44.18,6,6,0,0,1-6.14,1.39,3,3,0,0,1-1.89-3.34.5.5,0,0,0-.43-.54.52.52,0,0,0-.58.38,10.46,10.46,0,0,1-1.56,3.24c-.29.4-.65.81-1,1.25-1.11,1.28-2.37,2.72-2.48,4.43-4.5,2-6,2.08-6.9,1.59A4.15,4.15,0,0,1,631,86.66a5.45,5.45,0,0,0-1.77-2,5.07,5.07,0,0,1-2.55-3.51.5.5,0,0,0-.51-.45h0a.51.51,0,0,0-.5.48c-.16,2.61-1.69,7.55-3.39,8.75a.9.9,0,0,1-.79.21.52.52,0,0,0-.54.16.54.54,0,0,0-.06.56A8.34,8.34,0,0,1,621,97.1a7,7,0,0,1-2.53,3.71c-1.17.55-3.09-1.11-3.73-1.79a.52.52,0,0,0-.87.5s1.91,6,2.71,8.56A17,17,0,0,0,618,111c1,1.86,2.13,3.78,1.29,4.67a.53.53,0,0,0,0,.67,15,15,0,0,1,1.52,2.46c-2.17,1.65-8.07,6-12.14,7.89-5.39,2.51-11.68,5-17.5,4.13a12.94,12.94,0,0,1-1.77-.41,3.07,3.07,0,0,0-2-.16c-.83.38-1.14,1.92-1.22,2.38a.51.51,0,0,0,.16.47.51.51,0,0,0,.35.13h.12a14.86,14.86,0,0,1,3.86-.24c2.16.09,8.71.37,18.77-4.32,1.21-.56,2.58-1.38,4.16-2.32a69.88,69.88,0,0,1,7.65-4.13.21.21,0,0,1,0,.06.5.5,0,0,0-.16.4l.27,4.86a7.77,7.77,0,0,1-1.4-.3,1.76,1.76,0,0,0-.36-.13.34.34,0,0,0-.42.23.36.36,0,0,0,.19.44l.36.14a2.68,2.68,0,0,1,1.47,2.26c.23,2.06-2,4.82-2.05,4.85a.35.35,0,0,0,0,.48.33.33,0,0,0,.24.1.36.36,0,0,0,.24-.09l2.66-2.42.07.3a.36.36,0,0,0,.23.25.35.35,0,0,0,.33-.05c.17-.12,16.57-12.4,21.95-16.55,4.76-3.66,17.35-13.62,21.54-16.93l1.44-.94A.52.52,0,0,0,668,98.52Zm-45.41,22.81s0,0,0,0v0c0-1.93-1.58-4.34-2.23-5.24.89-1.44-.28-3.52-1.41-5.53a15.6,15.6,0,0,1-1.35-2.74c-.53-1.69-1.53-4.85-2.16-6.82,1,.71,2.34,1.34,3.51.79s2.34-2.27,3.05-4.3a9.61,9.61,0,0,0,.18-6.34,2.35,2.35,0,0,0,.76-.36c1.59-1.13,2.94-4.64,3.52-7.46a6.78,6.78,0,0,0,2.33,2.25,4.63,4.63,0,0,1,1.41,1.67A4.92,4.92,0,0,0,631.77,89c1.47.78,3.51.36,8.1-1.69a.52.52,0,0,0,.31-.48c0-1.47,1.12-2.8,2.24-4.09.39-.45.76-.88,1.08-1.31a10.48,10.48,0,0,0,1-1.65,3.86,3.86,0,0,0,2.26,2.25,7.16,7.16,0,0,0,6.87-1.22,6,6,0,0,0,3,1.9,9.71,9.71,0,0,0,3.45.17c-.75,1-.79,1.83-.59,3.39.12,1-.76,2.42-1.53,3.71a7.94,7.94,0,0,0-1.4,3.13,1.53,1.53,0,0,0,.87,1.49,13.17,13.17,0,0,1-3.7,3.23c-1.57,1.06-2.93,2-2.39,3.12a1.41,1.41,0,0,0,1.69.81,16.06,16.06,0,0,0,3.79-1.43,78.3,78.3,0,0,0,7.42-4.17,3,3,0,0,0-.1,2.25,1.76,1.76,0,0,0,1.36,1c-4.19,2.64-5.33,2.6-5.56,2.55a.51.51,0,0,0-.89-.21c-5.14,6.12-8.15,6.82-9.2,6.84a.35.35,0,0,1-.27-.12c-.6-.65-.65-3-.54-4.27a.51.51,0,0,0-.43-.55c-3.14-.5-3.39-5.76-3.39-5.81a.52.52,0,0,0-.42-.49.51.51,0,0,0-.56.3c-.63,1.43-2.63,5.31-4.34,6.11a7,7,0,0,1-2.74.83h-.07a.52.52,0,0,0-.43.11.5.5,0,0,0-.19.4c0,.05,0,4.86-2.55,6.06-1.34.63-2.79-1.52-2.81-1.55a.52.52,0,0,0-.59-.2.53.53,0,0,0-.35.52c.05.71.11,1.44.17,2.16.47,6.13,1,12.46-2.4,14a12.81,12.81,0,0,1-5.66,1.31l-.26-4.61A2.31,2.31,0,0,0,622.54,121.33Z"/><path class="cls-1" d="M635.18,152.8c-19.72,0-101.88,42.06-111.73,42.06,9.2-30.89,39.43-66.05,39.43-71,0-6.57-12.16-14.79-24-14.79-10.19,0-49,35.49-76.9,67.7,20.05-38.78,32.54-44,32.54-49,0-9.53-14.14-18.73-26.3-18.73-5.18,0-23.88,25.35-34.05,56.9-6.5,5.47-30.1,23.62-35.28,27.89,9.2-30.56,39.1-65.4,39.1-70.33,0-6.57-12.16-14.46-23.66-14.46-2.63,0-7.56,4.93-12.81,12.82-2.63-6.25-7.56-12.82-16.11-12.82-33.62,0-65.2,34.21-75.23,64.83-14.57,12.34-34.41,27.56-54.25,23.9-14.13-2.63-7.56-21.69-3.28-28.59a16.63,16.63,0,0,0,14.79,8.87c24.31,0,44.69-31.55,44.69-44.36,0-16.76-10.85-23.66-23.66-23.66-23.34,0-71.32,38.78-71.32,78.54,0,20,11.84,35.16,29.91,35.16,21.65,0,44.07-15.31,59.83-30.66.23,17.47,11,30.66,25.94,30.66,11.17,0,29.25-23.33,42.39-42.39a80.61,80.61,0,0,0-2,17.09c0,20.05,7.23,25.3,10.52,25.3,7,0,32.3-22.63,44.89-34.34a109.27,109.27,0,0,0-1.19,15.61c0,8.55,2.63,20,12.49,20,2.63,0,3.62-.66,4.93-2.3,1.64-3.6,19.59-35.91,65.88-73.85-7.15,16.66-13,35.53-13,50.84,0,25.31,10.19,25.31,10.19,25.31,20.38,0,113.38-49.95,147.23-49.95,8.21,0-4.6,14.13,3.94,14.13C676.26,189.28,666.4,152.8,635.18,152.8ZM292.42,134.07c8.55,0-16.1,24.64-35.16,27.6C267.45,146.23,282.89,134.07,292.42,134.07Zm103.85-4.28c-1,1.32-48.64,63.1-56.86,63.1-13.14,0,25-64.74,53.57-64.74a17.27,17.27,0,0,1,4.27.33A4.35,4.35,0,0,1,396.27,129.79Z"/><path class="cls-1" d="M253.82,66.41c0-18-10.11-66.41-73.27-66.41C90.33,0,7.32,61.35,7.32,110.07c0,26.71,23.46,32.48,23.46,32.48A49.22,49.22,0,0,1,27.89,126c0-25.62,44.76-66.4,101.78-87C97.91,77.59,43.05,158.44,43.05,198.13c0,18.41,6.5,30,17.69,30,7.21,0,10.82-6.14,8.3-9-1.45-1.09-7.22,3.61-7.22-8.3,0-43,113.32-164.94,113.32-174,0-2.52-1.44-5.41-4-8.3a171.52,171.52,0,0,1,27.07-2.16c19.49,0,31,8.66,31,17.68,0,82.65-133.54,204.27-201,204.27C14.15,248.3,0,239.58,0,239.58c0,17,21.41,32.54,43.05,32.54C111.62,272.12,253.82,152.66,253.82,66.41Z"/><polygon class="cls-1" points="621.72 224.65 587.2 284.44 610.91 284.44 629.23 252.7 621.72 224.65"/><path class="cls-1" d="M535.44,255.25a4.16,4.16,0,0,0-2.56-.62h-2.07v6.08h2.07a4.09,4.09,0,0,0,2.56-.63,2.89,2.89,0,0,0,1.09-2.43A2.83,2.83,0,0,0,535.44,255.25Z"/><polygon class="cls-1" points="185.47 264.49 191.13 264.49 188.3 256.34 185.47 264.49"/><polygon class="cls-1" points="503.26 264.49 508.91 264.49 506.09 256.34 503.26 264.49"/><polygon class="cls-1" points="361.83 264.49 367.48 264.49 364.65 256.34 361.83 264.49"/><path class="cls-1" d="M422.78,254.92h-2.7V268.7h2.7a6.67,6.67,0,0,0,4.73-1.65,6.59,6.59,0,0,0,2-5.19,7,7,0,0,0-2-5.33A6.85,6.85,0,0,0,422.78,254.92Z"/><polygon class="cls-1" points="620.4 284.44 644.12 284.44 651.05 272.42 643.54 244.36 620.4 284.44"/><path class="cls-1" d="M596.81,210.27l-16.73,29H148.52l-26.09,45.19H577.71l26.62-46.11Zm-427,62.93H156.7V250.52H162V268.8h7.86Zm24.11,0-1.61-4.57h-8.09l-1.61,4.57h-5.53l8.55-22.72h5.52l8.55,22.72Zm35.35,0H224l-4.3-15.55-4.31,15.55H210l-6.57-22.68H209l3.95,15.28L217,250.52h5.33l4.11,15.28,3.91-15.28h5.56Zm35.62,0h-5.45l-10-15.38s.1,2.73.1,5.12V273.2h-5.19V250.52h5.69l9.73,15.25s-.1-2.56-.1-5V250.52h5.19Zm46.31,0h-6.05L303,270.77a10.58,10.58,0,0,1-7.26,2.83c-4.21,0-8-2.17-8-6.68,0-3.25,2.53-5.26,5.46-6.51a7.19,7.19,0,0,1-2.34-4.9c0-3.65,3.33-5.42,7-5.42s6.71,1.77,6.71,5.29c0,2.63-2.07,4.64-4.27,5.82l3,3.39a26.88,26.88,0,0,0,2.89-4.11l3.72,2a37.53,37.53,0,0,1-3.78,5.06l5.16,5.36Zm35,0H333.05V250.52h5.29V268.8h7.86Zm24.11,0-1.61-4.57h-8.09L359,273.2h-5.52L362,250.48h5.53l8.54,22.72Zm33.78,0h-5.46l-10-15.38s.09,2.73.09,5.12V273.2h-5.19V250.52h5.69L399,265.77s-.1-2.56-.1-5V250.52h5.2Zm27.14-2.69c-1.88,1.57-4.8,2.69-8.75,2.69h-7.69V250.52h7.69c3.95,0,6.87,1.12,8.75,2.73s3.68,4.2,3.68,8.61S433.14,268.9,431.23,270.51Zm25.89,1.21A9.59,9.59,0,0,1,451,273.6a12.3,12.3,0,0,1-8.05-3.42l2.63-3.88a9.35,9.35,0,0,0,5.92,2.86c1.71,0,3-.82,3-2.34s-1.67-2.13-2.66-2.49-2.7-1-3.45-1.29a8.88,8.88,0,0,1-2.7-1.64,5.62,5.62,0,0,1-1.77-4.37,6.42,6.42,0,0,1,2.36-5,9.33,9.33,0,0,1,6-1.81,11.16,11.16,0,0,1,7.2,2.8l-2.27,3.71a7.88,7.88,0,0,0-5.06-2.3c-1.71,0-3,.66-3,2s1.28,1.91,2.3,2.3,2.66,1,3.38,1.28a9.11,9.11,0,0,1,3.16,1.85,5.93,5.93,0,0,1,1.78,4.37A6.85,6.85,0,0,1,457.12,271.72Zm22.81,1.88c-6.68,0-11.9-4.41-11.9-11.71s5.29-11.7,11.9-11.7c4.67,0,7.2,1.94,7.79,2.56l-1.64,4.41a8.69,8.69,0,0,0-5.85-2.37c-3.85,0-6.81,2.57-6.81,7a6.57,6.57,0,0,0,6.81,7,8.33,8.33,0,0,0,6.11-2.4l1.77,4.15C487,271.69,484.56,273.6,479.93,273.6Zm31.81-.4-1.61-4.57H502l-1.61,4.57h-5.52l8.55-22.72H509l8.55,22.72Zm27.81-10.09a9.08,9.08,0,0,1-5.91,1.71h-2.8v8.38h-5.32V250.52h8.12a9.08,9.08,0,0,1,5.91,1.71,6.58,6.58,0,0,1,2.37,5.42A6.7,6.7,0,0,1,539.55,263.11Zm26.53,10.09h-15V250.52h14.7v4.24h-9.4v4.63h8.87v4.24h-8.87v5.27h9.7Z"/><path class="cls-1" d="M297.56,258.57c1-.62,2.5-1.58,2.5-3a1.89,1.89,0,0,0-2.14-1.94,2,2,0,0,0-2.2,2,3.37,3.37,0,0,0,1.09,2.14Z"/><path class="cls-1" d="M295.26,263.5c-1.05.6-2.4,1.52-2.4,3.26a3,3,0,0,0,3.19,2.92,5.8,5.8,0,0,0,4.08-1.9l-4.21-4.64Z"/></g></g></g></svg>