<svg xmlns="http://www.w3.org/2000/svg" viewBox="0 0 418 523.67"><defs><style>.cls-1,.cls-2{opacity:0.4;}.cls-2,.cls-3{fill:#05222E;}</style></defs><g id="Layer_2" data-name="Layer 2"><g id="Logos"><g id="green-suitcase-society"><g id="shade" class="cls-1"><path class="cls-2" d="M284,157.84H133.91a37.52,37.52,0,0,0-37.52,37.52V501.78L206.24,311.51a3.13,3.13,0,0,1,5.42,0L321.51,501.79V195.36A37.52,37.52,0,0,0,284,157.84Z"/><polygon class="cls-2" points="100 508.04 317.9 508.04 208.95 319.33 100 508.04"/><path class="cls-2" d="M406.42,147.33h0c0-.11-.06-.2-.08-.3s-.07-.24-.11-.36a2.68,2.68,0,0,0-.18-.33h0c-.05-.09-.09-.19-.15-.28a3.69,3.69,0,0,0-1-1l-.27-.15a2.18,2.18,0,0,0-.69-.28h0l-.3-.09a3.23,3.23,0,0,0-.69-.07H385.46a3.51,3.51,0,0,0,0,7h9.06L383,163.05a3.5,3.5,0,0,0,4.95,5l11.54-11.54v9.06a3.5,3.5,0,0,0,7,0V148A3.82,3.82,0,0,0,406.42,147.33Z"/><circle class="cls-2" cx="378.9" cy="172.1" r="3.07"/><circle class="cls-2" cx="14.48" cy="148.17" r="3.07"/><path class="cls-2" d="M38.57,151.24a3.51,3.51,0,0,0-3.51,3.5v9.06L23.52,152.26a3.5,3.5,0,0,0-4.95,5L30.1,168.76h-9a3.5,3.5,0,1,0,0,7H38.57a3.08,3.08,0,0,0,.68-.07h0a2.46,2.46,0,0,0,.29-.09,2.24,2.24,0,0,0,.37-.1l.32-.18h0l.28-.15a3.93,3.93,0,0,0,1-1,1.71,1.71,0,0,0,.14-.27,1.91,1.91,0,0,0,.29-.69h0a1.51,1.51,0,0,0,.1-.3,3.82,3.82,0,0,0,.07-.68V154.74A3.5,3.5,0,0,0,38.57,151.24Z"/></g><g id="color"><path class="cls-3" d="M284,142.2H268.36v-26L244.64,92.47H173.26l-23.72,23.72v26H133.91a53.22,53.22,0,0,0-53.16,53.16V523.67h256.4V195.36A53.22,53.22,0,0,0,284,142.2Zm-128.2-23.42,20.06-20h66.2l20.05,20V142.2H155.79Zm0,29.68H262.1V473l-50.44-87.38a3.13,3.13,0,0,0-5.42,0L155.79,473Zm104,333H158.08L209,393.39Zm71.07,35.93H87V195.36a47,47,0,0,1,46.91-46.9h15.63V483.78L134.63,509.6a3.13,3.13,0,0,0,5.42,3.13l14.42-25h109l14.42,25a3.13,3.13,0,0,0,2.71,1.56,3,3,0,0,0,1.56-.42,3.12,3.12,0,0,0,1.15-4.27l-14.91-25.82V148.46H284a47,47,0,0,1,46.9,46.9Z"/><path class="cls-3" d="M379.2,236.92c-1.8,0-7.13-.6-7.13-6.23,0-5.78,5.1-6.23,7.58-6.23h4.65v-7.58h-4.65c-7,0-15.23,2.7-15.23,13.81,0,9.3,5.93,13.88,14.78,13.88,10.51,0,13.73-6.53,16.36-13.13,2.18-5.63,4.95-7,7.43-7,1.58,0,7.43-.38,7.43,6.23,0,5.63-5.4,6.23-7.65,6.23H401v7.65h1.81c7.05,0,15.23-2.7,15.23-13.88,0-9.38-5.48-13.81-14.48-13.81-9.53,0-11.79,4.65-15.76,13.58C385.35,236.09,381.3,236.92,379.2,236.92Z"/><path class="cls-3" d="M402.77,260.79H379.65c-8.85,0-15.23,4.43-15.23,13.81s6.38,13.88,15.23,13.88h23.12c8.7,0,15.23-4.57,15.23-13.88S411.7,260.79,402.77,260.79Zm0,19.81H379.65c-2.18,0-7.5-.07-7.5-6s5.32-6,7.5-6h23.12c2.17,0,7.5.15,7.5,6S404.94,280.6,402.77,280.6Z"/><path class="cls-3" d="M402.77,304.7H379.65c-7,0-15.23,2.7-15.23,13.81,0,9.31,6.38,13.89,15.23,13.89H382v-7.88h-2.33c-2.18,0-7.5-.08-7.5-6s5.32-6,7.5-6h23.12c2.17,0,7.5.07,7.5,6s-5.33,6-7.5,6h-2.26v7.88h2.26c7.05,0,15.23-2.71,15.23-13.89C418,309.21,411.7,304.7,402.77,304.7Z"/><polygon class="cls-3" points="365.39 415.85 373.27 415.85 373.27 396.41 387.31 396.41 387.31 413.52 395.11 413.52 395.11 396.41 409.22 396.41 409.22 415.84 417.03 415.84 417.03 388.15 365.39 388.15 365.39 415.85"/><polygon class="cls-3" points="365.39 476.5 365.39 484.76 387.31 484.76 417.03 494.36 417.03 486.18 398.79 480.56 417.03 474.93 417.03 466.75 387.31 476.5 365.39 476.5"/><polygon class="cls-3" points="365.39 345.74 365.39 371.69 372.97 371.69 372.97 362.88 409.44 362.88 409.44 371.69 417.03 371.69 417.03 345.73 409.44 345.73 409.44 354.55 372.97 354.55 372.97 345.74 365.39 345.74"/><polygon class="cls-3" points="409 438.69 365.39 438.69 365.39 447.02 409 447.02 409 456.78 417.03 454.14 417.03 428.94 409 428.94 409 438.69"/><path class="cls-3" d="M74.18,103.07c-8.78-5.76-15.06-2.07-20.88,2-4.91,3.51-8,3.11-10,1.76-1.32-.87-6.42-3.77-2.79-9.29,3.09-4.7,7.93-2.24,9.81-1l1.51,1,4.2-6.4-1.51-1C48.59,86.28,40.26,84,34.13,93.39c-5.15,7.85-3,14.55,4.53,19.49,8,5.23,12.4,2.58,20.63-2.71,5.1-3.38,8.94-1.85,10.69-.7,1.51,1,5.64,4.42,2.55,9.12s-7.69,2.41-9.76,1l-3.89-2.55-4.16,6.34L58.61,126c5.84,3.83,14.22,6.1,20.32-3.19C84,115,81.59,107.93,74.18,103.07Z"/><path class="cls-3" d="M107.94,89.82c7.12-6.1,6.38-13.77.58-20.55L84.21,40.89l-6.1,5.22,24.31,28.38c1.41,1.66,4.67,5.69.39,9.35s-7.75-.18-9.17-1.83L69.33,53.63l-6.09,5.22,24.3,28.38C93.3,94,100.81,95.92,107.94,89.82Z"/><polygon class="cls-3" points="122.66 26.91 137.71 60.14 128.82 64.17 131.95 71.07 157.18 59.64 154.05 52.74 145.3 56.7 130.25 23.47 138.87 19.57 135.74 12.67 110.92 23.91 114.05 30.81 122.66 26.91"/><polygon class="cls-3" points="176.64 10.48 182.74 53.66 190.99 52.49 184.89 9.32 194.55 7.95 193.43 0 165.86 3.9 166.98 11.85 176.64 10.48"/><path class="cls-3" d="M230.92,54.05c9.22,1.3,14.64-4.38,15.89-13.14l.32-2.31-7.8-1.1L239,39.8c-.3,2.16-1.12,7.42-7,6.59s-5.2-6.12-4.9-8.27l3.24-22.89c.31-2.15,1.13-7.42,7-6.59s5.2,6.12,4.89,8.27l-.31,2.23,7.8,1.11L250,18c1-7-.53-15.46-11.61-17-9.21-1.31-14.55,4.3-15.81,13.15L219.38,37C218.41,43.94,219.93,52.49,230.92,54.05Z"/><path class="cls-3" d="M272.86,54l9.43,4.28-2.81,9.84,7.17,3.25L300.58,21,288.82,15.7,260.14,59.38l7.17,3.25Zm18.71-28.75L284.23,51.1,277,47.82Z"/><path class="cls-3" d="M310,89.81c7.06,6,14.39,4.53,20.15-2.19,6.84-8,4-14.67.68-21-2.86-5.31-2.07-8.3-.46-10.18,1-1.19,4.55-5.88,9.56-1.58,4.27,3.66,1.21,8.15-.25,9.86l-1.17,1.37,5.81,5,1.17-1.37c4.59-5.35,7.86-13.32-.63-20.6-7.12-6.1-14-4.82-19.9,2-6.21,7.24-4.14,12,0,20.81,2.71,5.48.7,9.09-.67,10.69-1.17,1.36-5.09,5-9.36,1.36s-1.41-7.93.2-9.81l3-3.53-5.75-4.93-3,3.53C304.84,74.56,301.51,82.58,310,89.81Z"/><polygon class="cls-3" points="364.42 119.86 370.95 115.58 361.56 101.27 373.36 93.53 384.02 109.78 390.55 105.5 375.35 82.35 332.19 110.67 347.38 133.83 353.97 129.5 343.31 113.25 355.04 105.55 364.42 119.86"/><path class="cls-3" d="M38.35,457H23v13.88H30.7v-6h7.65c2.18,0,7.58.07,7.58,6s-5.4,6-7.58,6H15.23c-2.25,0-7.65-.07-7.65-6s5.4-6,7.65-6h.9V457h-.9C8.18,457,0,459.2,0,470.83c0,9.31,6.3,13.81,15.23,13.81H38.35c7,0,15.23-2.7,15.23-13.81C53.58,461.52,47.28,457,38.35,457Z"/><path class="cls-3" d="M52.61,404.94v-8.4l-22.82,6.9c-2.47-4.43-7.35-6.9-14-6.9C8.33,396.54,1,401,1,411.55v12.68H52.61v-7.88H31.75c0-1.5-.08-3.15,0-5.18ZM24,416.35H8.56v-4.8c0-6.23,5.17-7.21,7.35-7.21,2.4,0,8.11.45,8.11,7.66Z"/><polygon class="cls-3" points="52.61 337.69 44.73 337.69 44.73 357.13 30.7 357.13 30.7 340.02 22.89 340.02 22.89 357.13 8.78 357.13 8.78 337.69 0.98 337.69 0.98 365.39 52.61 365.39 52.61 337.69"/><polygon class="cls-3" points="52.61 277.29 44.73 277.29 44.73 296.72 30.7 296.72 30.7 279.61 22.89 279.61 22.89 296.72 8.78 296.72 8.78 277.29 0.98 277.29 0.98 304.98 52.61 304.98 52.61 277.29"/><polygon class="cls-3" points="52.61 237.22 17.5 237.22 52.61 223.03 52.61 216.88 0.97 216.88 0.97 224.23 34.08 224.23 0.97 237.38 0.97 244.57 52.61 244.57 52.61 237.22"/></g></g></g></g></svg>
