<svg xmlns="http://www.w3.org/2000/svg" viewBox="0 0 818 209.76"><defs><style>.cls-1{fill:#05222E;}</style></defs><g id="Layer_2" data-name="Layer 2"><g id="Logos"><g id="harmony"><path class="cls-1" d="M140,160.15c4.39.34,4.85.8,4.85,7v7.7H127.32v-7.7c0-6.2.46-6.66,4.73-7v-1.61H115.54v1.61c4.85.34,5.31.8,5.31,7v20.1c0,6.2-.46,6.66-5.08,7v1.61h16.51v-1.61c-4.5-.34-5-.8-5-7v-9.76h17.54v9.76c0,6.2-.46,6.66-5.31,7v1.61h16.74v-1.61c-4.5-.34-5-.8-5-7v-20.1c0-6.2.46-6.66,5.08-7v-1.61H140Z"/><path class="cls-1" d="M183.6,178.46a8.62,8.62,0,0,0-8.61-8.21c-7.62,0-13,7.06-12.87,14.24.12,6.72,4.56,12.06,12.12,12.06,1.62,0,5.95-1.15,9.24-5.91l-.81-1a9.69,9.69,0,0,1-6.06,2.41c-4.33,0-8.89-3-8.78-10.22,6.3-.23,13.74-.8,14.55-.92C183.48,180.7,183.6,180.59,183.6,178.46Zm-6.88.92-8.6.12c.47-4.31,2.89-7,5.31-7s4.33,3,4.33,5.28C177.76,179,177.53,179.38,176.72,179.38Z"/><path class="cls-1" d="M212.86,192.7c-.81,0-1.62-.92-1.62-3.21V177.2c0-2-.23-3.9-2.42-5.57a8.51,8.51,0,0,0-5-1.38,26,26,0,0,0-9.64,4.19,3.68,3.68,0,0,0-1.78,2.64c0,1.38,1.67,2.53,2.94,2.53a1.73,1.73,0,0,0,1.84-1.26c.47-2.19,1-3.5,2-4.25a3.25,3.25,0,0,1,2.25-1c2.66,0,4.16,1.55,4.16,4.94v1.55c-1.85,1.15-6.47,2.81-9.3,4-3,1.27-4.33,3.22-4.33,6a7,7,0,0,0,7,7c1.16,0,4.27-2.18,6.7-3.62a4.34,4.34,0,0,0,4.1,3.62l5.94-3.1-.57-1.44A6.13,6.13,0,0,1,212.86,192.7Zm-7.27-1.83a6.8,6.8,0,0,1-3.87,1.83c-1.5,0-3.46-1.38-3.46-4.36,0-2.07.86-3.27,2.77-4.31,1-.57,3.34-1.72,4.56-2.3Z"/><path class="cls-1" d="M239.06,170.14c-2.83,0-5.13,3.61-6.52,5.8h-.17v-5.8a79.66,79.66,0,0,1-9.64,2.18v1.32c3.58.34,3.69.46,3.69,4v12.81c0,3.15-.34,3.5-3.75,3.84v1.61h14.26v-1.61c-4.22-.34-4.56-.69-4.56-3.84v-11.6c1.27-2.53,2.6-3.22,3.57-3.22a3.86,3.86,0,0,1,2.66,1.26,1.65,1.65,0,0,0,1.67.23,4.15,4.15,0,0,0,2.37-3.61A3.55,3.55,0,0,0,239.06,170.14Z"/><path class="cls-1" d="M260.13,160.49a3.72,3.72,0,1,0-7.44,0,3.72,3.72,0,0,0,7.44,0Z"/><path class="cls-1" d="M259.55,190.41V170.14a79.51,79.51,0,0,1-9.63,2.18v1.32c3.57.34,3.69.46,3.69,4v12.81c0,3.15-.23,3.5-3.93,3.84v1.61h13.86v-1.61C259.9,193.91,259.55,193.56,259.55,190.41Z"/><path class="cls-1" d="M296.55,190.52V177.83c0-4.36-2.77-7.58-7.44-7.58a8.93,8.93,0,0,0-5.08,1.84c-1,.69-2.2,1.44-3.35,2.12v-4.07a79.23,79.23,0,0,1-9.64,2.18v1.32c3.58.34,3.69.46,3.69,4v12.92c0,3.16-.34,3.39-4.09,3.73v1.61h13.27v-1.61c-2.88-.34-3.23-.57-3.23-3.73V176.45a8.73,8.73,0,0,1,5.25-2.35c3,0,4.68,1.89,4.68,5.34v11.08c0,3.16-.23,3.39-3.52,3.73v1.61H300v-1.61C296.78,193.91,296.55,193.68,296.55,190.52Z"/><path class="cls-1" d="M333.72,171.51l-.29-.45c-2.19.28-5.19.57-8,.68a11.94,11.94,0,0,0-5.83-1.49c-5,0-10.91,3.16-10.91,9.3,0,3.62,2.43,6.55,6.35,7.7a27.6,27.6,0,0,1-5.94,3.21,5,5,0,0,0,.69,2.65,8.28,8.28,0,0,0,4.44,3c-1.15.86-4.33,2.75-5,3.44a4.22,4.22,0,0,0-1.15,3.05c0,3.27,3.23,7.18,10.5,7.18,7.73,0,14.26-5.46,14.26-11.26,0-6.14-5.43-6.95-8.54-6.95-1.85,0-4.11.06-5.37.06-2.43,0-3.3-.74-3.3-1.78s1-1.72,2-2.18c.52,0,1,.06,1.5.06,5.19,0,10.56-3,10.56-8.9a6.76,6.76,0,0,0-1.62-4.48l3.06.17A10.14,10.14,0,0,0,333.72,171.51Zm-13.9,24.81a18.51,18.51,0,0,1,5.07.52,4.19,4.19,0,0,1,3.24,4.36c0,2.47-1.56,5.74-7.1,5.74-4.27,0-7.28-2.47-7.28-5.91a4.41,4.41,0,0,1,1.79-3.56A6.7,6.7,0,0,1,319.82,196.32Zm0-10.68c-2.95,0-4.85-2.93-4.85-7.18,0-4,2-6.14,4.09-6.14,3,0,4.74,3.5,4.74,7.06C323.8,183.86,321.72,185.64,319.82,185.64Z"/><path class="cls-1" d="M387.87,188.4c-2.2-5.75-4.73-12.86-7.33-19.87l-4-10.68-2.3.69L362.59,188.4c-2,5.16-2.66,5.39-6.24,5.85v1.61h12.81v-1.61l-1.61-.17c-2.54-.29-3-1-2-4.08.8-2.41,1.84-5.62,2.59-7.35h10.68c1.22,3,2.6,6.55,3.18,8.27.69,2.19.57,2.76-1.62,3.1l-1.61.23v1.61H394v-1.61C390.64,193.91,389.83,193.51,387.87,188.4ZM368.82,180l4.5-12.63h.17L378,180Z"/><path class="cls-1" d="M410.49,190.41V170.14a79.23,79.23,0,0,1-9.64,2.18v1.32c3.58.34,3.7.46,3.7,4v12.81c0,3.15-.23,3.5-3.93,3.84v1.61h13.86v-1.61C410.84,193.91,410.49,193.56,410.49,190.41Z"/><path class="cls-1" d="M411.07,160.49a3.73,3.73,0,1,0-7.45,0,3.73,3.73,0,0,0,7.45,0Z"/><path class="cls-1" d="M446.57,190V155.09c-3,.69-7.1,1.49-10,2v1.49c4,.23,4.09.34,4.09,3.62v8.38a27.83,27.83,0,0,0-2.82-.29c-8.95,0-15.42,6.26-15.42,13.9,0,8.44,6.59,12.4,11.61,12.4a5.31,5.31,0,0,0,2.48-.86l4.15-2.35v3.32a73.71,73.71,0,0,1,10.05-2.29v-1.61h-2.14C446.92,192.76,446.57,192.47,446.57,190Zm-5.95,1.37a7.49,7.49,0,0,1-4.32,1.44c-3,0-7.1-3-7.1-10,0-9,4.85-10.11,6.46-10.11a5.33,5.33,0,0,1,5,2.59Z"/><path class="cls-1" d="M498,194.42c-8.43,0-13.74-7.4-13.74-18.08,0-8.5,4.27-16.37,13.74-16.37,5.37,0,9,2,10.85,8.5l1.62-.23c-.35-3.33-.58-5.85-1-9.07A43,43,0,0,0,499,157.68c-12.93,0-22.28,8.1-22.28,20.15,0,9.07,6.12,18.89,21.24,18.89A47.23,47.23,0,0,0,508.85,195a87.21,87.21,0,0,0,2.89-9.53l-1.62-.35C507.12,191.21,504.23,194.42,498,194.42Z"/><path class="cls-1" d="M541.23,178.46a8.62,8.62,0,0,0-8.6-8.21c-7.62,0-13,7.06-12.87,14.24.11,6.72,4.56,12.06,12.12,12.06,1.62,0,6-1.15,9.24-5.91l-.81-1a9.69,9.69,0,0,1-6.06,2.41c-4.33,0-8.89-3-8.77-10.22,6.28-.23,13.73-.8,14.54-.92C541.12,180.7,541.23,180.59,541.23,178.46Zm-6.87.92-8.6.12c.46-4.31,2.89-7,5.31-7s4.33,3,4.33,5.28C535.4,179,535.17,179.38,534.36,179.38Z"/><path class="cls-1" d="M574.71,190.52V177.83c0-4.36-2.77-7.58-7.45-7.58a9,9,0,0,0-5.08,1.84c-1,.69-2.19,1.44-3.34,2.12v-4.07a79.66,79.66,0,0,1-9.64,2.18v1.32c3.57.34,3.69.46,3.69,4v12.92c0,3.16-.35,3.39-4.1,3.73v1.61h13.28v-1.61c-2.89-.34-3.23-.57-3.23-3.73V176.45a8.7,8.7,0,0,1,5.25-2.35c3,0,4.68,1.89,4.68,5.34v11.08c0,3.16-.23,3.39-3.53,3.73v1.61h12.93v-1.61C574.94,193.91,574.71,193.68,574.71,190.52Z"/><path class="cls-1" d="M598.72,193c-1.15,0-3.29-.75-3.29-5.22V173.58H601a1.84,1.84,0,0,0,.35-2.64h-6v-7.41l-.81-.45-5.13,4.42v3.44h-2.43l-1.84,1.84.34.8h3.93v16.14c0,4.76,2.13,6.83,6.46,6.83a4.06,4.06,0,0,0,1.9-.57l5.08-2.53-.68-1.44A7.88,7.88,0,0,1,598.72,193Z"/><path class="cls-1" d="M631.85,178.46a8.61,8.61,0,0,0-8.59-8.21c-7.63,0-13,7.06-12.88,14.24.11,6.72,4.56,12.06,12.12,12.06,1.62,0,6-1.15,9.24-5.91l-.81-1a9.69,9.69,0,0,1-6.06,2.41c-4.33,0-8.89-3-8.77-10.22,6.28-.23,13.73-.8,14.54-.92C631.74,180.7,631.85,180.59,631.85,178.46Zm-6.86.92-8.61.12c.46-4.31,2.89-7,5.32-7s4.33,3,4.33,5.28C626,179,625.8,179.38,625,179.38Z"/><path class="cls-1" d="M656.15,170.14c-2.82,0-5.13,3.61-6.52,5.8h-.17v-5.8a79.23,79.23,0,0,1-9.64,2.18v1.32c3.58.34,3.69.46,3.69,4v12.81c0,3.15-.35,3.5-3.75,3.84v1.61H654v-1.61c-4.21-.34-4.56-.69-4.56-3.84v-11.6c1.27-2.53,2.59-3.22,3.58-3.22a3.88,3.88,0,0,1,2.66,1.26,1.64,1.64,0,0,0,1.67.23,4.14,4.14,0,0,0,2.36-3.61A3.54,3.54,0,0,0,656.15,170.14Z"/><path class="cls-1" d="M671.05,187.13c-1.62,0-3.35,1.27-3.35,2.76,0,1.15.46,1.72.8,1.72,2.2.69,3.58,2.3,3.58,4.25,0,2.64-1.61,4.71-4.38,6.2l.8,1.49c4-1.37,8.55-4.59,8.55-9.41C677.05,190.12,673.82,187.13,671.05,187.13Z"/><path class="cls-1" d="M724.15,192.65c-.81.91-2.25,1.2-4.5,1.2a7.11,7.11,0,0,1-3.47-.57c-.8-.46-1.09-1.67-1.09-3.91v-12.8c0-4.25.34-4.48,4.21-4.71v-1.61H705.1v1.61c3.58.23,3.93.46,3.93,4.71v12.92c0,4.24-.3,4.53-4.21,4.76v1.61h21.81c.35-1.55,1.16-5.51,1.51-7.52l-1.74-.17A12.57,12.57,0,0,1,724.15,192.65Z"/><path class="cls-1" d="M755.6,192.65c-.8.91-2.24,1.2-4.49,1.2a7.11,7.11,0,0,1-3.47-.57c-.81-.46-1.09-1.67-1.09-3.91v-12.8c0-4.25.34-4.48,4.21-4.71v-1.61h-14.2v1.61c3.58.23,3.93.46,3.93,4.71v12.92c0,4.24-.3,4.53-4.22,4.76v1.61h21.82c.35-1.55,1.16-5.51,1.5-7.52l-1.73-.17A12.38,12.38,0,0,1,755.6,192.65Z"/><path class="cls-1" d="M784.12,194.48c-5.42,0-9.41-4.59-9.41-11.94,0-6.32,3.23-10.91,9.18-10.91,3.4,0,6.35,1.32,7.68,6.32l1.67-.18c-.41-2.87-.57-4.88-.75-7.06a34.76,34.76,0,0,0-8.31-1.15c-9.35,0-16.28,5.63-16.28,13.9,0,6.66,4.73,13.09,15.41,13.09a38.74,38.74,0,0,0,8.61-1.21,68,68,0,0,0,2.13-7.46l-1.68-.11C790.18,192.19,787.93,194.48,784.12,194.48Z"/><path class="cls-1" d="M602.92,92.86c0-28.39-20.58-50.61-52.43-50.61-23.45,0-52.66,16.94-52.66,53.91,0,23.77,18.59,49.52,52.88,49.52C576.59,145.68,602.92,127.41,602.92,92.86Zm-85.17-2c0-26.85,12.83-42,30.74-42,22.14,0,34.51,23.32,34.51,48.42,0,30.8-13.48,41.8-30.52,41.8C530.58,139.07,517.75,119.49,517.75,90.88Z"/><path class="cls-1" d="M779.08,44.89V50l6.42.88c6,.66,6.41,1.54,3.53,7.71-3.53,7.25-10.41,22-17.24,33.67-5.32-8.59-19.49-32.8-20.6-35-2.22-4.4-2-5.72,3.12-6.38l6.84-.88V44.89H680.5V50c11,.66,15.92,2.86,16.79,8.14.67,4.84,1.33,12.55,1.33,28.39v30.37h-.44l-65.7-72H605.26V50c15,1.11,18.59,4.4,18.59,22v29.49c0,15.85-.67,23.55-1.31,28.17-.91,5.28-5.55,7.92-14.84,8.37V143h42V138c-11.07-.67-15.93-3.09-16.6-8.37-.66-4.62-1.33-12.32-1.33-28.17V69.31H632l67.48,74.83h7.08V86.48c0-15.84.66-23.55,1.33-28.39.77-4.59,5.22-7.86,11.41-7.86,6.43,0,9.58,1.9,14.84,10.72,10.16,16.73,16.37,26.86,21,35,2.88,4.84,3.32,6.16,3.32,10.35V119.7c0,16.07-1.11,17.18-17,18.28V143h52V138c-16.39-1.1-17.72-2.21-17.72-18.28V103.86c0-3.29.24-4.83,3.55-10.78,7.3-12.76,13.93-23.33,19.92-31.92S806.06,51.06,818,50V44.89Z"/><path class="cls-1" d="M42.35,31.91V77.24C48.71,67.33,55,60.74,60.94,56.36V31.91c0-24,1.77-25.53,19-26.85V0H21.56V5.06C40.58,6.38,42.35,7.92,42.35,31.91Z"/><path class="cls-1" d="M460.61,61l.65,60.3c.22,15-.65,15.63-15.71,16.73V143h49.33V138c-15.92-1.1-16.59-1.77-16.8-16.73L477,66.67c-.21-15,.67-15.61,16.59-16.72V44.89H459.71L425,117.06l-35.4-72.17H358V50c15.71,1.11,16.59,1.31,15.71,19.8L371.89,101c-.89,16.94-1.55,23.53-2.65,28.16-1.16,5-5.34,8.49-9.23,8.49-4.76,0-8.42-3.49-10.56-5.63-3.76-3.52-7.74-8.36-13.05-15.84-4.64-6.6-11-15.85-13.39-20.46,12.38-4.41,21.45-12.11,21.45-25.54,0-9.68-4.64-16.5-10.84-20.24-6.42-3.74-15-5.06-25.21-5.06h-48V50c13.72,1.11,15.05,2,15.05,18.26V119.7c0,9.91-1.3,17.28-7.54,17.28-3.74,0-8.09-4.45-11.76-13.54l-33-81.19-5.54,1.32-32.74,77.24c-5.47,12.95-10.18,16.64-16,16.64-12.2,0-14.11-5.2-14.11-26.33V89.44c12-3.76,23.19-14,30.89-28.24l-7.3-6.14C170.72,67,163.17,73.68,154.81,76.2V31.91c0-24,1.77-25.53,20.34-26.85V0H116.76V5.06c17.7,1.32,19.48,2.86,19.48,26.85V75.82A97.54,97.54,0,0,1,119.5,69c-14.3-7.26-21.88-10.34-32.81-10.34-11.23,0-27.49,3.08-44.34,29.3V157.8a46.68,46.68,0,0,0-13.55,1.37C9.73,163.79-2.89,174.81.57,186.48,3.1,195,13.1,200.09,34.08,195c14.05-3.4,26.94-12,26.86-22.63V80.82c6.84-6.28,14-9.3,21.25-9.3,8.69,0,15.71,2.52,25,7,8.14,4,17.74,9.71,29.09,11.77v20.85c0,24-1.78,25.53-21.25,26.86V143H203.7V138l-5.08-.45c-6.42-.44-8.43-2.64-5.76-10.12.95-2.81,5.11-14.32,9.6-26.63h26.81l9.39,24c4.41,10.34,2.43,12.11-3.76,12.76l-4.21.45V143h77.49V138c-14.16-1.1-15.47-2.21-15.47-18.28V100.78h6.62c6.2,0,7.75.66,10.86,6,3.73,6.16,8.94,15.62,14.26,22.67,6,7.85,13.63,13.43,30.62,13.62v0h40.71V138c-10.84-.89-15-3.09-15.71-8.81-.43-4.63-.88-13.64-.21-28.83l1.33-35.43h.43l36.07,76.36h4L459.94,61ZM204.72,94.62C210.08,80,215.21,66,215.21,66h.43l11.19,28.61Zm113-3.53c-4.64,2.87-10.17,3.53-14.82,3.53H292.71V57.43c0-6.17.43-6.37,10.38-6.37,12.18,0,22.78,6.6,22.78,21.11C325.87,79,323.44,87.36,317.69,91.09Z"/></g></g></g></svg>
