<svg xmlns="http://www.w3.org/2000/svg" viewBox="0 0 468 412.3"><defs><style>.cls-1{fill:#05222E;}</style></defs><g id="Layer_2" data-name="Layer 2"><g id="Logos"><g id="kansas-dems"><path class="cls-1" d="M55.63,206.18C27.82,206.18,0,234,0,234H86a148.31,148.31,0,0,1,296.61,0H468c-3.25-3.13-29.08-27.29-55-27.47l-.15-1c26.33-8.73,44.09-43.57,44.09-43.57s-34.81-17.73-61.24-9.35c-.14-.29-.29-.6-.44-.89,22.34-16.44,28.46-55.06,28.46-55.06s-38.65-6.13-61.18,10.07l-.68-.7C378.08,83.52,372,44.82,372,44.82s-38.64,6.12-55.07,28.48l-.87-.45c8.47-26.43-9.31-61.34-9.31-61.34s-34.92,17.8-43.6,44.17l-.94-.16C262.08,27.74,234.34,0,234.34,0s-27.75,27.75-27.81,55.54l-.93.14C197,29.25,162,11.41,162,11.41s-17.83,35-9.28,61.44l-.83.41C135.5,50.77,96.67,44.62,96.67,44.62S90.51,83.48,106.86,106l0,0-.65.62,0,0c-22.5-16.35-61.36-10.2-61.36-10.2S51,135.25,73.48,151.6h0c-.14.27-.27.54-.41.8l-.06,0c-26.45-8.59-61.51,9.27-61.51,9.27s17.86,35,44.32,43.65h0c0,.29-.09.58-.13.88Z"/><path class="cls-1" d="M234,92.88A141.29,141.29,0,0,0,92.72,234H375.28A141.29,141.29,0,0,0,234,92.88Zm56.67,48.58,6.42-.27a1.46,1.46,0,0,0,1.19-.85l2.36-6.15c.18-.45.45-.45.63,0l2.37,6.15a1.45,1.45,0,0,0,1.18.85l6.42.27c.48,0,.58.29.21.6l-5,4.23a1.52,1.52,0,0,0-.44,1.4l1.61,6.1c.12.46-.11.63-.52.38l-5.41-3.34a1.55,1.55,0,0,0-1.48,0l-5.42,3.34c-.41.25-.64.08-.52-.38l1.61-6.1a1.52,1.52,0,0,0-.44-1.4l-5-4.23C290.1,141.75,290.19,141.48,290.67,141.46Zm-18.89-20.84,4.28-.18a1,1,0,0,0,.79-.56l1.58-4.11c.11-.29.3-.29.42,0l1.57,4.11a1,1,0,0,0,.79.56l4.29.18c.31,0,.38.19.14.4l-3.33,2.82a1,1,0,0,0-.3.94l1.08,4.06c.08.31-.08.43-.35.26l-3.61-2.23a1,1,0,0,0-1,0l-3.61,2.23c-.27.17-.43.05-.34-.26l1.07-4.06a1,1,0,0,0-.3-.94L271.64,121C271.4,120.81,271.46,120.63,271.78,120.62Zm-18.89-14,2.14-.1a.47.47,0,0,0,.4-.28l.79-2c0-.15.14-.15.2,0l.79,2a.47.47,0,0,0,.39.28l2.15.1c.16,0,.19.09.07.2l-1.67,1.4a.52.52,0,0,0-.14.47l.53,2c0,.16,0,.22-.17.13l-1.8-1.11a.55.55,0,0,0-.5,0l-1.8,1.11c-.14.09-.22,0-.18-.13l.54-2a.52.52,0,0,0-.15-.47l-1.66-1.4C252.7,106.69,252.73,106.6,252.89,106.6ZM246,141.46l6.42-.27a1.46,1.46,0,0,0,1.19-.85l2.37-6.15c.17-.45.45-.45.62,0l2.37,6.15a1.45,1.45,0,0,0,1.18.85l6.43.27c.48,0,.57.29.2.6l-5,4.23a1.52,1.52,0,0,0-.44,1.4l1.61,6.1c.13.46-.11.63-.52.38l-5.41-3.34a1.55,1.55,0,0,0-1.48,0l-5.42,3.34c-.4.25-.64.08-.52-.38l1.61-6.1a1.47,1.47,0,0,0-.44-1.4l-5-4.23C245.46,141.75,245.55,141.48,246,141.46Zm-18.89-20.84,4.28-.18a1,1,0,0,0,.79-.56l1.58-4.11c.12-.29.3-.29.42,0l1.57,4.11a1,1,0,0,0,.79.56l4.29.18c.32,0,.38.19.14.4l-3.33,2.82a1,1,0,0,0-.29.94l1.07,4.06c.08.31-.07.43-.35.26l-3.61-2.23a1,1,0,0,0-1,0l-3.61,2.23c-.28.17-.43.05-.35-.26l1.07-4.06a1,1,0,0,0-.29-.94L227,121C226.76,120.81,226.82,120.63,227.14,120.62Zm-18.89-14,2.14-.1a.47.47,0,0,0,.4-.28l.79-2c0-.15.15-.15.2,0l.79,2a.47.47,0,0,0,.4.28l2.14.1c.16,0,.19.09.07.2l-1.66,1.4a.5.5,0,0,0-.15.47l.53,2c0,.16,0,.22-.17.13l-1.8-1.11a.55.55,0,0,0-.5,0l-1.8,1.11c-.14.09-.21,0-.18-.13l.54-2a.5.5,0,0,0-.15-.47l-1.66-1.4C208.06,106.69,208.09,106.6,208.25,106.6Zm-6.86,34.86,6.43-.27a1.45,1.45,0,0,0,1.18-.85l2.37-6.15c.17-.45.45-.45.62,0l2.37,6.15a1.45,1.45,0,0,0,1.18.85l6.43.27c.48,0,.57.29.2.6l-5,4.23a1.5,1.5,0,0,0-.45,1.4l1.61,6.1c.13.46-.11.63-.51.38l-5.42-3.34a1.55,1.55,0,0,0-1.48,0l-5.42,3.34c-.4.25-.64.08-.51-.38l1.61-6.1a1.5,1.5,0,0,0-.45-1.4l-5-4.23C200.82,141.75,200.91,141.48,201.39,141.46ZM182.5,120.62l4.29-.18a1,1,0,0,0,.79-.56l1.57-4.11c.12-.29.31-.29.42,0l1.58,4.11a1,1,0,0,0,.79.56l4.28.18c.32,0,.38.19.14.4L193,123.84a1,1,0,0,0-.29.94l1.07,4.06c.08.31-.07.43-.35.26l-3.6-2.23a1,1,0,0,0-1,0l-3.61,2.23c-.27.17-.43.05-.35-.26l1.08-4.06a1,1,0,0,0-.3-.94L182.36,121C182.12,120.81,182.18,120.63,182.5,120.62Zm-25.75,20.84,6.43-.27a1.45,1.45,0,0,0,1.18-.85l2.37-6.15c.17-.45.45-.45.62,0l2.37,6.15a1.46,1.46,0,0,0,1.18.85l6.43.27c.48,0,.57.29.21.6l-5,4.23a1.5,1.5,0,0,0-.44,1.4l1.6,6.1c.13.46-.11.63-.51.38l-5.42-3.34a1.55,1.55,0,0,0-1.48,0l-5.41,3.34c-.41.25-.65.08-.52-.38l1.61-6.1a1.52,1.52,0,0,0-.44-1.4l-5-4.23C156.18,141.75,156.27,141.48,156.75,141.46Zm-16.17,63-8.25,7a2.5,2.5,0,0,0-.73,2.33l2.66,10.08c.21.76-.18,1.05-.86.63l-9-5.52a2.56,2.56,0,0,0-2.46,0L113,224.51c-.68.42-1.07.13-.86-.63l2.66-10.08a2.52,2.52,0,0,0-.73-2.33l-8.26-7c-.6-.51-.45-1,.35-1l10.63-.44a2.38,2.38,0,0,0,2-1.41l3.91-10.18c.29-.74.75-.74,1,0l3.91,10.18a2.38,2.38,0,0,0,2,1.41l10.63.44C141,203.51,141.19,204,140.58,204.46Zm3.15-22.86-7.21,4.46c-.55.34-.86.1-.7-.51l2.15-8.13a2,2,0,0,0-.59-1.87l-6.65-5.64c-.49-.42-.37-.78.27-.8l8.57-.36a1.93,1.93,0,0,0,1.58-1.14l3.15-8.2c.24-.59.61-.59.84,0l3.16,8.2a1.9,1.9,0,0,0,1.57,1.13l8.57.37c.64,0,.76.38.28.8l-6.65,5.64a2,2,0,0,0-.59,1.87l2.14,8.13c.17.61-.15.85-.69.51l-7.22-4.46A2.1,2.1,0,0,0,143.73,181.6Zm41.16,22.86-8.25,7a2.52,2.52,0,0,0-.73,2.33l2.66,10.08c.21.76-.18,1.05-.85.63l-9-5.52a2.54,2.54,0,0,0-2.45,0l-9,5.52c-.68.42-1.06.13-.86-.63l2.66-10.08a2.47,2.47,0,0,0-.73-2.33l-8.25-7c-.61-.51-.45-1,.34-1l10.63-.44a2.38,2.38,0,0,0,2-1.41L167,191.44c.29-.74.75-.74,1,0L172,201.62a2.38,2.38,0,0,0,2,1.41l10.63.44C185.35,203.51,185.5,204,184.89,204.46Zm3.48-22.86-7.22,4.46c-.54.34-.85.1-.69-.51l2.15-8.13a2,2,0,0,0-.59-1.87l-6.65-5.64c-.49-.42-.37-.78.27-.8l8.57-.36a1.93,1.93,0,0,0,1.58-1.14l3.15-8.2c.23-.59.61-.59.84,0l3.15,8.2a1.9,1.9,0,0,0,1.58,1.13l8.57.37c.64,0,.76.38.28.8l-6.66,5.64a2,2,0,0,0-.59,1.87l2.15,8.13c.17.61-.15.85-.69.51l-7.22-4.46A2.1,2.1,0,0,0,188.37,181.6Zm40.84,22.86-8.26,7a2.52,2.52,0,0,0-.73,2.33l2.67,10.08c.2.76-.19,1.05-.86.63l-9-5.52a2.54,2.54,0,0,0-2.45,0l-9,5.52c-.67.42-1.06.13-.86-.63l2.66-10.08a2.47,2.47,0,0,0-.73-2.33l-8.25-7c-.6-.51-.45-1,.34-1l10.63-.44a2.38,2.38,0,0,0,2-1.41l3.92-10.18c.28-.74.75-.74,1,0l3.92,10.18a2.35,2.35,0,0,0,2,1.41l10.63.44C229.66,203.51,229.81,204,229.21,204.46ZM233,181.6l-7.22,4.46c-.54.34-.85.1-.69-.51l2.15-8.13a2,2,0,0,0-.59-1.87L220,169.91c-.49-.42-.37-.78.27-.8l8.57-.36a1.93,1.93,0,0,0,1.58-1.14l3.15-8.2c.23-.59.61-.59.84,0l3.15,8.2a1.9,1.9,0,0,0,1.58,1.13l8.57.37c.64,0,.76.38.27.8l-6.65,5.64a2,2,0,0,0-.59,1.87l2.15,8.13c.16.61-.15.85-.69.51L235,181.6A2.1,2.1,0,0,0,233,181.6Zm40.51,22.86-8.25,7a2.47,2.47,0,0,0-.73,2.33l2.66,10.08c.2.76-.19,1.05-.86.63l-9-5.52a2.54,2.54,0,0,0-2.45,0l-9,5.52c-.67.42-1.06.13-.86-.63l2.67-10.08a2.52,2.52,0,0,0-.73-2.33l-8.26-7c-.6-.51-.45-1,.34-1l10.63-.44a2.35,2.35,0,0,0,2-1.41l3.92-10.18c.28-.74.75-.74,1,0l3.92,10.18a2.35,2.35,0,0,0,2,1.41l10.64.44C274,203.51,274.13,204,273.52,204.46Zm4.13-22.86-7.22,4.46c-.54.34-.86.1-.69-.51l2.14-8.13a2,2,0,0,0-.59-1.87l-6.65-5.64c-.48-.42-.36-.78.28-.8l8.57-.36a2,2,0,0,0,1.58-1.14l3.15-8.2c.23-.59.6-.59.83,0l3.16,8.2a1.9,1.9,0,0,0,1.58,1.13l8.57.37c.64,0,.76.38.27.8L286,175.55a2,2,0,0,0-.59,1.87l2.15,8.13c.16.61-.15.85-.7.51l-7.21-4.46A2.1,2.1,0,0,0,277.65,181.6Zm40.18,22.86-8.25,7a2.47,2.47,0,0,0-.73,2.33l2.66,10.08c.2.76-.18,1.05-.86.63l-9-5.52a2.54,2.54,0,0,0-2.45,0l-9,5.52c-.67.42-1.06.13-.85-.63l2.66-10.08a2.52,2.52,0,0,0-.73-2.33l-8.26-7c-.6-.51-.45-1,.34-1l10.64-.44a2.35,2.35,0,0,0,1.95-1.41L300,191.44c.28-.74.75-.74,1,0l3.91,10.18a2.37,2.37,0,0,0,2,1.41l10.63.44C318.28,203.51,318.44,204,317.83,204.46Zm4.46-22.86-7.22,4.46c-.55.34-.86.1-.69-.51l2.14-8.13a2,2,0,0,0-.59-1.87l-6.65-5.64c-.48-.42-.36-.78.28-.8l8.57-.36a1.93,1.93,0,0,0,1.57-1.14l3.16-8.2c.23-.59.6-.59.83,0l3.16,8.2a1.9,1.9,0,0,0,1.58,1.13l8.56.37c.64,0,.77.38.28.8l-6.65,5.64a2,2,0,0,0-.59,1.87l2.14,8.13c.17.61-.14.85-.69.51l-7.22-4.46A2.08,2.08,0,0,0,322.29,181.6Zm39.86,22.86-8.26,7a2.5,2.5,0,0,0-.73,2.33l2.66,10.08c.21.76-.18,1.05-.86.63L346,219a2.56,2.56,0,0,0-2.46,0l-8.95,5.52c-.68.42-1.07.13-.86-.63l2.66-10.08a2.52,2.52,0,0,0-.73-2.33l-8.26-7c-.6-.51-.45-1,.35-1l10.63-.44a2.38,2.38,0,0,0,2-1.41l3.91-10.18c.29-.74.75-.74,1,0l3.91,10.18a2.38,2.38,0,0,0,2,1.41l10.63.44C362.59,203.51,362.75,204,362.15,204.46Z"/><path class="cls-1" d="M99.33,245.21l-25,71.35L51.11,282.42l24.13-37.21H44.67L31.18,269.74c-1.53,2.74-3.27,5.48-3.88,8.62h-.62l.62-33.15H0v76.45H27.3l-.62-32h.62c.61,3.14,3.06,6,4.7,8.92l13.29,23.12h56.9l2.25-9.53H125.6l2.56,9.53H157.8l-27.5-76.45ZM109.45,294l5.11-23.32h1c.51,3.24,1,6.59,1.84,9.83L120.69,294Z"/><path class="cls-1" d="M240.34,245.21H213.56v22.91c0,6.49,1.22,13.08,2.35,19.47h-.82l-25.15-42.38H163.06v76.45h26.78V296.82a89.14,89.14,0,0,0-1.74-15.32h.82l24.64,40.16h26.78Z"/><path class="cls-1" d="M277.68,302.39c-6.44,0-12.47-3.14-17.48-7l-1.43-1.12-8.59,21.6a69.9,69.9,0,0,0,29.65,7c16.66,0,33.43-9,33.43-27.28,0-13-8.59-19.27-20.45-21.9l-6.34-1.42c-2.14-.51-5.62-.92-5.62-3.75,0-3.15,3.58-4.06,6-4.06,6,0,11.45,2.54,16.25,5.78l7.57-19.57A46.19,46.19,0,0,0,286.27,244c-16.77,0-33.43,10.14-33.43,28.29,0,12,9.2,18.35,20.14,20.28l5.62,1c2.56.51,6.24.81,6.24,4.26S280.44,302.39,277.68,302.39Z"/><path class="cls-1" d="M341.78,245.21,315,321.66h29.65l2.25-9.53h21.16l2.56,9.53h29.64l-27.5-76.45ZM351.9,294,357,270.66h1c.51,3.24,1,6.59,1.84,9.83L363.14,294Z"/><path class="cls-1" d="M447.55,273.7l-6.34-1.42c-2.14-.51-5.62-.92-5.62-3.75,0-3.15,3.58-4.06,6-4.06,6,0,11.44,2.54,16.25,5.78l7.56-19.57A46.17,46.17,0,0,0,441,244c-16.77,0-33.43,10.14-33.43,28.29,0,12,9.2,18.35,20.14,20.28l5.62,1c2.56.51,6.24.81,6.24,4.26s-4.4,4.56-7.16,4.56c-6.44,0-12.47-3.14-17.48-7l-1.43-1.12-8.59,21.6a69.93,69.93,0,0,0,29.65,7c16.66,0,33.43-9,33.43-27.28C468,282.62,459.41,276.33,447.55,273.7Z"/><path class="cls-1" d="M103.56,334.63H75v76.45h35.47c22.59,0,38.74-14.39,38.74-37.11C149.25,345.89,129.42,334.63,103.56,334.63Zm1.22,53.54h-1.73V358.56h1.73c10.23,0,16.46,4.56,16.46,15.31C121.24,383.91,114.09,388.17,104.78,388.17Z"/><polygon class="cls-1" points="186.24 382.69 207.81 382.69 207.81 362.82 186.24 362.82 186.24 355.52 209.85 355.52 209.85 334.63 158.02 334.63 158.02 411.08 210.67 411.08 210.67 390.2 186.24 390.2 186.24 382.69"/><path class="cls-1" d="M283.34,334.63l-8.69,30a86.77,86.77,0,0,0-1.94,10.14H272l-10.63-40.15H232.54l-12.48,76.45h27.1l3.27-32.65c.3-3,.51-6.18.71-9.22h.92a53.27,53.27,0,0,0,1.74,9.53l10,32.34h16.36l11.14-34.27a62.81,62.81,0,0,0,1.84-7.6h.51l3.78,41.87h27.09l-12.67-76.45Z"/><path class="cls-1" d="M372.52,363.12l-6.34-1.42c-2.15-.5-5.62-.91-5.62-3.75,0-3.14,3.57-4.05,6-4.05,6,0,11.45,2.53,16.25,5.77l7.57-19.57A46.2,46.2,0,0,0,366,333.41c-16.76,0-33.43,10.14-33.42,28.29,0,12,9.2,18.36,20.14,20.28l5.62,1c2.55.5,6.23.81,6.23,4.25s-4.39,4.57-7.15,4.57c-6.44,0-12.48-3.15-17.48-7l-1.43-1.11-8.59,21.59a69.89,69.89,0,0,0,29.64,7c16.67,0,33.43-9,33.43-27.27C393,372.05,384.38,365.76,372.52,363.12Z"/></g></g></g></svg>
