<svg xmlns="http://www.w3.org/2000/svg" viewBox="0 0 526.5 526.5"><g data-name="Layer 2"><path d="M233.26 388.09a3.22 3.22 0 103.22 3.22 3.22 3.22 0 00-3.22-3.22zM202 295.58h-2.55v7.74H202c2.51 0 4.08-.77 4.08-3.83s-1.55-3.91-4.08-3.91zM292.79 370.21a3.23 3.23 0 103.22 3.23 3.23 3.23 0 00-3.22-3.23zM194.37 475.87l.74-9.04-4.86 7.66 4.12 1.38zM227.63 406.98l6.03-6.87-13.16 1.15 7.13 5.72zM293.16 473.81l-2.61.37 1 6.89 2.61-.37c2.49-.35 3.17-1.49 2.83-3.9s-1.34-3.34-3.83-2.99z" fill="#05222E" /><path d="M263.25 0C117.86 0 0 117.86 0 263.25S117.86 526.5 263.25 526.5 526.5 408.64 526.5 263.25 408.64 0 263.25 0zm191.17 204.77c18.51 0 34.47 13.5 34.47 32.86s-16 33-34.47 33S420 257 420 237.63s15.91-32.86 34.42-32.86zM460 319.85h-6.21l-1.4-5.57h-7.49l-1.4 5.57h-6.21l8.46-29.32h5.78zm-42.68-29.32h15.47v5h-9.52v6.63h8.46v5h-8.46v7.65h9.52v5h-15.48zM416 230.74c0 9.25-4.06 16.62-11.61 20.77l11.42 18.23H397.2l-9-14.73h-6.42v14.73h-17.16v-64.22H389c17.27 0 27 10.96 27 25.22zm-23.14 64.84v-5.05h18.69v5.05h-6.37v24.27h-5.95v-24.27zm-14.44 6.59v5H370v7.65h9.52v5H364v-29.29h15.47v5H370v6.63zM359.84 87.82c.24 3.49.91 5.65 3.84 7.4 4 2.39 6.44.19 7.92-2.27 1.66-2.79 1.92-5.23-2.05-9.36s-5.58-8.82-2.39-14.17c2.67-4.47 7.73-7.12 13.63-3.6 4.14 2.47 5.72 5.75 5.47 10.4l-4.25.24c0-2.89-.41-5.23-3.48-7.06-2.74-1.64-5.48-.76-7.37 2.41-2.08 3.48-1.26 5.81 2 9.28 4.09 4.34 5.64 8.73 2.47 14-2.5 4.19-7.64 7.62-14.15 3.73-4.23-2.53-6.25-6.13-6.12-10.78zm-25.2-42.54l3.9 1.31-2 38.76-4.61-1.56.73-8.79-10.46-3.51-4.74 7.44-4.62-1.56zm-27.53 160.24h51.19V220h-17v49.77h-17.19V220h-17zm1.19 97.58v4.17c0 9.05-3.82 13-9.69 13s-9.69-3.91-9.69-13v-4.17c0-9.05 3.83-13 9.69-13s9.69 3.95 9.69 13zm-4.24 123a123.51 123.51 0 0 1-94.84-5.5c-.43-5.29-.79-11.37-.79-17.14 0-14.82 1.26-37 1.26-37h1.7l5.08 12.07a102.09 102.09 0 0 1 20.53-2.59l8.68-16.73H248c0 23.92 4.87 57.58 4.87 57.58 0-7.62 6.87-35 6.87-35a10.12 10.12 0 0 1-8.29 4.92l4.15-26.31a37.58 37.58 0 0 1 13.1-2.27c2 0 2.78 3.3 2.78 3.3s20.44-1.19 24.25 2.62 5.93 12.34 5.93 12.34c5.92 0 16.4 1.67 16.4 1.67a50 50 0 0 1-1.72 13.4 162.63 162.63 0 0 1-18.26 6.76s3.98 16.4 5.98 27.88zm-70.77-123.93v5h-8.45v7.65h9.52v5h-15.47v-29.29h15.47v5h-9.52v6.63zm14.8 5.4c-4.93-1.62-7.22-4.34-7.22-9.18 0-4.63 2.76-8.25 8.71-8.25 3.91 0 7 1.53 8.75 4.76L254 298c-1.19-1.75-2.46-2.85-4.21-2.85-2 0-3 1.23-3 3.23 0 2.29 1.27 3.23 4.37 4.25 5.27 1.7 7.48 3.86 7.48 9.05 0 4.8-3.06 8.54-8.71 8.54-4.38 0-7.39-1.4-9.69-4.8l4.46-3.15c1.36 1.7 2.64 2.94 4.81 2.94 2.38 0 3.18-1.49 3.18-3.28.03-2.03-.9-3.17-4.6-4.36zm17 12.28v-29.32h9.18c5.65 0 9.35 3.1 9.35 9.39s-3.65 9.6-9.35 9.6H271v10.33zm31.2-86.38v13.7H273v8.12h29.2v14.45h-46.37v-64.22h45V220H273v13.5zM287.81 56c-5.35-2.17-8.68-5.79-7.93-12 .62-5.16 4.16-9.65 11-8.83 4.79.58 7.56 2.93 9.22 7.28l-3.78 1.94c-1.15-2.65-2.5-4.61-6.05-5-3.17-.39-5.31 1.54-5.75 5.19-.49 4 1.21 5.82 5.62 7.66 5.5 2.3 8.7 5.68 8 11.81-.58 4.84-3.88 10.06-11.41 9.15-4.89-.59-8.19-3.06-10-7.36l4-2c1.64 3.09 3.13 4.79 6.51 5.2 4.63.56 6-2.44 6.31-5.29.32-3.29-.43-5.62-5.74-7.75zm-50.09-20.7l13.86 25.1-2.2-26.08 4.62-.42 3.14 37.25-4.32.36-13.65-24.83 2.17 25.8-4.64.39-3.14-37.25zm-10.87 124.62v-38.83h66.68l1.64 1.46 1.21.12.73.48v1.58l-1 .85-.25 1.21 1.09 1.82 1.34 1.57 1.33 1v28.94h-72.8zm-30.42-116l21.15 32.5-4.65 1.46-4.58-7.52-10.48 3.24.55 8.79-4.65 1.46-1.27-38.75zM209.8 231l19.88-25.46h17.19v64.22h-17.19v-38.17l-20 24.36h-.78l-20-24.36v38.15h-17.11v-64.22h17.66zm-31 83.85v5h-15.44v-29.32h5.95v24.3zM145.05 66.68l9.5 16.7 1.13-22.75 4.52-2.57-.76 17.62 21.11 13.78-4.76 2.7-17-11.43-.47 9.27 5.19 9.13-4 2.3L141 69zM124.3 204.77c13.88 0 22.38 5.85 27.76 13.78l-12.94 8.79c-2.45-3.78-6.42-7.65-14.54-7.65-9.44 0-15.2 7.84-15.2 17.94s6 18 15.77 18c8.31 0 12.37-3.78 15.11-8.88l13.22 8.5c-6.33 10.67-15.21 15.3-28.24 15.3-18 0-33.43-13.6-33.43-33a32.38 32.38 0 0 1 32.49-32.78zm-4 108.11h-3.74l-4.29-9v16h-5.95v-29.35H112l6.5 13.89 6.5-13.89h5.61v29.32h-6v-16zM37.61 205.52h17.18v26.63l19.84-26.63h18.6l-21.34 27.86 23.89 36.36h-20.3l-15.3-23.33c.09 0-3.59 4.44-5.39 6.61v16.72H37.61zm60.44 85v29.32h-6v-29.31zm-14.27 0v29.32h-5l-8.28-16v16h-6v-29.31h4.93l8.32 16.27v-16.27zm-31.13 23.76h-7.48l-1.4 5.57h-6.21L46 290.53h5.8l8.45 29.32h-6.2zm4.47 52a4.53 4.53 0 0 1 .27-4.89l2 1.24a2.49 2.49 0 0 0-.33 2.64c.92 1.81 2.5 2 6.78-.17l10.34-5.26 1.16 2.16L67 367.28c-5.49 2.78-8.37 1.97-9.88-1.01zm8.3 15.1c-1.83-3-.71-6.3 4.75-9.58l1.83-1.12c5.46-3.28 8.86-2.72 10.68.32s.72 6.31-4.75 9.58l-1.86 1.12c-5.43 3.3-8.83 2.71-10.65-.33zm11.38 16.88l7.43-5.26-3.39-4.81-7.43 5.24-1.42-2 16.12-11.37 1.42 2-6.87 4.84 3.4 4.82 6.86-4.85 1.42 2-16.12 11.4zm11.4 14.47l6.62-13.42L84.31 408l-1.57-1.89 15.17-12.6 1.41 1.69-6.67 13.57 10.62-8.77 1.57 1.89-15.17 12.6zm17.22 10.79c-1.85 1.78-4.94 2.82-7.73-.06a6.05 6.05 0 0 1-1.63-6.34l2.3.49c-.36 1.81-.31 3 .94 4.3 1.71 1.77 3.26 1 4.35-.06 1.23-1.2 1.7-2.4.25-5.06s-1.63-5.26.73-7.55c2-1.91 4.92-2.57 7.45.05a5.45 5.45 0 0 1 1.35 6l-2.2-.46c.41-1.47.51-2.73-.8-4.08s-2.69-1.14-4.09.21-1.44 2.79-.25 5c1.49 2.84 1.68 5.29-.67 7.56zm4.21 11.42c-2.64-2.36-2.55-5.81 1.7-10.56l1.45-1.62c4.25-4.75 7.66-5.22 10.3-2.86s2.55 5.81-1.7 10.56l-1.45 1.62c-4.24 4.75-7.66 5.22-10.3 2.86zm17.87 14.26l-1.81-1.39 3.48-14.54-8.31 10.84-2-1.5 12-15.65 1.75 1.34-3.46 14.7 8.41-10.95 1.94 1.5zm21.81 2.8a2.4 2.4 0 1 1-.78-3.3 2.41 2.41 0 0 1 .78 3.3zm.89-137.7h-7.47l-1.41 5.57h-6.2l8.46-29.32h5.77l8.46 29.32h-6.2zM167 470l-1 2-8.62-4.29 8.78-17.64 2.2 1.09-7.79 15.65zm15.61-.8l-6-2.49L174 473l6.63 2.76-.86 2.06-8.9-3.7 7.58-18.22 8.89 3.7-.86 2.06-6.62-2.75-2.37 5.7 6 2.49zm13.84 14.49l-2.43-.82.37-4.63-5.49-1.85-2.5 3.93-2.43-.82 11.47-16.94 2.06.69zm3.05-175.34v11.52h-5.95v-29.34h9.18c5.65 0 9.35 3 9.35 9 0 3.95-1.57 6.55-4.08 7.82l5 12.54h-6.25l-4.29-11.52zm6.36 177.87l-2.07-.55-.52-20.52 2.51.66.12 16 7.95-13.87 2.52.66zm23.68-12.87l-7-1.31-1.12 6.07 6.37 1.18-.4 2.19-6.38-1.18-1.32 6.7 7.05 1.3-.4 2.19-9.47-1.75 3.58-19.38 9.47 1.75zm13.78 19.3l-2.27-.25-4.56-14.25-1.49 13.56-2.44-.27 2.15-19.61 2.19.25 4.63 14.39 1.47-13.72 2.44.27zm21.11.84l-2.43-.05-3.12-14.51-3.65 14.38h-2.39l-3.4-19.78h2.55l2.28 15 3.51-14.85 2.4.05 3 15.05 2.82-14.99h2.54zm14.28-.34c-3.53.23-5.93-2.24-6.35-8.6l-.14-2.17c-.42-6.36 1.63-9.13 5.16-9.36s5.93 2.24 6.35 8.6l.15 2.17c.39 6.34-1.66 9.1-5.2 9.34zm20.49-2.48l-4.31-7.8-3 .42 1.17 8.25-2.44.34-2.76-19.54 5.05-.71c3.62-.52 6 1.05 6.54 4.85.39 2.75-.44 4.63-2.29 5.64l4.65 8.18zm12.79-2.4l-2.41.5-3.58-17.13-4.5.95-.46-2.18 11.39-2.41.46 2.18-4.53 1zm17.8-4.58l-2.51-8.73-5.66 1.62 2.52 8.73-2.37.68L316.3 467l2.36-.68 2.32 8.07 5.65-1.62-2.32-8.07 2.36-.68 5.45 18.98zm4.1-163.82h-5l-8.29-16v16h-5.94v-29.34h4.92l8.33 16.27v-16.27h5.95zM346 470.2a2.4 2.4 0 1 1 1.34-3.12 2.41 2.41 0 0 1-1.34 3.12zm-6.35-154.77l4.46-3.15c1.36 1.7 2.64 2.93 4.8 2.93 2.38 0 3.19-1.48 3.19-3.27 0-2-.93-3.18-4.63-4.37-4.93-1.62-7.22-4.34-7.22-9.18 0-4.63 2.76-8.25 8.71-8.25 3.91 0 7.05 1.53 8.75 4.76l-4.31 3.1c-1.19-1.75-2.47-2.85-4.21-2.85-2 0-3 1.23-3 3.23 0 2.29 1.28 3.23 4.38 4.25 5.27 1.7 7.48 3.86 7.48 9.05 0 4.8-3.06 8.54-8.71 8.54-4.4.01-7.42-1.39-9.71-4.79zM375 464.52l-9.85-11.12 3.85 14.33-2.11 1.14-12.63-15.57 2.24-1.21 9.33 11.91-4.23-14.67 2.12-1.13 10 11.65-4.85-14.43 2.24-1.21 6 19.15zm13-7.83l-4.64-7.07-10.11-6.85 2.34-1.53 7.17 5.21-1.88-8.67 2.34-1.53 2.2 12 4.64 7.08zm16.1-11.37l-3.6-2.95-4.65 3.48 1.81 4.29-2.06 1.54-7.42-19.1 1.75-1.3 16.23 12.5zM416.49 435L403 428.69l8.9 10.31-1.9 1.61-12.92-14.89 1.66-1.44 13.71 6.38-9.05-10.43 1.86-1.61 12.92 14.89zm10.68-10.19l-3.61 3.66-14-13.85 3.61-3.66c2.45-2.48 5.77-2.34 10.3 2.13l1.47 1.45c4.49 4.46 4.67 7.79 2.23 10.28zm11.58-12.31c-2.3 2.7-5.75 2.69-10.6-1.44l-1.65-1.41c-4.85-4.14-5.41-7.54-3.11-10.24s5.75-2.69 10.6 1.45l1.66 1.41c4.85 4.14 5.41 7.55 3.1 10.24zm9-11.66l-14.08-10.4-2.73 3.7-1.79-1.32 6.94-9.41 1.8 1.33-2.76 3.72 14.08 10.4zm8.75-12.57l-14.72-9.44-2.48 3.87-1.88-1.2 6.31-9.84 1.88 1.2-2.5 3.9 14.72 9.44zm6.38-10.27l-17.26-9.51 4.64-8.43 1.95 1.08-3.46 6.28 5.41 3 3.13-5.68 1.95 1.08-3.13 5.68 6 3.3 3.45-6.28 1.95 1.07zM483 319.85v-16l-4.29 9H475l-4.29-9v16h-5.95v-29.32h5.61l6.5 13.89 6.5-13.89h5.61v29.32z" fill="#05222E" /><path d="M143.92 309.27h5.09l-2.54-10.33-2.55 10.33zM310.36 378.62l3.52 5.95 3.54-4.96-7.06-.99zM46.36 309.27h5.1l-2.55-10.33-2.55 10.33zM277.63 299.92c0-2.81-1.23-4.34-4.42-4.34H271v8.93h2.21c3.19 0 4.42-1.45 4.42-4.59zM121.59 421.56c-1.74-1.56-3.65-.89-7 2.84l-1.43 1.6c-3.34 3.73-3.79 5.7-2 7.26s3.66.89 7-2.84l1.45-1.62c3.27-3.71 3.73-5.67 1.98-7.24zM80.81 372.15c-1.2-2-3.22-1.93-7.51.64l-1.86 1.11c-4.3 2.57-5.32 4.32-4.11 6.33s3.22 1.93 7.51-.64l1.87-1.12c4.29-2.57 5.29-4.31 4.1-6.32zM224 392.24a3.23 3.23 0 10-3.22 3.22 3.22 3.22 0 003.22-3.22zM281.25 481.76c-.33-5-1.41-6.69-3.75-6.54s-3.19 2-2.86 7l.14 2.17c.33 5 1.42 6.69 3.75 6.53s3.19-2 2.87-7zM294.87 303.1v4.17c0 5.86 1.19 7.94 3.74 7.94s3.74-2.08 3.74-7.94v-4.17c0-5.86-1.19-7.94-3.74-7.94s-3.74 2.08-3.74 7.94zM398.58 441.03l-7.02-5.75 3.54 8.35 3.48-2.6zM421.71 414.85c-3.48-3.43-5.4-3.92-7-2.31l-1.88 1.91 10.86 10.71 1.88-1.91c1.61-1.63 1.07-3.52-2.41-6.95zM334.06 53.43l-9.23 14.49 7.8 2.63 1.43-17.12zM434.05 404.15l-1.65-1.41c-3.81-3.25-5.79-3.66-7.31-1.87s-.8 3.67 3 6.92l1.65 1.41c3.81 3.24 5.79 3.65 7.31 1.87s.81-3.67-3-6.92zM205.75 66.7l-8.92-14.68 1.07 17.14 7.85-2.46zM446.09 309.26h5.1l-2.55-10.32-2.55 10.32zM398.71 230.74c0-6.24-2.83-10.68-10.58-10.68h-6.32v21.25h6.32c7.75 0 10.58-4.31 10.58-10.57zM448.91 255.65h11.02v-12.49h12.49v-11.01h-12.49v-12.49h-11.02v12.49h-12.48v11.01h12.48v12.49z" fill="#05222E" /></g></svg>
