<svg width="520" height="94" viewBox="0 0 520 94" fill="none" xmlns="http://www.w3.org/2000/svg">
<path d="M427.158 0.75818C427.644 0.272705 428.303 0 428.99 0C429.677 0 430.335 0.272705 430.821 0.75818L473.225 43.162L515.629 0.75818C516.119 0.294779 516.771 0.0408315 517.445 0.0503144C518.12 0.0597974 518.764 0.331963 519.241 0.808962C519.718 1.28596 519.99 1.93018 520 2.60469C520.009 3.2792 519.755 3.93082 519.292 4.42104L476.888 46.8249L519.292 89.2288C519.755 89.719 520.009 90.3706 520 91.0451C519.99 91.7196 519.718 92.3638 519.241 92.8408C518.764 93.3178 518.12 93.59 517.445 93.5995C516.771 93.609 516.119 93.355 515.629 92.8916L473.225 50.4878L430.821 92.8916C430.331 93.355 429.679 93.609 429.005 93.5995C428.33 93.59 427.686 93.3178 427.209 92.8408C426.732 92.3638 426.46 91.7196 426.451 91.0451C426.441 90.3706 426.695 89.719 427.158 89.2288L469.562 46.8249L427.158 4.42104C426.673 3.93518 426.4 3.27645 426.4 2.58961C426.4 1.90277 426.673 1.24404 427.158 0.75818Z" fill="#1a3135"/>
<path d="M333.485 1.2272C334.843 0.575755 336.317 0.201022 337.821 0.124802C339.34 0 341.212 0 343.479 0H402.998C404.434 0 405.598 1.16406 405.598 2.59999C405.598 4.03593 404.434 5.19998 402.998 5.19998H343.593C341.181 5.19998 339.527 5.19998 338.248 5.30398C337.286 5.29372 336.341 5.55702 335.523 6.06318C334.793 6.56397 334.162 7.19506 333.661 7.92478C333.155 8.74274 332.892 9.68771 332.902 10.6496C332.798 11.9288 332.798 13.5824 332.798 15.9952V19.2607C332.799 19.7892 332.934 20.3088 333.19 20.7709C333.447 21.2329 333.816 21.6223 334.265 21.9023L372.682 45.9159C372.833 46.0091 372.957 46.1393 373.043 46.294C373.129 46.4487 373.174 46.6228 373.174 46.7999C373.174 46.9769 373.129 47.151 373.043 47.3057C372.957 47.4604 372.833 47.5906 372.682 47.6839L334.265 71.687C333.816 71.9671 333.447 72.3564 333.19 72.8185C332.934 73.2805 332.799 73.8001 332.798 74.3286V77.6046C332.798 80.0174 332.798 81.671 332.902 82.9502C332.892 83.912 333.155 84.857 333.661 85.6749C334.162 86.4047 334.793 87.0358 335.523 87.5365C336.341 88.0427 337.286 88.306 338.248 88.2957C339.527 88.3997 341.181 88.3997 343.593 88.3997H402.998C404.434 88.3997 405.598 89.5638 405.598 90.9997C405.598 92.4357 404.434 93.5997 402.998 93.5997H343.479C341.212 93.5997 339.34 93.5997 337.821 93.4749C336.317 93.3987 334.843 93.024 333.485 92.3725C331.49 91.3346 329.863 89.7079 328.825 87.7133C328.174 86.3552 327.799 84.881 327.723 83.3766C327.598 81.879 327.598 79.9862 327.598 77.719V73.1846C327.598 72.1259 327.867 71.0845 328.38 70.1585C328.893 69.2324 329.633 68.4521 330.531 67.891L364.289 46.7999L330.531 25.7087C329.633 25.1476 328.893 24.3673 328.38 23.4413C327.867 22.5152 327.598 21.4738 327.598 20.4151V15.8808C327.598 13.6136 327.598 11.7416 327.723 10.2232C327.799 8.71877 328.174 7.24457 328.825 5.88639C329.863 3.89185 331.49 2.26513 333.485 1.2272Z" fill="#1a3135"/>
<path d="M305.571 5.88636C306.222 7.24456 306.597 8.7188 306.673 10.2232C306.798 11.7415 306.798 13.6136 306.798 15.8808V90.9997C306.798 92.4356 305.634 93.5997 304.198 93.5997C302.762 93.5997 301.598 92.4356 301.598 90.9997V15.9952C301.598 13.5824 301.598 11.9287 301.494 10.6496C301.504 9.6877 301.241 8.74273 300.735 7.92477C300.234 7.19505 299.603 6.56397 298.873 6.0632C298.055 5.55704 297.111 5.29374 296.149 5.30396C294.869 5.19999 293.216 5.19999 290.803 5.19999H287.537C287.009 5.20068 286.489 5.33563 286.027 5.59208C285.565 5.84859 285.176 6.21827 284.896 6.66635L260.882 45.0838C260.789 45.2343 260.659 45.3586 260.504 45.4447C260.35 45.5308 260.175 45.576 259.998 45.576C259.821 45.576 259.647 45.5308 259.492 45.4447C259.338 45.3586 259.208 45.2343 259.114 45.0838L235.111 6.66635C234.831 6.21827 234.442 5.84859 233.98 5.59208C233.518 5.33563 232.998 5.20068 232.47 5.19999H229.194C226.781 5.19999 225.127 5.19999 223.848 5.30396C222.886 5.29374 221.941 5.55704 221.123 6.0632C220.394 6.56397 219.762 7.19505 219.262 7.92477C218.756 8.74273 218.492 9.6877 218.502 10.6496C218.398 11.9287 218.398 13.5824 218.398 15.9952V90.9997C218.398 92.4356 217.234 93.5997 215.798 93.5997C214.363 93.5997 213.198 92.4356 213.198 90.9997V15.8808C213.198 13.6136 213.198 11.7415 213.323 10.2232C213.4 8.7188 213.774 7.24456 214.426 5.88636C215.464 3.89186 217.09 2.26515 219.085 1.22719C220.443 0.575731 221.917 0.20103 223.422 0.124795C224.919 4.02926e-07 226.812 4.03841e-07 229.079 4.03841e-07H233.614C234.672 -0.000380454 235.714 0.268632 236.64 0.781712C237.566 1.29479 238.346 2.03505 238.907 2.9328L259.998 36.6911L281.089 2.9328C281.651 2.03505 282.431 1.29479 283.357 0.781712C284.283 0.268632 285.324 -0.000380454 286.383 4.03841e-07H290.917C293.185 4.03841e-07 295.057 4.02926e-07 296.575 0.124795C298.079 0.20103 299.554 0.575731 300.912 1.22719C302.906 2.26515 304.533 3.89186 305.571 5.88636Z" fill="#1a3135"/>
<path d="M120.285 1.2272C121.643 0.575755 123.118 0.201022 124.622 0.124802C126.14 0 128.012 0 130.28 0H189.798C191.234 0 192.398 1.16406 192.398 2.59999C192.398 4.03593 191.234 5.19998 189.798 5.19998H130.394C127.981 5.19998 126.328 5.19998 125.048 5.30398C124.086 5.29372 123.142 5.55702 122.324 6.06318C121.594 6.56397 120.963 7.19506 120.462 7.92478C119.956 8.74274 119.693 9.68771 119.703 10.6496C119.599 11.9288 119.599 13.5824 119.599 15.9952V19.2607C119.599 19.7892 119.734 20.3088 119.991 20.7709C120.247 21.2329 120.617 21.6223 121.065 21.9023L159.483 45.9159C159.633 46.0091 159.757 46.1393 159.843 46.294C159.93 46.4487 159.975 46.6228 159.975 46.7999C159.975 46.9769 159.93 47.151 159.843 47.3057C159.757 47.4604 159.633 47.5906 159.483 47.6839L121.065 71.687C120.617 71.9671 120.247 72.3564 119.991 72.8185C119.734 73.2805 119.599 73.8001 119.599 74.3286V77.6046C119.599 80.0174 119.599 81.671 119.703 82.9502C119.693 83.912 119.956 84.857 120.462 85.6749C120.963 86.4047 121.594 87.0358 122.324 87.5365C123.142 88.0427 124.086 88.306 125.048 88.2957C126.328 88.3997 127.981 88.3997 130.394 88.3997H189.798C191.234 88.3997 192.398 89.5638 192.398 90.9997C192.398 92.4357 191.234 93.5997 189.798 93.5997H130.28C128.012 93.5997 126.14 93.5997 124.622 93.4749C123.118 93.3987 121.643 93.024 120.285 92.3725C118.291 91.3346 116.664 89.7079 115.626 87.7133C114.975 86.3552 114.6 84.881 114.524 83.3766C114.399 81.879 114.399 79.9862 114.399 77.719V73.1846C114.398 72.1259 114.667 71.0845 115.18 70.1585C115.694 69.2324 116.434 68.4521 117.332 67.891L151.09 46.7999L117.332 25.7087C116.434 25.1476 115.694 24.3673 115.18 23.4413C114.667 22.5152 114.398 21.4738 114.399 20.4151V15.8808C114.399 13.6136 114.399 11.7416 114.524 10.2232C114.6 8.71877 114.975 7.24457 115.626 5.88639C116.664 3.89185 118.291 2.26513 120.285 1.2272Z" fill="#1a3135"/>
<path d="M92.3725 5.88636C93.024 7.24456 93.3987 8.7188 93.4749 10.2232C93.5997 11.7415 93.5997 13.6136 93.5997 15.8808V90.9997C93.5997 92.4356 92.4357 93.5997 90.9997 93.5997C89.5638 93.5997 88.3997 92.4356 88.3997 90.9997V15.9952C88.3997 13.5824 88.3997 11.9287 88.2957 10.6496C88.306 9.6877 88.0427 8.74273 87.5365 7.92477C87.0358 7.19505 86.4047 6.56397 85.6749 6.0632C84.857 5.55704 83.912 5.29374 82.9502 5.30396C81.671 5.19999 80.0174 5.19999 77.6046 5.19999H74.339C73.8105 5.20068 73.2909 5.33563 72.8289 5.59208C72.3668 5.84859 71.9775 6.21827 71.6974 6.66635L47.6839 45.0838C47.5906 45.2343 47.4604 45.3586 47.3057 45.4447C47.151 45.5308 46.9769 45.576 46.7999 45.576C46.6228 45.576 46.4487 45.5308 46.294 45.4447C46.1393 45.3586 46.0091 45.2343 45.9159 45.0838L21.9127 6.66635C21.6327 6.21827 21.2433 5.84859 20.7813 5.59208C20.3192 5.33563 19.7996 5.20068 19.2711 5.19999H15.9952C13.5824 5.19999 11.9288 5.19999 10.6496 5.30396C9.68771 5.29374 8.74274 5.55704 7.92478 6.0632C7.19506 6.56397 6.56397 7.19505 6.06318 7.92477C5.55701 8.74273 5.29372 9.6877 5.30398 10.6496C5.19998 11.9287 5.19998 13.5824 5.19998 15.9952V90.9997C5.19998 92.4356 4.03593 93.5997 2.59999 93.5997C1.16406 93.5997 0 92.4356 0 90.9997V15.8808C0 13.6136 0 11.7415 0.1248 10.2232C0.201019 8.7188 0.575758 7.24456 1.2272 5.88636C2.26513 3.89186 3.89185 2.26515 5.88638 1.22719C7.24456 0.575731 8.71877 0.20103 10.2232 0.124795C11.7208 4.02926e-07 13.6136 4.03841e-07 15.8808 4.03841e-07H20.4151C21.4738 -0.000380454 22.5152 0.268632 23.4413 0.781712C24.3673 1.29479 25.1476 2.03505 25.7087 2.9328L46.7999 36.6911L67.891 2.9328C68.4521 2.03505 69.2324 1.29479 70.1585 0.781712C71.0845 0.268632 72.1259 -0.000380454 73.1846 4.03841e-07H77.719C79.9862 4.03841e-07 81.8582 4.02926e-07 83.3766 0.124795C84.881 0.20103 86.3552 0.575731 87.7133 1.22719C89.7079 2.26515 91.3346 3.89186 92.3725 5.88636Z" fill="#1a3135"/>
</svg>
