<svg xmlns="http://www.w3.org/2000/svg" viewBox="0 0 668 282.46"><defs><style>.cls-1{fill:#1a3135;}</style></defs><g id="Layer_2" data-name="Layer 2"><g id="Logos"><g id="mission-cup"><path class="cls-1" d="M362.77,172.84a9.47,9.47,0,0,0-5.84,1.91,10.47,10.47,0,0,0-3.64,5.21,32.24,32.24,0,0,0-1.44,6.57,72.27,72.27,0,0,0-.48,9.05q0,12.19,2.33,17.67a8.62,8.62,0,0,0,3.92,4.32,11.32,11.32,0,0,0,5.43,1.44,9,9,0,0,0,8.72-5.62q2.69-5.62,2.68-18.09,0-14-3.71-18.77A9.55,9.55,0,0,0,362.77,172.84Z"/><path class="cls-1" d="M389.17,97.51a84,84,0,0,0-8.51-.31A194.78,194.78,0,0,1,240.59,40.87h0A141.23,141.23,0,0,0,15.45,205.46l6.54-70h24.6L59.1,183.28c.45,1.74.84,3.27,1.16,4.6s.6,2.57.83,3.71.46,2.27.69,3.37.43,2.24.61,3.43q1.24-7.14,3.44-15.52l12.92-47.41h24.46l8.52,95.5H92.9l-3.57-51q-.28-4.53-.48-8.31T88.64,164q-.83,4.13-1.58,7.21c-.5,2.07-1.17,4.56-2,7.49L70,231H53.6L40,180.8c-.65-2.38-1.33-5.1-2.07-8.17s-1.32-6-1.78-8.73q0,4.26-.21,8.52t-.48,8.66l-3.3,49.85a141.26,141.26,0,0,0,172.52,36.48,194.78,194.78,0,0,1,149.78-10.28,82.44,82.44,0,0,0,91.86-26.21V185.31c0-4-.44-6.73-1.31-8.15s-2.5-2.13-4.88-2.13a14,14,0,0,0-6.18,1.72,29.11,29.11,0,0,0-6.6,4.59V231H408.94V180a60.2,60.2,0,0,0-.62-8.73,43,43,0,0,0-1.85-7.76l16.35-4.67a17.86,17.86,0,0,1,2.61,8.87c1.37-1,2.68-1.94,3.92-2.78a46.91,46.91,0,0,1,4.19-2.49,22.94,22.94,0,0,1,6.11-2.29,29.45,29.45,0,0,1,6.53-.76,20.17,20.17,0,0,1,10.58,2.81,14.21,14.21,0,0,1,6.32,7.36,22,22,0,0,1,1.09,4.88A82.34,82.34,0,0,0,389.17,97.51ZM146.63,231H128.21V161.84L146.63,159Zm-1.1-81.62a11,11,0,0,1-8.11,3.29,10.84,10.84,0,0,1-8-3.29,11,11,0,0,1-3.3-8.11,10.89,10.89,0,0,1,3.37-8.11,11.24,11.24,0,0,1,8.17-3.3,10.65,10.65,0,0,1,7.91,3.3,11.16,11.16,0,0,1,3.23,8.11A11,11,0,0,1,145.53,149.34ZM216,218.66a23,23,0,0,1-6.12,7.7,28.34,28.34,0,0,1-9.48,5,40.11,40.11,0,0,1-12.3,1.79q-12.92,0-28.44-8l6.6-13.41c1.37.83,3,1.72,4.87,2.68a56.48,56.48,0,0,0,5.91,2.61,51.21,51.21,0,0,0,6.32,1.93,27.62,27.62,0,0,0,6.26.75,9.93,9.93,0,0,0,6.66-2.27A7.17,7.17,0,0,0,199,211.7a6.62,6.62,0,0,0-2.61-5.57c-1.74-1.33-4.49-2.37-8.25-3.1l-8.24-1.52a24.47,24.47,0,0,1-7.28-2.75,19.41,19.41,0,0,1-5.64-4.41,16.5,16.5,0,0,1-3-5.78,23.83,23.83,0,0,1-1-6.89,22.52,22.52,0,0,1,1.92-9.36,20.35,20.35,0,0,1,5.5-7.3,25.48,25.48,0,0,1,8.59-4.69,35.67,35.67,0,0,1,11.2-1.65,42.79,42.79,0,0,1,14.42,2.13,109.53,109.53,0,0,1,10.72,4.47l-6,12.36a50.91,50.91,0,0,0-9.28-3.91,28.86,28.86,0,0,0-8-1.17,10.53,10.53,0,0,0-6.46,1.85,6,6,0,0,0-2.47,5,5.22,5.22,0,0,0,2,4.33,19.28,19.28,0,0,0,6.8,2.82l8.52,2.19a42.94,42.94,0,0,1,5.5,1.72,22.5,22.5,0,0,1,3.78,1.93,18.28,18.28,0,0,1,4.74,4.32,18.59,18.59,0,0,1,3.85,12A22.31,22.31,0,0,1,216,218.66Zm66.09,0a23,23,0,0,1-6.11,7.7,28.34,28.34,0,0,1-9.48,5,40.16,40.16,0,0,1-12.3,1.79q-12.91,0-28.45-8l6.6-13.41q2.06,1.25,4.88,2.68a55.57,55.57,0,0,0,5.91,2.61,50.69,50.69,0,0,0,6.32,1.93,27.54,27.54,0,0,0,6.25.75,9.91,9.91,0,0,0,6.66-2.27,7.17,7.17,0,0,0,2.68-5.72,6.62,6.62,0,0,0-2.61-5.57c-1.74-1.33-4.49-2.37-8.24-3.1L246,201.51a24.47,24.47,0,0,1-7.28-2.75,19.49,19.49,0,0,1-5.63-4.41,16.35,16.35,0,0,1-3-5.78,23.83,23.83,0,0,1-1-6.89,22.52,22.52,0,0,1,1.92-9.36,20.58,20.58,0,0,1,5.5-7.3,25.48,25.48,0,0,1,8.59-4.69,35.71,35.71,0,0,1,11.2-1.65,42.81,42.81,0,0,1,14.43,2.13,109.53,109.53,0,0,1,10.72,4.47l-6.05,12.36a50.62,50.62,0,0,0-9.28-3.91,28.84,28.84,0,0,0-8-1.17,10.53,10.53,0,0,0-6.46,1.85,6,6,0,0,0-2.48,5,5.23,5.23,0,0,0,2,4.33,19.11,19.11,0,0,0,6.8,2.82l8.52,2.19a42.23,42.23,0,0,1,5.49,1.72,22.12,22.12,0,0,1,3.78,1.93,18.2,18.2,0,0,1,2.68,2.06,19.41,19.41,0,0,1,2.06,2.26,18.53,18.53,0,0,1,3.85,12A22.17,22.17,0,0,1,282.11,218.66ZM316.46,231H298.05V161.84L316.46,159Zm-1.09-81.62a11,11,0,0,1-8.11,3.29,10.84,10.84,0,0,1-8-3.29,11,11,0,0,1-3.3-8.11,10.89,10.89,0,0,1,3.37-8.11,11.24,11.24,0,0,1,8.17-3.3,10.61,10.61,0,0,1,7.9,3.3,11.72,11.72,0,0,1-.06,16.22Zm77,61.74a33.89,33.89,0,0,1-6.66,11.66,29.33,29.33,0,0,1-9.48,7.13,32.17,32.17,0,0,1-13.74,2.6,31.62,31.62,0,0,1-13-2.6,28.51,28.51,0,0,1-10-7.34,33.5,33.5,0,0,1-6.39-11.45,46.63,46.63,0,0,1-2.27-15,47.2,47.2,0,0,1,2.27-15,34.9,34.9,0,0,1,6.39-11.66,27.69,27.69,0,0,1,10-7.48,31.62,31.62,0,0,1,13-2.6q15,0,23.91,10.56a31.4,31.4,0,0,1,6.18,11,48.86,48.86,0,0,1,1.92,14.68A49.73,49.73,0,0,1,392.38,211.08Z"/><path class="cls-1" d="M507.93,216.45q-5.28,4.62-10.12,4.62a8,8,0,0,1-6.59-3.19,13,13,0,0,1-2.15-5.22,45.31,45.31,0,0,1-.71-9q0-10,2.31-14.46a7.64,7.64,0,0,1,7.25-4.45,10,10,0,0,1,4.4,1.15,19,19,0,0,1,4.51,3.25l7.14-9.68c-1.24-1-2.21-1.79-2.91-2.3a25.54,25.54,0,0,0-2.58-1.65,21.49,21.49,0,0,0-5.17-1.87,25.36,25.36,0,0,0-5.72-.66,25.08,25.08,0,0,0-7.31,1.15,25.75,25.75,0,0,0-6.65,3,26,26,0,0,0-8.24,9.83q-3.3,6.44-3.3,16.22,0,13.74,6.43,21.38t18.08,7.64a29,29,0,0,0,7.42-.88,23.9,23.9,0,0,0,6.32-2.64,17,17,0,0,0,2.53-1.7c.66-.55,1.54-1.38,2.64-2.47l-6.7-8.91Z"/><path class="cls-1" d="M568.94,216.34v-43l-14.08,3V215.9a8.35,8.35,0,0,1-3.62,3.74,10.64,10.64,0,0,1-5.5,1.65,7.07,7.07,0,0,1-3.13-.72,4,4,0,0,1-2-1.92,13.53,13.53,0,0,1-.88-3.3,40.54,40.54,0,0,1-.33-5.94V173.25L524.85,176v36.05a64.28,64.28,0,0,0,.28,6.82,19.51,19.51,0,0,0,.93,4.4,12.16,12.16,0,0,0,6.05,6.59,21.55,21.55,0,0,0,10.55,2.53A24.33,24.33,0,0,0,551,231a18.35,18.35,0,0,0,6.54-4,12.41,12.41,0,0,0,4.4,5.5l10.44-5.94a13.72,13.72,0,0,1-2.52-4.67A17.61,17.61,0,0,1,568.94,216.34Z"/><path class="cls-1" d="M630,185.78a23.18,23.18,0,0,0-3.3-5.11,20.45,20.45,0,0,0-9.4-6.16,19.21,19.21,0,0,0-5.88-.93,22.43,22.43,0,0,0-8.14,1.48,13.3,13.3,0,0,0-5.71,3.79c-.08-.87-.19-1.72-.33-2.52s-.37-1.72-.66-2.75l-13.08,2.31c.22,1.17.38,2.23.49,3.18s.18,1.93.22,2.92.07,2.12.11,3.4.06,2.85.06,4.68v65.08l14.18-3.74v-20a10.57,10.57,0,0,0-.22-2.2,20.2,20.2,0,0,0,5.44,2.2,25.62,25.62,0,0,0,6.32.77,20.86,20.86,0,0,0,8.41-1.65,19.77,19.77,0,0,0,6.65-4.72,29,29,0,0,0,3.68-4.73,24.21,24.21,0,0,0,2.42-5.33,33.15,33.15,0,0,0,1.32-6.44,73.51,73.51,0,0,0,.38-8,44.72,44.72,0,0,0-.76-8.68A29,29,0,0,0,630,185.78Zm-15.39,30.67q-2.31,4.06-7.81,4.07a10.14,10.14,0,0,1-4.4-1.05,19.17,19.17,0,0,1-3.73-2.25V189.85a13,13,0,0,1,9.78-4.29q5.39,0,7,4.73a22.07,22.07,0,0,1,1.1,5.22c.21,2.09.33,4.49.33,7.2Q616.87,212.39,614.56,216.45Z"/><path class="cls-1" d="M653.5,203.46A14.51,14.51,0,1,0,668,218,14.51,14.51,0,0,0,653.5,203.46Zm11.24,20a1.3,1.3,0,0,0-.7.32,2.08,2.08,0,0,0-.49.68.94.94,0,0,1-.4.43,6.11,6.11,0,0,0-.74.32l-.09.07-.1.08a2.17,2.17,0,0,0-.45.55.88.88,0,0,1-.63.38h0c.1-.2.2-.39.29-.6s.21-.56.3-.84h.08a.54.54,0,0,1,.31.12.57.57,0,0,0,0-.13.57.57,0,0,0-.26-.43,9.89,9.89,0,0,0,.32-2.17.7.7,0,0,1,.4.2,1.16,1.16,0,0,0,0-.18.77.77,0,0,0-.35-.4,9.35,9.35,0,0,0-.28-2.27.6.6,0,0,1,.19-.06.8.8,0,0,1,.8.31,1.11,1.11,0,0,0-.13-.36.84.84,0,0,0-.89-.42.32.32,0,0,0-.09,0c-.09-.29-.19-.56-.3-.84a1.31,1.31,0,0,1,0-1.11,1.09,1.09,0,0,1,.55-.55.65.65,0,0,1,.29-.06.93.93,0,0,1,.47.13l.1.07a1,1,0,0,0-.29-.26,1,1,0,0,0-.46-.13.63.63,0,0,0-.27.06,1.05,1.05,0,0,0-.53.53,1.29,1.29,0,0,0-.07.9,9.76,9.76,0,0,0-2-2.69,9.58,9.58,0,0,0-6.93-2.8,9.33,9.33,0,0,0-4.23,1,.92.92,0,0,0-.76-.18,1.11,1.11,0,0,0-.55.25l.1,0,.2,0a1,1,0,0,1,.59.19,10.15,10.15,0,0,0-1.83,1.35l0-.06a.8.8,0,0,0-.86-.26.78.78,0,0,0-.36.19.85.85,0,0,1,.42.27.9.9,0,0,1,.23.48,9.35,9.35,0,0,0-1.18,1.59c0-.1,0-.19,0-.29a3.35,3.35,0,0,0-.11-.55,1.08,1.08,0,0,1-.06-.56c.06-.17.12-.35.17-.52.41-1.27,0-1.48.11-1.92,0,0,0-.05,0-.07l0-.06h0a2.47,2.47,0,0,0,.47-1.5c0-.14,0-.27,0-.4a.66.66,0,0,1,.19-.71,1.3,1.3,0,0,0,.15-.2,1.63,1.63,0,0,0,.25-.65,1.23,1.23,0,0,0,0-.33c0-.23.14-.33.55-.87a1.09,1.09,0,0,0,.08-.15.51.51,0,0,0,.09-.16,5.14,5.14,0,0,1,.38-.94,2.6,2.6,0,0,1,.38-.43,5,5,0,0,0,.42-.47,13.21,13.21,0,0,1,18.81,7.49v0l-.12-.14c-.06-.06-.12,0-.16,0a.2.2,0,0,0,0,.11,1.23,1.23,0,0,0,0,.19A2.55,2.55,0,0,0,666,215a.61.61,0,0,0,.07.14v0a2.68,2.68,0,0,1-.21-.93,1.23,1.23,0,0,1,0-.19.35.35,0,0,1,0-.11c0-.07.1-.09.16,0s0,0,0,0a13.72,13.72,0,0,1,.6,3.24.17.17,0,0,0,0,.07,4.31,4.31,0,0,0,0,.88l0,.18a13.5,13.5,0,0,1-.67,3.8.12.12,0,0,0-.13,0,1.39,1.39,0,0,0-.55.5,1.3,1.3,0,0,0-.19.42.57.57,0,0,1-.16.33A.6.6,0,0,1,664.74,223.49Zm.13.33a.62.62,0,0,1,0,.27c0,.1,0,.19-.09.29a2.13,2.13,0,0,1-.57.82.59.59,0,0,1-.27.17.21.21,0,0,1-.28-.16s0,0,0-.05a.22.22,0,0,0,.18,0,.74.74,0,0,0,.27-.16,2.26,2.26,0,0,0,.56-.83,1.4,1.4,0,0,0,.09-.29.55.55,0,0,0,0-.22A.21.21,0,0,1,664.87,223.82Zm-6.25,5.67a.18.18,0,0,1,.09.27.67.67,0,0,1-.14.15,1.24,1.24,0,0,1-.34.22,2.15,2.15,0,0,1-.7.24l-.25,0,.3-.18a2.34,2.34,0,0,0,.5-.19,1.24,1.24,0,0,0,.34-.22l.14-.15a.21.21,0,0,0,0-.15l0,0Zm-17.77-14c0,.1.11.12.23.05l.08-.06a1.43,1.43,0,0,1-.14.2.46.46,0,0,1-.1.1c-.11.07-.18,0-.23-.05a.45.45,0,0,1-.05-.19,2.08,2.08,0,0,1,0-.25,2.83,2.83,0,0,1,.24-.95,1.58,1.58,0,0,1,.15-.24l0-.05,0,.05a2.89,2.89,0,0,0-.24.95,2.08,2.08,0,0,0,0,.25A.32.32,0,0,0,640.85,215.51Zm1.53-3.54a.18.18,0,0,0,.18.12l.16,0a.56.56,0,0,0,.17-.09l.07-.06a2.4,2.4,0,0,1-.28.27.56.56,0,0,1-.17.09l-.16,0a.17.17,0,0,1-.17-.13.41.41,0,0,1,0-.16.73.73,0,0,1,0-.25,2.17,2.17,0,0,1,.62-1l0,0a2.17,2.17,0,0,0-.45.83.73.73,0,0,0,0,.25A1,1,0,0,0,642.38,212Zm.83-1.79.16-.05.13-.09.16-.13a2,2,0,0,1-.37.34l-.13.09-.16,0c-.08,0-.12,0-.12-.11a.65.65,0,0,1,0-.13.72.72,0,0,1,.09-.2,3.23,3.23,0,0,1,.62-.76,3.57,3.57,0,0,0-.41.55,1.24,1.24,0,0,0-.1.2l0,.13C643.09,210.14,643.13,210.19,643.21,210.18Zm2.15-2.43a2.21,2.21,0,0,1,.27-.12.44.44,0,0,1,.16,0,.15.15,0,0,1,.15.12,1,1,0,0,0-.25.11,2.78,2.78,0,0,0-.63.5,1.28,1.28,0,0,0-.26.38.44.44,0,0,0,0,.15.21.21,0,0,0,0,.08.4.4,0,0,1-.19,0,.14.14,0,0,1-.14-.18.88.88,0,0,1,.05-.15,1.42,1.42,0,0,1,.26-.38A3,3,0,0,1,645.36,207.75Zm-.29-.13c0-.05,0-.06,0-.08l.31-.23q.45-.33.93-.63l.14-.07s0,.06,0,.08l0,0c-.28.17-.55.35-.82.55l-.3.23s-.06,0,0,.07l-.1,0A.14.14,0,0,1,645.07,207.62Zm-.55,1.64a1,1,0,0,1,.3-.11.75.75,0,0,1,.15,0,.31.31,0,0,1,.23.15h0a.64.64,0,0,0-.3.11,1.92,1.92,0,0,0-.75.82.8.8,0,0,0-.09.3.55.55,0,0,0,0,.22l0,.07a.37.37,0,0,1-.18,0,.31.31,0,0,1-.22-.21.59.59,0,0,1,0-.23,1.4,1.4,0,0,1,.09-.29A1.9,1.9,0,0,1,644.52,209.26Zm-.72,2a.81.81,0,0,1,.29-.12h.15a1.42,1.42,0,0,0-.44.44,1.62,1.62,0,0,0-.27.71,1,1,0,0,0,0,.34.45.45,0,0,0,.41.34l-.05,0a1,1,0,0,1-.34.1.46.46,0,0,1-.48-.35.66.66,0,0,1,0-.34,1.63,1.63,0,0,1,.73-1.16Zm-1,10.09a1,1,0,0,0,0,.3,1.85,1.85,0,0,0,.07.41c0,.28,0,.55,0,.82a.7.7,0,0,1-.14-.16,1.7,1.7,0,0,1-.27-.82,1.63,1.63,0,0,1,0-.31.7.7,0,0,1,.14-.27.46.46,0,0,1,.23-.16A1.07,1.07,0,0,0,642.77,221.33Zm.12-.63a.94.94,0,0,1-.33-.3.83.83,0,0,1-.07-.13,1.5,1.5,0,0,1-.16-1,1.14,1.14,0,0,1,.17-.43.64.64,0,0,1,.33-.25l.07,0h0a1.1,1.1,0,0,0-.17.42,1.66,1.66,0,0,0,.16,1l.08.13h0C642.93,220.33,642.91,220.51,642.89,220.7Zm.28-5.57a.61.61,0,0,0,.42.37h0l-.15.06a.58.58,0,0,1-.72-.35,1.08,1.08,0,0,1-.08-.53,1.52,1.52,0,0,1,.39-1,1.33,1.33,0,0,1,.3-.23.6.6,0,0,1,.41-.06,1.27,1.27,0,0,0-.25.21,1.53,1.53,0,0,0-.4.95A1.08,1.08,0,0,0,643.17,215.13Zm-.32,1a.65.65,0,0,1,.36-.12,1,1,0,0,0-.2.25,1.49,1.49,0,0,0-.09,1.27.87.87,0,0,0,.22.34.59.59,0,0,0,.45.18s-.05.05-.08.06a.6.6,0,0,1-.82,0,1,1,0,0,1-.22-.34,1.49,1.49,0,0,1,.09-1.27A.85.85,0,0,1,642.85,216.08Zm-.65-3.4a.51.51,0,0,1,.18-.09h0a1.15,1.15,0,0,0-.21.23,1.94,1.94,0,0,0-.34.84,1,1,0,0,0,0,.38.57.57,0,0,0,.07.22.29.29,0,0,0,.32.14h0a.66.66,0,0,1-.24.11.3.3,0,0,1-.31-.14.57.57,0,0,1-.07-.22,1.21,1.21,0,0,1,0-.38,2.09,2.09,0,0,1,.35-.84A1.14,1.14,0,0,1,642.2,212.68Zm-.72,6.09a.71.71,0,0,0,.23.33.36.36,0,0,0,.31.07.43.43,0,0,1-.12.11.36.36,0,0,1-.43,0,.88.88,0,0,1-.24-.33,1.73,1.73,0,0,1-.11-.9,1.55,1.55,0,0,1,.13-.48.72.72,0,0,1,.18-.21.55.55,0,0,1,.15-.08.57.57,0,0,0-.08.13,1.34,1.34,0,0,0-.14.47A1.73,1.73,0,0,0,641.48,218.77Zm.45-1.93a.49.49,0,0,1-.17.06.31.31,0,0,1-.3-.09.64.64,0,0,1-.14-.22,1.33,1.33,0,0,1-.08-.45,1.92,1.92,0,0,1,.19-.85.93.93,0,0,1,.29-.36l.07,0-.12.19a2,2,0,0,0-.19.86,1.42,1.42,0,0,0,.08.45.6.6,0,0,0,.14.21.29.29,0,0,0,.3.1.29.29,0,0,0,.13,0A.72.72,0,0,1,641.93,216.84Zm-.16-4.77a3.32,3.32,0,0,0-.45,1,1.72,1.72,0,0,0,0,.24.25.25,0,0,0,0,.12c0,.05.06.07.1.05h.06l-.05.06-.14.13-.06,0a.08.08,0,0,1-.1-.05.69.69,0,0,1,0-.13,2,2,0,0,1,0-.24,3.86,3.86,0,0,1,.45-1,1.37,1.37,0,0,1,.16-.18l.06,0Zm-1.13,7.43a1.7,1.7,0,0,0,.1.32v0a.48.48,0,0,0,.15.22l0,0h0l-.06.09a.08.08,0,0,1-.12,0,.36.36,0,0,1-.12-.18v0c0-.1-.07-.2-.09-.3a2.74,2.74,0,0,1-.07-.85.9.9,0,0,1,.06-.27.36.36,0,0,1,.05-.09v0s0,.1,0,.16A2.91,2.91,0,0,0,640.64,219.5Zm.07-3.3.08,0v0a1.4,1.4,0,0,0-.13.36,2.92,2.92,0,0,0-.06.72,1.34,1.34,0,0,0,.08.48.34.34,0,0,0,.1.16.13.13,0,0,0,.12,0,.49.49,0,0,1-.13.12.12.12,0,0,1-.16,0,.38.38,0,0,1-.11-.16,1.85,1.85,0,0,1-.08-.47,3,3,0,0,1,.07-.73,1.2,1.2,0,0,1,.13-.36A.52.52,0,0,1,640.71,216.2Zm0,4.55h0a.29.29,0,0,1,0-.09s0,0,0,0h0a.62.62,0,0,0,0,.13,3.43,3.43,0,0,0,.27,1,2.15,2.15,0,0,0,.14.26h0l0,.07v0h0c0,.07,0,.1-.06.11h0s-.06,0-.09-.08h0c-.05-.08-.09-.16-.13-.24a3.65,3.65,0,0,1-.27-1Zm.5-.38a1.11,1.11,0,0,1,.06-.4.54.54,0,0,1,.1-.18.42.42,0,0,1,.14-.09l0,.06a1.11,1.11,0,0,0-.06.4,2,2,0,0,0,.17.8,1.49,1.49,0,0,0,.18.3.69.69,0,0,0,.23.19.29.29,0,0,0,.24,0,.35.35,0,0,1-.08.13.3.3,0,0,1-.37.07.57.57,0,0,1-.22-.19,1.17,1.17,0,0,1-.19-.3A2,2,0,0,1,641.18,220.37Zm.4,1.74a.1.1,0,0,1,0-.06v0a1.08,1.08,0,0,0,0,.35,2.18,2.18,0,0,0,.36.84,1.16,1.16,0,0,0,.22.26.66.66,0,0,0,.18.1l.06,0a.15.15,0,0,1-.14.1.15.15,0,0,1-.09,0l-.15-.09a.92.92,0,0,1-.2-.23,2.16,2.16,0,0,1-.34-.81.86.86,0,0,1,0-.31A.36.36,0,0,1,641.58,222.11Zm.46,2s0-.06.07,0h0a.65.65,0,0,0,0,.13c0,.09.07.18.11.27l0,.1h0a4.22,4.22,0,0,0,.43.6,1,1,0,0,0,.21.2.1.1,0,0,0,0,0h0a.37.37,0,0,1,0,.11s0,0,0,0h0l-.11-.06a1.88,1.88,0,0,1-.2-.19,3.3,3.3,0,0,1-.41-.58s0-.07,0-.11-.07-.17-.11-.25a1.16,1.16,0,0,1,0-.18A.28.28,0,0,1,642,224.1Zm.76.07a1.22,1.22,0,0,1,0-.33.39.39,0,0,1,.16-.28,9.45,9.45,0,0,0,.32,1.42l-.09-.09A2,2,0,0,1,642.8,224.17Zm.64,1.39s0,.05,0,.07l.07.21,0,.08h0c0,.07.1.14.15.21s.21.43.32.63a2.28,2.28,0,0,1-.32-.31,2.26,2.26,0,0,1-.26-.37l0-.08c0-.07,0-.14-.07-.2a.26.26,0,0,1,0-.15A.11.11,0,0,1,643.44,225.56Zm15.65,3.77a.52.52,0,0,0,.25,0,2,2,0,0,0,.54-.2,2.49,2.49,0,0,0,.48-.33,1,1,0,0,0,.21-.24.61.61,0,0,0,.07-.17s0,0,0,0h0a.17.17,0,0,1,.11.2.46.46,0,0,1-.07.16.75.75,0,0,1-.22.25,2.38,2.38,0,0,1-.47.33,1.93,1.93,0,0,1-.55.2.65.65,0,0,1-.24,0,.19.19,0,0,1-.17-.16Zm1.24-1.23a.82.82,0,0,1-.27,0l-.09,0c0-.07.1-.15.16-.22h.07a1.54,1.54,0,0,0,.72-.39,1.3,1.3,0,0,0,.34-.43.62.62,0,0,0,.09-.3.4.4,0,0,0,0-.11.37.37,0,0,1,.13.33.62.62,0,0,1-.09.3,1.3,1.3,0,0,1-.34.43A1.71,1.71,0,0,1,660.33,228.1Zm.76.07h0a.36.36,0,0,0,.14,0l.23-.08a2.82,2.82,0,0,0,.85-.75,1.18,1.18,0,0,0,.11-.19.2.2,0,0,0,0-.11,0,0,0,0,0,0,0,.15.15,0,0,1,.13.2.36.36,0,0,1,0,.11,1.74,1.74,0,0,1-.1.19,2.94,2.94,0,0,1-.85.75l-.24.08a.32.32,0,0,1-.14,0,.15.15,0,0,1-.15-.16Zm1.47-1.51-.08,0h0l-.22.08a.49.49,0,0,1-.17,0,.3.3,0,0,1-.29-.24.22.22,0,0,1,0-.08.27.27,0,0,0,.22.1.47.47,0,0,0,.17,0l.22-.08h0l.08-.05a2,2,0,0,0,.69-.76c0-.09.07-.19.1-.28a1.1,1.1,0,0,0,0-.18.37.37,0,0,1,.05.11.57.57,0,0,1,0,.29,2.15,2.15,0,0,1-.1.27A2,2,0,0,1,662.56,226.66Zm4-12.84,0,.11Zm-.45-1.22,0,.05Zm-25.72,9.51,0-.11Zm-.35-1.34v0Zm.8,2.56,0,0Zm26.07-8.16v0Z"/><path class="cls-1" d="M645.53,212a1.09,1.09,0,0,0-.24.07l-.18.1a.77.77,0,0,1,.53.52,1.18,1.18,0,0,1,0,.56,1.42,1.42,0,0,1-.61.91.75.75,0,0,0,.21,0,.8.8,0,0,0,.43-.12,1.39,1.39,0,0,0,.72-1,1.14,1.14,0,0,0,0-.55A.74.74,0,0,0,645.53,212Z"/><path class="cls-1" d="M646.4,209.71a.86.86,0,0,0-.42,0l-.11,0h0a.58.58,0,0,1,.43.41.9.9,0,0,1,0,.28,1.13,1.13,0,0,1-.11.41,1.48,1.48,0,0,1-.65.68l-.15.07h.17a1.11,1.11,0,0,0,.47-.14,1.52,1.52,0,0,0,.65-.68,1.19,1.19,0,0,0,.11-.41.9.9,0,0,0,0-.28A.56.56,0,0,0,646.4,209.71Z"/><path class="cls-1" d="M663.46,222.86a.9.9,0,0,0-.33.09,1.54,1.54,0,0,0-.77,1.24.74.74,0,0,0,0,.33.46.46,0,0,0,.24.27v-.09a1.56,1.56,0,0,1,.76-1.24,1,1,0,0,1,.34-.09.54.54,0,0,1,.22,0,.78.78,0,0,0,0-.21A.45.45,0,0,0,663.46,222.86Z"/><path class="cls-1" d="M647.09,207.85a.33.33,0,0,0-.17,0,1,1,0,0,0-.24,0,.37.37,0,0,1,.26.35.81.81,0,0,1-.06.31,1.38,1.38,0,0,1-.35.48,1.34,1.34,0,0,1-.37.25,1.06,1.06,0,0,1-.33.14h0a.85.85,0,0,0,.32,0,1.15,1.15,0,0,0,.46-.16A1.45,1.45,0,0,0,647,209a1.38,1.38,0,0,0,.35-.48.66.66,0,0,0,.06-.31A.36.36,0,0,0,647.09,207.85Z"/><path class="cls-1" d="M665.44,222s0-.1,0-.15a1.27,1.27,0,0,0-.06-.18.29.29,0,0,0-.38-.17.82.82,0,0,0-.33.23,1.51,1.51,0,0,0-.29.45,1.71,1.71,0,0,0-.16.71.8.8,0,0,0,.1.38.3.3,0,0,0,.18.14h0a1.52,1.52,0,0,1,.16-.72,1.34,1.34,0,0,1,.29-.45.71.71,0,0,1,.33-.23A.5.5,0,0,1,665.44,222Z"/><path class="cls-1" d="M646.77,207.63a2.11,2.11,0,0,0,1-.52.82.82,0,0,0,.2-.26.58.58,0,0,0,.06-.17.18.18,0,0,0-.13-.2l-.14,0-.19,0h0a.17.17,0,0,1,.12.19.58.58,0,0,1-.06.17,1,1,0,0,1-.2.26,2.16,2.16,0,0,1-1,.52h0l.13,0A.86.86,0,0,0,646.77,207.63Z"/><path class="cls-1" d="M665.68,221.8l0,.07a.13.13,0,0,0,.19.06,2.3,2.3,0,0,1,.28-1.15.9.9,0,0,1,.15-.19l.06-.05a1.48,1.48,0,0,0,0-.21.28.28,0,0,0-.06-.18.13.13,0,0,0-.14,0,.34.34,0,0,0-.12.09.9.9,0,0,0-.15.19,2.16,2.16,0,0,0-.28,1.19A.65.65,0,0,0,665.68,221.8Z"/><path class="cls-1" d="M663.29,219.71a2.34,2.34,0,0,1,0-.26,1.49,1.49,0,0,1,.13-.75,1.11,1.11,0,0,1,.33-.41.63.63,0,0,1,.88.1l0,0a1.08,1.08,0,0,0-.22-.44.62.62,0,0,0-.87-.1,1,1,0,0,0-.33.42,1.49,1.49,0,0,0-.13.75,1.14,1.14,0,0,0,.14.5A.51.51,0,0,0,663.29,219.71Z"/><path class="cls-1" d="M665.2,216.63a.53.53,0,0,0-.2.16,1,1,0,0,0-.16.32,1.54,1.54,0,0,0-.07.64,1.48,1.48,0,0,0,.16.58l0,.08a.89.89,0,0,0,.19.2h0A1.47,1.47,0,0,1,665,218a1.54,1.54,0,0,1,.07-.64.81.81,0,0,1,.16-.32.58.58,0,0,1,.19-.16.32.32,0,0,1,.3,0,.05.05,0,0,1,0,0,.6.6,0,0,0-.09-.15.49.49,0,0,0-.19-.16A.33.33,0,0,0,665.2,216.63Z"/><path class="cls-1" d="M664.78,214.56a1,1,0,0,0-.06.35,1.67,1.67,0,0,0,.19.88,1.24,1.24,0,0,0,.2.29l.09.09v0a1.82,1.82,0,0,1-.2-.89,1.45,1.45,0,0,1,.07-.35.59.59,0,0,1,.12-.2.29.29,0,0,1,.36-.07.33.33,0,0,1,.1.06,1.37,1.37,0,0,0-.13-.2.66.66,0,0,0-.24-.2.3.3,0,0,0-.36.06A.57.57,0,0,0,664.78,214.56Z"/><path class="cls-1" d="M666.14,217.32l0,0a2.34,2.34,0,0,1-.09-.38,2.22,2.22,0,0,1,0-.68,1.21,1.21,0,0,1,0-.18l.05-.09a.15.15,0,0,1,.26,0l.06.08-.06-.16a.67.67,0,0,0-.11-.18c-.09-.1-.18-.09-.26,0a.36.36,0,0,0-.05.09,1.21,1.21,0,0,0,0,.18,2.15,2.15,0,0,0,0,.67A2.21,2.21,0,0,0,666.14,217.32Z"/><path class="cls-1" d="M664.31,220.72a.56.56,0,0,0-.66-.34.81.81,0,0,0-.3.13,1.48,1.48,0,0,0-.54,1.41.91.91,0,0,0,.12.31.44.44,0,0,0,.08.11,1.48,1.48,0,0,1,.54-1.4.83.83,0,0,1,.3-.14.59.59,0,0,1,.54.16A1.13,1.13,0,0,0,664.31,220.72Z"/><path class="cls-1" d="M665.77,219.57s0,0,0-.08a.73.73,0,0,0-.14-.31.37.37,0,0,0-.5-.07.65.65,0,0,0-.26.26,1.66,1.66,0,0,0-.22,1.25.87.87,0,0,0,.14.31,1.61,1.61,0,0,1,.24-1.17.73.73,0,0,1,.25-.27.37.37,0,0,1,.5.08Z"/><path class="cls-1" d="M666,219.61l.05.07s0,0,0-.06a2.08,2.08,0,0,1,.07-1,1.11,1.11,0,0,1,.12-.27.29.29,0,0,1,.13-.14.12.12,0,0,1,.17,0l0,0a1.46,1.46,0,0,0-.05-.2.31.31,0,0,0-.09-.14.14.14,0,0,0-.18,0,.29.29,0,0,0-.13.14,1.69,1.69,0,0,0-.12.27,2.21,2.21,0,0,0-.07,1A1.58,1.58,0,0,0,666,219.61Z"/><path class="cls-1" d="M648.79,208.46a.88.88,0,0,0-.33,0h-.05a.67.67,0,0,1,.41.68,1,1,0,0,1-.12.41,1.48,1.48,0,0,1-.75.64l-.07,0H648a1.43,1.43,0,0,0,.41-.09,1.36,1.36,0,0,0,.71-.62.85.85,0,0,0,.12-.37A.61.61,0,0,0,648.79,208.46Z"/><path class="cls-1" d="M649.36,206.77a.56.56,0,0,0-.15,0h0a.44.44,0,0,1,.1.48,1.2,1.2,0,0,1-.13.25,1.38,1.38,0,0,1-.4.35l-.08.05h0a1.55,1.55,0,0,1-.56.19h0l.19,0h.14a1.37,1.37,0,0,0,.56-.18l0,0,.08,0a1.23,1.23,0,0,0,.38-.33,1.27,1.27,0,0,0,.12-.23A.37.37,0,0,0,649.36,206.77Z"/><path class="cls-1" d="M664.77,213.46a2.37,2.37,0,0,1-.09-.36,1.29,1.29,0,0,1,0-.34.48.48,0,0,1,.08-.22.27.27,0,0,1,.3-.11.93.93,0,0,0-.14-.14.5.5,0,0,0-.17-.1h0a.14.14,0,0,0-.13.08.38.38,0,0,0-.06.17.86.86,0,0,0,0,.32A1.86,1.86,0,0,0,664.77,213.46Z"/><path class="cls-1" d="M649.85,205.61h-.11a.28.28,0,0,1,0,.18.69.69,0,0,1-.12.19,1.08,1.08,0,0,1-.28.23,2.21,2.21,0,0,1-.62.26h.11a2.06,2.06,0,0,0,.87-.3,1.11,1.11,0,0,0,.26-.2.51.51,0,0,0,.09-.16.1.1,0,0,0,0-.15Z"/><path class="cls-1" d="M652.1,205a0,0,0,0,1,0,0,.38.38,0,0,1-.09.12,1,1,0,0,1-.25.16,2.3,2.3,0,0,1-1,.19l-.24,0,.09,0a1.36,1.36,0,0,0,.33.06,2.34,2.34,0,0,0,1-.19.75.75,0,0,0,.23-.15.31.31,0,0,0,.07-.09.08.08,0,0,0,0-.11Z"/><path class="cls-1" d="M648.2,210.61l-.24,0h0l-.16,0a.84.84,0,0,1,.62.73,1.09,1.09,0,0,1,0,.44,1.39,1.39,0,0,1-.77.89h.14a1.32,1.32,0,0,0,1.06-.95.92.92,0,0,0,0-.4A.81.81,0,0,0,648.2,210.61Z"/><path class="cls-1" d="M663.41,217a1.46,1.46,0,0,1-.08-.9,1,1,0,0,1,.13-.34.87.87,0,0,1,.17-.21.59.59,0,0,1,.62-.09.47.47,0,0,1,.2.12.84.84,0,0,0-.38-.33.68.68,0,0,0-.23,0,.56.56,0,0,0-.35.14.67.67,0,0,0-.17.2,1.2,1.2,0,0,0-.13.33,1.45,1.45,0,0,0,.18,1.07A.21.21,0,0,0,663.41,217Z"/></g></g></g></svg>