<svg xmlns="http://www.w3.org/2000/svg" viewBox="0 0 668 358.38"><defs><style>.cls-1{fill:#060000;}</style></defs><g id="Layer_2" data-name="Layer 2"><g id="Logos"><g id="one-global-village"><path class="cls-1" d="M409.65,124.13q12,0,19-8.92t7-24.09q0-14-6.91-22.22t-18.61-8.21q-12.22,0-19.18,8.43t-7,23.25q0,14.63,6.91,23.2T409.65,124.13ZM396.53,73.72q4.73-6.61,13.29-6.61t13.3,6.47q4.63,6.48,4.64,18.43t-4.86,18.78a16.2,16.2,0,0,1-26.37.27q-4.74-6.65-4.73-18.78Q391.8,80.33,396.53,73.72Z"/><path class="cls-1" d="M447.46,102.09V112q-.09,5.18-2.82,5.17a11.84,11.84,0,0,1-2.41-.26,9.58,9.58,0,0,0-1.68-.27q-2.91,0-2.91,2.85,0,3,3.75,3c.36,0,1.84-.15,4.46-.45a45.88,45.88,0,0,1,5-.36,32.31,32.31,0,0,1,4.37.27c2.62.36,4.16.54,4.64.54q3.57,0,3.57-2.9c0-2-.92-3-2.77-3a8.71,8.71,0,0,0-2.05.31,8.52,8.52,0,0,1-2,.31,2,2,0,0,1-2-1.43,17.49,17.49,0,0,1-.54-5.35V98.61q0-8.39,2.13-11.87c2.08-3.39,5.48-5.08,10.23-5.08a11.32,11.32,0,0,1,6.66,2A8.64,8.64,0,0,1,476.64,89a32.09,32.09,0,0,1,.44,6.51v16.78q-.18,4.91-2.36,4.9a16.11,16.11,0,0,1-2.19-.35,8.44,8.44,0,0,0-1.63-.18c-2.07,0-3.1.92-3.1,2.76q0,3.13,3.57,3.13c.18,0,1.76-.18,4.73-.54a33.6,33.6,0,0,1,3.84-.18,42.9,42.9,0,0,1,5.35.36,37.45,37.45,0,0,0,4.11.36,3.91,3.91,0,0,0,2.59-.9,2.78,2.78,0,0,0,1.07-2.23,2.63,2.63,0,0,0-.85-2,2.86,2.86,0,0,0-2-.8,12.15,12.15,0,0,0-1.83.22,12.67,12.67,0,0,1-2.09.22c-1.31,0-2.12-1-2.41-3-.06-.47-.09-2-.09-4.55v-17a21.24,21.24,0,0,0-1.25-7.94,12.91,12.91,0,0,0-5.8-6.11A18,18,0,0,0,467.62,76a17.27,17.27,0,0,0-14.27,6.78V80.28c0-1.82-.87-2.73-2.59-2.73l-2.41.23a12.29,12.29,0,0,1-2.5.22l-3.3-.36a3.75,3.75,0,0,0-.89-.09q-4,0-4,3t3.27,2.85a11.15,11.15,0,0,0,1.87-.22,11.06,11.06,0,0,1,1.86-.22A2.13,2.13,0,0,1,446.69,84a11.5,11.5,0,0,1,.77,4.15v13.92Z"/><path class="cls-1" d="M514.18,123.69a21.49,21.49,0,0,0,13.39-4.51q5.88-4.5,5.89-10.31,0-3.39-3.3-3.39a2.78,2.78,0,0,0-2.95,2.14l-.8,2.59a9.85,9.85,0,0,1-4.24,5.45A13.31,13.31,0,0,1,505,113.34a16.07,16.07,0,0,1-4-11.16,1.29,1.29,0,0,1,.36-1,2.49,2.49,0,0,1,1.52-.32h28.38c1.42,0,2.29-.25,2.58-.75s.45-1.89.45-4.15a19.73,19.73,0,0,0-5.44-14.28A18.42,18.42,0,0,0,515,76a19.36,19.36,0,0,0-15.35,6.78q-5.89,6.78-5.89,17.67,0,10.62,5.53,16.91T514.18,123.69ZM506,85.54a13.45,13.45,0,0,1,9.1-3.61,11.62,11.62,0,0,1,8.39,3.48A11.08,11.08,0,0,1,527,93.62c0,.83-.62,1.24-1.87,1.24H503.83c-1.31,0-2-.41-2-1.24Q501.87,89.15,506,85.54Z"/><path class="cls-1" d="M409.56,204.31q9.18,0,14.36-4.64a28.86,28.86,0,0,0,3.22-3.84c-.06,1.31-.12,2.23-.18,2.77l-.18,2.14q0,3.12,3.12,3.12t3.21-3.63c0-.71-.06-1.68-.18-2.92s-.17-2.63-.17-4.17v-7.09q0-8.69,3.92-8.69h2.95a3.07,3.07,0,0,0,2.18-.89,2.83,2.83,0,0,0,.94-2.14q0-3-3.57-3a14.7,14.7,0,0,0-2.41.18,57,57,0,0,1-9.28.8,68.93,68.93,0,0,1-9-.78,19.4,19.4,0,0,0-2.59-.2q-3.66,0-3.66,3.13t4.29,3c.47,0,1.16,0,2.05-.09s1.57-.09,2.05-.09a4.58,4.58,0,0,1,3.62,1.21q1,1.22,1,4.26,0,7.44-3.75,11.47t-10.62,4a16.29,16.29,0,0,1-14-7q-5-7-5-19.36,0-11.7,4.89-18.39a15.83,15.83,0,0,1,13.53-6.69q6.85,0,10.9,3.57a12.3,12.3,0,0,1,4.05,9.73v2.68q0,4.36,3.12,4.37,3.31,0,3.31-4v-.8q-.36-5.53-.36-7.23a26.52,26.52,0,0,1,.29-4l.68-4.29a12.33,12.33,0,0,0,.1-1.87q0-3.84-3.21-3.84a2.6,2.6,0,0,0-2.95,2.95c0,.12.06.77.18,2a10.85,10.85,0,0,0,.36,1.43,23.37,23.37,0,0,0-16.22-6.69q-12.19,0-19.4,8.83T384,173.35q0,13.83,7.05,22.39A22.84,22.84,0,0,0,409.56,204.31Z"/><path class="cls-1" d="M466.78,199.76c0-2-1-3-3-3a13.25,13.25,0,0,0-1.44.18,11.61,11.61,0,0,1-2.26.45q-2.34,0-2.43-4.54V165.1q0-12.57.63-19.42a8.47,8.47,0,0,0,.09-1.34c0-1.72-.69-2.58-2.06-2.58a20.83,20.83,0,0,0-2.67.26,19.91,19.91,0,0,1-2.68.27,19.7,19.7,0,0,1-2.41-.18l-2.14-.26a13.84,13.84,0,0,0-1.7-.09q-3.57,0-3.57,2.94c0,1.91,1,2.86,3,2.86a9.24,9.24,0,0,0,1.6-.18c1.37-.24,2.14-.36,2.32-.36a2.5,2.5,0,0,1,2.5,2.06,27,27,0,0,1,.27,3.58v29.82l-.09,6.27a38.21,38.21,0,0,1-.5,7.21,1.86,1.86,0,0,1-2,1.39,23.43,23.43,0,0,1-2.61-.5,3.53,3.53,0,0,1-.81-.13h-.64c-2,0-3.06.93-3.06,2.77q0,3.21,3.74,3.21h.44a39.14,39.14,0,0,0,4.18-.35,37.35,37.35,0,0,1,4.27-.36,44.71,44.71,0,0,1,4.8.36c2.08.23,3.59.35,4.54.35Q466.79,202.7,466.78,199.76Z"/><path class="cls-1" d="M473.1,162.68q-5.67,6.48-5.66,17.36t5.62,17.35q5.63,6.48,15,6.47,9.65,0,15.44-6.6t5.8-17.49q0-10.89-5.62-17.22t-15.35-6.34Q478.77,156.21,473.1,162.68Zm29,17.27q0,8.48-3.7,13.25A12.23,12.23,0,0,1,488.14,198a11.56,11.56,0,0,1-9.86-4.77q-3.52-4.77-3.53-13.16v-1.16q.36-8,3.93-12.41a12,12,0,0,1,9.82-4.37Q502.06,162.1,502.06,180Z"/><path class="cls-1" d="M549.57,197.13q5.56-6.74,5.57-18.07,0-10.35-5.28-16.6t-14.22-6.25a16.21,16.21,0,0,0-7.43,1.52A18,18,0,0,0,522.4,163q.09-10.12.89-17.5v-1.24c0-1.66-.66-2.49-2-2.49a21,21,0,0,0-2.68.26,19.8,19.8,0,0,1-2.77.27,19.4,19.4,0,0,1-2.32-.18l-2.14-.26a14.68,14.68,0,0,0-1.78-.09q-3.57,0-3.57,2.94c0,1.91,1,2.86,3,2.86a9.65,9.65,0,0,0,1.7-.18c1.36-.24,2.14-.36,2.32-.36a2,2,0,0,1,2,1.16,12.09,12.09,0,0,1,.67,4.46v32.84l-.44,6.87v6.25q0,4.46,3.12,4.46t3.12-3.21c0-.18-.12-1.13-.35-2.86q4.1,6.87,13.29,6.87Q544,203.86,549.57,197.13Zm-5.29-4a11.66,11.66,0,0,1-9.84,4.86q-7.82,0-10.61-6.51-1.44-3.3-1.43-12.14a40.37,40.37,0,0,1,.62-8,11.34,11.34,0,0,1,4.32-6.56A12.23,12.23,0,0,1,535,162.1a11.07,11.07,0,0,1,9.48,4.78q3.45,4.77,3.46,13.16Q547.92,188.25,544.28,193.11Z"/><path class="cls-1" d="M586.53,174.86c-1.52.95-4.78,1.7-9.77,2.23-3.52.42-5.85.76-7,1a16.84,16.84,0,0,0-4.15,1.74,11.59,11.59,0,0,0-6.34,10.89,11.74,11.74,0,0,0,4.33,9.54q4.33,3.57,11.56,3.57,9.72,0,14.28-6.69c1.13,4.23,4,6.35,9.39,6.35,3.46,0,8.77-1.53,13.34-1.53,3.4,0,6,.71,9.33.71q3.64,0,3.65-2.94t-3-3a12.73,12.73,0,0,0-1.45.17,11.56,11.56,0,0,1-2.25.45q-2.34,0-2.43-4.54V165.1q0-12.57.62-19.42a7.41,7.41,0,0,0,.09-1.34c0-1.72-.68-2.58-2-2.58A21,21,0,0,0,612,142a14.56,14.56,0,0,1-5.08.09l-2.14-.26a14,14,0,0,0-1.7-.09q-3.57,0-3.57,2.94c0,1.91,1,2.86,3,2.86a9.24,9.24,0,0,0,1.61-.18c1.37-.24,2.14-.36,2.32-.36a2.5,2.5,0,0,1,2.5,2.06,27,27,0,0,1,.27,3.58v29.82l-.09,6.27a38.21,38.21,0,0,1-.5,7.21c-.57,2-4.14,2.39-6.21,2.39s-4.72,0-5.76-1.26c-.88-.9-1.12-2.14-1.12-5.47V171.8q0-15.59-16.24-15.59a20,20,0,0,0-12,3.57q-5,3.57-5,8.57a5.44,5.44,0,0,0,1.56,3.93,5.18,5.18,0,0,0,3.88,1.6,4.67,4.67,0,0,0,3.26-1.16,3.77,3.77,0,0,0,1.29-2.94,3.47,3.47,0,0,0-1.25-3c-.53-.35-.8-.65-.8-.89a2.42,2.42,0,0,1,1.34-1.87,13.61,13.61,0,0,1,7.49-2.23,10.91,10.91,0,0,1,7.1,2.09,7.08,7.08,0,0,1,2.54,5.76Q588.8,173.44,586.53,174.86Zm2,10.89q-.09,5.72-3.52,9T575.59,198a10.32,10.32,0,0,1-6.64-2,6.48,6.48,0,0,1-2.46-5.35q0-6.51,10.14-7.5a41.11,41.11,0,0,0,7.77-1.25,11.31,11.31,0,0,0,4.13-2.5Z"/><path class="cls-1" d="M449.89,224.88c0-2.08-1.1-3.13-3.3-3.13a16.39,16.39,0,0,0-2.86.27,48.44,48.44,0,0,1-7.94.81,44.2,44.2,0,0,1-5.75-.54,44.32,44.32,0,0,0-5.67-.54c-2.26,0-3.39,1-3.39,3s1.16,3.12,3.48,3.12a13.12,13.12,0,0,0,2-.22,13.08,13.08,0,0,1,2-.22q3.56,0,3.56,3.39a23.9,23.9,0,0,1-1.33,6.06l-12,37.3-12.58-38-1-3.2a8.89,8.89,0,0,1-.45-2.67q0-2.49,3.92-2.49h3.22q3.39,0,3.39-3.21c0-2-1.1-2.95-3.3-2.95a56.24,56.24,0,0,0-6.52.58,54,54,0,0,1-6.6.58,49.62,49.62,0,0,1-8.83-.91,14,14,0,0,0-2.41-.25c-2.38,0-3.57,1.05-3.57,3.13s1.16,3,3.48,3h3.39a4.79,4.79,0,0,1,3.92,1.52,17.15,17.15,0,0,1,1.88,4.18l16,44.82c1,2.91,3,4.36,5.8,4.36s4.61-1.46,5.62-4.37l14.64-42.92a37.15,37.15,0,0,1,2.63-6.38,2.82,2.82,0,0,1,2.45-1.48h.45l2.05.18a1.47,1.47,0,0,0,.36.09Q449.89,227.91,449.89,224.88Z"/><path class="cls-1" d="M457.27,223.9a4.63,4.63,0,0,0-1.48,3.48,5,5,0,0,0,5,5,5,5,0,0,0,5-5,4.66,4.66,0,0,0-1.47-3.48,5.06,5.06,0,0,0-7.05,0Z"/><path class="cls-1" d="M471.5,276a3.77,3.77,0,0,0-1.34.18,12.81,12.81,0,0,1-2.23.44q-2,0-2.41-4c-.06-.54-.09-2.29-.09-5.27v-11.6q0-3.83.07-7.49c.05-3.22.1-5.06.15-5.54,0-.23,0-.59.07-1.07s.07-.83.07-1.07q0-3.48-2.59-3.48a16.18,16.18,0,0,0-2.19.23,17.61,17.61,0,0,1-2.18.22q-.81,0-3.66-.36a22.11,22.11,0,0,0-2.41-.09c-2.62,0-3.93,1-3.93,3s1.08,2.85,3.25,2.85a9.17,9.17,0,0,0,1.93-.31,9.26,9.26,0,0,1,2-.31q2.25,0,2.7,5.62v22.84q-.45,5.71-2.61,5.71a13,13,0,0,1-2.12-.26,12.22,12.22,0,0,0-2.11-.27q-3.07,0-3.07,2.94t3.59,3a45.91,45.91,0,0,0,4.65-.45,42,42,0,0,1,5.19-.36,35,35,0,0,1,4.35.41,36.4,36.4,0,0,0,4.34.4,4.37,4.37,0,0,0,2.82-.9,2.63,2.63,0,0,0,1.12-2.14Q474.89,276,471.5,276Z"/><path class="cls-1" d="M501.56,276a11,11,0,0,0-1.44.18,11.26,11.26,0,0,1-2.25.44q-2.34,0-2.43-4.54V244.38q0-12.56.62-19.42a7.33,7.33,0,0,0,.09-1.34c0-1.72-.68-2.58-2-2.58a19.61,19.61,0,0,0-2.68.27,19.61,19.61,0,0,1-2.68.27,19.84,19.84,0,0,1-2.41-.18l-2.14-.27a13.67,13.67,0,0,0-1.69-.09q-3.57,0-3.57,3t3,2.85a9.34,9.34,0,0,0,1.61-.18c1.37-.23,2.14-.35,2.32-.35a2.49,2.49,0,0,1,2.5,2.06,29.47,29.47,0,0,1,.26,3.58v29.82l-.09,6.27a38.67,38.67,0,0,1-.49,7.21,1.88,1.88,0,0,1-2,1.38,21,21,0,0,1-2.61-.5,4.12,4.12,0,0,1-.81-.12H482q-3.06,0-3.06,2.76,0,3.23,3.73,3.22h.45a37.22,37.22,0,0,0,4.18-.36,37.21,37.21,0,0,1,4.26-.36,45,45,0,0,1,4.81.36,44.16,44.16,0,0,0,4.53.36q3.64,0,3.65-2.95T501.56,276Z"/><path class="cls-1" d="M531,276a11.13,11.13,0,0,0-1.45.18,11.26,11.26,0,0,1-2.25.44q-2.34,0-2.43-4.54V244.38q0-12.56.62-19.42a7.33,7.33,0,0,0,.09-1.34c0-1.72-.68-2.58-2.05-2.58a19.61,19.61,0,0,0-2.68.27,14.56,14.56,0,0,1-5.08.09l-2.15-.27a13.67,13.67,0,0,0-1.69-.09q-3.57,0-3.57,3t3,2.85a9.34,9.34,0,0,0,1.61-.18c1.37-.23,2.14-.35,2.32-.35a2.49,2.49,0,0,1,2.5,2.06,26.88,26.88,0,0,1,.27,3.58v29.82L518,268a38.3,38.3,0,0,1-.5,7.21,1.88,1.88,0,0,1-2,1.38,21,21,0,0,1-2.61-.5,4.12,4.12,0,0,1-.81-.12h-.63q-3.06,0-3.06,2.76,0,3.23,3.73,3.22h.45a37.22,37.22,0,0,0,4.18-.36,37.35,37.35,0,0,1,4.27-.36,45.07,45.07,0,0,1,4.8.36,44.36,44.36,0,0,0,4.53.36Q534,282,534,279T531,276Z"/><path class="cls-1" d="M624.22,229.61a10.87,10.87,0,0,0-6.87-2.14q-9.74,0-10.17,8.74a22.44,22.44,0,0,0-5.27-.71,17.36,17.36,0,0,0-11.73,4,12.72,12.72,0,0,0-4.69,10.09,12,12,0,0,0,2.32,7.31q-7.32,2.32-7.31,8.57,0,5.72,7.31,8.57-8.12,3-8.12,10.26,0,6.24,5.85,9.81t16.1,3.57q10.26,0,16.29-3.78t6-10.27a10.5,10.5,0,0,0-2.86-7.2,16.74,16.74,0,0,0-7.78-4.72,48.61,48.61,0,0,0-13.78-1.6h-3.22q-9.39,0-9.39-4.64a3.86,3.86,0,0,1,1-2.63,2.93,2.93,0,0,1,2.24-1.12,6.27,6.27,0,0,1,2.42.63,25.41,25.41,0,0,0,10.2,2.32,16.92,16.92,0,0,0,11.63-4.11A13.12,13.12,0,0,0,619,250.31q0-7.68-6.78-12.23.09-5.88,4.82-5.88a4.47,4.47,0,0,1,3.66,1.78c-1.31,1-2,2-2,3a3,3,0,0,0,1.07,2.32,3.58,3.58,0,0,0,2.5,1,4.26,4.26,0,0,0,3.25-1.52,5.25,5.25,0,0,0,1.39-3.66A6.62,6.62,0,0,0,624.22,229.61ZM591,278.15q4.1-2.14,11.24-2.14t11,2.1q3.93,2.08,3.93,5.84,0,3.57-4.15,5.71t-11.29,2.14q-6.78,0-10.79-2.09t-4-5.76Q586.92,280.29,591,278.15Zm18.33-21.77a10.81,10.81,0,0,1-7.27,2.41,10,10,0,0,1-7-2.41,8.15,8.15,0,0,1-2.68-6.34v-.53a8.11,8.11,0,0,1,3-5.8,10,10,0,0,1,6.69-2.32,10.48,10.48,0,0,1,7.14,2.49,8.07,8.07,0,0,1,2.85,6.34A7.74,7.74,0,0,1,609.36,256.38Z"/><path class="cls-1" d="M662.56,241.12a18.42,18.42,0,0,0-13.83-5.62,19.36,19.36,0,0,0-15.35,6.78q-5.89,6.78-5.89,17.67,0,10.62,5.53,16.91t14.9,6.29a21.49,21.49,0,0,0,13.39-4.51q5.88-4.5,5.89-10.31,0-3.39-3.3-3.39a2.78,2.78,0,0,0-2.95,2.14l-.8,2.59a9.85,9.85,0,0,1-4.24,5.45,13.31,13.31,0,0,1-17.18-2.32,16.06,16.06,0,0,1-4-11.16,1.29,1.29,0,0,1,.35-1,2.49,2.49,0,0,1,1.52-.32H665c1.42,0,2.29-.25,2.58-.75s.45-1.89.45-4.15A19.73,19.73,0,0,0,662.56,241.12Zm-3.66,13.21H637.57c-1.31,0-2-.42-2-1.25q0-4.47,4.1-8.08a13.46,13.46,0,0,1,9.11-3.61,11.61,11.61,0,0,1,8.38,3.48,11.08,11.08,0,0,1,3.57,8.21C660.77,253.91,660.15,254.33,658.9,254.33Z"/><path class="cls-1" d="M574.47,277.26h0q-2.49,0-3-3.12a37.5,37.5,0,0,1-.18-5.07v-18q0-15.59-16.24-15.58a20,20,0,0,0-12,3.57q-4.95,3.57-5,8.56a5.42,5.42,0,0,0,1.56,3.93,5.18,5.18,0,0,0,3.88,1.6,4.68,4.68,0,0,0,3.26-1.16,3.77,3.77,0,0,0,1.29-2.94,3.46,3.46,0,0,0-1.25-3c-.53-.36-.8-.66-.8-.9,0-.65.44-1.27,1.34-1.87a13.59,13.59,0,0,1,7.49-2.23,10.87,10.87,0,0,1,7.1,2.1,7,7,0,0,1,2.54,5.75q0,3.84-2.28,5.27t-9.77,2.23c-3.51.41-5.84.76-7,1a16.69,16.69,0,0,0-4.15,1.74A11.57,11.57,0,0,0,534.91,270a11.73,11.73,0,0,0,4.33,9.55q4.34,3.57,11.56,3.57,9.72,0,14.27-6.7,1.7,6.35,9,6.34h.38a2.77,2.77,0,0,0,0-5.53ZM564.18,265q-.09,5.72-3.52,9t-9.42,3.26a10.37,10.37,0,0,1-6.65-2,6.48,6.48,0,0,1-2.45-5.35q0-6.51,10.13-7.49a42.12,42.12,0,0,0,7.78-1.25,11.45,11.45,0,0,0,4.13-2.5Z"/><path class="cls-1" d="M183.13,170.21a5,5,0,0,0-8.11-4.37c-5.4,3.75.88,12,6.09,7.61A4.66,4.66,0,0,0,183.13,170.21Z"/><path class="cls-1" d="M175.09,197a4.73,4.73,0,0,0,2-3.27,5.07,5.07,0,0,0-8.2-4.42C163.48,193.05,169.83,201.42,175.09,197Z"/><path class="cls-1" d="M195,171.21c-5.59,3.87,1.05,12.13,6.2,7.74a4.69,4.69,0,0,0,2.06-3.29A5.1,5.1,0,0,0,195,171.21Z"/><path class="cls-1" d="M165.81,170.92a5.14,5.14,0,0,0-8.32-4.48c-5.53,3.84.91,12.33,6.25,7.8A4.76,4.76,0,0,0,165.81,170.92Z"/><path class="cls-1" d="M185.54,199.1c-5.57,3.86.91,12.41,6.28,7.84C197.3,203.21,191.09,194.63,185.54,199.1Z"/><path class="cls-1" d="M193.19,159.15a4.83,4.83,0,0,0,2.1-3.36,5.21,5.21,0,0,0-8.42-4.53C181.27,155.15,187.79,163.74,193.19,159.15Z"/><path class="cls-1" d="M157,196.74a4.84,4.84,0,0,0,2.11-3.37,5.23,5.23,0,0,0-8.46-4.55C145,192.72,151.55,201.36,157,196.74Z"/><path class="cls-1" d="M215.25,189.78a5.25,5.25,0,0,0-8.5-4.57c-5.65,3.92.93,12.59,6.38,8A4.88,4.88,0,0,0,215.25,189.78Z"/><path class="cls-1" d="M159.89,147.59c-5.68,3.94.93,12.65,6.4,8C171.9,151.77,165.47,143.09,159.89,147.59Z"/><path class="cls-1" d="M176.07,218.54a4.89,4.89,0,0,0,2.14-3.41,5.3,5.3,0,0,0-8.57-4.62C164,214.47,170.58,223.22,176.07,218.54Z"/><path class="cls-1" d="M206.81,154.58c-5.68,3.94,1,12.71,6.45,8.06a4.89,4.89,0,0,0,2.15-3.43A5.31,5.31,0,0,0,206.81,154.58Z"/><path class="cls-1" d="M147,176.17A5.38,5.38,0,0,0,141,170.4c-6.17.88-6.32,9.65,0,10.41A5.7,5.7,0,0,0,147,176.17Z"/><path class="cls-1" d="M203.1,206.68c-5.78,4,1,12.82,6.5,8.12a4.94,4.94,0,0,0,2.16-3.45A5.36,5.36,0,0,0,203.1,206.68Z"/><path class="cls-1" d="M178.11,134.14c-5.78,4,.95,12.89,6.52,8.15a4.94,4.94,0,0,0,2.17-3.47A5.37,5.37,0,0,0,178.11,134.14Z"/><path class="cls-1" d="M152.91,215.39c5.71-3.88-.76-12.82-6.54-8.17C140.47,211.31,147.47,220,152.91,215.39Z"/><path class="cls-1" d="M221.8,182c5,3.76,11.68-3.11,7.35-7.69C224.64,168.3,215,176.87,221.8,182Z"/><path class="cls-1" d="M140.75,146.56c-5.84,4.05,1,13,6.58,8.22a5,5,0,0,0,2.19-3.49A5.42,5.42,0,0,0,140.75,146.56Z"/><path class="cls-1" d="M191,224.24c-4.16-5.5-12.95,1.32-8.51,6.58a5,5,0,0,0,2.33,1.82C190,234.69,194.92,228.35,191,224.24Z"/><path class="cls-1" d="M211.2,143.49a5.05,5.05,0,0,0,2.2-3.52,5.45,5.45,0,0,0-8.83-4.75C198.71,139.29,205.54,148.3,211.2,143.49Z"/><path class="cls-1" d="M127.29,187.59c-5.88,4.09,1,13.12,6.65,8.3a5.06,5.06,0,0,0,2.2-3.53A5.47,5.47,0,0,0,127.29,187.59Z"/><path class="cls-1" d="M228.82,209.83a5.06,5.06,0,0,0,2.21-3.54,5.48,5.48,0,0,0-8.87-4.78C216.26,205.61,223.13,214.66,228.82,209.83Z"/><path class="cls-1" d="M166.7,133.55c5.83-4-.78-13.08-6.68-8.33C154.11,129.32,161,138.4,166.7,133.55Z"/><path class="cls-1" d="M154.17,225.86c-5.94,4.12,1,13.22,6.69,8.36C166.7,230.25,160.08,221.1,154.17,225.86Z"/><path class="cls-1" d="M228.18,153.91c-6,4.12,1,13.25,6.71,8.38a5.12,5.12,0,0,0,2.23-3.57A5.52,5.52,0,0,0,228.18,153.91Z"/><path class="cls-1" d="M129.37,165.42a5.09,5.09,0,0,0,2.23-3.58,5.53,5.53,0,0,0-9-4.82C116.68,161.16,123.66,170.27,129.37,165.42Z"/><path class="cls-1" d="M209.73,226.63c-5.08-2-10.07,4.1-6.51,8.32a5.1,5.1,0,0,0,2.38,1.86C212.5,239.57,216.63,229.21,209.73,226.63Z"/><path class="cls-1" d="M191.42,118.09c-6,4.15,1,13.35,6.76,8.43a5.13,5.13,0,0,0,2.25-3.59A5.56,5.56,0,0,0,191.42,118.09Z"/><path class="cls-1" d="M132.48,217.72a5.17,5.17,0,0,0,2.25-3.6,5.58,5.58,0,0,0-9-4.86C119.7,213.42,126.69,222.64,132.48,217.72Z"/><path class="cls-1" d="M237.9,186c-6,4.17,1,13.41,6.79,8.47C250.61,190.41,243.92,181.11,237.9,186Z"/><path class="cls-1" d="M144.36,134.71a5.15,5.15,0,0,0,2.26-3.61,5.6,5.6,0,0,0-9.07-4.88C131.52,130.4,138.55,139.66,144.36,134.71Z"/><path class="cls-1" d="M175.93,249.81c4.25-.61,6.73-5.65,3.56-9-4.29-5.69-13.36,1.37-8.79,6.79A5.37,5.37,0,0,0,175.93,249.81Z"/><path class="cls-1" d="M222.11,134.71a5.73,5.73,0,0,0,3.58,5.79c5.28,2.12,10.42-4.44,6.39-8.69C229.17,128,222.7,130.12,222.11,134.71Z"/><path class="cls-1" d="M116.88,185.23a5.2,5.2,0,0,0,2.27-3.64,5.64,5.64,0,0,0-9.12-4.91C104,180.89,111,190.21,116.88,185.23Z"/><path class="cls-1" d="M227.13,229.78c5.25,3.93,12.21-3.25,7.68-8C230.1,215.51,220,224.47,227.13,229.78Z"/><path class="cls-1" d="M176.66,116a5.23,5.23,0,0,0,2.29-3.66,5.66,5.66,0,0,0-9.16-4.93C163.6,111.72,171,120.87,176.66,116Z"/><path class="cls-1" d="M143.93,236.72a5.67,5.67,0,0,0-9.18-4.94c-6.11,4.23,1,13.61,6.89,8.6A5.25,5.25,0,0,0,143.93,236.72Z"/><path class="cls-1" d="M246.33,171.53a5.07,5.07,0,0,0,1.27.69c7,2.81,11.33-7.76,4.23-10.42C245.9,159.43,240.78,167.37,246.33,171.53Z"/><path class="cls-1" d="M116.77,147.46a6,6,0,0,0,7.89-4.59,5.7,5.7,0,0,0-9.22-5A5.42,5.42,0,0,0,116.77,147.46Z"/><path class="cls-1" d="M196.32,246.1c-6.14,4.26,1,13.69,6.93,8.65C209.3,250.64,202.47,241.15,196.32,246.1Z"/><path class="cls-1" d="M219.21,114.74a5.72,5.72,0,0,0-9.25-5c-6.16,4.27,1,13.71,6.94,8.67A5.3,5.3,0,0,0,219.21,114.74Z"/><path class="cls-1" d="M113.33,211a5.27,5.27,0,0,0,2.31-3.7,5.72,5.72,0,0,0-9.26-5C100.21,206.6,107.39,216.06,113.33,211Z"/><path class="cls-1" d="M247.21,213c5.34,4,12.41-3.3,7.8-8.16-3-3.93-9.56-1.75-10.17,3A5.78,5.78,0,0,0,247.21,213Z"/><path class="cls-1" d="M143.16,106.38c-5.46,3.79-.47,12.24,5.64,9.55C157,112.29,149.79,101,143.16,106.38Z"/><path class="cls-1" d="M155.33,260.13c7.16,2.87,11.45-7.88,4.29-10.56-5.27-2.11-10.45,4.25-6.76,8.63A5.3,5.3,0,0,0,155.33,260.13Z"/><path class="cls-1" d="M244.53,144.43c5.36,4,12.47-3.32,7.84-8.21C247.56,129.85,237.27,139,244.53,144.43Z"/><path class="cls-1" d="M107.62,164.44a5.78,5.78,0,0,0-9.35-5c-6.22,4.31,1,13.86,7,8.76A5.32,5.32,0,0,0,107.62,164.44Z"/><path class="cls-1" d="M233.11,246.53a5.79,5.79,0,0,0-9.37-5.05c-6.23,4.33,1,13.89,7,8.78A5.33,5.33,0,0,0,233.11,246.53Z"/><path class="cls-1" d="M186.23,94.46c-5.11,3.55-1.13,11,4.26,10.05a6.2,6.2,0,0,0,5.13-5A5.8,5.8,0,0,0,186.23,94.46Z"/><path class="cls-1" d="M113.72,229.74c-6.35,4.41,1.19,13.8,7.06,8.81C127.06,234.28,119.78,224.87,113.72,229.74Z"/><path class="cls-1" d="M267.29,187.21c6.27-4.26-1-13.69-7.07-8.82C253.86,182.8,261.41,192.21,267.29,187.21Z"/><path class="cls-1" d="M123,125.42c6.18-4.2-.82-13.87-7.08-8.84C109.64,120.94,116.94,130.57,123,125.42Z"/><path class="cls-1" d="M190.71,266.28a5.84,5.84,0,0,0-9.45-5.09,5.56,5.56,0,0,0,1.37,9.8A6.14,6.14,0,0,0,190.71,266.28Z"/><path class="cls-1" d="M231.36,117.87c5.44,4.07,12.64-3.37,7.95-8.32C234.44,103.1,224,112.37,231.36,117.87Z"/><path class="cls-1" d="M97.07,197.05a5.45,5.45,0,0,0,2.37-3.78,5.86,5.86,0,0,0-9.48-5.1C83.66,192.54,91,202.22,97.07,197.05Z"/><path class="cls-1" d="M256.56,234.38c6.31-4.28-1-13.82-7.12-8.89C243.12,229.87,250.47,239.56,256.56,234.38Z"/><path class="cls-1" d="M156.18,98c5.38,4,12.74-3.35,8-8.36C159.34,83.22,148.76,92.42,156.18,98Z"/><path class="cls-1" d="M132.42,263.41c6,4.52,13.48-4.51,7-9.35C133.64,249.73,125.8,258.46,132.42,263.41Z"/><path class="cls-1" d="M262.91,147.28c-6.45,4.47,1.2,14,7.15,8.94C276.31,152,269.23,142.19,262.91,147.28Z"/><path class="cls-1" d="M99.91,146.81A5.46,5.46,0,0,0,102.3,143a5.91,5.91,0,0,0-9.56-5.14C86.39,142.27,93.79,152,99.91,146.81Z"/><path class="cls-1" d="M220.15,269.87a5.43,5.43,0,0,0,2.39-3.81,5.91,5.91,0,0,0-9.57-5.15C206.61,265.33,214,275.09,220.15,269.87Z"/><path class="cls-1" d="M214.59,96.31A5.45,5.45,0,0,0,217,92.49a5.92,5.92,0,0,0-9.58-5.16C201,91.79,208.59,101.41,214.59,96.31Z"/><path class="cls-1" d="M100.4,229.27c6.35-4.32-1-14-7.21-9C86.81,224.71,94.24,234.5,100.4,229.27Z"/><path class="cls-1" d="M268.85,208.44c5.52,4.13,12.84-3.42,8.08-8.45-3.07-4.06-9.9-1.8-10.53,3.06A6,6,0,0,0,268.85,208.44Z"/><path class="cls-1" d="M123.8,95.17c-6.41,4.45,1,14.27,7.22,9C137.32,99.91,130.18,90,123.8,95.17Z"/><path class="cls-1" d="M168,280.39c6.31-4.29-.81-14.19-7.23-9a5.59,5.59,0,0,0-2.4,3.86C157.73,280.06,163.78,284,168,280.39Z"/><path class="cls-1" d="M253.32,115.14c-5.71,4-.36,12.65,5.86,9.91C268,121.16,259.94,109.81,253.32,115.14Z"/><path class="cls-1" d="M85.28,177.27C91.62,173,84.45,163,78,168.21,71.6,172.67,79.08,182.54,85.28,177.27Z"/><path class="cls-1" d="M250.36,247.23c-5.47-2.19-10.85,4.41-7,9a5.41,5.41,0,0,0,2.56,2C253.34,261.17,257.8,250,250.36,247.23Z"/><path class="cls-1" d="M183.4,76.09c-4.92-6.52-15.7,2.86-8.14,8.51C180.85,88.79,188.2,81.15,183.4,76.09Z"/><path class="cls-1" d="M116.26,260.09c6.37-4.33-.83-14.29-7.28-9.09C102.52,255.47,110,265.38,116.26,260.09Z"/><path class="cls-1" d="M285.07,165.29c-6.09-4.56-13.76,4.59-7.15,9.54C283.68,179.14,291.93,170.42,285.07,165.29Z"/><path class="cls-1" d="M101.42,123.14a5.57,5.57,0,0,0,2.42-3.88A6,6,0,0,0,94.11,114C87.64,118.51,95.18,128.45,101.42,123.14Z"/><path class="cls-1" d="M195.66,286.73c5.6,4.19,13-3.47,8.19-8.57-3.11-4.12-10-1.83-10.67,3.11A6.07,6.07,0,0,0,195.66,286.73Z"/><path class="cls-1" d="M238.73,96a5.61,5.61,0,0,0,2.43-3.89,6,6,0,0,0-9.76-5.25C224.91,91.38,232.47,101.35,238.73,96Z"/><path class="cls-1" d="M84.89,209.28A6,6,0,0,0,75.12,204c-6.5,4.51,1.07,14.48,7.34,9.15A5.55,5.55,0,0,0,84.89,209.28Z"/><path class="cls-1" d="M278.3,232.53a5.59,5.59,0,0,0,2.44-3.9,6,6,0,0,0-9.79-5.27C264.45,227.88,272,237.87,278.3,232.53Z"/><path class="cls-1" d="M148.45,81a6.05,6.05,0,0,0-9.8-5.27,5.47,5.47,0,0,0-1.18,8.12C140.55,88.38,147.81,86,148.45,81Z"/><path class="cls-1" d="M144.71,276.21c-3.17-4.21-10.11-1.72-10.74,3.12a6.15,6.15,0,0,0,5.35,6.62C144.36,286.55,148.68,280.39,144.71,276.21Z"/><path class="cls-1" d="M271.53,132.52A6.16,6.16,0,0,0,274,138c5.64,4.22,13.12-3.5,8.25-8.64C279.14,125.22,272.18,127.56,271.53,132.52Z"/><path class="cls-1" d="M79.29,153.21a5.64,5.64,0,0,0,2.46-3.92,6.08,6.08,0,0,0-9.84-5.3C65.37,148.53,73,158.57,79.29,153.21Z"/><path class="cls-1" d="M239.82,279.26a5.61,5.61,0,0,0,2.46-3.93,6.08,6.08,0,0,0-9.85-5.3C225.88,274.57,233.51,284.63,239.82,279.26Z"/><path class="cls-1" d="M206.39,76.46a5.58,5.58,0,0,0,2.46-3.93A6.1,6.1,0,0,0,199,67.22C192.43,71.77,200.07,81.84,206.39,76.46Z"/><path class="cls-1" d="M83.39,244.48A6.14,6.14,0,0,0,85.91,250c5.67,4.25,13.19-3.51,8.3-8.67C91.05,237.16,84,239.48,83.39,244.48Z"/><path class="cls-1" d="M287.79,198.32c6.27,4.69,14-4.68,7.27-9.7-3.8-2.85-9.25,0-9.79,4.16A6.17,6.17,0,0,0,287.79,198.32Z"/><path class="cls-1" d="M102.7,89.88c-6.59,4.56,1.12,14.63,7.43,9.27C116.75,94.65,109,84.77,102.7,89.88Z"/><path class="cls-1" d="M180.18,298.44c6.48-4.41-.84-14.6-7.44-9.29a5.7,5.7,0,0,0-2.47,4C169.65,298.11,175.87,302.1,180.18,298.44Z"/><path class="cls-1" d="M256.33,103.14c5.7,4.26,13.26-3.54,8.34-8.73C259.56,87.64,248.61,97.36,256.33,103.14Z"/><path class="cls-1" d="M68.75,191.22a5.69,5.69,0,0,0,2.48-4,6.15,6.15,0,0,0-9.94-5.35C54.68,186.49,62.38,196.64,68.75,191.22Z"/><path class="cls-1" d="M274.45,249.76c-3.18-4.2-10.24-1.87-10.9,3.17a6.2,6.2,0,0,0,2.54,5.57C271.81,262.78,279.38,255,274.45,249.76Z"/><path class="cls-1" d="M159.68,60c-6.71,4.66,1.28,14.61,7.48,9.33a5.69,5.69,0,0,0,2.48-4A6.15,6.15,0,0,0,159.68,60Z"/><path class="cls-1" d="M114.64,283.16c4.67-.67,7.38-6.19,3.91-9.86-3.22-4.26-10.27-1.81-10.92,3.18A6.19,6.19,0,0,0,114.64,283.16Z"/><path class="cls-1" d="M298.85,157.86c6.55-4.45-.86-14.69-7.49-9.35C284.72,153.12,292.45,163.31,298.85,157.86Z"/><path class="cls-1" d="M80.11,126.62a5.69,5.69,0,0,0,2.49-4,6.17,6.17,0,0,0-10-5.38C65.9,121.91,73.81,132,80.11,126.62Z"/><path class="cls-1" d="M211.15,293.14a6.24,6.24,0,0,0,2.55,5.6c5.75,4.3,13.37-3.56,8.41-8.79C218.92,285.71,211.81,288.07,211.15,293.14Z"/><path class="cls-1" d="M225.9,75.38c5.76,4.31,13.38-3.57,8.42-8.8C229.23,59.83,218.11,69.55,225.9,75.38Z"/><path class="cls-1" d="M65,223.14c-6.67,4.63,1.09,14.87,7.52,9.4a5.7,5.7,0,0,0,2.51-4C75.61,223.6,69.49,219.5,65,223.14Z"/><path class="cls-1" d="M298.79,225.14a5.77,5.77,0,0,0,2.5-4,6.21,6.21,0,0,0-10-5.41C284.57,220.37,292.35,230.62,298.79,225.14Z"/><path class="cls-1" d="M118.45,77.09c5.77,4.32,13.42-3.58,8.44-8.84-3.22-4.27-10.35-1.84-11,3.21A6.27,6.27,0,0,0,118.45,77.09Z"/><path class="cls-1" d="M145.87,304.55c5.78,4.32,13.44-3.59,8.45-8.85C149.15,288.85,138,298.69,145.87,304.55Z"/><path class="cls-1" d="M280.08,117.24c5.79,4.33,13.46-3.59,8.47-8.85-3.22-4.27-10.38-1.88-11,3.21A6.29,6.29,0,0,0,280.08,117.24Z"/><path class="cls-1" d="M60.78,164.71a5.78,5.78,0,0,0,2.52-4,6.24,6.24,0,0,0-10.09-5.43C46.5,159.91,54.31,170.21,60.78,164.71Z"/><path class="cls-1" d="M261.37,283.45a5.78,5.78,0,0,0,2.52-4c.62-5-5.55-9.1-10.1-5.44C247.07,278.64,254.89,289,261.37,283.45Z"/><path class="cls-1" d="M185.73,49.66c-5.41,3.76-1.37,11.89,4.59,10.83,5.11-.74,6.34-7.5,4-10A6,6,0,0,0,185.73,49.66Z"/><path class="cls-1" d="M92.35,263c-3.16-4.2-10.41-2-11.08,3.22a6.3,6.3,0,0,0,2.58,5.67C89.67,276.28,97.37,268.33,92.35,263Z"/><path class="cls-1" d="M303.82,183.6c5.82,4.36,13.53-3.61,8.51-8.9C307.11,167.77,295.92,177.69,303.82,183.6Z"/><path class="cls-1" d="M88.28,99.43a5.79,5.79,0,0,0,2.53-4.05c.63-5-5.57-9.14-10.14-5.46C73.92,94.6,81.78,105,88.28,99.43Z"/><path class="cls-1" d="M197.61,304.51c-3.18-4.21-10.44-2-11.12,3.23a6.35,6.35,0,0,0,2.59,5.69C194.92,317.8,202.65,309.82,197.61,304.51Z"/><path class="cls-1" d="M261.52,81.14c6.66-4.52-.89-15-7.63-9.52C247.13,76.31,255,86.69,261.52,81.14Z"/><path class="cls-1" d="M58.36,205c.62-5-5.59-9.17-10.18-5.47-6.77,4.69,1.11,15.08,7.64,9.53A5.84,5.84,0,0,0,58.36,205Z"/><path class="cls-1" d="M296.17,245.26c-5.25-6.95-16.49,3-8.56,9C293.46,258.59,301.22,250.59,296.17,245.26Z"/><path class="cls-1" d="M148.26,58.15c6.69-4.55-.88-15-7.65-9.56C133.82,53.3,141.72,63.71,148.26,58.15Z"/><path class="cls-1" d="M118,292.63c-8.19,3.52-2.43,14.53,4.74,11.37C131,300.33,125.06,289.5,118,292.63Z"/><path class="cls-1" d="M306.89,138.85c9.31-4.13.79-16.12-6.2-10.5C294.64,132.55,300.3,141.75,306.89,138.85Z"/><path class="cls-1" d="M59.72,135.26c4.71-3.2,2.56-10.3-3.06-11-5.85-.69-10.29,6.92-4.56,11.21A6.17,6.17,0,0,0,59.72,135.26Z"/><path class="cls-1" d="M231.93,300.59a6.39,6.39,0,0,0,2.61,5.74c5.83,4.36,13.71-3.62,8.6-9C239.84,293,232.59,295.46,231.93,300.59Z"/><path class="cls-1" d="M219.93,57c5.17-.74,6.42-7.6,4-10.14a6.12,6.12,0,0,0-8.68-.84C209.78,49.83,213.88,58.08,219.93,57Z"/><path class="cls-1" d="M67.14,254.26a5.88,5.88,0,0,0,2.56-4.09c.63-5.06-5.63-9.25-10.26-5.53C52.61,249.38,60.56,259.86,67.14,254.26Z"/><path class="cls-1" d="M309.82,213.13c5.79,4.34,13.77-3.6,8.63-9C313.15,197.08,301.81,207.14,309.82,213.13Z"/><path class="cls-1" d="M96.19,64c-6.84,4.74,1.17,15.2,7.72,9.63a5.82,5.82,0,0,0,2.56-4.1A6.35,6.35,0,0,0,96.19,64Z"/><path class="cls-1" d="M166.09,322.72c6.78-3,4.29-11.26-1.59-12a6.75,6.75,0,0,0-7.22,5.51A6.37,6.37,0,0,0,166.09,322.72Z"/><path class="cls-1" d="M278.6,89.18A6.42,6.42,0,0,0,281.23,95c6.53,4.89,14.58-4.87,7.58-10.11C284.85,81.87,279.17,84.8,278.6,89.18Z"/><path class="cls-1" d="M37.12,170.93c-6,4.16-.64,13.63,6.26,10.59C52.6,177.43,44.43,165,37.12,170.93Z"/><path class="cls-1" d="M282.46,283.56c9.23-4.08,1.07-16.5-6.26-10.6C270.19,277.13,275.56,286.61,282.46,283.56Z"/><path class="cls-1" d="M173.05,46.14c5.22-.74,6.47-7.66,4-10.22a6.17,6.17,0,0,0-8.75-.84C162.82,38.92,167,47.23,173.05,46.14Z"/><path class="cls-1" d="M95.53,285.33c-3.35-4.43-10.67-1.81-11.34,3.3S90,298,94.54,294.18A5.77,5.77,0,0,0,95.53,285.33Z"/><path class="cls-1" d="M316.55,165.05c5.95,4.45,13.83-3.69,8.7-9.1C320,149,308.44,159,316.55,165.05Z"/><path class="cls-1" d="M64.8,105.66a6.68,6.68,0,0,0,4.08-5.06A6.41,6.41,0,0,0,58.51,95C52.48,99.2,57.87,108.72,64.8,105.66Z"/><path class="cls-1" d="M208.87,324.56c6,4.46,13.86-3.69,8.71-9.12C212.23,308.35,200.78,318.51,208.87,324.56Z"/><path class="cls-1" d="M246.57,59.93c6,4.47,13.88-3.7,8.73-9.13-3.33-4.41-10.7-1.94-11.38,3.31A6.48,6.48,0,0,0,246.57,59.93Z"/><path class="cls-1" d="M39,220.35c-6,4.2-.65,13.74,6.31,10.68A6.74,6.74,0,0,0,49.38,226C50,220.8,43.66,216.58,39,220.35Z"/><path class="cls-1" d="M309.79,234.07c-4.88,2.1-5.49,7.86-1.41,10.91s9.78,0,10.34-4.4A6.46,6.46,0,0,0,309.79,234.07Z"/><path class="cls-1" d="M126.59,51.13a6,6,0,0,0,2.6-4.16c.64-5.15-5.72-9.39-10.42-5.61C111.84,46.17,120,56.77,126.59,51.13Z"/><path class="cls-1" d="M127.75,313.36a6,6,0,0,0-2.6,4.17,6.46,6.46,0,0,0,8.92,6.54,6.77,6.77,0,0,0,4.11-5.1A6.44,6.44,0,0,0,127.75,313.36Z"/><path class="cls-1" d="M314.5,106.69c-5.38-7.13-16.89,3.09-8.77,9.17C311.73,120.35,319.67,112.14,314.5,106.69Z"/><path class="cls-1" d="M39.43,149.5a6.72,6.72,0,0,0,4.11-5.1c.65-5.16-5.73-9.42-10.44-5.63C27,143,32.45,152.58,39.43,149.5Z"/><path class="cls-1" d="M254.67,303.5a6.54,6.54,0,0,0,2.67,5.86c6,4.46,14-3.72,8.79-9.19C262.79,295.75,255.36,298.2,254.67,303.5Z"/><path class="cls-1" d="M205,39.53c5.29-.76,6.56-7.76,4.1-10.35a6.24,6.24,0,0,0-8.86-.86C194.6,32.21,198.78,40.63,205,39.53Z"/><path class="cls-1" d="M66.46,277.51a6,6,0,0,0,2.61-4.18c.65-5.15-5.75-9.45-10.48-5.64C51.67,272.5,59.8,283.17,66.46,277.51Z"/><path class="cls-1" d="M328.93,185.15c-7.53,1.08-7.63,11.74,0,12.65a6.39,6.39,0,0,0,4.77-1.45C339.3,192.55,335.26,184,328.93,185.15Z"/><path class="cls-1" d="M72.9,65.29c-7.05,4.89,1.27,15.46,7.88,9.84a6,6,0,0,0,2.62-4.19A6.48,6.48,0,0,0,72.9,65.29Z"/><path class="cls-1" d="M175.31,330.85a5.86,5.86,0,0,0,1.35,4.51c3.31,4.89,11.1,2.31,11.77-3.06a5.86,5.86,0,0,0-1.61-4.8C183.53,323.15,176,325.46,175.31,330.85Z"/><path class="cls-1" d="M283.85,72.69c9.41-4.17,1.08-16.8-6.38-10.81C271.35,66.13,276.81,75.78,283.85,72.69Z"/><path class="cls-1" d="M34.69,196c.65-5.19-5.78-9.49-10.53-5.67-6.12,4.25-.65,13.91,6.39,10.81A6.81,6.81,0,0,0,34.69,196Z"/><path class="cls-1" d="M306.75,277a5.87,5.87,0,0,0,1-9c-3.39-4.5-10.86-1.87-11.54,3.35S302.17,280.85,306.75,277Z"/><path class="cls-1" d="M152.32,35.23c5.33-.76,6.61-7.82,4.14-10.43a6.3,6.3,0,0,0-8.93-.86C141.89,27.86,146.1,36.34,152.32,35.23Z"/><path class="cls-1" d="M94.61,306.56c-6.14,4.26-.65,13.95,6.41,10.84C110.46,313.21,102.09,300.54,94.61,306.56Z"/><path class="cls-1" d="M327,144.18c8.05,3.23,13-8.92,4.86-12a6.83,6.83,0,0,0-9,5.25A6.65,6.65,0,0,0,327,144.18Z"/><path class="cls-1" d="M45,114.83a6,6,0,0,0,2.64-4.22c.65-5.23-5.81-9.52-10.57-5.69C29.92,109.85,38.29,120.5,45,114.83Z"/><path class="cls-1" d="M231.34,321.53c-6.15,4.28-.65,14,6.43,10.87a6.83,6.83,0,0,0,4.16-5.17C242.58,322,236.12,317.69,231.34,321.53Z"/><path class="cls-1" d="M239.23,40.72c5.35-.76,6.64-7.85,4.16-10.47a6.31,6.31,0,0,0-9-.87C228.75,33.31,233,41.83,239.23,40.72Z"/><path class="cls-1" d="M41.86,243.31c-6.36-4.75-15.21,4.87-7.81,10.41C40.42,258.48,49.27,248.86,41.86,243.31Z"/><path class="cls-1" d="M324.94,225.2a6.61,6.61,0,0,0,2.71,6c6.1,4.56,14.18-3.78,8.92-9.33C333.14,217.28,325.63,219.89,324.94,225.2Z"/><path class="cls-1" d="M101.4,49.44a6.85,6.85,0,0,0,4.18-5.19A6.57,6.57,0,0,0,95,38.53C88.78,42.82,94.3,52.57,101.4,49.44Z"/><path class="cls-1" d="M151.3,331.08c-6.4-4.79-15.21,4.91-7.82,10.44C149.84,346.28,158.75,336.66,151.3,331.08Z"/><path class="cls-1" d="M306.1,81.75c-6.19,4.29-.66,14.06,6.46,10.93a6.88,6.88,0,0,0,4.18-5.2C317.4,82.22,310.9,77.89,306.1,81.75Z"/><path class="cls-1" d="M22.91,167a6.89,6.89,0,0,0,4.19-5.2c.66-5.25-5.84-9.6-10.65-5.74C10.25,160.4,15.79,170.18,22.91,167Z"/><path class="cls-1" d="M281.24,297.49c-6.21,4.31-.67,14.09,6.46,10.95a6.9,6.9,0,0,0,4.2-5.21C292.56,298,286,293.63,281.24,297.49Z"/><path class="cls-1" d="M186,24.71c5.39-.77,6.69-7.91,4.19-10.55a6.37,6.37,0,0,0-9-.88C175.44,17.25,179.71,25.83,186,24.71Z"/><path class="cls-1" d="M64,290.54c-8.38,3.61-2.82,15.32,5,11.9C77.57,298.62,71.54,287.22,64,290.54Z"/><path class="cls-1" d="M346.88,165.84c-6-4.5-14,3.47-9.23,9.08a6,6,0,0,0,2.84,2.22C347.37,179.9,353.38,170.71,346.88,165.84Z"/><path class="cls-1" d="M55.81,82.38c9.61-4.26,1-17-6.49-11C43.1,75.71,48.66,85.53,55.81,82.38Z"/><path class="cls-1" d="M196.78,342.11a6.68,6.68,0,0,0,2.73,6c6.15,4.6,14.3-3.81,9-9.41C205.09,334.17,197.48,336.7,196.78,342.11Z"/><path class="cls-1" d="M269.08,49.16c6.79,5.09,15.16-5.07,7.89-10.52C270.37,33.71,261.7,43.64,269.08,49.16Z"/><path class="cls-1" d="M14.82,212.91c-6.24,4.33-.67,14.17,6.51,11a7,7,0,0,0,4.22-5.24C26.21,213.37,19.65,209,14.82,212.91Z"/><path class="cls-1" d="M320.91,256.46a6,6,0,0,0-1.29,8.9c3.38,5,11.33,2.37,12-3.12C332.29,257.1,325.85,252.49,320.91,256.46Z"/><path class="cls-1" d="M128.84,28.19c6.07-.87,7.66-10.27,1.61-12.54-5.8-2.32-12.15,4.78-7.79,9.94A6.35,6.35,0,0,0,128.84,28.19Z"/><path class="cls-1" d="M107.12,327.63c-6.26,4.35-.67,14.21,6.52,11.05a7,7,0,0,0,4.23-5.26C118.53,328.09,112,323.74,107.12,327.63Z"/><path class="cls-1" d="M330.46,119.31c6.18,4.62,14.38-3.83,9-9.46-3.44-4.56-11.08-2-11.79,3.43A6.73,6.73,0,0,0,330.46,119.31Z"/><path class="cls-1" d="M23.47,130.43a7,7,0,0,0,4.24-5.26c.66-5.33-5.92-9.71-10.77-5.8C10.67,123.72,16.27,133.6,23.47,130.43Z"/><path class="cls-1" d="M263.91,324c-6.65-5-15.31,5.06-7.94,10.58C262.44,339.37,271.45,329.6,263.91,324Z"/><path class="cls-1" d="M222.85,22.18c5.45-.78,6.76-8,4.23-10.67a6.43,6.43,0,0,0-9.13-.88C212.17,14.64,216.49,23.31,222.85,22.18Z"/><path class="cls-1" d="M33.46,268.33c-3.7,2.56-3.61,7.63.07,10.37,4.27,3.2,10.16-.13,10.73-4.56C44.91,268.94,38.43,264.33,33.46,268.33Z"/><path class="cls-1" d="M342,207.06a6,6,0,0,0,1.39,4.63c3.4,5,11.41,2.39,12.11-3.14a6,6,0,0,0-1.66-4.93C350.34,199,342.67,201.6,342,207.06Z"/><path class="cls-1" d="M78.07,50.43c7.24-4.92-1.19-15.71-8.12-10.14C62.76,45.28,71.19,56.28,78.07,50.43Z"/><path class="cls-1" d="M171.09,346.46c-6.53-4.88-15.5,5-8,10.62C169.58,361.91,178.68,352.14,171.09,346.46Z"/><path class="cls-1" d="M301.94,67.3c6.23,4.66,14.47-3.86,9.1-9.52-3.46-4.59-11.15-2-11.86,3.45A6.74,6.74,0,0,0,301.94,67.3Z"/><path class="cls-1" d="M2.73,177.16c-6.31,4.38-.67,14.33,6.58,11.13A7,7,0,0,0,13.57,183C14.24,177.65,7.62,173.23,2.73,177.16Z"/><path class="cls-1" d="M302.85,295.3a6,6,0,0,0,1.39,4.65c3.4,5,11.46,2.43,12.16-3.15a6,6,0,0,0-1.67-4.95C311.23,287.21,303.55,289.87,302.85,295.3Z"/><path class="cls-1" d="M163.61,13.13c5.49-.79,6.81-8.06,4.26-10.74a6.48,6.48,0,0,0-9.19-.89C152.86,5.53,157.2,14.27,163.61,13.13Z"/></g></g></g></svg>