<svg xmlns="http://www.w3.org/2000/svg" viewBox="0 0 618 326.3"><defs><style>.cls-1{fill:#221c35;}</style></defs><g id="Layer_2" data-name="Layer 2"><g id="Logos"><g id="right-triangle"><rect class="cls-1" x="306.97" width="16.87" height="17.28"/><rect class="cls-1" x="306.97" y="35.38" width="15.65" height="100.23"/><path class="cls-1" d="M331.51,147c0,17.28,15.86,26.43,45.74,26.43,33.34,0,50.42-9.76,50.42-28.67a22.81,22.81,0,0,0-11-19.92c-6.3-4.27-13-5.29-33.75-5.9-18.5-.61-22.56-1-26-2.64s-5.08-4.07-5.08-7.32c0-4.88,5.28-9.55,10.57-9.55a58.51,58.51,0,0,1,6.51,1,34.6,34.6,0,0,0,6.91.61c22.36,0,38.42-13.82,38.42-33.34,0-8.74-3.25-16.87-9.55-24.19,1.42-8.95,5.69-11.59,19.11-11.39V19.72a33.84,33.84,0,0,0-4.07-.2c-9.35,0-13.42,1-16.87,4.47-3.46,3.25-5.29,7.11-6.31,13A44.15,44.15,0,0,0,376,32.33c-22,0-38.22,14.63-38.22,34.15,0,11,3.66,18.5,13,26.63C340.66,98,337,102.67,337,110.8c0,6.91,2.44,11,9.76,16.26C336.19,131.13,331.51,137.23,331.51,147ZM376.44,44.73c12.81,0,22.16,9.76,22.16,22.77,0,12.6-9.35,21.55-22.36,21.55-13.42,0-22.37-8.74-22.37-22S363.22,44.73,376.44,44.73Zm-18.91,86.81c4.68.61,14,1.22,24.19,1.42,17.49.41,19.32.61,24.2,2.85,4.67,2,6.91,5.08,6.91,9.55,0,5.69-3.66,10.17-10.57,12.4a80.88,80.88,0,0,1-23.79,3.66c-11.79,0-22.77-2.84-28.26-7.52a11.51,11.51,0,0,1-3.66-8.54C346.55,139.06,349.2,135.6,357.53,131.54Z"/><path class="cls-1" d="M482.91,32.53c-13.82,0-22.56,6.1-30.7,21.35V0H436.56V135.6h15.65V81.52c0-11.79,2.44-19.72,8.34-26.43,5.08-5.89,12.6-9.55,19.51-9.55,7.73,0,14.85,4.47,17.49,11.18,1.63,4.07,2,7.73,2,18.1V135.6h15.66V74.82c0-16.68-1-21.76-6.1-29.08C503.45,37.2,493.89,32.53,482.91,32.53Z"/><path class="cls-1" d="M540.34,108c0,20.13,9.75,30.5,28.66,30.5a87.59,87.59,0,0,0,14.84-1.22v-12.4a58.39,58.39,0,0,1-12,1.22c-10.78,0-16.27-5.29-16.27-15.66V47.57h22.57V35.38H555.58V9L541,10.16l-.61,25.22H522.65V47.57h17.69Z"/><path class="cls-1" d="M263.07,40.46c0,15.65-10.57,26-26.63,26H226.27v14l55.09,55.09h10V121.69L249,79.34c18.8-4.12,31.39-19.07,31.39-38.88,0-12.4-5.9-25-14.84-31.92C258.39,2.85,248.63,0,236.44,0H177.27V135.6h16.87V14.23h43.51C252.7,14.23,263.07,25,263.07,40.46Z"/><polygon class="cls-1" points="122.59 152.88 28.05 152.88 28.05 167.73 66.89 167.73 66.89 288.49 83.76 288.49 83.76 167.73 122.59 167.73 122.59 152.88"/><path class="cls-1" d="M142.91,194.16c-3.65,4.47-5.48,7.52-10.36,17.48V188.26H118.92V288.49h15.66V235.42c.41-21.34,14.84-36.39,33.75-34.76V185.82c-2.24-.21-4.48-.41-5.69-.41A26.37,26.37,0,0,0,142.91,194.16Z"/><rect class="cls-1" x="177.27" y="152.88" width="16.87" height="17.28"/><rect class="cls-1" x="177.88" y="188.26" width="15.65" height="100.23"/><path class="cls-1" d="M291.32,226.48c0-14.64-1.83-22.57-6.71-29.28-5.9-7.92-16.06-11.79-31.11-11.79-16.67,0-29.27,4.07-37.2,12.2-4.27,4.27-6.1,8.13-7.52,15.66l14.43,2.44c2.64-12,11.79-18.3,26.84-18.3,19.11,0,26.22,6.91,26.22,25.82v3.25c-6.3-.41-9.35-.41-13-.41-17.48,0-31.1,2.44-40.25,7.32a31,31,0,0,0-16.88,27.45c0,17.89,14.23,30.29,35,30.29,17.08,0,27-5.9,35.17-20.74.82,11.39.82,13.22,1.83,18.1h15.45A73.82,73.82,0,0,1,291.32,269Zm-47.17,52.65c-13,0-21.35-7.11-21.35-17.89,0-15.24,14.24-23.38,40.26-23.38,2.44,0,7.72.21,13.21.41.21,2.64.21,4.68.21,6.51C276.48,264.09,262.45,279.13,244.15,279.13Z"/><path class="cls-1" d="M353.52,185.61c-13.82,0-21.75,5.29-32.12,21.15v-18.5H307V288.49h15.65v-55.1c0-19.72,11.79-34.36,28.06-34.36,13.41,0,20.73,8.75,20.73,25v64.45h14.64v-58c0-14.83-1-22.36-3.66-27.44A31.7,31.7,0,0,0,353.52,185.61Z"/><path class="cls-1" d="M479,277.71c-6.3-4.27-13-5.28-33.75-5.89-18.5-.62-22.56-1-26-2.65s-5.08-4.06-5.08-7.32c0-4.88,5.28-9.55,10.57-9.55a57,57,0,0,1,6.51,1,35.36,35.36,0,0,0,6.91.61c22.36,0,38.42-13.83,38.42-33.35,0-8.74-3.25-16.87-9.55-24.19,1.42-8.94,5.69-11.59,19.11-11.38V172.6a33.84,33.84,0,0,0-4.07-.2c-9.35,0-13.42,1-16.87,4.47-3.46,3.26-5.29,7.12-6.31,13a44.15,44.15,0,0,0-20.53-4.67c-22,0-38.22,14.64-38.22,34.15,0,11,3.66,18.5,13,26.64-10.16,4.88-13.82,9.55-13.82,17.68,0,6.92,2.44,11,9.76,16.27-10.58,4.06-15.25,10.16-15.25,19.92,0,17.28,15.86,26.43,45.74,26.43,33.34,0,50.42-9.76,50.42-28.67A22.81,22.81,0,0,0,479,277.71Zm-40.25-80.1c12.81,0,22.16,9.76,22.16,22.77,0,12.6-9.35,21.55-22.36,21.55-13.42,0-22.37-8.74-22.37-22S425.48,197.61,438.7,197.61Zm25.82,113a81.21,81.21,0,0,1-23.79,3.66c-11.79,0-22.77-2.85-28.26-7.53a11.48,11.48,0,0,1-3.66-8.53c0-6.31,2.64-9.76,11-13.83,4.68.61,14,1.22,24.2,1.42,17.48.41,19.31.61,24.19,2.85,4.67,2,6.91,5.08,6.91,9.56C475.09,303.94,471.43,308.41,464.52,310.65Z"/><rect class="cls-1" x="499.58" y="152.88" width="15.66" height="135.6"/><path class="cls-1" d="M595.64,269.17a27.52,27.52,0,0,1-20.94,9.15c-10.78,0-21.15-6.1-25.62-15.25-3.05-6.3-4.07-11.58-4.07-23.38h73c-.2-13.82-1.83-22.16-5.9-30.9-7.11-14.63-20.94-23.18-37.81-23.18-27.45,0-46.56,21.76-46.56,53.27,0,31.31,18.5,52.25,45.95,52.25,20.33,0,36-11,42.49-29.48l-14.44-3C599.5,263.89,597.87,266.73,595.64,269.17ZM552.94,208a27,27,0,0,1,21.55-10.37c9,0,15.66,3.46,20.74,10.57,4.06,5.9,5.49,10.57,5.69,19.92H545.83C546.84,218.55,548.47,213.67,552.94,208Z"/><path class="cls-1" d="M161,0H0V134.17H161ZM13.42,120.75,44.2,13.42H62.08L31.31,120.75Zm51.69,0H47.22L78,13.42H95.89ZM101.55,49.2l10.26-35.78h35.78Z"/></g></g></g></svg>