<svg xmlns="http://www.w3.org/2000/svg" viewBox="0 0 668 198.54"><defs><style>.cls-1{opacity:0.4;}</style></defs><g id="Layer_2" data-name="Layer 2"><g id="Logos"><g id="rounding-up-undies"><g class="cls-1"><path d="M29.18,47.09a5,5,0,0,1,.19-.51h0C29.3,46.77,29.24,46.92,29.18,47.09Z"/><path d="M19.13,52.69c.08-.11.06-.2-.07-.29.09.09.08.18,0,.29s-.12.2,0,.29A.44.44,0,0,1,19.13,52.69Z"/><path d="M39.65,49.43a.44.44,0,0,1,.13-.28c.08-.11.06-.21-.07-.29.09.08.08.18,0,.29S39.56,49.35,39.65,49.43Z"/><path d="M49.83,43.55c.06-.19.12-.35.18-.51h0C50,43.23,49.89,43.38,49.83,43.55Z"/><path d="M63,54.17c.06-.18.12-.34.18-.5h0A4.86,4.86,0,0,1,63,54.17Z"/><path d="M52.86,60.06a.48.48,0,0,1,.13-.29c.08-.1.06-.2-.07-.29.09.09.08.19,0,.29S52.77,60,52.86,60.06Z"/><path d="M78.28,37.12a5.47,5.47,0,0,1-.74,1.11,2.78,2.78,0,0,0-.47.69,1.28,1.28,0,0,0,.2.86c0,.06,0,.08.09.08s.11,0,.17.14c.13.26.22.39.28.38a.69.69,0,0,0,.65.18,5.54,5.54,0,0,0,.64.31,4.23,4.23,0,0,0,.94.28,1,1,0,0,1,.41.08q.26.1.51.24c.05.05.13.05.24,0a.86.86,0,0,1,.39-.11l.3.21a1.65,1.65,0,0,0,.38.21,3.13,3.13,0,0,1,.52,0l.45.08.26.14a.72.72,0,0,0,.25.14,3.69,3.69,0,0,0,.82.13,2.81,2.81,0,0,1,.82.21,2.92,2.92,0,0,1,1,.08l1,.23A17.8,17.8,0,0,0,84,45.19c-1,.92-2,1.79-2.91,2.63a19.19,19.19,0,0,1-2.9,2.66l-.62.74c-.17.21-.41.45-.7.75a5,5,0,0,1-.76.59,1.47,1.47,0,0,0-.58.65,1.5,1.5,0,0,0,1.38.6,6.91,6.91,0,0,0,1.93-.49l1-.37c.29-.11.58-.22.89-.36.46-.25,1-.5,1.51-.74l1.51-.65a.32.32,0,0,1,.39-.19c.6-.43,1.31-.91,2.12-1.44S87.9,48.51,88.61,48a1.65,1.65,0,0,1,.48-.4,1,1,0,0,0,.41-.4,1.76,1.76,0,0,1,.27-.14l.35-.15c.3-.3.57-.55.82-.76a6.61,6.61,0,0,0,.81-.84,5.24,5.24,0,0,0,.57-.81c.19-.31.4-.42.62-.33a.66.66,0,0,1,.64-.06,2.71,2.71,0,0,0,.66.18,1,1,0,0,0-.37-1,2.59,2.59,0,0,1-.67-.79,1.11,1.11,0,0,1,.1-.65c.09-.17,0-.35-.29-.54a.85.85,0,0,0-.34.27.42.42,0,0,1-.34.2.85.85,0,0,1-.74-.18,3.24,3.24,0,0,0-.84-.41,12.89,12.89,0,0,0-2.38-1c-.8-.22-1.61-.46-2.43-.71A8.92,8.92,0,0,1,84.37,39l-1.59-.62c-.27-.09-.53-.16-.78-.22a2.05,2.05,0,0,1-.8-.45l-1.11-.19a1.28,1.28,0,0,1-.82-.69C78.77,36.7,78.44,36.78,78.28,37.12Z"/><path d="M91.2,36.15l.54.24a3.82,3.82,0,0,0,.7.21c.29.19.63.41,1,.64s.74.45,1,.63a2.08,2.08,0,0,1,.63.23,2.76,2.76,0,0,0,.71.3,1,1,0,0,0,.34.21.56.56,0,0,1,.26.22,1.45,1.45,0,0,1,.22.22,1.05,1.05,0,0,0,.22.23.73.73,0,0,1,.57.11.53.53,0,0,1,.38.17l.39.32a2.32,2.32,0,0,1,1.36.85,1,1,0,0,1,.42.2,2.47,2.47,0,0,0,.43.29,2.68,2.68,0,0,0,1.15.3,2.11,2.11,0,0,1,1.26.53c0,.28-.26.48-.67.63A7.36,7.36,0,0,1,101,43.9c-.43.36-.84.72-1.24,1.08l-3.1,3.16c-.88,1-1.8,2-2.75,3a11.34,11.34,0,0,1-3.69,2.54A3.83,3.83,0,0,0,92,54a8.33,8.33,0,0,0,1.83-.28c.14-.18.36-.19.64-.06.15-.12.28-.16.39-.11a.59.59,0,0,0,.47-.12c0,.1,0,.17-.06.2s0,.1,0,.2a.29.29,0,0,0,.24.06q.17,0,.15-.09c.11-.06.16-.07.16,0s0,.09-.15.1l.4,0a1.76,1.76,0,0,0,.63-.21.77.77,0,0,0,.31-.11l.46-.28a.5.5,0,0,0,.19-.1.41.41,0,0,1,.27-.1l.26-.31a1.81,1.81,0,0,1,.41-.32.91.91,0,0,1,.26-.22A.45.45,0,0,0,99,52c.08-.38.17-.58.27-.58a2.13,2.13,0,0,1,.38-.28,4.86,4.86,0,0,0,.53-.37,4.12,4.12,0,0,1,.58-.25,4.12,4.12,0,0,0,.59-.25c.25-.18.48-.34.68-.46a4.8,4.8,0,0,0,.6-.46,6,6,0,0,0,1.61-.9,12.39,12.39,0,0,1,1.6-1.07,7.82,7.82,0,0,1,1.46-.77,9.47,9.47,0,0,0,1.39-.69l1.72-1.07c.53-.34,1.08-.67,1.64-1,.1-.12.15-.11.16,0s.07.17.17.1.17-.48.26-.78a1,1,0,0,1,.5-.65,1.24,1.24,0,0,1,.07-1.09c.19-.31.08-.59-.31-.82.15-.12.2-.38.17-.78s-.16-.59-.37-.57c0-.06.07-.1.07-.13s0-.07.15-.13c.08-.23.09-.32,0-.29s-.15,0-.21-.1a1,1,0,0,0-.08-1c-.15.12-.34.29-.56.49a6.85,6.85,0,0,1-.72.59.93.93,0,0,1-.46.28.68.68,0,0,1-.56,0c-.2.13-.43,0-.66-.22a7.39,7.39,0,0,0-.8-.78,5.69,5.69,0,0,0-1.54-.67,10.66,10.66,0,0,1-1.71-.65,8.65,8.65,0,0,1-.76-.42,3.65,3.65,0,0,0-.75-.34,41.65,41.65,0,0,0-4.26-1.27,22.69,22.69,0,0,1-4-1.38,12.75,12.75,0,0,0-1.31-.25,5.46,5.46,0,0,1-1.24-.33,1.64,1.64,0,0,1-.84-.41,2.36,2.36,0,0,1-.76-.38q-.34-.26-.78.27a.63.63,0,0,0-.41.4.87.87,0,0,1-.4.48.86.86,0,0,1-.28.42,1.83,1.83,0,0,0-.3.27.88.88,0,0,0-.05.37.3.3,0,0,1-.21.3l.88.89A5,5,0,0,0,91.2,36.15Z"/><path d="M43.1,81.25c.11-.11.17-.1.17,0s0,.17.16.12c.1-.22.21-.47.32-.77a1,1,0,0,1,.56-.6A1.21,1.21,0,0,1,44.47,79q.31-.43-.24-.84c.16-.11.24-.36.24-.76s-.11-.6-.32-.6c.05-.06.08-.1.08-.12s.05-.07.16-.12c.1-.22.12-.31,0-.28s-.15,0-.2-.12a1,1,0,0,0,0-1l-.61.44a6,6,0,0,1-.76.53,1,1,0,0,1-.48.23.64.64,0,0,1-.56-.08c-.21.11-.43,0-.64-.27a6.36,6.36,0,0,0-.72-.85,6.09,6.09,0,0,0-1.48-.8,10.64,10.64,0,0,1-1.65-.8,7.49,7.49,0,0,1-.72-.48,3.12,3.12,0,0,0-.72-.4A42.28,42.28,0,0,0,31.76,71a21.5,21.5,0,0,1-3.89-1.72,12.42,12.42,0,0,0-1.28-.36,5.37,5.37,0,0,1-1.2-.44,1.52,1.52,0,0,1-.8-.48,2.4,2.4,0,0,1-.72-.44c-.22-.19-.49-.12-.81.2a.6.6,0,0,0-.44.36.9.9,0,0,1-.44.44.87.87,0,0,1-.32.4,1.12,1.12,0,0,0-.32.24.86.86,0,0,0-.08.36c0,.14-.08.23-.24.28l.8,1a5.48,5.48,0,0,0,1,.89,4.59,4.59,0,0,1,.52.28,4.49,4.49,0,0,0,.69.28q.39.32,1,.72l1,.72a1.82,1.82,0,0,1,.6.28,3.33,3.33,0,0,0,.68.36,1.27,1.27,0,0,0,.32.24.56.56,0,0,1,.24.24,1,1,0,0,1,.2.24,1,1,0,0,0,.21.24.83.83,0,0,1,.56.16.6.6,0,0,1,.36.2l.36.37a2.31,2.31,0,0,1,1.28,1,1,1,0,0,1,.4.24,2.8,2.8,0,0,0,.4.32,2.59,2.59,0,0,0,1.12.4,2.09,2.09,0,0,1,1.21.64c-.06.27-.3.45-.73.56a6.58,6.58,0,0,1-1.24,1.12c-.45.32-.89.64-1.32,1l-3.37,2.88c-1,.91-2,1.83-3,2.77l-.05,0c1.07.76,2.16,1.55,3.28,2.38l.09,0a.32.32,0,0,0,.2-.08.54.54,0,0,1,.28-.08l.29-.28a1.58,1.58,0,0,1,.44-.28.73.73,0,0,1,.28-.2.67.67,0,0,0,.2-.12c.1-.37.21-.56.32-.56a1.86,1.86,0,0,1,.4-.24,5.58,5.58,0,0,0,.56-.32,3.13,3.13,0,0,1,.6-.2,5.82,5.82,0,0,0,.6-.2c.27-.16.51-.3.72-.4a4.85,4.85,0,0,0,.64-.4,6.26,6.26,0,0,0,1.69-.77,13.57,13.57,0,0,1,1.68-.92,7.53,7.53,0,0,1,1.52-.64A9.34,9.34,0,0,0,39.58,83l1.8-.92C41.94,81.79,42.52,81.51,43.1,81.25Z"/><path d="M60.66,84.3,62,84.11a10.64,10.64,0,0,0,1.33-.24,9.47,9.47,0,0,0,1.34-.32.62.62,0,0,0,.43-1c0-.09-.19-.16-.44-.22s-.55-.12-.91-.17a8,8,0,0,0-1.08-.1,8.06,8.06,0,0,1-.94-.07c-.55-.11-1.16-.21-1.86-.3s-1.27-.15-1.72-.18a26.91,26.91,0,0,0-3.78.27,19,19,0,0,0-3.1.65q-1.73.47-3.06.87c-.88.28-1.83.62-2.85,1q-.8.36-1.62.66a7.06,7.06,0,0,1-1.57.39,1.65,1.65,0,0,1-.6-.08.42.42,0,0,0-.47.12c.73.51,1.48,1.09,2.24,1.73A3.84,3.84,0,0,0,46,88.1a5.8,5.8,0,0,0,1-.11c.19,0,.45-.1.76-.16l.54,0a1.62,1.62,0,0,0,.46-.21.64.64,0,0,1,.4-.15c.22,0,.32,0,.3,0s0,.06.1.1a12.94,12.94,0,0,1,1.72-.77c.62-.22,1.22-.45,1.79-.7a.13.13,0,0,0,.1,0A.68.68,0,0,1,53.4,86c.18-.1.29-.13.34-.11s.11,0,.19-.11a2.41,2.41,0,0,1,.6-.19,2.41,2.41,0,0,0,.6-.19,1.24,1.24,0,0,0,.53-.12,6.1,6.1,0,0,1,.6-.19,5,5,0,0,1,1-.26,6,6,0,0,1,.71-.06,7.37,7.37,0,0,0,1.47-.19C59.84,84.44,60.26,84.35,60.66,84.3Z"/><path d="M102.83,84a33,33,0,0,0,3.61.27,10.25,10.25,0,0,0,2.28.1,7.86,7.86,0,0,0,2.08-.23A2.11,2.11,0,0,0,112.12,83a2.4,2.4,0,0,0-1-.54c-.36-.1-.68-.19-1-.29a9.06,9.06,0,0,0-1-.41,7,7,0,0,1-1-.5c-.66-.24-1.3-.52-1.94-.82s-1.28-.58-1.94-.83c-1.32-.55-2.65-1.08-4-1.6A22,22,0,0,0,96,76.9a6.29,6.29,0,0,1,.87-.67,8.07,8.07,0,0,1,.88-.5c.28-.19.53-.36.75-.49a8.56,8.56,0,0,0,.76-.49,1,1,0,0,0,.41-.29l.51-.3a3.63,3.63,0,0,0,.42-.29l.45-.34.38-.24a.48.48,0,0,1,.29-.2.58.58,0,0,0,.3-.11,2.35,2.35,0,0,1,.37-.33c.14-.09.26-.18.38-.24a2,2,0,0,0,.79-.54l.61-.7c.34-.14.53-.3.58-.48.11,0,.14,0,.07-.13s0-.19.07-.31l.16-.19c.08-.59,0-.93-.16-1a9.64,9.64,0,0,1-.82-.55c-.37-.27-.73-.55-1.07-.85a.88.88,0,0,0-1.18,0,1.66,1.66,0,0,1-.49,1.09l-1,.77c-.44.38-.91.76-1.41,1.15l-1.4,1.23c-.44.38-.87.79-1.31,1.23-.78.52-1.53,1.06-2.25,1.6a17.74,17.74,0,0,0-2.06,1.85,2.9,2.9,0,0,0-.73.75.9.9,0,0,1-.67.48.76.76,0,0,1-.44-.14,1,1,0,0,0-.54-.14c-.15.31-.14.54,0,.7a.93.93,0,0,1,.31.68,1.66,1.66,0,0,1-.32,1A.88.88,0,0,0,89.68,81a1.73,1.73,0,0,0,.54-.39.87.87,0,0,1,.55-.3,1.21,1.21,0,0,1,.76.3,2.82,2.82,0,0,0,.87.46,8.82,8.82,0,0,0,2.42.88.78.78,0,0,0,.32.2,2,2,0,0,1,.31.11,4.37,4.37,0,0,1,.67.17l.58.18c1,.22,4.86,1.18,5.69,1.35C102.62,84,102.77,84,102.83,84Z"/><path d="M93.65,90.7a.62.62,0,0,1,.38-.2.56.56,0,0,1,.39-.07,1.72,1.72,0,0,0,.39,0,7.06,7.06,0,0,0,1.9-.39,4.11,4.11,0,0,0,1.51-.89,14.24,14.24,0,0,1-4.64-1.25c-1.38-.66-2.74-1.36-4.08-2.08a22.13,22.13,0,0,0-2.08-1l-2.16-.9a10.52,10.52,0,0,0-1.71-.62,8.06,8.06,0,0,1-1.61-.63,1.88,1.88,0,0,0-.46-.28.74.74,0,0,1-.37-.28,2.31,2.31,0,0,1,1-1,2.63,2.63,0,0,0,1-.86,4.22,4.22,0,0,0,.29-.37,2.77,2.77,0,0,1,.28-.37,8.49,8.49,0,0,1,.6-.79,6.22,6.22,0,0,0,.52-.69l.32-.37.32-.37.26-.15a1.28,1.28,0,0,0,.24-.24c.11-.06.17-.13.16-.18a.24.24,0,0,1,.08-.18,2.54,2.54,0,0,1,.23-.41,5.11,5.11,0,0,1,.32-.42c.22-.25.41-.45.57-.61a1.77,1.77,0,0,0,.4-.51c.33-.31.64-.64.94-1l.85-1a5.57,5.57,0,0,0,1-1,14.15,14.15,0,0,0,1.31-2.45.28.28,0,0,1-.32-.2,1.88,1.88,0,0,0-.15-.38,1.83,1.83,0,0,0-.45-.19,2.76,2.76,0,0,1-.54-.18l-.47-.4a1.17,1.17,0,0,0-.63-.31c-.42-.14-.71-.08-.86.19a1.69,1.69,0,0,1-.57.61,1.65,1.65,0,0,1-.37.33,2.35,2.35,0,0,0-.37.33L86,69.77l-1.12.82a31.16,31.16,0,0,1-3.73,3c-1.33.91-2.61,1.84-3.82,2.8a4.24,4.24,0,0,0-.61.66c-.14.18-.34.43-.61.74l-1.53,1.29a6.11,6.11,0,0,0-1.26,1.35,4.07,4.07,0,0,0-.5,1,.9.9,0,0,1-.52.65.73.73,0,0,1-.6.13,2.39,2.39,0,0,0-.53-.05,5.94,5.94,0,0,1-1.07-.32l-.81-.34c-.1.3-.08.51,0,.61a3.9,3.9,0,0,1,.38.41.45.45,0,0,1-.2.24c-.09,0-.1.13,0,.3a.61.61,0,0,1,.36.15c-.23.14-.27.39-.13.76a2.09,2.09,0,0,0,.4.71c-.26.37-.23.67.11.91a1,1,0,0,1,.46,1,1,1,0,0,1,.83.59,1.64,1.64,0,0,0,.57.71c.13.11.17.09.13-.06s0-.18.12-.14c.71.07,1.38.17,2,.3s1.36.28,2.13.46c.53.08,1.09.14,1.67.19l1.85.18c.65.13,1.32.27,2,.43a18.42,18.42,0,0,0,2,.34,3.23,3.23,0,0,1,.8.21,2.84,2.84,0,0,0,.8.2,4.18,4.18,0,0,0,.75,0,1.87,1.87,0,0,1,.75.12,5.89,5.89,0,0,0,.66.08,1.74,1.74,0,0,1,.49.1c.06,0,.14.06.23.2a1.72,1.72,0,0,0,.34.37l.52,0c.18.1.35.21.5.31s.32.21.5.32l.53,0a7.3,7.3,0,0,0,1,.1,3.28,3.28,0,0,0,1-.16c-.11.07-.17,0-.18-.07s0-.12.17,0,.07.09.18.08a.33.33,0,0,0,.26-.11.3.3,0,0,0-.15-.25c-.09,0-.14-.1-.14-.16A.63.63,0,0,0,93.65,90.7Z"/><path d="M125.15,99.8a2.31,2.31,0,0,1,0,.32c.12-.09.14-.18.06-.29s-.09-.18,0-.22C125.16,99.61,125.13,99.67,125.15,99.8Z"/><path d="M125.44,109.19v-3c0-.43.06-.85.06-1.25v-3c0-.56,0-1.13-.06-1.73-.21-.08-.3-.06-.25.07a.41.41,0,0,1,0,.31,3.54,3.54,0,0,0-.16-.86c-.11-.36-.06-.58.16-.67a1.5,1.5,0,0,1,0-.89c-.22-.09-.29-.07-.23.06s.05.19,0,.19v-.51a.88.88,0,0,1,.13-.51c-.09,0-.13-.27-.13-.67s0-.61-.13-.61a1.55,1.55,0,0,1-.41-.86c-.07-.36-.12-.73-.16-1.12s-.08-.77-.1-1.18a4.46,4.46,0,0,0-.16-1.05,52.48,52.48,0,0,0-1.34-5.94q-.82-2.88-1.73-5.75s0,0,0,0a.85.85,0,0,1-.31-.44,8.51,8.51,0,0,1-.28-.89c-.09-.32-.16-.64-.23-1a3.06,3.06,0,0,0-.22-.73.72.72,0,0,1-.06-.52.77.77,0,0,0-.07-.51.81.81,0,0,0-.29-.64.43.43,0,0,1,0-.63c-.08-.09-.13-.11-.13-.07s-.06,0-.19-.06a13.24,13.24,0,0,1-.16-1.57,4.23,4.23,0,0,0-.28-1.43,1,1,0,0,0-.26-.45,1.59,1.59,0,0,1-.32-.51,2.5,2.5,0,0,1-.16-.64,1.48,1.48,0,0,0-.22-.64c.08-.08,0-.28-.1-.57a1.56,1.56,0,0,0-.41-.58,2.89,2.89,0,0,0-.39-1.41l-.7-1.27a4.45,4.45,0,0,1-.64-1.34,12.92,12.92,0,0,0-.51-1.47q-.7-1.41-1.5-2.94a13.48,13.48,0,0,0-1.88-2.75,1.44,1.44,0,0,0-.36.8,2.81,2.81,0,0,0,.07.86,7.55,7.55,0,0,0,.25.9c.11.3.21.57.29.83-.08.08-.13,0-.13-.19s-.06-.32-.19-.32c.21,1.15.46,2.26.74,3.35a27,27,0,0,0,1,3.16c.12.3.27.62.44,1s.32.68.45,1a9.39,9.39,0,0,1,.8,2.84,12.4,12.4,0,0,0,.61,2.72c-.09,0-.15,0-.2.16a1.86,1.86,0,0,0-.06.48.93.93,0,0,0,.1.45.42.42,0,0,0,.41.19.43.43,0,0,0-.06.64c-.13.12-.24.1-.32-.07a2.12,2.12,0,0,1-.19-.7,5.42,5.42,0,0,1-.07-.89,1.13,1.13,0,0,1,.13-.64,4.48,4.48,0,0,1-.45-1.22c-.08-.42-.19-.87-.32-1.34s-.42-.91-.64-1.34a7.42,7.42,0,0,1-.51-1.34,1.17,1.17,0,0,0,.13,1.15,3.81,3.81,0,0,1,.51,1.28,1.86,1.86,0,0,0,0,.95,2.56,2.56,0,0,0,.26.83c.21.13.31.42.29.87a4.86,4.86,0,0,0,0,1.11q.26.7.51,1.44a4.94,4.94,0,0,1,.25,1.63,1.32,1.32,0,0,1,.55,1.15c0,.55,0,1,.09,1.34a4.47,4.47,0,0,0,.45,1.5,2.45,2.45,0,0,1,.26,1.5,1.53,1.53,0,0,0,0,1s0,.09,0,.13a.28.28,0,0,0-.09.32,1.32,1.32,0,0,1,.1.51s0-.18,0-.41a.92.92,0,0,0,0-.16,2,2,0,0,1,0,.63,1.56,1.56,0,0,0,0,1,2.59,2.59,0,0,1,.16.9,1.81,1.81,0,0,1,0,.92,2.85,2.85,0,0,0,0,.93c-.13.13-.19.08-.19-.13a2.49,2.49,0,0,1,.06-.57.94.94,0,0,0,0,1,1.46,1.46,0,0,1,.16,1.08,1,1,0,0,1,.19.26.37.37,0,0,0,.2.19,4.38,4.38,0,0,0,.28,1.95,4.36,4.36,0,0,1,.29,2c.08,0,.18.07.29.22a1.93,1.93,0,0,1,.25.54c.07.22.12.41.16.58s0,.28,0,.32c.22.08.27.08.16,0s-.12-.17,0-.26a1.22,1.22,0,0,1,.06,1,1,1,0,0,0,.32,1,1.07,1.07,0,0,0,.13.44,1.49,1.49,0,0,0,.19.32.79.79,0,0,0-.06.32c0,.17.08.27.13.29s0,.18-.07.48c.17,0,.3.11.39.32a4.29,4.29,0,0,1,.19.73l.12.83a1.6,1.6,0,0,0,.2.61,1.88,1.88,0,0,1,.19.8v.89a7,7,0,0,0,.06.93,2,2,0,0,0,.32.83,1.88,1.88,0,0,1,.13.74c0,.27,0,.56,0,.86a3.24,3.24,0,0,0,.19.86,1.75,1.75,0,0,0,.55.73,2.38,2.38,0,0,0,.79.61,10.83,10.83,0,0,0,1.15.51,8,8,0,0,0,1.22.35,2.73,2.73,0,0,0,1,.07,1.06,1.06,0,0,0-.19-.71A1.6,1.6,0,0,1,125.44,109.19ZM114.77,73.86a.4.4,0,0,0-.09-.41.32.32,0,0,1-.1-.35,1.65,1.65,0,0,1,.29.44C115,73.76,114.94,73.86,114.77,73.86ZM117,86.8a.28.28,0,0,1,.12-.42,1,1,0,0,0,.13.58c.09.13,0,.23-.19.32A.71.71,0,0,0,117,86.8Zm.09,1.5a3.11,3.11,0,0,1,0-.61c0-.19.1-.26.23-.22a1.37,1.37,0,0,0,0,.89,1,1,0,0,1-.1.9A9.31,9.31,0,0,1,117,88.3Zm.35,3.07a4.9,4.9,0,0,1-.16-.8,4.49,4.49,0,0,1,0-.93,1.62,1.62,0,0,1,.31.74A.87.87,0,0,1,117.39,91.37Z"/><path d="M123.67,122.13c.16-.11.22-.37.2-.77s-.14-.59-.35-.58a.23.23,0,0,0,.07-.13s0-.07.16-.13.1-.31,0-.28-.15,0-.2-.11a1,1,0,0,0,0-1c-.16.12-.35.27-.58.47a6.84,6.84,0,0,1-.74.56.9.9,0,0,1-.46.27.7.7,0,0,1-.57,0c-.21.12-.42,0-.65-.25a7.24,7.24,0,0,0-.77-.8,5.54,5.54,0,0,0-1.52-.72,9.81,9.81,0,0,1-1.68-.72,6.46,6.46,0,0,1-.75-.44,3,3,0,0,0-.74-.36,38.73,38.73,0,0,0-4.21-1.43,22.57,22.57,0,0,1-4-1.51,11.1,11.1,0,0,0-1.3-.3,4.59,4.59,0,0,1-1.22-.38,1.48,1.48,0,0,1-.83-.44,2.31,2.31,0,0,1-.74-.4c-.23-.17-.49-.09-.8.25a.6.6,0,0,0-.42.38.91.91,0,0,1-.41.46.94.94,0,0,1-.3.42,1,1,0,0,0-.31.26.72.72,0,0,0-.06.36c0,.13-.07.23-.23.29l.85.92a5.2,5.2,0,0,0,1,.83c.22.1.4.18.54.26a4,4,0,0,0,.69.24c.28.2.61.42,1,.67s.72.47,1,.67a1.79,1.79,0,0,1,.61.25,3.5,3.5,0,0,0,.7.32,1.32,1.32,0,0,0,.33.23.51.51,0,0,1,.26.22,1.64,1.64,0,0,1,.21.23,1,1,0,0,0,.21.23.8.8,0,0,1,.57.13.57.57,0,0,1,.37.19l.38.34a2.29,2.29,0,0,1,1.33.89,1.12,1.12,0,0,1,.42.22,2.91,2.91,0,0,0,.41.3,2.62,2.62,0,0,0,1.14.34,2,2,0,0,1,1.24.58q-.06.41-.69.6a7.32,7.32,0,0,1-1.18,1.18c-.44.34-.86.69-1.27,1L107.17,129c-.91,1-1.86,1.93-2.85,2.92a11.2,11.2,0,0,1-3.77,2.4,3.7,3.7,0,0,0,1.7.36,8.35,8.35,0,0,0,1.84-.22c.15-.17.36-.18.64,0a.41.41,0,0,1,.4-.11c.1,0,.26,0,.47-.1,0,.11,0,.17-.07.2s0,.1,0,.2a.33.33,0,0,0,.25.07c.1,0,.16,0,.15-.09s.16-.06.16,0,0,.09-.15.09l.4,0a1.86,1.86,0,0,0,.63-.19.71.71,0,0,0,.31-.1l.47-.26a.56.56,0,0,0,.2-.09.53.53,0,0,1,.28-.1l.26-.29a1.77,1.77,0,0,1,.43-.31.76.76,0,0,1,.27-.21.64.64,0,0,0,.19-.13c.09-.38.18-.57.29-.58a1.76,1.76,0,0,1,.39-.26,5.07,5.07,0,0,0,.54-.35,3.53,3.53,0,0,1,.59-.23,4.74,4.74,0,0,0,.59-.23c.26-.18.49-.32.7-.44a3.94,3.94,0,0,0,.62-.44,5.93,5.93,0,0,0,1.64-.84,11.94,11.94,0,0,1,1.63-1,7.58,7.58,0,0,1,1.49-.72,8.4,8.4,0,0,0,1.41-.64c.63-.35,1.21-.69,1.76-1s1.1-.64,1.67-.94c.1-.11.16-.1.17,0s.06.17.16.11a6.26,6.26,0,0,0,.28-.78,1,1,0,0,1,.53-.63A1.24,1.24,0,0,1,124,123C124.15,122.66,124.06,122.38,123.67,122.13Z"/><path d="M101.52,126.79a7,7,0,0,0,1.44-1.6c.2-.31.41-.41.63-.32a.69.69,0,0,1,.64,0,3.08,3.08,0,0,0,.65.21,1,1,0,0,0-.33-1,2.65,2.65,0,0,1-.65-.81,1.16,1.16,0,0,1,.13-.65c.1-.16,0-.35-.27-.55a.81.81,0,0,0-.35.26.4.4,0,0,1-.35.18.82.82,0,0,1-.73-.2,3.19,3.19,0,0,0-.83-.44,12.06,12.06,0,0,0-2.34-1c-.79-.25-1.59-.52-2.41-.8a8.82,8.82,0,0,1-1.55-.52l-1.56-.68-.78-.24a2.14,2.14,0,0,1-.79-.48L91,117.87a1.33,1.33,0,0,1-.8-.72c-.49-.19-.83-.12-1,.21a5.32,5.32,0,0,1-.78,1.08,2.9,2.9,0,0,0-.49.67,1.31,1.31,0,0,0,.17.88c0,.05,0,.07.08.07s.11,0,.17.15c.12.27.21.39.26.39a.75.75,0,0,0,.65.21l.62.33a4.7,4.7,0,0,0,.94.31.9.9,0,0,1,.41.1c.16.07.33.16.49.25a.2.2,0,0,0,.24,0,.94.94,0,0,1,.4-.1,2.59,2.59,0,0,0,.29.22,2.4,2.4,0,0,0,.38.23,2.17,2.17,0,0,1,.52,0,3.42,3.42,0,0,1,.45.1.66.66,0,0,1,.24.14,1.09,1.09,0,0,0,.25.15,4.94,4.94,0,0,0,.81.16,2.57,2.57,0,0,1,.82.24,3,3,0,0,1,1,.11l1,.27a18.11,18.11,0,0,0-3.42,2.3c-1,.89-2,1.73-3,2.53a19.72,19.72,0,0,1-3,2.56l-.65.72a8,8,0,0,1-.72.72,4.16,4.16,0,0,1-.77.56,1.51,1.51,0,0,0-.61.64,1.51,1.51,0,0,0,1.36.65,7.08,7.08,0,0,0,1.94-.43l1.07-.33.9-.33a15.6,15.6,0,0,1,1.53-.68l1.54-.61a.33.33,0,0,1,.39-.18c.62-.4,1.34-.86,2.17-1.36s1.61-1,2.33-1.52a1.66,1.66,0,0,1,.5-.39,1,1,0,0,0,.43-.38,1.76,1.76,0,0,1,.27-.14l.35-.14C101,127.23,101.26,127,101.52,126.79Z"/><path d="M24.67,79.8a2.62,2.62,0,0,0,.64.24A1,1,0,0,0,25,79a2.36,2.36,0,0,1-.6-.84,1.1,1.1,0,0,1,.16-.64c.1-.16,0-.35-.24-.56a.68.68,0,0,0-.36.24.42.42,0,0,1-.37.16.87.87,0,0,1-.72-.24,2.7,2.7,0,0,0-.8-.48,13,13,0,0,0-2.28-1.17c-.78-.29-1.57-.6-2.37-.92a9.61,9.61,0,0,1-1.52-.6l-1.52-.76c-.27-.11-.53-.2-.77-.28a2,2,0,0,1-.76-.52l-1.08-.28a1.33,1.33,0,0,1-.76-.76c-.48-.22-.82-.16-1,.16a5.79,5.79,0,0,1-.84,1,3.27,3.27,0,0,0-.53.64,1.23,1.23,0,0,0,.13.88s0,.08.08.08.1.06.16.16c.1.27.18.4.24.4a.71.71,0,0,0,.64.24,6.75,6.75,0,0,0,.6.36,3.84,3.84,0,0,0,.92.36.93.93,0,0,1,.4.12c.16.09.32.18.48.29s.13,0,.24,0A.82.82,0,0,1,13,76l.28.23a3.47,3.47,0,0,0,.36.25,2.6,2.6,0,0,1,.53,0,2.25,2.25,0,0,1,.44.12.91.91,0,0,1,.24.16,1.09,1.09,0,0,0,.24.16,5.14,5.14,0,0,0,.8.2,2.74,2.74,0,0,1,.8.28,2.93,2.93,0,0,1,1,.16l1,.32a18,18,0,0,0-3.52,2.12l-.52.4c1.41.86,3,1.84,4.61,2.91l.24-.14a1.62,1.62,0,0,1,.52-.36,1,1,0,0,0,.44-.36l.28-.12.36-.12a10.11,10.11,0,0,1,.88-.68,6.26,6.26,0,0,0,.88-.77,5,5,0,0,0,.64-.76c.22-.29.43-.38.65-.28A.72.72,0,0,1,24.67,79.8Z"/><path d="M52.74,102.81c-.83.83-1.6,1.61-2.33,2.33a9.65,9.65,0,0,0-.92,1.21,5.66,5.66,0,0,1-.8,1c.69.67,1.38,1.37,2.08,2.08l.15-.16a19.27,19.27,0,0,0,1.95-2.72c.58-1,1.16-1.94,1.76-3-.13,0-.23.09-.29.26s-.12.21-.16.13a6.09,6.09,0,0,1,.48-.67c.19-.24.37-.48.54-.74a2.26,2.26,0,0,0,.35-.83,1.2,1.2,0,0,0-.16-.89A11.74,11.74,0,0,0,52.74,102.81Z"/><path d="M69.41,109.35a2.26,2.26,0,0,0,.44-.64,3.54,3.54,0,0,0,.39-.9,3.4,3.4,0,0,1,.79-1.08,1.31,1.31,0,0,0,.48-1.15,4.57,4.57,0,0,1-.86,1.18,6.75,6.75,0,0,0-.92,1.12,10.36,10.36,0,0,0-.8,1.15,4.7,4.7,0,0,1-.87,1,1.18,1.18,0,0,1-.06.64,5.11,5.11,0,0,1-.32.83,2.24,2.24,0,0,1-.41.6q-.22.22-.36,0a.52.52,0,0,0,.2-.7.37.37,0,0,0,.44,0,.77.77,0,0,0,.26-.39,1,1,0,0,0,0-.41c0-.13-.07-.17-.16-.13a16,16,0,0,0,1.47-2.49,10.43,10.43,0,0,1,1.6-2.43c.29-.29.57-.58.83-.86l.7-.73a21.73,21.73,0,0,0,2-2.72c.57-1,1.16-2,1.75-3-.12,0-.22.09-.28.26s-.12.21-.16.12a5.73,5.73,0,0,1,.48-.67c.19-.23.37-.48.54-.73a2.34,2.34,0,0,0,.35-.83,1.22,1.22,0,0,0-.16-.9,11.87,11.87,0,0,0-2.65,2l-2.33,2.33a10.8,10.8,0,0,0-.93,1.21,5.16,5.16,0,0,1-1,1.15q-.51.51-1.08,1a2.71,2.71,0,0,0-.83,1.18c-.13,0-.3.13-.52.39a1.14,1.14,0,0,0-.31.51,1.21,1.21,0,0,0-.42.54,1.35,1.35,0,0,1-.35.54,1.38,1.38,0,0,1-.45.39.78.78,0,0,0-.38.38,7.5,7.5,0,0,0-.74,1.25l-.67,1.43c-.12,0-.18,0-.16,0s0,0-.16.07c.09.3,0,.49-.22.57a.82.82,0,0,0-.48.45,1,1,0,0,0-.19.48,1,1,0,0,1-.26.48,3.2,3.2,0,0,0-.41.6q-.22.42-.51.87c-.19.29-.37.56-.54.79a.7.7,0,0,1-.51.36s.06,0,.06,0,0,0-.06,0l-2.24,3.22c1.23,1.41,2.46,2.85,3.7,4.35a.79.79,0,0,0,.2-.41c.12.08.13.2,0,.35a.66.66,0,0,0-.11.2l0,.05a3.18,3.18,0,0,1,.45-.76,1.34,1.34,0,0,0,.29-.87,1.8,1.8,0,0,1,.26-.79c0,.09,0,.2,0,.31s0,.38,0,.42a.93.93,0,0,1,.16-.51.33.33,0,0,0,0-.37l0,0a1.58,1.58,0,0,0,.38-.92,2.63,2.63,0,0,1,.71-1.38,5,5,0,0,0,.89-1.24,8,8,0,0,0,.54-1.28c.2-.55.48-.87.87-1a6.45,6.45,0,0,1,.76-1.37c.3-.4.6-.84.9-1.31a5.23,5.23,0,0,0,.41-1C69,109.69,69.19,109.43,69.41,109.35Zm-.71.54c-.08.06-.12.2-.12.41-.18-.08-.19-.21,0-.38a2,2,0,0,1,.42-.38A1.05,1.05,0,0,1,68.7,109.89Z"/><path d="M86.72,112a1.36,1.36,0,0,0,.48-1.15,4.4,4.4,0,0,1-.86,1.18,7.89,7.89,0,0,0-.93,1.12c-.29.38-.56.77-.8,1.15a4.4,4.4,0,0,1-.86,1,1.29,1.29,0,0,1-.06.64,4.78,4.78,0,0,1-.32.83,2.32,2.32,0,0,1-.42.61c-.14.15-.26.14-.35,0a.53.53,0,0,0,.2-.71.36.36,0,0,0,.44,0,.77.77,0,0,0,.26-.38,1,1,0,0,0,0-.42c0-.13-.08-.17-.16-.13a16,16,0,0,0,1.47-2.49,10.17,10.17,0,0,1,1.6-2.42l.83-.87.7-.73a21,21,0,0,0,2-2.72c.57-1,1.16-1.94,1.75-3-.12,0-.22.09-.28.26s-.12.21-.16.13a4.24,4.24,0,0,1,.48-.67c.19-.24.37-.48.54-.74a2.26,2.26,0,0,0,.35-.83,1.25,1.25,0,0,0-.16-.89,11.53,11.53,0,0,0-2.65,2l-2.33,2.33a10.8,10.8,0,0,0-.93,1.21,5.73,5.73,0,0,1-1,1.15,12.67,12.67,0,0,1-1.08,1,2.61,2.61,0,0,0-.83,1.19c-.13,0-.3.12-.52.38a1.19,1.19,0,0,0-.31.51,1.14,1.14,0,0,0-.42.54,1.32,1.32,0,0,1-.35.55,1.24,1.24,0,0,1-.45.38.82.82,0,0,0-.38.38,7.5,7.5,0,0,0-.74,1.25l-.67,1.44c-.13,0-.18,0-.16,0s0,0-.16.06c.09.3,0,.49-.22.57a.82.82,0,0,0-.48.45,1.07,1.07,0,0,0-.19.48.94.94,0,0,1-.26.48,3,3,0,0,0-.41.61c-.15.27-.32.56-.51.86s-.37.56-.55.8a.69.69,0,0,1-.51.35s.07,0,.07,0,0,0-.07,0q-1.73,2.51-3.41,4.92a46,46,0,0,0-3.1,5.11,7.66,7.66,0,0,0-.48,1c0,.1-.09.2-.13.31,1.29,1.76,2.58,3.58,3.85,5.45,0,0,0,0,0-.05a1.36,1.36,0,0,1,.44-1c0,.09,0,.16-.09.23s-.06.09.16.09c-.09,0-.09-.15,0-.32A2.22,2.22,0,0,1,74,135c.15-.17.3-.32.44-.45s.27-.17.36-.12a5.49,5.49,0,0,1,.86-1.73,3.86,3.86,0,0,0,.6-1.22.61.61,0,0,1-.06-.47,2.59,2.59,0,0,1,.64-1.25,4.11,4.11,0,0,1-.29.93c0,.06,0,.15-.08.22a1.26,1.26,0,0,0,.34-.12,1.81,1.81,0,0,0,.22-.2,2,2,0,0,1,.55-1,1,1,0,0,0,.28-1c0,.17-.09.37-.16.58s-.14.25-.22.13a3.17,3.17,0,0,0,.32-.9c0-.25.11-.55.19-.89a3.33,3.33,0,0,1,.48-.8,1.31,1.31,0,0,0,.29-.86A1.84,1.84,0,0,1,79,125c0,.09,0,.2,0,.32s0,.37,0,.41a.93.93,0,0,1,.16-.51.33.33,0,0,0,0-.37l0,0a1.64,1.64,0,0,0,.38-.93,2.56,2.56,0,0,1,.71-1.37,5.25,5.25,0,0,0,.89-1.25,7.66,7.66,0,0,0,.54-1.28c.19-.55.48-.87.87-1a6.29,6.29,0,0,1,.76-1.38c.3-.4.6-.84.9-1.31a6.28,6.28,0,0,0,.41-.95c.15-.43.33-.69.54-.77a1.89,1.89,0,0,0,.45-.64,3.08,3.08,0,0,0,.38-.89A3.52,3.52,0,0,1,86.72,112Zm-9.26,16.51c-.11.19-.24.48-.41.86a.86.86,0,0,1,.16-.79,1.73,1.73,0,0,0,.28-.87c.13,0,.18.09.16.26A1.4,1.4,0,0,1,77.46,128.55Zm.58-1.34a.71.71,0,0,0-.16.41c-.17-.12-.21-.23-.1-.31a.74.74,0,0,0,.22-.45C78.13,126.94,78.14,127.06,78,127.21Zm6.35-12a.52.52,0,0,0-.13.42q-.26-.14,0-.39a2.32,2.32,0,0,1,.42-.38A1,1,0,0,1,84.39,115.2Z"/><path d="M128,63.36a2.08,2.08,0,0,1-.16-.64,1.69,1.69,0,0,0-.22-.64c.08-.08.05-.27-.1-.57a1.56,1.56,0,0,0-.42-.58,2.87,2.87,0,0,0-.38-1.4c-.25-.47-.49-.9-.7-1.28a4.23,4.23,0,0,1-.64-1.34,12.92,12.92,0,0,0-.51-1.47q-.7-1.41-1.5-2.94a13.52,13.52,0,0,0-1.89-2.75,1.46,1.46,0,0,0-.35.8,2.9,2.9,0,0,0,.07.87,8,8,0,0,0,.25.89c.11.3.2.58.29.83-.09.09-.13,0-.13-.19s-.06-.32-.19-.32c.21,1.15.46,2.27.73,3.35a31.43,31.43,0,0,0,1,3.16q.19.45.45,1t.45,1a9.67,9.67,0,0,1,.8,2.85,11.76,11.76,0,0,0,.6,2.71c-.08,0-.15,0-.19.16a1.86,1.86,0,0,0-.06.48,1.06,1.06,0,0,0,.09.45.43.43,0,0,0,.42.19.43.43,0,0,0-.07.64c-.12.13-.23.11-.31-.07a2.27,2.27,0,0,1-.2-.7,6.65,6.65,0,0,1-.06-.89,1.16,1.16,0,0,1,.13-.64,4.07,4.07,0,0,1-.45-1.22c-.09-.42-.19-.87-.32-1.34s-.42-.91-.64-1.34a7.42,7.42,0,0,1-.51-1.34,1.14,1.14,0,0,0,.13,1.15,4.28,4.28,0,0,1,.51,1.28,1.69,1.69,0,0,0,0,1,2.76,2.76,0,0,0,.26.83c.21.12.3.41.28.86a5.52,5.52,0,0,0,0,1.12c.16.47.34.94.51,1.43a5,5,0,0,1,.25,1.63,1.35,1.35,0,0,1,.55,1.15c0,.56,0,1,.09,1.34a4.36,4.36,0,0,0,.45,1.51,2.42,2.42,0,0,1,.25,1.5,1.57,1.57,0,0,0,0,1s0,.09,0,.13a.27.27,0,0,0-.09.32,1.32,1.32,0,0,1,.1.51s0-.18,0-.41c0-.06,0-.1,0-.15a2.87,2.87,0,0,1,0,.63,1.53,1.53,0,0,0,0,1,2.59,2.59,0,0,1,.16.9,2.07,2.07,0,0,1,0,.92,2.85,2.85,0,0,0,0,.93c-.13.13-.19.09-.19-.13a2.49,2.49,0,0,1,.06-.57.94.94,0,0,0,0,1,1.53,1.53,0,0,1,.16,1.09,1,1,0,0,1,.19.25.39.39,0,0,0,.19.19,4.5,4.5,0,0,0,.29,2,4.55,4.55,0,0,1,.29,2c.08,0,.18.07.28.22a1.65,1.65,0,0,1,.26.55,4.24,4.24,0,0,1,.11.41l0-24.27a1,1,0,0,0-.16-.29A1.44,1.44,0,0,1,128,63.36Zm-3.26,3.07a.44.44,0,0,0-.09-.42.32.32,0,0,1-.1-.35,2.06,2.06,0,0,1,.29.45C124.92,66.32,124.89,66.43,124.72,66.43Zm2.17,12.93A.28.28,0,0,1,127,79a1,1,0,0,0,.13.57c.08.13,0,.24-.19.32A.67.67,0,0,0,126.89,79.36Zm.1,1.5a3.11,3.11,0,0,1,0-.61c0-.19.09-.26.22-.22a1.55,1.55,0,0,0,0,.9,1,1,0,0,1-.09.89A8.51,8.51,0,0,1,127,80.86Zm.35,3.07a3.89,3.89,0,0,1-.16-.8,5.19,5.19,0,0,1,0-.93c.09,0,.19.29.32.74A.86.86,0,0,1,127.34,83.93Z"/><path d="M125,38c-1,.39-2.15.85-3.34,1.38-.61.32-1.25.62-1.89.89a8.68,8.68,0,0,1-1.84.56,1.91,1.91,0,0,1-.73-.05.48.48,0,0,0-.55.17c.9.56,1.83,1.2,2.78,1.92a4.56,4.56,0,0,0,3.26.93,6.61,6.61,0,0,0,1.23-.19,8.82,8.82,0,0,1,.91-.24l.64-.06A1.6,1.6,0,0,0,126,43a.92.92,0,0,1,.47-.2c.26,0,.39,0,.36,0s0,.07.13.11a14.65,14.65,0,0,1,1.53-.8V36.78C127.17,37.2,126,37.61,125,38Z"/><path d="M63,54.25l0-.08,0,.07Z"/><path d="M66.05,38.53a.79.79,0,0,0-.48.45,1,1,0,0,0-.19.48.94.94,0,0,1-.26.48,2.65,2.65,0,0,0-.41.61c-.15.27-.32.56-.51.86s-.38.56-.55.8a.69.69,0,0,1-.51.35s.07,0,.07,0,0,0-.07,0l-3.42,4.92a47.49,47.49,0,0,0-3.09,5.11,8.12,8.12,0,0,0-.48,1c-.15.39-.31.76-.48,1.12a9.16,9.16,0,0,1-.54,1,1.77,1.77,0,0,1-.67.64c-.09,0-.19.2-.29.61s-.2.6-.29.6l-.16.52,0,.15a.46.46,0,0,0-.17,0,1.29,1.29,0,0,1-.1.55,1.17,1.17,0,0,1-.22.35c.21.17.21.4,0,.7a4.15,4.15,0,0,0-.45.77.27.27,0,0,1,.1-.32c.1-.09.05-.11-.16-.07a58.48,58.48,0,0,0-2.05,5.62,9.3,9.3,0,0,1-.35,1.38l-.48,1.43a1.53,1.53,0,0,1-.51.64c-.25.22-.38.41-.38.58a2.69,2.69,0,0,0,.92.29,6.7,6.7,0,0,0,1.28.06A8.61,8.61,0,0,0,52.38,70a3.32,3.32,0,0,0,.93-.32,1.68,1.68,0,0,0,1.18-1.21A3.85,3.85,0,0,1,55.16,67,2.81,2.81,0,0,0,56,65.39a2.57,2.57,0,0,1,.77-1.5,1.33,1.33,0,0,0,.38-.51c.13-.25.25-.51.38-.76a6.85,6.85,0,0,1,.39-.68.46.46,0,0,1,.51-.22c0-.25,0-.39.09-.41A1.06,1.06,0,0,0,58.8,61a.36.36,0,0,0-.13-.26c.09-.08.19-.18.32-.28a1.8,1.8,0,0,0,.32-.36,1,1,0,0,0,.58-.86,1.36,1.36,0,0,1,.44-1c0,.09,0,.16-.09.23s-.06.09.16.09c-.09,0-.09-.15,0-.32a2.22,2.22,0,0,1,.35-.51,4.72,4.72,0,0,1,.44-.45c.15-.12.27-.17.36-.12a5.39,5.39,0,0,1,.86-1.73,4.09,4.09,0,0,0,.6-1.22.61.61,0,0,1-.06-.47,3.27,3.27,0,0,1,.19-.58,3.55,3.55,0,0,1,.45-.67,4.69,4.69,0,0,1-.29.93c0,.06,0,.15-.08.22a1,1,0,0,0,.34-.13,1.12,1.12,0,0,0,.22-.19,2.1,2.1,0,0,1,.54-1,1,1,0,0,0,.29-1c0,.17-.09.37-.16.58s-.14.25-.22.13a3.17,3.17,0,0,0,.32-.9c0-.25.1-.55.19-.89a3.33,3.33,0,0,1,.48-.8,1.33,1.33,0,0,0,.29-.86,1.84,1.84,0,0,1,.26-.8,2.53,2.53,0,0,0,0,.32c0,.23,0,.37,0,.41a.93.93,0,0,1,.16-.51.33.33,0,0,0,0-.37l0,0a1.64,1.64,0,0,0,.38-.93A2.56,2.56,0,0,1,67,45.34a5.25,5.25,0,0,0,.89-1.25,7.66,7.66,0,0,0,.54-1.28c.19-.55.48-.87.87-1A6.29,6.29,0,0,1,70,40.48c.3-.4.6-.84.9-1.31a6,6,0,0,0,.41-1c.15-.42.33-.68.54-.76a1.89,1.89,0,0,0,.45-.64,3.4,3.4,0,0,0,.38-.89,3.36,3.36,0,0,1,.8-1.09A1.37,1.37,0,0,0,74,33.68a4.57,4.57,0,0,1-.86,1.18A7.89,7.89,0,0,0,72.21,36a13.29,13.29,0,0,0-.8,1.15,4.4,4.4,0,0,1-.86,1,1.29,1.29,0,0,1-.06.64,5.11,5.11,0,0,1-.32.83,2.5,2.5,0,0,1-.42.61c-.15.15-.26.14-.35,0a.5.5,0,0,0,.19-.7.37.37,0,0,0,.45,0,.81.81,0,0,0,.26-.38,1,1,0,0,0,0-.42c0-.13-.08-.17-.16-.13A16,16,0,0,0,71.64,36a10.17,10.17,0,0,1,1.6-2.42l.83-.87c.25-.27.48-.52.7-.73a21,21,0,0,0,2-2.72c.57-.95,1.16-1.95,1.75-3-.12,0-.22.09-.28.26s-.12.21-.16.13a4.33,4.33,0,0,1,.47-.67,7.88,7.88,0,0,0,.55-.74,2.45,2.45,0,0,0,.35-.83.94.94,0,0,0,0-.29H78.31a12.36,12.36,0,0,0-1.72,1.41l-2.33,2.33a10.8,10.8,0,0,0-.93,1.21,5.73,5.73,0,0,1-1,1.15,14.57,14.57,0,0,1-1.08,1,2.71,2.71,0,0,0-.84,1.19c-.12,0-.29.12-.51.38s-.32.42-.32.51a1.18,1.18,0,0,0-.41.54,1.5,1.5,0,0,1-.35.55,1.35,1.35,0,0,1-.45.38.78.78,0,0,0-.38.38,7.5,7.5,0,0,0-.74,1.25c-.23.49-.46,1-.67,1.43-.13,0-.18,0-.16,0s0,0-.16.07C66.36,38.26,66.28,38.45,66.05,38.53Zm-12.49,20c0-.08,0-.15.07-.23Zm10.7-7.19c-.11.19-.24.48-.42.86a.92.92,0,0,1,.17-.8,1.7,1.7,0,0,0,.28-.86c.13,0,.18.09.16.26A1.4,1.4,0,0,1,64.26,51.34ZM64.84,50a.71.71,0,0,0-.16.41c-.17-.12-.21-.23-.1-.32a.68.68,0,0,0,.22-.44C64.93,49.73,64.94,49.85,64.84,50ZM71,38a2,2,0,0,1,.42-.38,1,1,0,0,1-.26.35.52.52,0,0,0-.13.42Q70.81,38.28,71,38Z"/><path d="M49.8,43.62l0-.07,0,.07Z"/><path d="M59.82,23.16c0,.05,0,.08,0,.13A3.4,3.4,0,0,1,60,23l.83-.86c.25-.28.48-.52.7-.74a20.92,20.92,0,0,0,1.95-2.71c.57-1,1.16-1.95,1.75-3-.12,0-.22.08-.28.25s-.12.22-.16.13a4.87,4.87,0,0,1,.47-.67,7.74,7.74,0,0,0,.55-.73,2.58,2.58,0,0,0,.35-.84A1.25,1.25,0,0,0,66,13a11.53,11.53,0,0,0-2.65,2l-2.33,2.34a10,10,0,0,0-.93,1.21,6,6,0,0,1-1,1.15q-.51.51-1.08,1a2.58,2.58,0,0,0-.83,1.18c-.11,0-.26.11-.43.3h2A1,1,0,0,1,59.82,23.16Z"/><path d="M42.94,42.92c-.15.38-.31.75-.48,1.12a9.16,9.16,0,0,1-.54,1,1.77,1.77,0,0,1-.67.64c-.09,0-.19.2-.29.6s-.2.61-.29.61-.09.3-.16.51l0,.16a.32.32,0,0,0-.17,0,1.27,1.27,0,0,1-.1.54,1.05,1.05,0,0,1-.22.35c.21.17.21.41,0,.7a4.51,4.51,0,0,0-.45.77.27.27,0,0,1,.1-.32c.1-.08.05-.1-.16-.06a57.52,57.52,0,0,0-2.05,5.62,9.17,9.17,0,0,1-.35,1.37l-.48,1.44a1.6,1.6,0,0,1-.51.64c-.25.21-.38.4-.38.57a2.49,2.49,0,0,0,.92.29,6,6,0,0,0,1.28.07,8.59,8.59,0,0,0,1.28-.17A3.35,3.35,0,0,0,40.1,59a1.69,1.69,0,0,0,1.18-1.22A4,4,0,0,1,42,56.33a2.75,2.75,0,0,0,.83-1.56,2.57,2.57,0,0,1,.77-1.5,1.52,1.52,0,0,0,.38-.51c.13-.26.25-.52.38-.77a5.68,5.68,0,0,1,.39-.67.46.46,0,0,1,.51-.23c0-.25,0-.39.09-.41s.16-.12.29-.29a.34.34,0,0,0-.13-.25l.32-.29a1.75,1.75,0,0,0,.32-.35,1,1,0,0,0,.58-.86,1.33,1.33,0,0,1,.44-1c0,.08,0,.16-.09.22s-.06.1.16.1c-.09,0-.09-.15,0-.32a2.22,2.22,0,0,1,.35-.51,4.74,4.74,0,0,1,.44-.45c.15-.13.27-.17.36-.13a5.33,5.33,0,0,1,.86-1.72,4.34,4.34,0,0,0,.6-1.22.64.64,0,0,1-.06-.48,3.18,3.18,0,0,1,.19-.57,3.26,3.26,0,0,1,.45-.67,4.79,4.79,0,0,1-.29.92c0,.07-.05.15-.08.22a1.26,1.26,0,0,0,.34-.12,1.62,1.62,0,0,0,.22-.19,2,2,0,0,1,.55-1,1,1,0,0,0,.28-1c0,.17-.09.36-.16.57s-.14.26-.22.13a3.23,3.23,0,0,0,.32-.89,8.67,8.67,0,0,1,.19-.9,3.54,3.54,0,0,1,.48-.8A1.31,1.31,0,0,0,52.3,38a1.76,1.76,0,0,1,.26-.79,2.36,2.36,0,0,0,0,.31c0,.24,0,.37,0,.42a.93.93,0,0,1,.16-.51.35.35,0,0,0,0-.38l0,0a1.58,1.58,0,0,0,.38-.93,2.6,2.6,0,0,1,.71-1.37,5.06,5.06,0,0,0,.89-1.25,7.5,7.5,0,0,0,.54-1.27,1.28,1.28,0,0,1,.87-1,6.22,6.22,0,0,1,.76-1.37c.3-.41.6-.84.9-1.31a6.48,6.48,0,0,0,.41-1,1.21,1.21,0,0,1,.54-.77,1.77,1.77,0,0,0,.45-.64,3.4,3.4,0,0,0,.38-.89,3.59,3.59,0,0,1,.8-1.09,1.36,1.36,0,0,0,.48-1.15,4.61,4.61,0,0,1-.86,1.19A7.82,7.82,0,0,0,59,25.35c-.29.39-.56.77-.8,1.15a4.25,4.25,0,0,1-.86,1,1.25,1.25,0,0,1-.06.63A4.78,4.78,0,0,1,57,29a2.32,2.32,0,0,1-.42.61c-.15.15-.26.14-.35,0a.51.51,0,0,0,.19-.7.39.39,0,0,0,.45,0,.77.77,0,0,0,.26-.38,1,1,0,0,0,0-.41c0-.13-.08-.17-.16-.13a17,17,0,0,0,1.47-2.49,9.72,9.72,0,0,1,.74-1.3,1.16,1.16,0,0,1-.37.07H55.17a.84.84,0,0,0-.38.39,7.38,7.38,0,0,0-.74,1.24c-.23.49-.46,1-.67,1.44-.13,0-.18,0-.16,0s0,0-.16.06c.09.3,0,.49-.22.58a.77.77,0,0,0-.48.45,1,1,0,0,0-.19.47.94.94,0,0,1-.26.48,2.65,2.65,0,0,0-.41.61c-.15.28-.32.56-.51.86s-.38.57-.55.8a.69.69,0,0,1-.47.34s0,0,0,0a0,0,0,0,0,0,0c-1.2,1.66-2.34,3.3-3.46,4.92a46,46,0,0,0-3.1,5.11A8.12,8.12,0,0,0,42.94,42.92Zm-2.59,5c0-.07,0-.15.07-.22S40.37,47.85,40.35,47.9ZM57.82,27.4a2.42,2.42,0,0,1,.42-.39.88.88,0,0,1-.26.35.55.55,0,0,0-.13.42C57.68,27.7,57.67,27.57,57.82,27.4ZM51.37,39.47a.71.71,0,0,0,.22-.45c.13.09.14.21,0,.35a.72.72,0,0,0-.16.42C51.3,39.66,51.26,39.55,51.37,39.47Zm-.57,1.31a1.73,1.73,0,0,0,.28-.86c.13,0,.18.08.16.25a1.51,1.51,0,0,1-.19.55,9.24,9.24,0,0,0-.41.86A.87.87,0,0,1,50.8,40.78Z"/><path d="M29.16,47.16a.25.25,0,0,1,0-.07l0,.07Z"/><path d="M17.24,63a8.44,8.44,0,0,0,1.28-.16,3.32,3.32,0,0,0,.93-.32,1.67,1.67,0,0,0,1.18-1.22,4,4,0,0,1,.67-1.47,2.7,2.7,0,0,0,.83-1.56,2.57,2.57,0,0,1,.77-1.5,1.52,1.52,0,0,0,.38-.51l.38-.77a6.63,6.63,0,0,1,.39-.67.46.46,0,0,1,.51-.22q0-.39.09-.42c.07,0,.16-.11.29-.29a.36.36,0,0,0-.13-.25l.32-.29a1.32,1.32,0,0,0,.32-.35,1,1,0,0,0,.58-.86,1.36,1.36,0,0,1,.44-1c0,.08,0,.16-.09.22s-.06.1.16.1c-.09,0-.09-.15,0-.32a2.22,2.22,0,0,1,.35-.51,4.77,4.77,0,0,1,.45-.45c.15-.13.26-.17.35-.13a5.44,5.44,0,0,1,.86-1.72,4.09,4.09,0,0,0,.6-1.22.63.63,0,0,1-.06-.48,3.18,3.18,0,0,1,.19-.57,3.26,3.26,0,0,1,.45-.67,4.18,4.18,0,0,1-.29.92,1.87,1.87,0,0,0-.07.22,1.3,1.3,0,0,0,.33-.12,1.62,1.62,0,0,0,.22-.19,2,2,0,0,1,.55-1,1,1,0,0,0,.28-1c0,.17-.09.36-.16.57s-.13.26-.22.13a3.23,3.23,0,0,0,.32-.89c0-.26.11-.56.19-.9a3.77,3.77,0,0,1,.48-.8,1.31,1.31,0,0,0,.29-.86,1.8,1.8,0,0,1,.26-.79c0,.09,0,.19,0,.31s0,.38,0,.42A.93.93,0,0,1,32,41a.31.31,0,0,0,0-.37s0,0,0-.05a1.58,1.58,0,0,0,.38-.92,2.59,2.59,0,0,1,.71-1.38A5.2,5.2,0,0,0,34,37a8,8,0,0,0,.54-1.28c.2-.55.48-.87.87-1a6.22,6.22,0,0,1,.76-1.37c.3-.41.6-.84.9-1.31a5.23,5.23,0,0,0,.41-1,1.21,1.21,0,0,1,.55-.77,2,2,0,0,0,.44-.63,3.7,3.7,0,0,0,.39-.9,3.4,3.4,0,0,1,.79-1.08,1.32,1.32,0,0,0,.48-1.15,4.57,4.57,0,0,1-.86,1.18,6.75,6.75,0,0,0-.92,1.12,11.29,11.29,0,0,0-.8,1.14,4.53,4.53,0,0,1-.87,1,1.15,1.15,0,0,1-.06.63,5.23,5.23,0,0,1-.32.84,2.72,2.72,0,0,1-.41.6q-.23.22-.36,0a.52.52,0,0,0,.2-.7.39.39,0,0,0,.44,0,.84.84,0,0,0,.26-.39,1,1,0,0,0,0-.41c0-.13-.08-.17-.16-.13A17,17,0,0,0,37.78,29a10.23,10.23,0,0,1,1.6-2.43c.29-.3.57-.58.83-.86s.49-.52.7-.74.39-.49.58-.74H40.31a1,1,0,1,1,0-2.05h2.6c.56-.94,1.12-1.9,1.7-2.89-.12,0-.22.08-.28.25s-.12.22-.16.13a4.75,4.75,0,0,1,.48-.67c.19-.23.37-.48.54-.73a2.34,2.34,0,0,0,.35-.83,1.27,1.27,0,0,0-.16-.9,11.53,11.53,0,0,0-2.65,2L40.4,20.85a10,10,0,0,0-.93,1.21,5.16,5.16,0,0,1-1,1.15q-.51.51-1.08,1a2.66,2.66,0,0,0-.83,1.18c-.13,0-.3.13-.52.39a1.14,1.14,0,0,0-.31.51,1.14,1.14,0,0,0-.42.54,1.35,1.35,0,0,1-.35.54,1.38,1.38,0,0,1-.45.39.78.78,0,0,0-.38.38,7.81,7.81,0,0,0-.74,1.24l-.67,1.44c-.12,0-.18,0-.16,0s0,0-.16.06c.09.3,0,.49-.22.58a.79.79,0,0,0-.48.45,1,1,0,0,0-.19.48,1,1,0,0,1-.26.47,3.33,3.33,0,0,0-.41.61c-.15.28-.32.57-.51.86s-.37.57-.54.8a.68.68,0,0,1-.52.35s.07,0,.07,0,0,0-.07,0c-1.15,1.66-2.28,3.3-3.41,4.92a47.56,47.56,0,0,0-3.1,5.11,8.12,8.12,0,0,0-.48,1c-.15.38-.31.76-.48,1.12a9.16,9.16,0,0,1-.54,1,1.77,1.77,0,0,1-.67.64c-.09,0-.18.2-.29.6s-.2.61-.29.61-.09.3-.16.51l-.05.16a.32.32,0,0,0-.17,0,1.27,1.27,0,0,1-.1.54,1.05,1.05,0,0,1-.22.35c.21.18.21.41,0,.71a4.48,4.48,0,0,0-.45.76.27.27,0,0,1,.1-.32c.1-.08.05-.1-.16-.06a58.48,58.48,0,0,0-2,5.62A9.3,9.3,0,0,1,16.41,60l-.48,1.43a1.6,1.6,0,0,1-.51.64.84.84,0,0,0-.38.58A2.7,2.7,0,0,0,16,63,5.87,5.87,0,0,0,17.24,63Zm19.93-32.1a2,2,0,0,1,.42-.38,1.05,1.05,0,0,1-.26.35c-.08.06-.12.2-.12.41C37,31.24,37,31.11,37.17,30.94ZM30.72,43a.73.73,0,0,0,.23-.45q.18.13,0,.36a.67.67,0,0,0-.16.41C30.65,43.2,30.61,43.1,30.72,43Zm-.57,1.31a1.73,1.73,0,0,0,.28-.86c.13,0,.18.08.16.25a1.45,1.45,0,0,1-.19.55c-.11.19-.24.48-.41.86A.88.88,0,0,1,30.15,44.32Zm-10.38,6.9c0,.07-.05.17-.07.22S19.7,51.29,19.77,51.22Z"/></g><path d="M172.63,65.56h10.26L195.8,88.93H212L197.08,63.88c7.1-1.67,14.5-8,14.5-19.52,0-12.22-8.48-21.2-22.19-21.2H158.63V88.93h14Zm0-30.07h14.79c5.52,0,9.76,3.35,9.76,8.77,0,5.62-4.24,9-9.76,9H172.63Z"/><path d="M252.22,22.08c-19.92,0-34.41,14.2-34.41,34s14.49,34,34.41,34,34.31-14.2,34.31-34S272,22.08,252.22,22.08Zm0,55.61c-12.23,0-20-9.37-20-21.6s7.79-21.59,20-21.59,19.91,9.27,19.91,21.59S264.34,77.69,252.22,77.69Z"/><path d="M354.67,62.6V23.16H340.38V62.21c0,9.17-5.23,15.48-15.39,15.48s-15.47-6.31-15.47-15.48v-39h-14.2V62.6c0,16.27,9.66,27.51,29.67,27.51S354.67,78.87,354.67,62.6Z"/><polygon points="425.48 88.93 425.48 23.16 411.48 23.16 411.48 64.47 381.01 23.16 366.62 23.16 366.62 88.93 380.62 88.93 380.62 46.04 411.97 88.93 425.48 88.93"/><path d="M498.61,56c0-19.72-14.29-32.84-34.9-32.84H437.78V88.93h26C484.32,88.93,498.61,75.91,498.61,56ZM451.78,76.6V35.49h12c13.41,0,20.51,9,20.51,20.51,0,11.24-7.6,20.6-20.61,20.6Z"/><rect x="508.92" y="23.16" width="14" height="65.76"/><polygon points="595.14 88.93 595.14 23.16 581.14 23.16 581.14 64.47 550.68 23.16 536.28 23.16 536.28 88.93 550.28 88.93 550.28 46.04 581.64 88.93 595.14 88.93"/><path d="M636.65,52.54V64.77H654v7.89a21.92,21.92,0,0,1-13.9,5c-12,0-20.71-9.17-20.71-21.6S628.07,34.5,640.1,34.5a18.89,18.89,0,0,1,15.57,8.58l11.54-6.31C662.28,29,653.7,22.08,640.1,22.08c-19.33,0-35.1,13.21-35.1,34s15.77,34,35.1,34A36.38,36.38,0,0,0,668,77.79V52.54Z"/><path d="M203.69,144.36c0,9.17-5.22,15.48-15.38,15.48s-15.48-6.31-15.48-15.48v-39h-14.2v39.44c0,16.27,9.66,27.51,29.68,27.51S218,161,218,144.76V105.32h-14.3Z"/><path d="M260.68,105.32H229.91v65.76h14V147.62h16.76c14.19,0,22.08-9.67,22.08-21.1S275,105.32,260.68,105.32Zm-2,30H243.92V117.64H258.7c5.53,0,9.77,3.36,9.77,8.88S264.23,135.29,258.7,135.29Z"/><path d="M354.57,144.36c0,9.17-5.22,15.48-15.38,15.48s-15.48-6.31-15.48-15.48v-39H309.52v39.44c0,16.27,9.66,27.51,29.67,27.51s29.68-11.24,29.68-27.51V105.32h-14.3Z"/><polygon points="425.68 146.63 395.21 105.32 380.81 105.32 380.81 171.08 394.82 171.08 394.82 128.19 426.17 171.08 439.68 171.08 439.68 105.32 425.68 105.32 425.68 146.63"/><path d="M477.91,105.32H452v65.76h26c20.5,0,34.8-13,34.8-32.93C512.81,118.43,498.51,105.32,477.91,105.32Zm0,53.44H466V117.64h12c13.41,0,20.5,9,20.5,20.51C498.51,149.39,490.92,158.76,477.91,158.76Z"/><rect x="523.11" y="105.32" width="14" height="65.76"/><polygon points="551.19 171.08 597.73 171.08 597.73 158.76 565.19 158.76 565.19 143.77 597.04 143.77 597.04 131.45 565.19 131.45 565.19 117.64 597.73 117.64 597.73 105.32 551.19 105.32 551.19 171.08"/><path d="M621,123.26c0-3.94,3.35-6.5,9.26-6.5A28.23,28.23,0,0,1,649.35,124l7.79-10.45c-6.51-6-15.18-9.17-25.63-9.17-15.48,0-25,9.07-25,20,0,24.75,37.86,16.76,37.86,28.2,0,3.84-3.65,7.29-11.43,7.29a28.91,28.91,0,0,1-20.91-9l-7.69,10.94c6.21,6.22,15.28,10.46,28,10.46,17.65,0,26.33-9.07,26.33-21.1C658.72,126.62,621,133.62,621,123.26Z"/><path d="M131.59,0H21.7a3.08,3.08,0,0,0-3.12,2.34L.09,77A3.08,3.08,0,0,0,1.8,80.51c.17.08,17.48,8.11,37.37,26.26a187.85,187.85,0,0,1,54.73,89.5,3.09,3.09,0,0,0,3,2.27h34.57a3.07,3.07,0,0,0,3.08-3.07l.14-192.39A3.09,3.09,0,0,0,131.59,0Zm-3.1,22.14h-1.91a1,1,0,1,0,0,2.05h1.91l-.08,112.46c-.74,0-1.5,0-2.23,0a1,1,0,0,0-1,1.08,1,1,0,0,0,1,1h0c.7,0,1.43,0,2.14-.05l0,53.68H99.22a192.27,192.27,0,0,0-16.74-40.57c.78-.55,1.8-1.22,3.06-2a1,1,0,1,0-1.05-1.76c-1.23.73-2.23,1.39-3,1.94a195.76,195.76,0,0,0-38.14-47.79C26.75,87.09,12.17,78.87,6.67,76L19.51,24.19h2.32a1,1,0,0,0,0-2.05H20l4-16H128.5Z"/><path d="M95.76,142.69c-2,.75-3.9,1.57-5.74,2.44a1,1,0,0,0,.44,2,1,1,0,0,0,.44-.1c1.79-.84,3.67-1.64,5.59-2.37a1,1,0,0,0,.6-1.33A1,1,0,0,0,95.76,142.69Z"/><path d="M107.7,139.12c-2,.46-4.07,1-6,1.57A1,1,0,0,0,101,142a1,1,0,0,0,1.28.69c1.91-.57,3.9-1.09,5.89-1.54a1,1,0,1,0-.45-2Z"/><path d="M114,140h.17c2-.32,4-.58,6-.79a1,1,0,0,0,.92-1.12,1,1,0,0,0-1.13-.92c-2.08.21-4.15.48-6.17.8a1,1,0,0,0,.16,2Z"/><path d="M40.31,24.19h6.16a1,1,0,1,0,0-2.05H40.31a1,1,0,1,0,0,2.05Z"/><path d="M28,24.19h6.16a1,1,0,1,0,0-2.05H28a1,1,0,1,0,0,2.05Z"/><path d="M52.63,24.19H58.8a1,1,0,0,0,0-2.05H52.63a1,1,0,0,0,0,2.05Z"/><path d="M65,24.19h6.16a1,1,0,1,0,0-2.05H65a1,1,0,1,0,0,2.05Z"/><path d="M114.25,24.19h6.16a1,1,0,1,0,0-2.05h-6.16a1,1,0,0,0,0,2.05Z"/><path d="M101.93,24.19h6.16a1,1,0,1,0,0-2.05h-6.16a1,1,0,1,0,0,2.05Z"/><path d="M77.28,24.19h6.16a1,1,0,1,0,0-2.05H77.28a1,1,0,1,0,0,2.05Z"/><path d="M89.61,24.19h6.16a1,1,0,0,0,0-2.05H89.61a1,1,0,1,0,0,2.05Z"/></g></g></g></svg>