<svg xmlns="http://www.w3.org/2000/svg" viewBox="0 0 868 122.1"><defs><style>.cls-1{fill:#1a3135;}</style></defs><g id="Layer_2" data-name="Layer 2"><g id="Logos"><g id="sapphirewire"><polygon class="cls-1" points="750.55 35.22 733.26 35.22 733.26 39.98 745.36 39.98 745.36 92.27 734.13 92.27 734.13 97.46 761.79 97.46 761.79 92.27 750.55 92.27 750.55 35.22"/><path class="cls-1" d="M748,22a4.54,4.54,0,1,0-4.54-4.54A4.53,4.53,0,0,0,748,22Z"/><path class="cls-1" d="M868,60.29c0-12.32-7.89-26.8-25.39-26.8-18.37,0-30.37,14.61-30.37,32.64,0,21.28,16.16,32.62,30.47,32.62,16.91,0,23.89-8.64,23.89-8.64l-3.11-4.29s-5.54,7.94-20.88,7.94c-9.94,0-24.85-8.92-24.85-28.28h50S868,61.91,868,60.29Zm-49.83,0c2.05-12.64,11.56-21.74,24.44-21.74,13.5,0,19.72,11.31,19.72,21.74Z"/><path class="cls-1" d="M787.29,51.21h-.44s.44-4.89.44-7.34V40.41a5.19,5.19,0,0,0-5.19-5.19H770V40h9.51a2.59,2.59,0,0,1,2.59,2.59v49.7h-9.94v5.19h25.07V92.27h-9.94V65.48c0-7.35,7.06-25.5,19.16-25.5a16.11,16.11,0,0,1,4.18.43V34.79a38,38,0,0,0-4-.43C792.47,34.36,787.29,51.21,787.29,51.21Z"/><polygon class="cls-1" points="707.33 15.35 717.78 15.35 699.1 90.28 676.12 10.16 670.68 10.16 647.6 90.68 628.81 15.35 639.48 15.35 639.48 10.16 613.98 10.16 613.98 15.35 623.47 15.35 643.94 97.46 650.6 97.46 673.4 17.92 696.21 97.46 702.65 97.46 723.12 15.35 732.83 15.35 732.83 10.16 707.33 10.16 707.33 15.35"/><path class="cls-1" d="M534,48.19V33.49H513.27v64h21.61V71.85c0-12.43,7.73-18.9,17.72-18.9a25.56,25.56,0,0,1,4.33.43V32.19h-3C543.61,32.19,536,41.27,534,48.19Z"/><path class="cls-1" d="M491.23,6.7A10.8,10.8,0,1,0,502,17.5,10.81,10.81,0,0,0,491.23,6.7Z"/><rect class="cls-1" x="480.43" y="33.49" width="21.61" height="63.97"/><path class="cls-1" d="M447.58,31.77c-14.69,0-19.88,10.37-19.88,10.37V8.43H406.09v89H427.7V67.2c0-7.55,4.9-16,13.83-16a7,7,0,0,1,7.35,6.92V97.46h21.61V58.13C470.49,40.19,463.78,31.77,447.58,31.77Z"/><path class="cls-1" d="M297.39,31.77c-11.78,0-17.45,6.66-19.23,9.3V33.49H258.71V122.1h21.61V92.36c2.91,2.85,8.3,6.39,17.07,6.39,19.88,0,29.17-17.12,29.17-32.84V65C326.56,47.1,317.27,31.77,297.39,31.77ZM305,65.91C305,71,302,81,292.42,81c-8.92,0-12.53-7.55-12.53-15.12V65c0-7.56,3.61-15.11,12.53-15.11C302,49.92,305,60,305,65Z"/><path class="cls-1" d="M371.3,31.77c-11.79,0-17.45,6.66-19.24,9.3V33.49H332.62V122.1h21.61V92.36c2.91,2.85,8.29,6.39,17.07,6.39,19.88,0,29.17-17.12,29.17-32.84V65C400.47,47.1,391.18,31.77,371.3,31.77Zm7.56,34.14C378.86,71,375.94,81,366.33,81c-8.93,0-12.53-7.55-12.54-15.12V65c0-7.56,3.61-15.11,12.54-15.11,9.61,0,12.53,10,12.53,15.12Z"/><path class="cls-1" d="M220.68,31.77A49.19,49.19,0,0,0,193.45,40L201,55.32s9-6.26,17.94-6.26c4.61,0,8.64,2.15,8.64,6.48v1.73c-19.16,0-38,5.4-38,20.74,0,10.37,6.75,20.74,21.34,20.74,11.25,0,16.33-5.44,18.42-8.89v7.6H249.2V56C249.2,43.36,240.13,31.77,220.68,31.77Zm-3,50.57c-3.19,0-6.48-1.3-6.48-5.63,0-3.59,6-6.91,11.67-6.91H228C228,76.25,223.77,82.34,217.65,82.34Z"/><path class="cls-1" d="M621.76,60.72c0-11.77-6.92-28.95-29.82-28.95-21.18,0-32.85,15.41-32.85,33.27,0,16,10.6,33.71,35,33.71a48,48,0,0,0,27.66-9.07l-8.22-15.12s-9,6.48-17.72,6.48c-10.26,0-14.69-8.43-14.69-11.24h40.19S621.76,68.23,621.76,60.72ZM582,57.27a9.72,9.72,0,0,1,9.51-9.51c5.46,0,9.08,5,9.08,9.51Z"/><path class="cls-1" d="M146.34,33.49c0-2.66,2.37-6.48,9.08-6.48,11,0,19.88,7.78,19.88,7.78l9.51-17.72s-10-10.37-29-10.37c-15.29,0-31.55,9.83-31.55,26.79C124.3,62,164.49,60.72,164.49,72c0,3.89-3.1,6.92-9.07,6.92-10.67,0-21.4-9.08-21.4-9.08L122.57,86.22s11.45,12.53,32,12.53c22.4,0,31.77-14.26,31.77-28.08C186.32,43.14,146.34,45.24,146.34,33.49Z"/><path class="cls-1" d="M74.33,54.9a2.54,2.54,0,0,1-.7-1.91L74,46.51l-15.7,23a2.58,2.58,0,0,1-4.71-1.65l1.58-21.55L38.81,69.9A2.57,2.57,0,0,1,36.69,71a2.8,2.8,0,0,1-.85-.14,2.6,2.6,0,0,1-1.73-2.61l1.43-22L29.28,55a2.57,2.57,0,0,1-2.1,1.08H9.45a43.16,43.16,0,0,0,86.09-.4H76.21A2.58,2.58,0,0,1,74.33,54.9Z"/><path class="cls-1" d="M52.48,9.56A43.17,43.17,0,0,0,9.35,51h16.5l10.75-15a2.58,2.58,0,0,1,4.68,1.67L39.87,59.3,56.29,35.56A2.59,2.59,0,0,1,61,37.22L59.41,58.66,74.93,36a2.58,2.58,0,0,1,4.71,1.59l-.71,13H95.59A43.16,43.16,0,0,0,52.48,9.56Z"/><path class="cls-1" d="M52.73,0a52.73,52.73,0,1,0,52.73,52.73A52.79,52.79,0,0,0,52.73,0Zm-.25,101.27A48.54,48.54,0,1,1,101,52.73,48.6,48.6,0,0,1,52.48,101.27Z"/></g></g></g></svg>