<svg xmlns="http://www.w3.org/2000/svg" viewBox="0 0 468 468"><defs><style>.cls-1{fill:#05222E;}</style></defs><g id="Layer_2" data-name="Layer 2"><g id="Logos"><g id="shawnas-sweets"><path class="cls-1" d="M173.53,326.16a4,4,0,0,1,.76.37l-.24-.88a2.76,2.76,0,0,0-1.64-.51l-.09.41c.31.16.51.24.63.2A1.3,1.3,0,0,0,173.53,326.16Z"/><path class="cls-1" d="M154.05,348.71a3.46,3.46,0,0,1-.78.59,3,3,0,0,0,0,.93,1.54,1.54,0,0,1,0,.74,7.31,7.31,0,0,0,2.53.27,7.36,7.36,0,0,1-1.54-2.22,2,2,0,0,0,1-.46,4,4,0,0,0,.5,1.18l.64,1a11.21,11.21,0,0,0,1.38-.47c.45-.18.45-.65,0-1.41l-1.4.38c.35-.6.44-.94.29-1a3.61,3.61,0,0,0-1-.29c-.62,0-1-.29-1.21-1a2.56,2.56,0,0,0-.43-.91,3.65,3.65,0,0,1-.49-1.1,4.1,4.1,0,0,0-1.39,1.13.24.24,0,0,0,.1.35c.66.58.48.87-.52.89l-1,.63a7.71,7.71,0,0,1,1.81-.29C153.12,347.58,153.6,348,154.05,348.71Z"/><path class="cls-1" d="M171.45,330a6.06,6.06,0,0,1,1.13,0c-.24-.44-.44-.83-.6-1.16s-.55-.55-1.2-.62c-.56-.23-1-.19-1.19.13a1.61,1.61,0,0,1-.87.61q-.18,0,0,.57a.72.72,0,0,0,.57,0,4.53,4.53,0,0,1,.91-.81c.32-.22.61.15.86,1.09C170.94,330,171.09,330.05,171.45,330Z"/><path class="cls-1" d="M176.32,324.28a1.73,1.73,0,0,0,.2-1.36l-.4-.09a1.78,1.78,0,0,0-.27.73.8.8,0,0,1-.33.56C176.12,324.46,176.38,324.52,176.32,324.28Z"/><path class="cls-1" d="M173.63,334.61c.33.29.61.53.85.72s.52.42.84.71a4,4,0,0,0,.33-1.6,4.72,4.72,0,0,1-1,.18C174.35,334.63,174,334.63,173.63,334.61Z"/><path class="cls-1" d="M158.7,347.09a3.84,3.84,0,0,1,.74-.77,13.45,13.45,0,0,0-1.15-1.47c-.17-.15-.51,0-1,.36a2.89,2.89,0,0,1,.7.85A4.76,4.76,0,0,0,158.7,347.09Z"/><path class="cls-1" d="M178,323.46l.88-.23a10.33,10.33,0,0,0-1.79-1.41c-.2-.06-.39,0-.56.34a2.77,2.77,0,0,1,.71.57C177.4,322.93,177.66,323.17,178,323.46Z"/><path class="cls-1" d="M162.82,347.68c.26.05.43-.12.52-.52a3.29,3.29,0,0,1,.38-1,3.16,3.16,0,0,0-3.21,1.42c.54.11,1,.18,1.29.22A2.78,2.78,0,0,0,162.82,347.68Z"/><path class="cls-1" d="M163.38,342.06a1.51,1.51,0,0,1,.57,0,4.54,4.54,0,0,1-1,1.21l.27.3a6,6,0,0,1,1.5,0,3.16,3.16,0,0,1-.2,1,3.91,3.91,0,0,0-.25.83,1.53,1.53,0,0,0,.9-.15,5.51,5.51,0,0,1,1-.37c-.61-.85-.42-1.34.55-1.47a5.73,5.73,0,0,0-.94-.69c-.3-.17-.19-.45.34-.85a.15.15,0,0,1-.22-.12c-.07-.24-.16-.34-.27-.31a4.56,4.56,0,0,0-1.2-.24,9.42,9.42,0,0,1-1.37-.2,1.56,1.56,0,0,1-.15.51,2.55,2.55,0,0,0-.15.51A1.19,1.19,0,0,0,163.38,342.06Z"/><path class="cls-1" d="M235.61,207.82a12.38,12.38,0,0,1,1.22-2.82c.51-.86,1-1.74,1.61-2.67a16.92,16.92,0,0,1,1.49-2.84,10.42,10.42,0,0,0,1.32-2.82,28.46,28.46,0,0,0,1.21-4.24c.28-1.4.62-2.81,1-4.22a5.12,5.12,0,0,0-.5-4.49,47.78,47.78,0,0,0-3.3-4.11c-.55-.59-.94-.84-1.19-.77s-.53.51-.85,1.29a5.07,5.07,0,0,1-.85,1.38,4.81,4.81,0,0,0-.84,1.38c-.24.27-.35.47-.34.59-.2.77-.43,1.57-.68,2.41s-.55,1.64-.87,2.41q-.63,1.74-1.17,3.48a30.24,30.24,0,0,1-1.36,3.49,68.9,68.9,0,0,1-2,6.74,26.11,26.11,0,0,1-1.13,2.72,4.08,4.08,0,0,0-.17,3,10,10,0,0,1,.26,2.34c0,.82,0,1.67.08,2.54a2.7,2.7,0,0,1-.44,1.73,13.24,13.24,0,0,0-.66,2.78,3.94,3.94,0,0,0,.86,2.87c1.24-2.1,2.54-4.11,3.92-6A27.89,27.89,0,0,0,235.61,207.82Z"/><path class="cls-1" d="M168.32,339.42a5.5,5.5,0,0,0,1.25.8,8.39,8.39,0,0,1,1.48.92l.12-.22Q170,338.78,168.32,339.42Z"/><path class="cls-1" d="M171.87,324.54a5.71,5.71,0,0,0-1.12.39c-.28.14-.63.32-1.07.57a3.77,3.77,0,0,0,1.86.63Z"/><path class="cls-1" d="M128,309.92c0-.12.08-.18.33-.19a3,3,0,0,0,.73-.09,2.28,2.28,0,0,1,1.32,0,.34.34,0,0,0-.16-.23.48.48,0,0,1-.16-.24c-.53-.12-1-.23-1.5-.35l-1.73-.48a16,16,0,0,1,0,2.07C127,310.63,127.42,310.46,128,309.92Z"/><path class="cls-1" d="M130.29,313.46l-.78-.46-.78-.45a2.8,2.8,0,0,1,.85-.69,1.58,1.58,0,0,0,.67-.66l-.67-.38a3.12,3.12,0,0,1-1.22.7,3.39,3.39,0,0,0-1.09.49.37.37,0,0,1,0,.28.35.35,0,0,0,0,.29,21.41,21.41,0,0,1,2.8,1.32Z"/><path class="cls-1" d="M128.23,317.39a6.17,6.17,0,0,0-.24-1.25,1.64,1.64,0,0,0-1.11.39c-.37.29-.79,0-1.28-.88a3.79,3.79,0,0,0,.45,1.67,2.74,2.74,0,0,0,1.22.33,2.33,2.33,0,0,1,.74.65,2.44,2.44,0,0,0,.74.65.41.41,0,0,0,.47,0c.15-.1.38-.07.68.1l.08-.4a1.77,1.77,0,0,0-.74-.27c-.18,0-.41-.05-.68-.1A1.53,1.53,0,0,1,128.23,317.39Z"/><path class="cls-1" d="M130.85,320.46a2.37,2.37,0,0,0,.76-.3,1.41,1.41,0,0,1,.42-.2,14.86,14.86,0,0,0-.31-2.56.49.49,0,0,0-.27-.3,9,9,0,0,0-.72,1.51,8.75,8.75,0,0,1,.56.69C131.49,319.57,131.34,320,130.85,320.46Z"/><path class="cls-1" d="M285.17,186.71c-.25-.8-.47-1.63-.65-2.5s-.71-1.14-1.57-.84l-1.82.89a5.08,5.08,0,0,0-1.61,1.24c-.59.67-1.14,1.34-1.66,2s-1.07,1.34-1.65,2c-.23.27-.41.4-.54.41a8,8,0,0,0-.81,1.76,3.37,3.37,0,0,0-.28,1.53,1.52,1.52,0,0,1-.29,1.15,6,6,0,0,0-1.26,3.57,16.71,16.71,0,0,1-.5,3.72,6.29,6.29,0,0,0-.11,2.46c.13.87.22,1.75.28,2.62a10,10,0,0,0,.55,2.42c0,.25.28.48.8.69l.52-.6a10.83,10.83,0,0,1,.73-1.75c.28-.52.52-1,.74-1.56l2-3.16q1-1.58,1.86-3.15c.79-1.31,1.52-2.56,2.19-3.74s1.34-2.42,2-3.72a7.16,7.16,0,0,1,.84-1.47,2.15,2.15,0,0,0,.47-1.45A7.09,7.09,0,0,0,285.17,186.71Z"/><path class="cls-1" d="M129.05,333.09a1.92,1.92,0,0,1-.66,1.4q.63.21.72.57a5.74,5.74,0,0,0,.57-1.39c.13-.47.26-.91.4-1.33C129.43,332.27,129.09,332.51,129.05,333.09Z"/><path class="cls-1" d="M132.09,322.29c-.13,0-.5.23-1.11.77a.51.51,0,0,0-.08.4,2,2,0,0,0,.83,0,1.73,1.73,0,0,1,.84,0C132.39,322.69,132.23,322.32,132.09,322.29Z"/><path class="cls-1" d="M124.71,309.49a5.76,5.76,0,0,0,2-1.09,12.9,12.9,0,0,0-1.82-1.21,6.48,6.48,0,0,1-.41,2A.53.53,0,0,1,124.71,309.49Z"/><path class="cls-1" d="M160.29,313.32a1,1,0,0,1-.56.34.86.86,0,0,1,.25.6,1.4,1.4,0,0,0,.3.76,1.76,1.76,0,0,0,1.07-1.61l-.53-.6A6.61,6.61,0,0,0,160.29,313.32Z"/><path class="cls-1" d="M131.72,325.12a12.73,12.73,0,0,0-1.81-.08,11.34,11.34,0,0,1-1.81-.07.5.5,0,0,1-.08.39,2,2,0,0,1,.94.69c-.23.07-.38.13-.42.21a.41.41,0,0,1-.24.16,1.15,1.15,0,0,1-.69.56.67.67,0,0,0-.48.69,1.17,1.17,0,0,1-.56.72c-.32.21-.53.14-.62-.22a9.5,9.5,0,0,0,.33-1.21,3.52,3.52,0,0,1,.38-1,1,1,0,0,0-.21-.79c-.2-.26-.4-.55-.62-.87-.68,1.19-1.1,1.74-1.24,1.66-.65-.08-.94,0-.88.23a1,1,0,0,1-.17.8l.1.35a5.44,5.44,0,0,1,.83-.79c.25-.19.54-.4.86-.61l.53-.14.15.53-2.32,4a4.92,4.92,0,0,1,2.18,1.11c-1.23.07-2.1.12-2.6.13a1.09,1.09,0,0,0-.17.8,10.6,10.6,0,0,1,1.85-.12c-.11,0-.25.19-.43.49a6.33,6.33,0,0,0,1-.37,1,1,0,0,1,1,0c.77,0,1-.34.82-1.16a1.13,1.13,0,0,1,.16-.8,1.24,1.24,0,0,1,0-.55.77.77,0,0,0,0-.37,1,1,0,0,0-.71-.19,1.52,1.52,0,0,1-.67,0l-.09-.35a6.53,6.53,0,0,1,1.8-.3c.75.93,1.55,1.1,2.39.49a12.89,12.89,0,0,1,1.5-.77l-.8-.17a1.16,1.16,0,0,1-.67-.38c-.15-.09-.13-.47.06-1.15a1.71,1.71,0,0,1-.75,0l0-.17a9.54,9.54,0,0,1,2-.92l0-.18A.49.49,0,0,0,131.72,325.12Z"/><path class="cls-1" d="M174.19,331.82l-.42-1.58-1.58.42a13.39,13.39,0,0,1,1.35,1.52l.35-.09A.49.49,0,0,0,174.19,331.82Z"/><path class="cls-1" d="M170.44,336.78l-.38-1.4a11.81,11.81,0,0,0-2.54,1.05l.24.88A15.34,15.34,0,0,1,170.44,336.78Z"/><path class="cls-1" d="M334.79,349.29l-2.6,2.25,2.71,3.12,2.6-2.25a2.08,2.08,0,1,0-2.71-3.12Z"/><polygon class="cls-1" points="228.76 394.04 233.54 394.12 231.27 387.49 228.76 394.04"/><path class="cls-1" d="M195.85,382.34l-3.33-.87-1.05,4,3.33.87a2.08,2.08,0,1,0,1-4Z"/><polygon class="cls-1" points="365.88 324.84 359.13 322.96 363.11 328.73 365.88 324.84"/><polygon class="cls-1" points="194.35 61.9 192.63 74.5 201.39 72.49 194.35 61.9"/><path class="cls-1" d="M147.46,347.65c.06,0,.12-.16.17-.42a11.69,11.69,0,0,0-2.3-.14,3.35,3.35,0,0,1,.93,2.77,5.89,5.89,0,0,1,.82-.79,2.52,2.52,0,0,1,.92-.43,6.38,6.38,0,0,1,1.33,0c.11-.54.09-.82,0-.84a17.54,17.54,0,0,0-2,.08C147.33,347.75,147.4,347.67,147.46,347.65Z"/><path class="cls-1" d="M450.75,268.18C453.4,251.48,468,250.75,468,234c0-17.15-14.65-17.8-17.3-34.5s11-21.91,5.79-38-19.38-12.22-27.06-27.29S433.14,110,423.2,96.3,401,90.66,389,78.7s-4-24.2-17.65-34.14-22.87,1.51-37.94-6.17-11.25-21.79-27.33-27-21.29,8.5-38,5.85S250.67,0,234,0c-17.16,0-17.86,14.66-34.56,17.31s-21.86-11-38-5.78-12,19.27-27.05,26.95S110,34.86,96.26,44.83s-5.44,22-17.35,33.93-24.26,4-34.22,17.7c-10.08,13.87,1.48,22.82-6.16,37.82S16.69,145.6,11.46,161.69c-5.3,16.31,8.46,21.26,5.81,38S0,217.08,0,234c0,17.15,14.62,17.62,17.26,34.33s-11,22.13-5.73,38.2,19.28,12,27,27.11-3.72,24.24,6.2,37.9c10.08,13.87,22.21,5.68,34.16,17.65s4,24.21,17.61,34.12c13.87,10.07,22.89-1.45,38,6.23s11.25,21.8,27.27,27c16.3,5.3,21.34-8.44,38-5.8S217.17,468,234,468c17.15,0,17.7-14.64,34.4-17.29s21.92,11,38,5.8,12.23-19.37,27.3-27,24.24,3.71,37.93-6.23,5.64-22.21,17.6-34.16,24.21-4,34.08-17.54c10.07-13.87-1.43-23,6.25-38s21.8-11.25,27-27.19C461.85,290,448.1,284.89,450.75,268.18Zm-129-167.29c3,2,5.13,1.27,6.06-.14,2.88-4.38-11.05-9.65-6-17.31,2.28-3.47,7-4.16,11.63-1.13a12.91,12.91,0,0,1,5.86,8.07l-3.86,1.36a10.18,10.18,0,0,0-4.48-6.4c-2.13-1.4-4.2-1.25-5.21.29-2.58,3.91,11.14,9.49,6,17.25-2.29,3.47-6.74,4.84-12.34,1.16a13.68,13.68,0,0,1-6.32-8.92l3.94-1.49A10.74,10.74,0,0,0,321.79,100.89ZM312.18,75.8a2.23,2.23,0,0,1-.92-3.1,2.54,2.54,0,0,1,3.41-1.14c1.37.68,2,2.39,1.06,4.33a7.93,7.93,0,0,1-6,4.15l-1-2.08a6.09,6.09,0,0,0,4-1.95A2.42,2.42,0,0,1,312.18,75.8ZM294.13,63.24l5.13,1.89L299.82,92l-4.67-1.72,0-5.17-10.75-4L281,85l-4.67-1.72Zm-39.76-9.41,4.43.77,9.65,19.22,2.94-17,4.32.75-4.25,24.61-4.17-.72-9.81-19.82-3,17.6-4.31-.74ZM216,53.54l5.53,19L226,53.19l3.48-.12,5.82,19,4.21-19.36,4.9-.17-6.29,25.21-4.68.16L228,59.64l-4.23,18.62-4.68.16-8-24.71Zm-25.25,4.7L196,57l15.14,22.13-4.85,1.12L203.45,76l-11.16,2.56-.71,5.12-4.85,1.11Zm-5.92,178.15a6.92,6.92,0,0,1,.77-1.09,1.42,1.42,0,0,0,.4-1.06c.34-2.29.65-4.54.94-6.77s.59-4.59.92-7.13a16,16,0,0,0,.26-3,16.92,16.92,0,0,1,.27-2.94c.25-1.77.51-3.52.77-5.24s.57-3.46.95-5.25q.51-3.44,1-6.87t1.23-6.68l0-.38a15.76,15.76,0,0,0,1.94-3.25,4.36,4.36,0,0,1,2.58-2.35,7.41,7.41,0,0,1,3.12-1.16c1.25-.09,2.44-.14,3.58-.16s2.38,0,3.77,0a11.69,11.69,0,0,1,1.35.47c.52.22.67.65.47,1.29-.11.26-.06.45.13.56a.93.93,0,0,0,.49.15,5.55,5.55,0,0,0-.11,1.24,1.82,1.82,0,0,1-.13.85c-.19.9-.38,1.7-.58,2.4s-.4,1.51-.59,2.4-.46,1.58-.77,2.42a4.85,4.85,0,0,0-.19,2.74.68.68,0,0,1,0,.76,6,6,0,0,0-.42.78,6.63,6.63,0,0,0-.56,1.37,1.93,1.93,0,0,0,.4,1.67l0,.56a4.6,4.6,0,0,0-.52,2.11,7.45,7.45,0,0,1-.32,2.1,10.6,10.6,0,0,0-.68,2.4q-.19,1.24-.48,2.58c-.2.77-.36,1.57-.49,2.4s-.23,1.68-.3,2.56a16.4,16.4,0,0,1-.93,5.54,44.42,44.42,0,0,0-1.51,5.39q-.77,2.69-1.24,5.18a31.66,31.66,0,0,1-1.44,5c-.76,1.82-1.44,3.69-2.06,5.62a14.36,14.36,0,0,1-2.85,5.1l-1.46,2.08q-.78,1.1-1.65,2.1a10.1,10.1,0,0,1-7.89,3.19,9.19,9.19,0,0,0-1.89-.05,3.58,3.58,0,0,1-1.91-.44,7.93,7.93,0,0,1-4-2.64,13.73,13.73,0,0,1-2-4.3q-1-3.14-2.21-6.07a36.36,36.36,0,0,0-3.15-5.81,23.19,23.19,0,0,1-2.11,4.86q-2.29,5.07-4.88,9.77a37.56,37.56,0,0,1-6.48,8.57,18.33,18.33,0,0,1-3.08,3.14,8.58,8.58,0,0,1-4.12,1.7,13.8,13.8,0,0,1-2.72.28c-.82,0-1.73,0-2.74-.09-.75.06-1.57.08-2.45.08a12.15,12.15,0,0,0-2.62.28,6.53,6.53,0,0,1-3.83-.77,9.24,9.24,0,0,1-2.83-2.73,13.78,13.78,0,0,1-2.86-11.3,88.34,88.34,0,0,1,1-8.85q.72-4.47,1.55-8.88a5.11,5.11,0,0,1,.22-2.27c.19-.9.44-1.83.74-2.79a22.76,22.76,0,0,0,.74-3q.57-2.67.87-5.15t.86-5.16a7.48,7.48,0,0,0,.2-1.24,3.34,3.34,0,0,1,.21-1.05,26,26,0,0,0,1.85-5.88,57.6,57.6,0,0,1,1.46-6.05c.3-1.15.66-2.31,1.08-3.47a25.36,25.36,0,0,1,1.47-3.31,2.84,2.84,0,0,1,1.85-1.83,7.78,7.78,0,0,1,2.9-.39l2.56.2c.82.07,1.74.19,2.76.38a4.57,4.57,0,0,1,3.23,1.65,3.76,3.76,0,0,1,.53,3.55,44.4,44.4,0,0,0-1.49,8.41c-.14,1.64-.21,3.29-.22,4.92s-.09,3.28-.22,4.92a6,6,0,0,1-.24,2c-.2.7-.41,1.38-.61,2a1.66,1.66,0,0,0-.49,1.17,13,13,0,0,1-.43,4.55c-.41,1.42-.81,2.83-1.22,4.24a27.93,27.93,0,0,0-2.15,9.58,1.47,1.47,0,0,1-.06.57,1.32,1.32,0,0,0-.06.57,13.42,13.42,0,0,0-.4,3.61,8.13,8.13,0,0,1-.79,3.64c.14.12.23.18.3.17a.67.67,0,0,1,.3.17,6,6,0,0,1,.77-1.09,7.11,7.11,0,0,0,.77-1.09c1.1-2.22,2.2-4.4,3.31-6.56s2.28-4.33,3.51-6.56q2-3.72,4.1-7.46c1.4-2.48,2.82-5,4.29-7.46a18.18,18.18,0,0,1,1.87-2.87c.69-.86,1.39-1.76,2.08-2.69a4.63,4.63,0,0,1,2-1.09c.72-.42,1.55-.23,2.49.59a10.06,10.06,0,0,0,.9.69,4.33,4.33,0,0,0,.88.5,4.84,4.84,0,0,1,3.41,1.56,8.38,8.38,0,0,1,1.65,3.37c.46,1.23.92,2.39,1.38,3.49s.91,2.26,1.37,3.49a1.79,1.79,0,0,1,.17,1,1.74,1.74,0,0,0,.16,1,18,18,0,0,0,.61,1.84c.23.61.49,1.23.78,1.83q.69,1.65,1.35,3.12C183.7,234.27,184.21,235.3,184.79,236.39Zm-28.59-166,4.05,9.35,11.92-5.16-4-9.35,4-1.74,9.93,22.92-4,1.74-4.35-10-11.92,5.17,4.35,10-4,1.74-9.92-22.92Zm-21.93,12A12.93,12.93,0,0,1,144,80.28l-.27,4.08A10.23,10.23,0,0,0,136.06,86c-2.12,1.4-2.8,3.37-1.79,4.9,2.58,3.91,13.12-6.49,18.23,1.27,2.29,3.47,1.79,8.1-3.8,11.79A13.69,13.69,0,0,1,138,106.2l.19-4.21a10.73,10.73,0,0,0,8.51-1.44c3-2,3.19-4.21,2.27-5.62-2.89-4.37-13.23,6.34-18.28-1.32C128.42,90.13,129.67,85.5,134.27,82.47ZM103.43,300.88a56.22,56.22,0,0,1-9.49,8.59q-4.32,2.94-8.86,5.43c-3,1.65-6.13,3.29-9.28,4.89a32.24,32.24,0,0,1-9,2.61,32.79,32.79,0,0,1-10.27.06A17.62,17.62,0,0,1,48,318.72q-3.6-3-3.63-8.8c.11-.14,0-.51-.27-1.12l-.22-3.19.17-.2A28.94,28.94,0,0,1,47,293c.6-1.24,3-7.33,3.76-9,2.83-6.27,5.41-12.06,9-17.48a31.37,31.37,0,0,1,4.16-4.72,19.27,19.27,0,0,1,5.25-3.45,11.34,11.34,0,0,1,5.13-1.18,8.11,8.11,0,0,1,4.82,2.2,9.09,9.09,0,0,1,1.55,2.32,13.84,13.84,0,0,1,1,1.6c.26.52.52,1.07.8,1.65a2,2,0,0,1,.4,1.64c-.24,1.1-.45,2.18-.64,3.26a15,15,0,0,1-.87,3.13c-1.15,2.1-2.3,4.13-3.42,6.09s-13.09,14.24-15.37,18.32c-1.23,2.2-2.64,4.9-2.91,7.37a16.6,16.6,0,0,0,.46,6.57q.87,2.86,4.26,2.81a5,5,0,0,0,2.85-1.05,15.67,15.67,0,0,0,2-1.93q5.7-7.56,11.18-15.5T91.7,280.19c.81-1.06,1.53-2.08,2.15-3.07l2-3.06q6.14-9.48,6.19-18.07a42.8,42.8,0,0,0-3.24-16.66,85.94,85.94,0,0,0-8.56-15.81q-5.25-7.74-10-15.53a145.09,145.09,0,0,1-10.66-21.7,69.94,69.94,0,0,1-4.8-24,24.2,24.2,0,0,1,3.65-14A45,45,0,0,1,78,137.69a87.36,87.36,0,0,1,12.43-8.42q6.7-3.77,12.48-7.57a16.8,16.8,0,0,1,9.23-2.91,19.27,19.27,0,0,1,9.25,2.75,35,35,0,0,1,12.54,12,42.27,42.27,0,0,1,5.48,16.31,27.14,27.14,0,0,1-.59,9.19c-.62,2.68-9.35,19.95-14.6,20.32a10.42,10.42,0,0,1-3.8-.3,23.09,23.09,0,0,1-2.41-.78c-.84-.32-1.71-.63-2.62-.94-.38-.1-.86-.63-1.43-1.6a19.92,19.92,0,0,1-.79-1.93,18.74,18.74,0,0,1-.62-2.12c-.22-1.24,3-15.18,3.13-15.84a62.57,62.57,0,0,0,1.58-9.83q.39-5,1-10.16c.24-1.9-.49-2.92-2.2-3a17.55,17.55,0,0,0-6.07.8,45.3,45.3,0,0,0-6.81,2.55A35.39,35.39,0,0,0,99,138.39a18.76,18.76,0,0,0-4.75,5,29.49,29.49,0,0,0-3.06,6.16,40,40,0,0,0-1.79,6.73,50,50,0,0,0-.75,6.84,18.57,18.57,0,0,0,1,8.24q1.6,4,3.19,7.88c1.06,2.57,2.19,5.13,3.37,7.69q2.19,4.38,4.74,8.44t4.93,8.43a112,112,0,0,1,6.42,13.51q2.75,7,5.31,14,1.86,5,3.42,9.76a74.72,74.72,0,0,1,2.49,10,52,52,0,0,1,.72,7.59,20.32,20.32,0,0,1-1.36,7.54q-2,5.81-4.82,11.95A102.17,102.17,0,0,1,111.54,290,80.85,80.85,0,0,1,103.43,300.88Zm76.9,78.79a4.15,4.15,0,0,0-2.49-3.41,5,5,0,0,0-3.76,9.33,4.16,4.16,0,0,0,4.15-.72l2.09,2.3a7,7,0,0,1-7.32,1.1c-4.28-1.72-6.38-6-4.62-10.4s6.26-6,10.54-4.29a7,7,0,0,1,4.52,5.86Zm20.44,6.1a4.43,4.43,0,0,1-4.42,3.54l1.87,6.52-3.64-.95-1.53-6-2.31-.61-1.38,5.27-3.15-.83,3.88-14.82,6.93,1.82A4.79,4.79,0,0,1,200.77,385.77Zm17.65.69-7.5-1-.44,3.18,7.34,1-.39,2.84-7.35-1-.48,3.46,7.51,1-.4,2.84L206,397.29l2.1-15.16,10.74,1.49Zm-2.85-95.79a.74.74,0,0,1,.47-.32c0,.12.11.17.22.13a.53.53,0,0,1,.31-.27,1.34,1.34,0,0,0,.48-.32,5.25,5.25,0,0,0,.34.95,1.17,1.17,0,0,1,.13.81,1,1,0,0,1-.21.62,10,10,0,0,1-.52-.89,7.46,7.46,0,0,0-.53-.9Zm19.74,109-.92-2.61-6.57-.11-1,2.57-3.69-.06,6.16-15.21,4.09.07L239,399.68Zm3.21-105.5a5.24,5.24,0,0,1-.81-.91,4.51,4.51,0,0,0-.8-.92C238.29,292.3,238.83,292.91,238.52,294.12Zm-1.61-9.42c1.38,0,1.92.61,1.61,1.82a4.9,4.9,0,0,1-.81-.91A4.47,4.47,0,0,0,236.91,284.7ZM252.7,398.55l-3.27.33-1.26-12.4-4.46.45-.29-2.85,12.17-1.24.29,2.86-4.44.45Zm8.05-102.29a2.71,2.71,0,0,0,1.11-.1,2.56,2.56,0,0,0-.65-1.13h0l0,0a4,4,0,0,0,.87.22,4.09,4.09,0,0,1,.69.1,14.73,14.73,0,0,1-.73,1.51,1,1,0,0,0-.5-.15,4.09,4.09,0,0,1-.69-.1Zm3.68,100.53-2.95-15,3.2-.63,2.95,15ZM283.85,392l-3.91,1.17-10.07-13,3.54-1.06,7.46,10,.68-12.49,3.54-1.06ZM296,387.65l-6.2-14,9.93-4.38,1.16,2.63L294,374.93l1.3,2.95,6.79-3,1.16,2.63-6.79,3,1.41,3.19,6.94-3.06,1.16,2.63Zm15.75-106.06a5.67,5.67,0,0,1-1.48.77c0,.12-.11.09-.4-.08a.52.52,0,0,0-.4-.08c0-.62-.22-.92-.53-.9a3.81,3.81,0,0,0-.81.13,2.51,2.51,0,0,0-1.15-.07.75.75,0,0,1,0-.46c0-.08,0-.23,0-.47l-.35.09-.39.67a1.46,1.46,0,0,0,.26,1,5.94,5.94,0,0,0,.79.83l.19.7a.78.78,0,0,1-.48.31c-.39-.52-.81-1-1.26-1.54s-.87-1-1.27-1.54a3.6,3.6,0,0,1-.71.85,6.31,6.31,0,0,1-1.11.76,7,7,0,0,0-1.16-.81,12.78,12.78,0,0,1-1.39-1,.54.54,0,0,0-.3.27.23.23,0,0,1-.35.09c-.65-.08-1,.27-1.05,1a12.37,12.37,0,0,0-.33,1.22c-.08.4-.45.31-1.1-.27a.5.5,0,0,0-.4-.07.63.63,0,0,1-.4-.09q-1.81-.45-.66-2.46a3.05,3.05,0,0,1-2.32,1.19c-.34.59-.65,1.08-.92,1.47a10.28,10.28,0,0,0-.67,1,2.75,2.75,0,0,1-.85-.33c-.94-.26-1.12-.71-.55-1.36a.32.32,0,0,0-.11-.44,1.43,1.43,0,0,1-.39-.74,2.71,2.71,0,0,0-.3.64,1.42,1.42,0,0,1-.17.42l-1.39-.28a7,7,0,0,0-1.18-.16c0-.12,0-.19.05-.2s.07-.08,0-.2a7.58,7.58,0,0,1-1.72.27,8.89,8.89,0,0,0-1.72.27l0-.17.6-.54a1.51,1.51,0,0,1-.92.06.56.56,0,0,1-.4-.08c-.27-.56-.51-.75-.72-.56a1.74,1.74,0,0,1-.65.36,6.31,6.31,0,0,1-1.5,0A2.43,2.43,0,0,0,278,282a1.11,1.11,0,0,1-.61.54l-.53.14q-.35.09-.36-.66a6.2,6.2,0,0,0-1-.11,1.18,1.18,0,0,0-1,.45,4.65,4.65,0,0,1-1.2.8c-.39.17-.78,0-1.17-.53,0-.12-.28-.12-.75,0-.2.18-.29.33-.26.45a15.68,15.68,0,0,0,1.55.52c.48.12,1,.24,1.51.35a2.27,2.27,0,0,1-1.14.68.85.85,0,0,1-1-.29,2.5,2.5,0,0,0-2.61-.62l.48-.32a2.72,2.72,0,0,0-1.17-.15,5.22,5.22,0,0,1-1.35-.11q.94-1.39,0-1.5l-3,.8.09.35a27.1,27.1,0,0,0,2.79.57.31.31,0,0,1-.25.44l-.25,1.2a3.72,3.72,0,0,0-1.07-.47,4.15,4.15,0,0,0-.86-1.08.69.69,0,0,1,0,.57,3.74,3.74,0,0,0-.66,1,2,2,0,0,1-.72.84,5.25,5.25,0,0,1-2.21,1.54h0a3.48,3.48,0,0,0,.87.22,4.09,4.09,0,0,1,.69.1,14.73,14.73,0,0,1-.73,1.51,1,1,0,0,0-.5-.14c-.2,0-.42-.05-.69-.1l-.1-.36a2.54,2.54,0,0,0,1.11-.1,2.61,2.61,0,0,0-.65-1.13h0a2.77,2.77,0,0,0-2.45-.66,1.13,1.13,0,0,1-.66,0,5.58,5.58,0,0,0-.71-.19,2.63,2.63,0,0,1,.56-.71,3,3,0,0,0,.56-.72,11.6,11.6,0,0,1-1-.67,1.07,1.07,0,0,0-1.23,0,1.26,1.26,0,0,0-.1.68,3.44,3.44,0,0,1-.05.86,1.29,1.29,0,0,1-.55.43,3.35,3.35,0,0,0-.72.48,2.69,2.69,0,0,0-.43-.92c-.2-.27-.4-.55-.61-.87a11.84,11.84,0,0,1-1.7,0c-.51-.05-1,.29-1.42,1a.75.75,0,0,0,.58,0l-.26.45a.56.56,0,0,1-.4-.08,1.94,1.94,0,0,0-.62-.21.51.51,0,0,1,.4.08,9,9,0,0,0,0-1,7.16,7.16,0,0,1,0-1,.52.52,0,0,1-.4-.09c-.12,0-.19,0-.2,0s-.08-.07-.2,0a4.2,4.2,0,0,0-.08.77,1.49,1.49,0,0,1-.25.83l-.79-.17a2.56,2.56,0,0,1-.85-.34,2.25,2.25,0,0,1-.62-.2c-.15-.09-.29.07-.43.49,0,.11-.12.12-.47,0a8.67,8.67,0,0,0-.91-.23,1,1,0,0,1-.53-.23.87.87,0,0,0-.53-.24,2.58,2.58,0,0,1,.46,1,1.11,1.11,0,0,1-.61.54,2.71,2.71,0,0,0-1,.63l0,.18,1.2.25-.26.44a1.33,1.33,0,0,0-.57,0,1.29,1.29,0,0,1-.57,0l-.05-.17-.89-.52a6.27,6.27,0,0,0-1.86-.63,7.09,7.09,0,0,1,1.13-.68c.14-.41,0-.59-.52-.52s-.68-.23-.61-.87a2.08,2.08,0,0,0-.39-.75,2.69,2.69,0,0,1-.43-.92c-.49.51-.88.58-1.17.22a1,1,0,0,0-1.13-.35c-.49,1.89-1.41,2.7-2.74,2.42s-1.8-1.08-1.5-2.8a14.45,14.45,0,0,1-1.52.32,1.39,1.39,0,0,0-1.07.57,1.35,1.35,0,0,1-1,.74,6.25,6.25,0,0,1-1.21,0,11.08,11.08,0,0,1-1.24,0c-.32,0-.68-.07-1.06-.09a4.09,4.09,0,0,0-1-.41,4.75,4.75,0,0,1-1-.4,2.8,2.8,0,0,1-1.15-.82,11.31,11.31,0,0,0-1-1,2.73,2.73,0,0,0-.81,1.16c-.14.42-.5.51-1.06.28a.58.58,0,0,1-.49-.43c-.07-.24-.13-.47-.19-.7a1.75,1.75,0,0,1-1.5.4c-.47-.13-.91-.26-1.33-.4-.71,1.07-1,1.79-.73,2.17a3.66,3.66,0,0,0,2,1.08,10.09,10.09,0,0,1-.52-.9,6.69,6.69,0,0,0-.53-.89l-.69.18a.74.74,0,0,1,.47-.32.17.17,0,0,0,.22.14.51.51,0,0,1,.31-.28,1.28,1.28,0,0,0,.48-.31,5.43,5.43,0,0,0,.34.94,1.19,1.19,0,0,1,.13.81,1.06,1.06,0,0,1-.21.63.4.4,0,0,1,.29,0,.37.37,0,0,0,.28,0,1.34,1.34,0,0,0,0-.66,1,1,0,0,1,.19-.71l.18,0a3.34,3.34,0,0,0,.15,1.28,1.81,1.81,0,0,0,1.14-.68c.17-.3.31-.46.43-.49s.39.27.81.91a11.44,11.44,0,0,0-1.56.51,11.16,11.16,0,0,1-1.38.46,2.18,2.18,0,0,1-1,.37,1,1,0,0,0-.81.5.86.86,0,0,0,0,.86,4.48,4.48,0,0,1,.3.77,9.63,9.63,0,0,0-1.22-.33c-.4-.08-.56-.45-.48-1.1.32-.21.61-.41.87-.61s.5-.38.7-.56a24.24,24.24,0,0,1-2.79-.57c-.17.29-.56.27-1.15-.07l-.45-.26c-.7.19-1.44.36-2.21.5s-1.65.29-2.62.42a1.91,1.91,0,0,1,1.39-1.12c.76,0,1-.35.82-1.16a4.39,4.39,0,0,0-.77.29,3.79,3.79,0,0,1-.77.3.94.94,0,0,0-.33.19.78.78,0,0,1-.32.18,2.17,2.17,0,0,0-.06-.93l.38-.67a7.36,7.36,0,0,0-1.63.25,8.87,8.87,0,0,0-1.11.4c-.4.16-.65-.18-.75-1-.06-.23-.33-.29-.8-.16-.26-.06-.56-.1-.88-.14s-.68-.07-1.06-.09l.78.45a.92.92,0,0,1,.43.54,1,1,0,0,1,.27.68,3,3,0,0,0,.11.73,1.55,1.55,0,0,1-.49.31,1.54,1.54,0,0,0-.48.32c-.11,0-.26.2-.43.49l-.13.23q.76.74.33,1.23a1.76,1.76,0,0,0-.47,1.07,4.09,4.09,0,0,0-1.19-.25,5,5,0,0,1-1.2-.25,3.21,3.21,0,0,0,1.31-.72c-.27-.56-.36-.91-.28-1.06a4.15,4.15,0,0,1,.92-.81.78.78,0,0,0,.48-.31,2,2,0,0,1,.43-.5.51.51,0,0,0-.27-.3c-.79.33-1.26.21-1.42-.37a1,1,0,0,0-1.16-.83,5.23,5.23,0,0,0-1.54.61.55.55,0,0,1-.3.27l-.18,0c-.07.65-.11,1.32-.12,2a16.4,16.4,0,0,1-.12,2l-.17,0a3.14,3.14,0,0,1-.85-.72,1,1,0,0,1-.33-.85c-.19-.7-.47-1.07-.85-1.09a5.92,5.92,0,0,0-1.69-.68,12.22,12.22,0,0,1,.8-1.91.37.37,0,0,0,.16.24.36.36,0,0,1,.16.24l-.25.45a7.91,7.91,0,0,0,1.73.85l.61-.54a1.56,1.56,0,0,1,.65-.36,3,3,0,0,1-.58-.79l-1.33,0a2.17,2.17,0,0,0-1.69-.68,3.65,3.65,0,0,0-1.58.43,3.23,3.23,0,0,1-2.22.5c-.72-.12-1.48-.26-2.27-.43a1.66,1.66,0,0,1-2,1.1c-1-.49-1.78-.54-2.3-.14a1.16,1.16,0,0,1-.7.56,1.13,1.13,0,0,0-.69.57c-.29.32-.53.39-.71.18a2.63,2.63,0,0,0-.71-.56,8.94,8.94,0,0,0,1.21-.41,6.26,6.26,0,0,1,1-.38,10.59,10.59,0,0,0-.48-1.47c-.17-.39-.39-.87-.67-1.42l-.77,1.34a1.25,1.25,0,0,0,.13.81,1.33,1.33,0,0,1,.12.82c-.83-.29-1.18-.44-1.07-.47-.26-.06-.66.11-1.18.5-.15-.08-.23-.06-.26.08a.28.28,0,0,0,.18.32,5.62,5.62,0,0,1,.77,2.53A5.72,5.72,0,0,0,179,288a3.27,3.27,0,0,0-1.13-.35,7.6,7.6,0,0,1-1.31-.31,13.82,13.82,0,0,1,1.26-.9c-.18-.7-.37-1.41-.56-2.11a13,13,0,0,0-.74-2.06q-.37-1.41-1.26-1.17c-1.06-.22-1.62.25-1.69,1.4-.45-.27-.9-.55-1.36-.86a1.41,1.41,0,0,0-1.66.15c.66.58,1,.81.94.7l-.11,1a2.16,2.16,0,0,1-.64.07,2.19,2.19,0,0,0-.64.08c.06-.27-.1-.38-.47-.34s-.36-.19,0-.67q.18,0-.27-.3l-.52.14-.61.54a2.67,2.67,0,0,0-.57.72,4.57,4.57,0,0,0,1.07.47c-.31.7-.69.93-1.14.67a1.6,1.6,0,0,0-1.19-.24c.51.49.65.77.41.83-.05.27-.36.53-.91.81a.73.73,0,0,0,0-.57,2.28,2.28,0,0,1-.84,0c-.32,0-.61-.08-.88-.14l.09.35a6.46,6.46,0,0,1,.71.19c.21.07.45.13.71.19a4.15,4.15,0,0,1-1.18.51c.49.87.43,1.26-.16,1.16s-1,0-1.14.31c.63.46.63,1,0,1.5-.38.48-.76.93-1.15,1.35a4.85,4.85,0,0,1-1.42,1c-.67.31-1.3.64-1.9,1s-1.17.66-1.73.94a5.82,5.82,0,0,1-2.32.81c-.8.08-1.36.67-1.69,1.77-.12,0-.17.11-.13.22a16.73,16.73,0,0,0-2.45,1.41c-.52.39-1,.75-1.51,1.07s-1,.67-1.5,1.06a10.66,10.66,0,0,1-2.19,1,5.87,5.87,0,0,0-3.87,3.11,3,3,0,0,1-.87,1,2,2,0,0,0-1.17,1.25,1.49,1.49,0,0,0,.07,1.68c.33.29.44.57.32.85a6.86,6.86,0,0,1-.42.87c-.49.51-1,1-1.42,1.41a3.67,3.67,0,0,0-.95,1.67,7.08,7.08,0,0,0,0,1.13,1.62,1.62,0,0,1-.2,1,1.46,1.46,0,0,0,0,2.07,1.08,1.08,0,0,0-.17.8,20.26,20.26,0,0,1-.41,4.06q-.12,1-.21,2c-.06.7-.13,1.38-.21,2a1.26,1.26,0,0,0,.6,1.54l.68,1.13a14.31,14.31,0,0,1,.92,1.35c.23.38.54.83.93,1.36a4.82,4.82,0,0,0,1.1.93,9,9,0,0,1,1.27.88,7.73,7.73,0,0,0,2.82,1.69,6.59,6.59,0,0,0,3.18.28,13.85,13.85,0,0,0,3.41-.63c1-.34,2.14-.67,3.31-1,.94-.25,1.93-.55,3-.89s2-.7,2.92-1.06a1.6,1.6,0,0,1,2.4,1.24l1-.64a3.74,3.74,0,0,1-.14-.9,3.57,3.57,0,0,0-.1-.73,4.47,4.47,0,0,1,.81.26,6,6,0,0,0,.83.25l.09.35.22.12c1.06-.28,1.51.23,1.36,1.53a19.54,19.54,0,0,0,2.46.09c-.17.29-.31.46-.42.49l-.39.67a.92.92,0,0,1,.37,0,.81.81,0,0,0,.38,0,6.59,6.59,0,0,0,1.31-.73c.91-.37.84-.85-.2-1.45a2.16,2.16,0,0,1-.15.51,2,2,0,0,0-.14.51,2.09,2.09,0,0,0-.5-.44.72.72,0,0,1-.31-.48l.38-.67c-.36-.4-.67-.73-.92-1a4.83,4.83,0,0,1-.69-.85c-1,1.4-1.74,1.47-2.21.21l-1.23.33c0-1.5.61-2.17,1.91-2-.43-.65-.56-1.05-.42-1.21a3.64,3.64,0,0,1,1.05-.66,7.25,7.25,0,0,0,1.88-.69,3,3,0,0,0-.86-.06,1.61,1.61,0,0,1-.91-.22c.18-.3.08-.65-.28-1.06s-.13-.72.69-.94c-.65-.08-1.19-.14-1.66-.21l-1.48-.26a2.52,2.52,0,0,1,0-.84c.05-.32,0-.47-.11-.44a.86.86,0,0,0-.86-.05,6.53,6.53,0,0,1-.95.35l1.07-.95c.3-.27.66-.59,1.07-.94a2.65,2.65,0,0,0-.85-.34l-.8-.17a1.21,1.21,0,0,0-.09-1.38c-.31-.48,0-.85.93-1.1a2.49,2.49,0,0,1-.49-.43q-.3.25-1.26.9a1.78,1.78,0,0,0,.27-.73,2.18,2.18,0,0,1,.27-.74c.55-.77.38-1.17-.5-1.18a.79.79,0,0,0-.64.08,2,2,0,0,1-.59.25l-.12,1a2.75,2.75,0,0,1-.71-.56l-.54-.61a1.92,1.92,0,0,1-1.15-.07A21.38,21.38,0,0,0,159,313.1a21.38,21.38,0,0,1,1.11-2.18,3.28,3.28,0,0,1,.65-1.11,3.49,3.49,0,0,1,2-.63,7.91,7.91,0,0,0,2.09-.28,8.8,8.8,0,0,1,3.12.39c1,.31,1.93.64,2.91,1a6,6,0,0,1,2.8,1.32,9.85,9.85,0,0,1,2.41,1.61,23.56,23.56,0,0,0,2.28,1.84,9.46,9.46,0,0,1,1.9,1.1,3,3,0,0,1,1.11,1.68,2.7,2.7,0,0,1,.08,1,2,2,0,0,0,.3,1.14,3.43,3.43,0,0,1-.54,4.29c-.17.3-.25.5-.21.62a9,9,0,0,1-.88,3.06c-.48,1-.9,2-1.27,3a18.55,18.55,0,0,1-1,2.45c-.41.8-.82,1.63-1.22,2.49a8.46,8.46,0,0,0-.53,1.17,3,3,0,0,1-1.06,1.33,10.12,10.12,0,0,1-1.61,1,11.07,11.07,0,0,0-1.62,1,.91.91,0,0,1,.28,1.06c-.07.64-.29,1-.64,1.11a2.77,2.77,0,0,0-1.69.73c-.51.45-1,.87-1.54,1.26a20.07,20.07,0,0,0-2.31,1.94,11.31,11.31,0,0,1-2.17,1.71,24.31,24.31,0,0,1-3.31,1.73c-1.12.5-2.3,1-3.52,1.61l-.61.54-.61.54a1.55,1.55,0,0,1-1.52.31,7.61,7.61,0,0,0-1.7-.39,10,10,0,0,0-2.65.33,2.7,2.7,0,0,1-2.52-.64.44.44,0,0,0-.6-.12,1,1,0,0,1-.72.1,3.51,3.51,0,0,0-1.19.13,3.08,3.08,0,0,1-1.42,0c-.26-.05-.56-.1-.88-.14s-.68-.07-1.06-.09a6.4,6.4,0,0,1-3.38-.32,11.62,11.62,0,0,0-3.13-.76c-.29-.18-.55-.32-.78-.45a2.46,2.46,0,0,0-.73-.28,8,8,0,0,1-1.29-.59,7.14,7.14,0,0,0-1.69-.68c.88-.49,1.52-.44,1.93.14a1,1,0,0,0,1.44.46,5.63,5.63,0,0,0-.78-1.48,2.57,2.57,0,0,1,1.5,0c-.59-.34-.91-.57-.94-.69a5,5,0,0,1,.07-1.15,3.08,3.08,0,0,0-.58-.78c-.32.71-.6.94-.85.7s-.48-.47-.66-.67q-.84-.34-.93-.69a1.19,1.19,0,0,1,.07-.78c.11-.28.22-.57.34-.84a1.53,1.53,0,0,0,0-.95l-.22-.13-.45-.26a2.83,2.83,0,0,0-1.15-.07.56.56,0,0,0-.08.4.17.17,0,0,1-.13.23c.41.14.6.36.56.69a.73.73,0,0,0,.39.74,7.71,7.71,0,0,1-1.61,1.37c-.17,0-.32-.16-.45-.62a1.44,1.44,0,0,1,.57-.35,1.47,1.47,0,0,0,.57-.34l-.14-.52a1.89,1.89,0,0,0-.93.06,9.8,9.8,0,0,0-1.16,2l.35-.09a6.08,6.08,0,0,1,.65,1.71,3.38,3.38,0,0,1-2.07-1.43,9.23,9.23,0,0,0-1.64-1.91l.16,0a.8.8,0,0,0,.58,0l.18-.05a4.36,4.36,0,0,1,1.26-.9,4.54,4.54,0,0,1,1.36-.55,17.69,17.69,0,0,0,.63-1.87c-.83-.28-1-.86-.47-1.76a4.13,4.13,0,0,0-1.59-.32l.71-.47a1.94,1.94,0,0,1,.6-.26.23.23,0,0,0-.1-.35c-.17.29-.49.38-1,.26s-.65.29-.51,1.26c.06.24-.08.43-.42.59a1.58,1.58,0,0,0-.75.67,2.57,2.57,0,0,1,1.22.33q.24.22-.27,1.11a.54.54,0,0,1-.3.27.53.53,0,0,0-.31.27l-.52.89c-.76-.05-1.17-.15-1.22-.33a3.53,3.53,0,0,1,.23-1.29.3.3,0,0,0,0-.37.63.63,0,0,1,0-.55.34.34,0,0,0-.24.16.41.41,0,0,1-.24.16l-.18,0c-.39-.52-.75-1.05-1.09-1.59a8,8,0,0,0-1.25-1.55,3.24,3.24,0,0,0-1-1.06,3.46,3.46,0,0,1-.9-.89,3.74,3.74,0,0,1-.48-2.51,4.65,4.65,0,0,0-.31-2.55c-.12,0,0-.18.21-.62a3.83,3.83,0,0,0,.36-.76c.07-.21-.17-.42-.74-.65a1.31,1.31,0,0,1,0-.46,1.55,1.55,0,0,0,0-.46l0-2.25a9.57,9.57,0,0,0-.15-2.32,6.05,6.05,0,0,1,0-2.36c.26-.95.46-1.82.62-2.61a19.82,19.82,0,0,1,.67-2.44,2.87,2.87,0,0,1,.33-.84c.72.8,1.25,1.36,1.58,1.65-1.17.31-1.53.84-1.07,1.6a2.91,2.91,0,0,1,1.31,0,2.57,2.57,0,0,0,.16-1.17,1.7,1.7,0,0,1,.21-1,3.82,3.82,0,0,0-.53-.23c-.21-.07-.33-.16-.36-.28a8.89,8.89,0,0,0-.25-1.63,5.83,5.83,0,0,1-.2-1.45,7.69,7.69,0,0,1,.89-3.72,18.69,18.69,0,0,0,1.37-3.29,11.82,11.82,0,0,1,1.3-2.89,21.78,21.78,0,0,0,1.39-2.54c.43-.75.84-1.42,1.24-2a12.4,12.4,0,0,1,1.34-1.67c.67-.81,1.37-1.6,2.11-2.36s1.45-1.49,2.15-2.17c1.45-1.15,2.83-2.3,4.15-3.47s2.7-2.33,4.16-3.47a10.15,10.15,0,0,1,2.55-1.35,15,15,0,0,0,2.61-1.17,11.16,11.16,0,0,0,1.38-.46c.46-.19,1-.41,1.52-.68l1.66-.83,1.66-.82a62.85,62.85,0,0,1,6.41-2.09,58.08,58.08,0,0,1,6.42-1.35q2.91-.39,5.65-1a33.55,33.55,0,0,1,5.53-.82,16.22,16.22,0,0,0,1.63.12c.44,0,1,0,1.59-.05,1.7-.2,3.39-.46,5.06-.79a17,17,0,0,1,5-.21.88.88,0,0,0,.86.05,1.18,1.18,0,0,1,.81-.12l2.3.13a10.69,10.69,0,0,1,2.17.36,3.53,3.53,0,0,0,1.74-.18,4.17,4.17,0,0,1,1.52-.31c1.23-.08,2.44-.12,3.63-.13s2.41-.05,3.64-.13l1.24.05c.44,0,.85,0,1.23,0a23.87,23.87,0,0,1,2.5.18c.78.11,1.55.18,2.32.23,2,.08,4,.07,6,0a51.79,51.79,0,0,1,5.85,0c1.42.12,2.78.19,4.11.22a36.52,36.52,0,0,1,3.93.26c1,.1,2,.22,2.92.35a17.79,17.79,0,0,0,2.87.17,39,39,0,0,0,4.71.34c1.57,0,3.12.08,4.65.17q3.23.07,6.23,0t5.87.11c2,.09,3.95.11,5.75.06s3.68,0,5.59.11a34,34,0,0,1,4.39-.14,32.35,32.35,0,0,0,4.56-.19c2.36-.13,4.68-.34,7-.65s4.55-.56,6.76-.77c1.35-.11,2.71-.29,4.09-.54l4.23-.75c1-.13,2-.31,3.05-.54s2.13-.47,3.19-.75c1.44-.26,2.87-.56,4.29-.87s2.83-.66,4.24-1c.49-.07,1-.16,1.52-.27a16.91,16.91,0,0,1,.19-3.63c.22-1.33.4-2.7.56-4.09q.57-2.68,1.24-5.18a42.61,42.61,0,0,0,1.05-5.17q.66-4.2.93-8.27t.75-8.26c.15-1.39.37-2.85.63-4.38.11-.62.17-1.18.26-1.77l0-.58c-1.14-.17-1.57.08-1.27.75a2.22,2.22,0,0,1,.13,1.78,1.23,1.23,0,0,0-.56.14.67.67,0,0,1-.57-.06,2,2,0,0,0-1.69.12,6.48,6.48,0,0,1-1.65.68c-.13,0-.36.22-.71.62a.51.51,0,0,0-.16.38.55.55,0,0,1-.16.39c-.86.32-1.66.62-2.39.93l-2.2.9a4.89,4.89,0,0,1-1.85.51,3.07,3.07,0,0,0-1.83.88,2,2,0,0,1-1.18.56,1.2,1.2,0,0,1-1.26-.39,3.4,3.4,0,0,1-1.11.27,2.18,2.18,0,0,0-.93.25,8.17,8.17,0,0,1-1.37.67,2.23,2.23,0,0,0-1,.63,2.35,2.35,0,0,1-2.13.53,6.18,6.18,0,0,0-2.19-.23,4.81,4.81,0,0,1-1.9-.24,10.37,10.37,0,0,0-1.92-.43,16.72,16.72,0,0,0-2.55,0,19.61,19.61,0,0,1-2.54,0,3.68,3.68,0,0,1-1.14-.11,3.45,3.45,0,0,0-1.14-.11c-1.15-.17-2.32-.37-3.53-.6s-2.46-.43-3.72-.59a9,9,0,0,0-3.24-.34,1.31,1.31,0,0,0-.81.52,4.7,4.7,0,0,1-1.16.94,9.67,9.67,0,0,1,1.36.47,8.59,8.59,0,0,1-1.11,1.68,4.52,4.52,0,0,0-.92,1.67,1.47,1.47,0,0,1-1.44,1c-.75.05-1,.57-.83,1.57a2.87,2.87,0,0,1,1.1-.46c.11-.13.37-.09.76.14s.36.6.24.74a7.67,7.67,0,0,1-.86,1.19,11.67,11.67,0,0,0-1,1.39,9.2,9.2,0,0,1-.61-1.94,6.61,6.61,0,0,0-.6-1.75l-.18,0a8.2,8.2,0,0,1,0,.94,6.1,6.1,0,0,0,0,1.13c-.51,0-.82.12-.93.26a3.69,3.69,0,0,0-1,2,4.23,4.23,0,0,0,.16.84,5,5,0,0,1,.15.84,2.24,2.24,0,0,1-.34.59l-.52.6c-.17-.62-.3-1.14-.39-1.57a10,10,0,0,1-.2-1.41,2.56,2.56,0,0,0-2.06,2.79l.4.35a4.76,4.76,0,0,0,.37-1.35,4.68,4.68,0,0,1,.38-1.34l1,.87-.53.6a1.08,1.08,0,0,0-.32.78c.9.31,1.31.75,1.22,1.33a6.46,6.46,0,0,1-.45,1.63,1.58,1.58,0,0,1-1.25,1c-.5,0-.9-.25-1.19-.86-.43-.85-.72-1.27-.84-1.26a5,5,0,0,0-1.25,1c-.12.13-.27.14-.47,0a1.23,1.23,0,0,0-.67-.14,25,25,0,0,1-.75,2.7v.18c-.89-.19-1.48.08-1.74.78a2.6,2.6,0,0,1-1.31,1.51,13.47,13.47,0,0,1-1.48.39,1.92,1.92,0,0,1-1.33-.19,8.78,8.78,0,0,0-8.39,1.53,3.63,3.63,0,0,1-1.18.65c-.19,0-.48-.22-.89-.69-.28-.24-.71-.21-1.32.09a1.23,1.23,0,0,1-.92.34,3.9,3.9,0,0,1-.77-.22,1,1,0,0,0-1-.22,6,6,0,0,1-.93.16c-1.53-.27-3.06-.61-4.6-1a45.8,45.8,0,0,1-4.43-1.39c-.91-.31-1.81-.6-2.7-.85a11.07,11.07,0,0,1-2.53-1.05,14.47,14.47,0,0,1-2.77-1.88l-2.41-2.09a8.34,8.34,0,0,1-1-1.06,6.62,6.62,0,0,0-.81-.89.64.64,0,0,0-.6-.34l-.74.06a8.24,8.24,0,0,0-1.63,1,6.12,6.12,0,0,1-3.72,2.15c-1.43.22-2.89.39-4.4.5-.62,0-1-.12-1.07-.49a1.55,1.55,0,0,1,.2-1.15q.69-1,1.38-1.89c.46-.6,1-1.23,1.57-1.9l2.09-2.41c.7-.8,1.34-1.6,1.91-2.4a1.81,1.81,0,0,0,.28-1.34l-1.48-5a25.25,25.25,0,0,0-.66-2.69c-.24-.8-.46-1.69-.66-2.69a4,4,0,0,1-.2-1.49,13.12,13.12,0,0,1,.18-1.52,28.64,28.64,0,0,0-.07-5.09,10.54,10.54,0,0,1,.69-5,1.87,1.87,0,0,0,.19-1.33,5,5,0,0,1,0-1.7,24,24,0,0,0,0-2.82,11.8,11.8,0,0,1,.17-2.85,14,14,0,0,1,.43-2c.2-.7.4-1.37.61-2a37.07,37.07,0,0,1,1-4,20.46,20.46,0,0,0,.85-4,26.9,26.9,0,0,1,2.12-6.09c.94-1.88,1.84-3.81,2.71-5.75a36,36,0,0,1,2.32-4.6c.9-1.5,1.81-3,2.71-4.43a8.67,8.67,0,0,1,.8-.81c.29-.27.55-.54.79-.81a12.92,12.92,0,0,0,1.23-1.22l1.05-1.2a2.8,2.8,0,0,1,.51-.8q1.81-1.06,3.63-2c1.21-.65,2.42-1.33,3.63-2,.11-.13.43-.09,1,.12,1,.31,2,.59,2.89.84a25.51,25.51,0,0,1,2.9,1,3.92,3.92,0,0,1,1.58.93,3.82,3.82,0,0,0,1.57.93,16.6,16.6,0,0,0,1.85.81,20,20,0,0,1,1.85.82,11.07,11.07,0,0,0,1.37.65,3,3,0,0,1,1.19.87l2.14,3.62a6.66,6.66,0,0,1,.85,4.09,5.11,5.11,0,0,0,.14,2,12.22,12.22,0,0,1,.33,2.15l.06.75a30.62,30.62,0,0,1-.71,3.35c-.3,1.09-.61,2.15-.91,3.17a5.22,5.22,0,0,1-.45,1.64c-.22.46-.44.94-.66,1.46-.3,1-.58,2-.83,3s-.46,2-.64,3q-.61,1.94-1,3.75a35.09,35.09,0,0,1-1.08,3.57,7.7,7.7,0,0,1-.73,1.65,10.64,10.64,0,0,0-.74,1.47c-.56,1.05-1.12,2-1.69,3s-1.19,1.84-1.88,2.77-1.11,1.59-1.62,2.38a9.92,9.92,0,0,1-2,2.22,12.42,12.42,0,0,0-1.66,1.9,25.71,25.71,0,0,1-1.64,2.1A66.94,66.94,0,0,1,231.9,233a2.86,2.86,0,0,0-.55,2.87,22.25,22.25,0,0,0,1.72,3.09c.29.49.54.94.76,1.36s.46.88.75,1.36l2.44,2.47a5.1,5.1,0,0,0,3.12,1.48,13.44,13.44,0,0,0,4.23-.2,7.39,7.39,0,0,0,3.9-2.25c.81-.94,1.63-1.81,2.46-2.62s1.64-1.69,2.46-2.63,1.36-1.6,2-2.4,1.3-1.6,2-2.41l6.25-7.79a3.61,3.61,0,0,0,.7-3.44,46.66,46.66,0,0,1-2.89-7.63,27.85,27.85,0,0,1-1.05-8.13,32.73,32.73,0,0,1,3.31-14.76c.21-.65.42-1.26.63-1.84a8.83,8.83,0,0,1,.82-1.66c1-1.7,2.06-3.35,3.15-4.94s2.19-3.23,3.33-4.94a13.77,13.77,0,0,0,1.18-2.07,8.89,8.89,0,0,1,1.36-2.07,5.06,5.06,0,0,1,1.25-1c.48-.28,1-.57,1.64-.86a.29.29,0,0,1,.37-.12.65.65,0,0,0,.55-.14,3.27,3.27,0,0,1,1.9-1.17,7.06,7.06,0,0,0,1.94-.6,4.4,4.4,0,0,1,1.38-.57,4.45,4.45,0,0,0,1.37-.57,3,3,0,0,1,3.2-.23c.51.22,1.06.44,1.64.65s1.13.42,1.65.64a28.76,28.76,0,0,1,4.64,3,8.36,8.36,0,0,1,2.87,4.61l.45,1.1c.16.37.31.73.46,1.1a10.58,10.58,0,0,0,.84,1.26,1.6,1.6,0,0,1,.11,1.51,1.05,1.05,0,0,0,0,1.13,2.35,2.35,0,0,1,.36,1.11,15.89,15.89,0,0,1-.37,2.76,5.59,5.59,0,0,0,0,2.54,5,5,0,0,1-.69,3.64v.18q-2.52,1.69-1.22,4.05a.33.33,0,0,1-.35.4c-.76-.07-1.19.15-1.28.66a2.83,2.83,0,0,1-.66,1.37,1.28,1.28,0,0,1-.43.59,5,5,0,0,0-.61.61c-.11.26-.22.55-.32.87a10.78,10.78,0,0,0-.29,1.25,4,4,0,0,1,1.33.1,4.84,4.84,0,0,1-1.24,2.53,7.73,7.73,0,0,1-2.43,1.68,1.09,1.09,0,0,1,.26,1c-.1.32-.36,1.19-.76,2.6l-2.63.18c.7,1.09.7,2,0,2.65a.64.64,0,0,0-.33.68,1.2,1.2,0,0,1-.32.87,3,3,0,0,0-.4,1.07c0,.31-.36.62-1,.91a2.14,2.14,0,0,0-.7.81c-.23.39-.45.78-.67,1.17l.4.35a1.66,1.66,0,0,1,.31.36,1.42,1.42,0,0,0,.31.36,13.47,13.47,0,0,1-.95,1.38q-.6.8.42,1.86a4.62,4.62,0,0,1,.9-.63c.29.61.58,1.16.87,1.64a1.35,1.35,0,0,0,1.36.66.42.42,0,0,1,.29.07.37.37,0,0,0,.29.07,14.06,14.06,0,0,0,5.8.64,34.9,34.9,0,0,0,5.68-1.06c.73-.3,1.46-.63,2.19-1s1.4-.7,2-1a15.39,15.39,0,0,1,2.21-.72,9.89,9.89,0,0,0,2-.71c1-.44,1.88-.89,2.74-1.32a10.48,10.48,0,0,0,2.33-1.67,32.91,32.91,0,0,0,3.62-3.56,31.15,31.15,0,0,1,3.62-3.55c.83-.69,1.63-1.31,2.41-1.87s1.51-1,2.37-1.54c0-.3.06-.62.1-.92.2-1.59.38-3.14.52-4.66.18-1,.31-1.94.38-2.76a18.92,18.92,0,0,1,.38-2.58c.15-1.39.28-2.78.37-4.17s.21-2.79.37-4.18a17.8,17.8,0,0,1,.89-3.46,18.54,18.54,0,0,0,.89-3.46c.4-1.41.78-2.79,1.13-4.13s.65-2.72.93-4.12a10.19,10.19,0,0,0,.43-1.92,11.51,11.51,0,0,1,.44-1.92c.47-2.17-.47-3-2.83-2.63-1.48.36-3,.75-4.54,1.17a24.31,24.31,0,0,1-4.75.8,12.68,12.68,0,0,1-6.16-.32,31.4,31.4,0,0,1-5.73-2.43,20.19,20.19,0,0,1-3.48-2.59,8.32,8.32,0,0,1-2.24-3.61c-.46-1.23,0-1.89,1.37-2l3.38-.23a13.29,13.29,0,0,0,3.17-.6c2.1-.53,4.22-1.11,6.38-1.77s4.28-1.3,6.37-2c1.86-.51,3.71-1,5.56-1.43s3.65-.92,5.37-1.41c.74-.3,1.15-.71,1.24-1.22.23-2.15.39-4.37.48-6.64a53.48,53.48,0,0,1,.67-6.65,70,70,0,0,1,2.84-10.57,8.45,8.45,0,0,1,1.34-2.45c.57-.73,1.15-1.5,1.72-2.29a1.31,1.31,0,0,1,.46-.32,4.69,4.69,0,0,0,.63-.32c1.63-.12,3.19-.26,4.69-.43s3.06-.31,4.69-.42a2.08,2.08,0,0,1,1.76,1c.41.35.78.7,1.12,1.05a3.59,3.59,0,0,1,.75,1.27,22.35,22.35,0,0,1,.73,2.5c.18.8.44,1.7.76,2.68a10.29,10.29,0,0,1,.26,6.39,3.71,3.71,0,0,0,0,2.65,8.6,8.6,0,0,1-.78,7.6q-.83,1.76,1.05,1.62a11.66,11.66,0,0,0,1.62.17,2.78,2.78,0,0,0,1.57-.39,7.61,7.61,0,0,1,4.48-.79,36.83,36.83,0,0,0,4.55.35,20,20,0,0,1,4,.47,9.12,9.12,0,0,1,3.51,1.64q1.59,1.22,3,2.34c.93.75,1.92,1.53,3,2.34,1.35,1.29,1.18,2.55-.49,3.8a.36.36,0,0,0-.27.12.4.4,0,0,1-.28.11,5.88,5.88,0,0,1-1.71,1.16,4.34,4.34,0,0,1-2.35.07,9.45,9.45,0,0,0-3.51-.23,20.54,20.54,0,0,1-3.48.15.8.8,0,0,0-.55.23,2.15,2.15,0,0,1-.54.41,3,3,0,0,1-.92.35,3.39,3.39,0,0,0-.91.35,9,9,0,0,1-1.29.47A3.51,3.51,0,0,1,367,160a3.66,3.66,0,0,1-.89.73,2.59,2.59,0,0,1-1.11.36,7.19,7.19,0,0,0-3.74,1.67,22,22,0,0,0-2.9,3.13,4.79,4.79,0,0,0-.74,2.88,12.4,12.4,0,0,1-.17,3,14.28,14.28,0,0,0-.4,2.29c-.08.76-.15,1.52-.22,2.28a9.56,9.56,0,0,0-.31,2.29c0,.75-.06,1.51-.13,2.27l-.85,4a1.24,1.24,0,0,1-.35.31,1.42,1.42,0,0,0-.36.31l-.61.7a2.41,2.41,0,0,0-.42.69c0,1.26-.11,2.46-.22,3.6a14.11,14.11,0,0,1-.8,3.45,14.38,14.38,0,0,0-.61,7.4,2.06,2.06,0,0,1-.21,1,1.93,1.93,0,0,0-.21,1.06l-.54,3.05c-.19,1-.36,2-.54,3.06a6.85,6.85,0,0,0-.36,1.63,7.43,7.43,0,0,1-.36,1.62l-1.11,5.74c-.37,1.91-.67,3.89-.91,5.91a3.09,3.09,0,0,0-.06,1.8,2.94,2.94,0,0,1-.06,1.8,10.39,10.39,0,0,1-.95,2.61c-.44.85-.89,1.73-1.32,2.64a6.6,6.6,0,0,1-.76,1.37,6.94,6.94,0,0,0-.75,1.38c-.47.53-.62,1-.47,1.35a5.27,5.27,0,0,1,.39,4.22,31.14,31.14,0,0,0-1.13,4.13c-.29,1.16-.56,2.3-.79,3.45s-.5,2.3-.8,3.45a8.17,8.17,0,0,1-1,2.81c-.51.85-1,1.74-1.61,2.66.14.24.33.57.55,1s.26.7.15.84a1.9,1.9,0,0,1-1,.54,6.51,6.51,0,0,0-1.56.58,1.74,1.74,0,0,1,.53.91,2.88,2.88,0,0,0,.55,1.09,4.21,4.21,0,0,0-.6.89c-.16.33-.3.62-.41.88a4.48,4.48,0,0,1-3.85,4.23l-.38,0a3.68,3.68,0,0,1-2.45,2.71,5.29,5.29,0,0,0-2.87,2.18,3.17,3.17,0,0,1-3.11,1.36,4.77,4.77,0,0,1-1.51-.47c0,.18,0,.36-.08.54s-.05.56-.09.84a10.27,10.27,0,0,1-1.06.2l-.53.14-.62-.21L320,277a5.9,5.9,0,0,0,1.44,1.12l.48-.32c.14-.41.27-.63.38-.66h.1a18.41,18.41,0,0,0,0,2.35l-.33.16a.48.48,0,0,1-.27-.3l-.05-.17c-.44.23-1,.57-1.62,1a1.89,1.89,0,0,1,.06.93c-.52.39-.83.41-.92.06a2.09,2.09,0,0,0-.42-.83,12.21,12.21,0,0,0-1.72-.11,6.87,6.87,0,0,1-1.54-.15,1.63,1.63,0,0,1-.66-.67,1.52,1.52,0,0,0-.65-.68,4.1,4.1,0,0,0-1.43.29,12.74,12.74,0,0,1-1.55.52Zm12.61,2.08,0-.08.05.06Zm0,7.58h0l0-.08Zm1,80.82-7-10.31-3.7,2.51-1.61-2.37,10.11-6.85,1.61,2.37-3.69,2.5,7,10.31Zm19-14.66-5.83-2.14-1.81,1.56,3.57,4.12-2.47,2.13-10-11.57,5.41-4.69a4.79,4.79,0,0,1,7.14.35,4.44,4.44,0,0,1,.42,5.64l6.44,2.14Zm8.41-8-11.31-10.34,7.32-8L351,333l-5.12,5.6,2.37,2.17,5-5.48,2.11,1.94-5,5.48,2.58,2.36,5.12-5.6,2.12,1.94Zm18.59-22.93-2.67-.72-3.81,5.35,1.56,2.29-2.15,3-9-13.69,2.37-3.33,15.9,4.07Zm7.36-12.09-10.94-5.93-2.14,3.93-2.53-1.36L369,300.3l2.53,1.37-2.13,3.92,10.95,5.94ZM388,295.79a8.85,8.85,0,0,1-4.69,5.14l-1.7-2.61a6.76,6.76,0,0,0,3.76-3.74c.68-1.68.25-2.77-.58-3.1-2.47-1-4,7.87-9.39,5.72-2.36-1-3.49-3.79-2.15-7.13a8.5,8.5,0,0,1,4.22-4.74l1.58,2.59a6.62,6.62,0,0,0-3.23,3.51c-.51,1.27-.25,2.22.6,2.56,2.24.91,4-7.86,9.32-5.72C388.29,289.32,389.5,292,388,295.79Zm52.5-104.5a17.13,17.13,0,0,0-1.67,3A6.81,6.81,0,0,1,436.9,197a13.55,13.55,0,0,1-1.34,1.13l-.9.63-.9.63c-.3.21-.8.59-1.52,1.15a4.18,4.18,0,0,1-.81.52l-.55.23a6.52,6.52,0,0,0-.82.44l-1.63,1a34.51,34.51,0,0,1-4.81,2.69,25.17,25.17,0,0,1-6.18,2c-1.57.86-2.85,1.55-3.82,2.06s-1.84,1-2.63,1.5a9.43,9.43,0,0,0-1.35.95,6.21,6.21,0,0,1,.3,2.8c-.16.52-.37,1.48-.65,2.88l-.27,1.53a4.19,4.19,0,0,1-.65,1.55,2.56,2.56,0,0,0-.34.5,5.86,5.86,0,0,1-.52.7l-.39.45c-.1.2-.2.44-.3.62a4.9,4.9,0,0,0-.55,1.47c-.57,1.15-1.13,2.24-1.67,3.27s-1.11,2.06-1.71,3.1a12,12,0,0,1-1,1.49c-.34.4-.73.92-1.19,1.54-.29.33-.6.7-.93,1.1a10.87,10.87,0,0,1-1.11,1.15,1,1,0,0,1,0,.74c.06.24,0,.4-.06.49a1,1,0,0,0-.23.53,1,1,0,0,1-.54-.23,1,1,0,0,0-.53-.23,21.85,21.85,0,0,1-1.24,2.4c-.47.13-.75.26-.83.41a5,5,0,0,0-.34.85.32.32,0,0,1-.26.44,6.66,6.66,0,0,0-2.68,3.35,6.27,6.27,0,0,1-.9,1.57q-.74.75-1.41,1.41a13,13,0,0,0-1.23,1.36,1.45,1.45,0,0,1-.49.32.54.54,0,0,0-.3.27,3.39,3.39,0,0,1-.83.42c-.06.26.17.64.68,1.13a2.83,2.83,0,0,0-.92.06,1.58,1.58,0,0,1-.75,0,11.7,11.7,0,0,0-1.26,1.65l-.74.77a1.12,1.12,0,0,1-.89,1.56,1.2,1.2,0,0,0-.79.59,6.72,6.72,0,0,0-1.13.68.16.16,0,0,0-.14.22,2,2,0,0,1-.77,1,13.38,13.38,0,0,1-1.59,1.09c-.6.34-1.15.65-1.64.91s-.82.34-1,.25a1,1,0,0,0,.21-.62l-.18.05a.54.54,0,0,0-.3.27,4.39,4.39,0,0,0-.93,1.1,2.57,2.57,0,0,1-1.15,1,2.49,2.49,0,0,0-1.05.66c-.35.35-.73.7-1.13,1.06a.51.51,0,0,0,.08-.4,4.5,4.5,0,0,1-.82-.25,1.24,1.24,0,0,0-.77-.08,7,7,0,0,0-1,.37,1.47,1.47,0,0,1-.91.15,2.7,2.7,0,0,0,.11,1.1c.52-.89,1.11-.8,1.77.28a1.78,1.78,0,0,0-.59.26.83.83,0,0,1-.64.07c-.23.06-.72-.12-1.47-.55l-.12.23c.15.58.13,1-.07,1.14a2.57,2.57,0,0,1-1,.47,3,3,0,0,0-.68.27,3.36,3.36,0,0,1-.68.28c-1,.51-1.95,1-2.89,1.52s-1.95,1-3.06,1.58a80,80,0,0,1-8.53,4c-1,.51-2,1-2.94,1.35a24.93,24.93,0,0,0-2.76,1.3l-.22-.12.3-.27a2,2,0,0,1-1.91.23l-2-.87a.29.29,0,0,1,0-.09,9.23,9.23,0,0,1,.41-.88,4.17,4.17,0,0,1,.59-.89,3,3,0,0,1-.54-1.09,1.69,1.69,0,0,0-.54-.91,6.83,6.83,0,0,1,1.56-.58,1.71,1.71,0,0,0,1-.54q.18-.21-.15-.84c-.22-.43-.4-.76-.54-1l1.61-2.66a8.61,8.61,0,0,0,1-2.81c.23-.91.43-1.82.63-2.73,1.66-.65,3.32-1.35,5-2.19a18.51,18.51,0,0,0,4.64-2.37c.76-.46,1.5-.87,2.21-1.25s1.51-.81,2.38-1.3c1.2-.69,2.4-1.36,3.61-2a34,34,0,0,0,3.56-2.18c1.4-.88,2.79-1.78,4.17-2.72a19.76,19.76,0,0,0,3.8-3.37,24.38,24.38,0,0,1,2.57-2.38,26.57,26.57,0,0,0,2.56-2.38h0c-.34,0-.68,0-1,0a6.37,6.37,0,0,1-2.32-.78A12.57,12.57,0,0,0,374,236.5a19.29,19.29,0,0,0-3.74-2.19,6,6,0,0,1-3-2.81,3.09,3.09,0,0,1,.1-1.23,5.23,5.23,0,0,1,.49-1.08,10.57,10.57,0,0,0,.73-1.74,2.51,2.51,0,0,1,1.3-1.6c.1-.26.14-.29.09-.1s0,.22.1.08a8.65,8.65,0,0,0,.9-.63,8.73,8.73,0,0,1,2.39-3.56,24.33,24.33,0,0,0,3-3.23,67.9,67.9,0,0,1,8.1-7q4.74-3.54,8.36-5.86a14.4,14.4,0,0,0-3.65-3.61,8.26,8.26,0,0,1-2.88-3.48,23,23,0,0,1-1.85-2,21.17,21.17,0,0,0-1.84-2,10.89,10.89,0,0,1-1.47-2.16c-.3-.61-.58-1.16-.87-1.64a3.31,3.31,0,0,1-.48-1.48,4.78,4.78,0,0,1-1.05,1.21c-.35.28-.71.58-1.06.92s-.77.75-1.24,1.22-1.11,1.18-1.93,2.12a17.37,17.37,0,0,0-1.49,1.52,18.13,18.13,0,0,1-2.59,2.16,17,17,0,0,0-2.49,2.06,6.94,6.94,0,0,1-2.72,1.7,5,5,0,0,1-4.64-.34,6.81,6.81,0,0,1-2.32-2.19c.83-.69,1.51-1.27,2-1.75l1.51-1.33,1.34-1.13c.42-.35.92-.79,1.51-1.33a37.36,37.36,0,0,0,4.92-5.16,32.41,32.41,0,0,1,4.21-4.54l2.82-2.84,1.53-2.37a8.76,8.76,0,0,0,.78-1.09,4.14,4.14,0,0,0,.55-1.45c.5-.16.69-.11.58.15s.08.24.56,0c.11-.26.3-.75.56-1.46a5.87,5.87,0,0,1,.92-1.67l1.18.68a11,11,0,0,0,.44-1.83,4.16,4.16,0,0,1,.64-1.64,2.32,2.32,0,0,1,1.37-2,4,4,0,0,0,1.78-1.63,4,4,0,0,1,2-2,2.78,2.78,0,0,0,1.65-2c.24-.14.26-.36.05-.66s-.25-.46-.12-.47a20.76,20.76,0,0,1,4,.1l.25.74a3,3,0,0,1,.71-.52,1.55,1.55,0,0,1,1.52.18,16.05,16.05,0,0,0,5,2.85,34.72,34.72,0,0,1,5.56,2.63,2.57,2.57,0,0,1-.36,1.72q-.42.6.36,1.11c.19.87,0,1.35-.46,1.45A4.53,4.53,0,0,0,406,173a16.58,16.58,0,0,1-5.77,5.22,59,59,0,0,0-7.28,5.13,12.16,12.16,0,0,0-1.94,1.93,5.62,5.62,0,0,0-1,2,5,5,0,0,0-.05,3.4,6.58,6.58,0,0,0,1.88,2.61,28,28,0,0,0,3,2.24,30.41,30.41,0,0,1,3.09,2.33h.18c.94.81,1.92,1.72,2.93,2.72a26.55,26.55,0,0,1,2.35,2.57,56.35,56.35,0,0,0,9.05-2.71,38.16,38.16,0,0,0,4.91-1.38,31.75,31.75,0,0,0,4.3-1.9l4.62-1.27a41.72,41.72,0,0,1,4.81-2.79,16.18,16.18,0,0,0,2.45-1.3,2.12,2.12,0,0,1,.73-.43,8.77,8.77,0,0,1,.82-.43,6,6,0,0,0,1-.64L438.6,189a3,3,0,0,1,2-.23.92.92,0,0,1,.53.81A6.4,6.4,0,0,1,440.46,191.29Z"/><polygon class="cls-1" points="295.18 68.3 286.84 77.91 295.27 81.02 295.18 68.3"/><path class="cls-1" d="M387.82,223.65c-1.08.7-2,1.3-2.89,1.8a4.65,4.65,0,0,0-1.91,2.31,69.53,69.53,0,0,0,7.86-3.57,9.8,9.8,0,0,0,4.87-6,10.92,10.92,0,0,0-4.46,2.48A45.59,45.59,0,0,1,387.82,223.65Z"/><path class="cls-1" d="M182.5,279.88a2.13,2.13,0,0,0,.06.92,1.11,1.11,0,0,0,.36.66.75.75,0,0,0,.49-.32c.29-.33.48-.41.59-.25a5.29,5.29,0,0,0,.43.54C184.11,280.26,183.47,279.74,182.5,279.88Z"/><path class="cls-1" d="M140.57,349.69a1,1,0,0,0-.17.79,1.62,1.62,0,0,1,0,.76.16.16,0,0,0,.22.12l.41.08a1.88,1.88,0,0,0,1.14.07,5.69,5.69,0,0,1,1.28-.15c0-1-.38-1.41-1.08-1.22A1.77,1.77,0,0,1,140.57,349.69Z"/><path class="cls-1" d="M136.06,346.94c-.46.12-.75.26-.83.41l.54.61a3,3,0,0,0,.71.56.51.51,0,0,1-.3.27c-.44-.26-.71-.31-.8-.16a.83.83,0,0,0-.54.43,2.58,2.58,0,0,1-.5.6q.49.43,1,.78c.31.23.62.42.91.6l.36-.09c-.37-.92-.32-1.43.15-1.55a3.3,3.3,0,0,0,1.31-.73,8.78,8.78,0,0,0,1.08,1.22c.33.29.8.16,1.41-.38l.52-.14c1.45.24,1.81-.3,1.08-1.61a3.07,3.07,0,0,1-1.23.71,3.14,3.14,0,0,0-1.22.7c-.3-.67-.64-1.33-1-2a22.91,22.91,0,0,1-1.06-2.16,1.4,1.4,0,0,1-1.42.28C135.52,345.17,135.48,345.71,136.06,346.94Z"/><path class="cls-1" d="M146.61,345.9c.43,0,.95-.1,1.57-.14l-.14-.53a12.32,12.32,0,0,1-1.52.32,10.52,10.52,0,0,0-1.52.31l.09.35A12.08,12.08,0,0,1,146.61,345.9Z"/><path class="cls-1" d="M139.32,350.68a5,5,0,0,0-2,.08,1.78,1.78,0,0,1,.62.21,2.22,2.22,0,0,0,.63.2,4.1,4.1,0,0,1,1.06.48C139.69,351.11,139.61,350.79,139.32,350.68Z"/><path class="cls-1" d="M224.41,281.65l.33,1.22c.32-.21.61-.42.87-.61s.5-.38.7-.56.07-.21-.05-.18A10.1,10.1,0,0,1,224.41,281.65Z"/><path class="cls-1" d="M242.19,284a11.5,11.5,0,0,1-.14,2.29l.88-.23c.35-.1.51-.2.48-.32a1.73,1.73,0,0,0-.17-1A1.3,1.3,0,0,0,242.19,284Z"/><path class="cls-1" d="M259.48,286c.43-.25,1-.58,1.61-1a3,3,0,0,0-1.37-.58C259.54,284.47,259.46,285,259.48,286Z"/></g></g></g></svg>
