<svg xmlns="http://www.w3.org/2000/svg" viewBox="0 0 568 335.95"><defs><style>.cls-1{fill:#1a3135;}</style></defs><g id="Layer_2" data-name="Layer 2"><g id="Logos"><g id="taylor-excavating"><polygon class="cls-1" points="467.62 273.81 467.62 303.28 488.29 303.28 488.29 298.56 472.79 298.56 472.79 273.81 467.62 273.81"/><polygon class="cls-1" points="505.89 273.81 505.89 303.28 526.56 303.28 526.56 298.56 511.07 298.56 511.07 273.81 505.89 273.81"/><path class="cls-1" d="M554.65,303.78a15.23,15.23,0,0,0,12-5.22l-3.33-3.37c-2.53,2.36-4.84,3.83-8.46,3.83-5.64,0-9.73-4.71-9.73-10.48v-.08c0-5.77,4.09-10.4,9.73-10.4,3.37,0,5.89,1.47,8.25,3.66l3.32-3.83a15.37,15.37,0,0,0-11.53-4.59,14.91,14.91,0,0,0-15.2,15.24v.09A14.82,14.82,0,0,0,554.65,303.78Z"/><rect class="cls-1" y="324.63" width="568" height="11.32"/><rect class="cls-1" x="356.21" y="61.66" width="210.33" height="3.77"/><rect class="cls-1" x="0.52" y="61.66" width="239.68" height="3.77"/><polygon class="cls-1" points="27.75 280.76 27.75 273.82 4.06 273.82 4.06 303.28 27.96 303.28 27.96 296.33 12.14 296.33 12.14 291.66 26.28 291.66 26.28 285.23 12.14 285.23 12.14 280.76 27.75 280.76"/><polygon class="cls-1" points="55.06 303.28 60.75 294.4 66.39 303.28 75.77 303.28 65.67 288.21 75.35 273.82 66.17 273.82 60.91 282.11 55.7 273.82 46.31 273.82 55.99 288.3 45.89 303.28 55.06 303.28"/><path class="cls-1" d="M107.25,280.68c2.82,0,4.76,1.35,6.44,3.45l6.15-4.75c-2.61-3.62-6.48-6.15-12.5-6.15a15.14,15.14,0,0,0-15.53,15.32v.08a15.51,15.51,0,0,0,28.24,8.59l-6.15-4.38c-1.77,2.15-3.58,3.58-6.65,3.58-4.12,0-7-3.45-7-7.87v-.08C100.22,284.17,103.13,280.68,107.25,280.68Z"/><path class="cls-1" d="M135.14,303.28h8.59l2.1-5.26h11.36l2.15,5.26h8.75l-12.54-29.67h-7.87Zm16.41-20,3.29,8.37h-6.61Z"/><polygon class="cls-1" points="198.94 303.49 210.89 273.82 201.93 273.82 195.24 292.46 188.55 273.82 179.41 273.82 191.37 303.49 198.94 303.49"/><path class="cls-1" d="M234.76,273.61l-12.55,29.67h8.59l2.1-5.26h11.37l2.14,5.26h8.75l-12.54-29.67Zm.54,18.05,3.33-8.37,3.28,8.37Z"/><polygon class="cls-1" points="285.38 303.28 285.38 280.98 294.21 280.98 294.21 273.82 268.37 273.82 268.37 280.98 277.21 280.98 277.21 303.28 285.38 303.28"/><rect class="cls-1" x="316.86" y="273.82" width="8.21" height="29.46"/><polygon class="cls-1" points="356.73 287.12 369.31 303.28 376.47 303.28 376.47 273.82 368.39 273.82 368.39 289.39 356.27 273.82 348.65 273.82 348.65 303.28 356.73 303.28 356.73 287.12"/><path class="cls-1" d="M412.19,280.51a10.38,10.38,0,0,1,7.11,2.78l4.8-5.76a17.17,17.17,0,0,0-12-4.3c-9.13,0-15.87,6.74-15.87,15.32v.09c0,8.92,6.86,15.23,16,15.23a19.92,19.92,0,0,0,12.79-4.55V286.07H411.56v6h5.81v3.58a8.34,8.34,0,0,1-4.72,1.22,7.78,7.78,0,0,1-8-8.16v-.09C404.66,284.09,407.94,280.51,412.19,280.51Z"/><path class="cls-1" d="M566.54,251.21l-18.41-72,16.65-16.66V103.09l-20.2-20.2H474.41V251.21H506V182.35h11.79L535,251.21Zm-40.11-92.77H506V106.8h20.35l6.9,6.91v37.94Z"/><polygon class="cls-1" points="356.76 223.48 320.42 223.48 320.42 82.89 288.86 82.89 288.86 251.21 356.76 251.21 356.76 223.48"/><polygon class="cls-1" points="246.56 82.89 228.05 160.38 210.5 82.89 177.67 82.89 211.39 200.49 211.39 251.21 242.95 251.21 242.95 199.98 276.52 82.89 246.56 82.89"/><path class="cls-1" d="M158.3,82.89H112.09L86.24,251.21h30.45l4.81-39.37h26.43l4.82,39.37h31.87ZM124.67,186l10-82.11L144.77,186Z"/><path class="cls-1" d="M457.66,231.13V103L437.57,82.89H389l-20.33,20.32V230.89L389,251.21h48.53Zm-38.74-5.74h-11l-7.66-7.65V115.88l7.18-7.17H419.4l6.7,6.7V218.22Z"/><polygon class="cls-1" points="44.99 110.62 29.21 116.34 29.21 251.21 60.77 251.21 60.77 110.62 89.46 110.62 89.46 82.89 0.52 82.89 0.52 110.62 44.99 110.62"/><path class="cls-1" d="M255.24,65.44h49a7.45,7.45,0,0,0,1.93-14.65l-43.8-11.74a10.1,10.1,0,0,0-2.56-.33A9.84,9.84,0,0,0,250.33,46l-2.59,9.65a7.77,7.77,0,0,0,7.5,9.78Zm-3.37-8.67,2.59-9.66A5.57,5.57,0,0,1,259.82,43a5.5,5.5,0,0,1,1.45.19l43.8,11.74a3.17,3.17,0,0,1-.82,6.24h-49a3.48,3.48,0,0,1-3.37-4.39Z"/><path class="cls-1" d="M238.45,53.88a1.42,1.42,0,0,0,1.1.53h6a1.41,1.41,0,0,0,1.37-1.06L249,45.64a11.27,11.27,0,0,1,10.87-8.35,11.47,11.47,0,0,1,2.92.38l43.81,11.74h0a1.41,1.41,0,0,0,1.74-1.72l-3.38-12.6a1,1,0,0,0-.68-.67l-58-15.55a1.44,1.44,0,0,1-.75-2.29h0A1.45,1.45,0,0,1,247,16.1l61.89,16.58a1.44,1.44,0,0,1,1,1l8.22,30.69a1.43,1.43,0,0,0,1.38,1.06h26.82a1.42,1.42,0,0,0,.84-2.57L318.26,41.73a1.38,1.38,0,0,1-.53-.78l-3-11.12a2.86,2.86,0,0,0-2-2l-16.66-4.46-3.33-12.47a.82.82,0,0,1,0-.49L295.2,1.2a1,1,0,0,0-.92-1.2H264.93a1,1,0,0,0-.92.71L260.5,13.82l-14.74-4a2.87,2.87,0,0,0-3,1l-8,9.91a1.37,1.37,0,0,0-.32.89V48.49a1.47,1.47,0,0,0,.32.89Z"/></g></g></g></svg>