<svg xmlns="http://www.w3.org/2000/svg" viewBox="0 0 768 364.05"><defs><style>.cls-1{fill:#1a3135;}</style></defs><g id="Layer_2" data-name="Layer 2"><g id="Logos"><polygon class="cls-1" points="156.21 290.27 156.22 290.27 156.22 290.24 156.21 290.24 156.19 290.24 156.2 290.27 156.21 290.27"/><polygon class="cls-1" points="218.66 290.24 218.67 290.27 218.69 290.27 218.71 290.24 218.69 290.24 218.67 290.24 218.66 290.24"/><polygon class="cls-1" points="156.22 290.28 156.21 290.28 156.21 290.28 156.21 290.28 156.21 290.27 156.2 290.27 156.2 290.27 156.19 290.27 156.21 290.31 156.21 290.31 156.19 290.27 124.97 344.34 124.97 344.36 124.95 344.36 124.95 344.36 124.97 344.34 93.77 290.28 93.74 290.28 93.74 290.27 93.76 290.27 93.76 290.27 93.76 290.27 93.75 290.25 93.75 290.24 156.19 290.24 124.97 236.19 93.75 290.24 93.74 290.22 62.54 236.17 62.49 236.17 62.49 236.16 62.54 236.16 62.52 236.13 62.49 236.13 62.49 236.13 62.52 236.13 62.52 236.13 62.52 236.13 62.5 236.09 62.5 236.09 62.5 236.09 62.5 236.09 62.5 236.09 62.5 236.09 62.49 236.11 0 344.36 124.95 344.36 124.95 344.36 124.95 344.36 124.95 344.37 124.97 344.4 124.98 344.4 124.98 344.4 187.42 344.4 187.43 344.38 156.21 290.31 156.22 290.28"/><polygon class="cls-1" points="218.69 290.31 218.69 290.28 218.7 290.27 218.69 290.27 218.68 290.27 218.67 290.27 218.67 290.29 218.67 290.28 187.44 344.37 187.46 344.4 218.69 290.31 218.69 290.31"/><polygon class="cls-1" points="156.22 290.27 156.21 290.27 156.22 290.28 156.22 290.27 156.22 290.27"/><polygon class="cls-1" points="156.2 182.06 156.21 182.05 156.19 182.05 156.2 182.06"/><path class="cls-1" d="M312.42,236.13h0L281.19,182h0L250,127.89h0L187.5,19.65,125,127.89h62.42v0l0,0H250L218.69,182h62.47v0h0l-31.22,54.07h0l-31.23-54.08-18.95,32.83-12.27-21.25L175.17,214.9l-19-32.85L125,236.13h37.94L150.7,257.28h24.57l-19,33h62.43l-19-33h24.56L212,236.13h37.93v0h0v0l0,0h0v0h62.49v0h0l-31.24,54.08v0h0l-31.23,54.09,0,0h125Zm-125-108.23h0Zm-25.75,123,25.76-44.61,25.75,44.61ZM250,236.13h0l31.21-54.08h0Zm31.24,54.14Z"/><polygon class="cls-1" points="156.19 290.24 156.21 290.24 156.2 290.23 156.19 290.24"/><polygon class="cls-1" points="249.94 236.19 218.71 290.24 281.15 290.24 249.94 236.19"/><polygon class="cls-1" points="218.67 290.23 218.67 290.24 218.69 290.24 218.67 290.23"/><path class="cls-1" d="M218.67,182h0v0h0v0h0v0Zm0,0Zm0,0Z"/><polygon class="cls-1" points="187.46 344.4 249.92 344.4 218.69 290.32 187.46 344.4"/><polygon class="cls-1" points="93.71 182.05 93.71 182.05 93.71 182.05 93.71 182.05"/><path class="cls-1" d="M125,236.12,93.74,182.05h0v0h0l0,.05h0l31.23,54.08h0L93.71,182.05l-31.21,54,0,0h62.42v0h0v0h0v0h0v0h0Zm0,0Z"/><polygon class="cls-1" points="156.19 182.02 156.19 182.02 156.19 182.02 156.19 182.02 156.2 182.02 156.21 182.01 156.21 182.01 156.21 181.99 156.21 181.98 124.97 127.89 124.97 127.89 124.94 127.89 124.95 127.93 124.95 127.93 149.26 170.02 124.95 127.93 93.74 182.01 93.74 182.02 156.19 182.02"/><polygon class="cls-1" points="156.21 182.01 156.2 182.02 156.2 182.02 156.19 182.05 156.21 182.05 156.22 182.05 156.22 182.02 156.22 182.02 156.22 182.02 156.22 182.01 156.23 182.02 218.67 182.02 187.44 127.93 156.21 182.01 156.22 182.01 156.21 182.01"/><path class="cls-1" d="M718.53,251.61A42.52,42.52,0,1,1,748.59,179L768,159.62a70,70,0,1,0,0,98.94l-19.41-19.41A42.35,42.35,0,0,1,718.53,251.61Z"/><polygon class="cls-1" points="651.16 141.45 612.9 141.45 564.5 189.85 564.5 189.85 564.5 141.45 534.74 141.45 534.74 276.73 564.5 276.73 564.5 228.11 564.5 228.11 613.12 276.73 651.38 276.73 583.63 208.98 651.16 141.45"/><rect class="cls-1" x="440.41" width="2.62" height="364.05"/></g></g></svg>