<svg width="480" height="552" viewBox="0 0 480 552" fill="none" xmlns="http://www.w3.org/2000/svg">
<rect width="480" height="551.489" fill="#9E3223"/>
<rect width="480" height="272" fill="#9E3223"/>
<path d="M120.125 160.25H131.421V162.729H123.279V167.537H130.363V169.971H123.279V175.779H120.125V160.25Z" fill="#FCFCFC"/>
<path d="M149.633 160.017C154.317 160.017 157.133 161.921 157.133 168.008C157.133 173.267 154.633 176.021 149.633 176.021C145.05 176.021 142.133 174.042 142.133 168.008C142.133 161.975 144.95 160.017 149.633 160.017ZM149.633 173.742C152.088 173.742 153.917 172.592 153.917 168.033C153.917 163.475 152.083 162.333 149.633 162.333C147.254 162.333 145.375 163.438 145.375 168.046C145.375 172.567 147.254 173.742 149.633 173.742Z" fill="#FCFCFC"/>
<path d="M168.775 160.25H171.954V170.971C171.954 173.125 173.683 173.675 175.638 173.675C177.592 173.675 179.267 173.075 179.267 170.971V160.25H182.45V170.921C182.45 174.754 179.646 176.029 175.613 176.029C171.579 176.029 168.775 174.754 168.775 170.921V160.25Z" fill="#FCFCFC"/>
<path d="M194.65 160.192H197.633L205.046 170.713V160.25H208.2V175.954H205.246L197.808 165.563V175.779H194.65V160.192Z" fill="#FCFCFC"/>
<path d="M220.704 160.25C222.788 160.1 224.563 160.05 226.592 160.05C231.75 160.05 234.604 162.079 234.604 168.067C234.604 174.125 231.775 176.029 226.917 176.029C224.938 176.029 222.808 175.954 220.704 175.829V160.25ZM226.954 173.725C229.333 173.725 231.388 172.625 231.388 168.067C231.388 163.304 229.333 162.329 226.779 162.329C225.65 162.329 224.55 162.404 223.896 162.429V173.625C224.538 173.642 226.113 173.717 226.942 173.717L226.954 173.725Z" fill="#FCFCFC"/>
<path d="M250.538 160.117H254.288L259.875 175.771H256.442L255.275 172.333H249.538L248.358 175.763H245L250.538 160.117ZM254.704 169.963L252.425 162.571L250.121 169.963H254.704Z" fill="#FCFCFC"/>
<path d="M277.042 162.796V175.771H273.887V162.796H268.887V160.25H282.038V162.804L277.042 162.796Z" fill="#FCFCFC"/>
<path d="M293.175 160.25H296.333V175.779H293.175V160.25Z" fill="#FCFCFC"/>
<path d="M315.833 160.017C320.517 160.017 323.333 161.921 323.333 168.008C323.333 173.267 320.833 176.021 315.833 176.021C311.25 176.021 308.333 174.042 308.333 168.008C308.333 161.975 311.138 160.017 315.833 160.017ZM315.833 173.742C318.288 173.742 320.117 172.592 320.117 168.033C320.117 163.475 318.275 162.333 315.833 162.333C313.454 162.333 311.575 163.438 311.575 168.046C311.563 172.567 313.442 173.742 315.833 173.742Z" fill="#FCFCFC"/>
<path d="M335.287 160.192H338.267L345.683 170.713V160.25H348.837V175.954H345.883L338.442 165.563V175.779H335.287V160.192Z" fill="#FCFCFC"/>
<path d="M306.054 134.3H121.254C120.562 134.3 120 134.862 120 135.554V150.504C120 151.197 120.562 151.758 121.254 151.758H306.054C306.747 151.758 307.308 151.197 307.308 150.504V135.554C307.308 134.862 306.747 134.3 306.054 134.3Z" fill="#FCFCFC"/>
<path d="M138.117 64.9333H120V128.292H159.892V112.333H138.117V64.9333Z" fill="#FCFCFC"/>
<path d="M201.546 128.292H218.908L230.267 96.75C232.992 89.2417 233.554 84.6417 233.554 79.95H218.629L211.4 103.7C211.092 104.775 210.873 105.873 210.746 106.983H210.65C210.613 105.86 210.39 104.751 209.992 103.7L202.671 79.95H186.904C186.904 84.6417 187.467 89.25 190.188 96.75L201.546 128.292Z" fill="#FCFCFC"/>
<path d="M289.85 101.083C289.85 96.2959 287.767 93.4792 284.5 93.4792C281.121 93.4792 278.963 96.1084 278.963 100.979V128.292H261.504V79.9584H273.425C274.385 81.1622 275.232 82.4508 275.958 83.8084C279.434 80.458 284.085 78.6044 288.913 78.6459C301.208 78.6459 307.308 87.8417 307.308 97.7V128.292H289.85V101.083Z" fill="#FCFCFC"/>
<path fill-rule="evenodd" clip-rule="evenodd" d="M339.167 119H331.092C317.667 119 310.438 125.288 310.438 135.238C310.438 145.279 317.575 151.758 331.092 151.758H339.071C352.683 151.758 359.817 145.279 359.817 135.329C359.817 125.288 352.683 119 339.167 119ZM326.667 135.25C326.667 132.421 328.838 130.542 333.154 130.542L336.996 130.554C341.317 130.554 343.663 132.433 343.663 135.25C343.663 137.858 341.313 139.942 336.996 139.942H333.333C328.825 139.942 326.667 137.875 326.667 135.25Z" fill="#FCFCFC"/>
<path fill-rule="evenodd" clip-rule="evenodd" d="M360 80.325C351.986 79.087 343.892 78.4284 335.783 78.3542C320.671 78.3542 312.129 86.9167 312.129 97.6792C312.129 109.788 320.579 116.546 333.25 116.546C345.358 116.546 354.367 109.504 354.367 97.8667C354.413 95.6869 353.931 93.5284 352.963 91.575H360V80.325ZM339.813 97.8042C339.813 101.371 337.083 104 333.333 104C329.583 104 326.858 101.35 326.858 97.7833C326.858 94.2167 329.583 91.5875 333.333 91.5875C337.083 91.5875 339.813 94.2375 339.813 97.8042Z" fill="#FCFCFC"/>
<path d="M182.363 79.95H164.904V128.292H182.363V79.95Z" fill="#FCFCFC"/>
<path d="M238.096 79.95H255.554V128.292H238.096V79.95Z" fill="#FCFCFC"/>
<path d="M164.904 51.0042H168.708V62.5584H186.158V51.0042H189.967V74.5834H186.158V65.6917H168.708V74.5834H164.904V51.0042Z" fill="#FCFCFC"/>
<path d="M198.725 50.8667H202.058L219.408 69.2959V51.0042H223.046V74.8542H219.746L202.363 56.6292V74.5834H198.725V50.8667Z" fill="#FCFCFC"/>
<path d="M245.075 50.6667C248.983 50.6667 251.442 50.9709 254.508 51.8125L253.75 54.6417C250.998 53.9797 248.176 53.6523 245.346 53.6667C238.875 53.6667 234.633 56.1917 234.633 63.4C234.633 69.5667 238.067 71.9584 244.217 71.9584C247.801 71.951 251.374 71.5315 254.863 70.7084L255.571 73.5042C253.108 74.175 249.438 74.9167 243.408 74.9167C235.625 74.9167 230.708 71.75 230.708 63.4292C230.692 54.1042 236.483 50.6667 245.075 50.6667Z" fill="#FCFCFC"/>
</svg>
