<svg xmlns="http://www.w3.org/2000/svg" width="247" height="247" fill="none" viewBox="0 0 247 247"><g clip-path="url(#clip0)"><path fill="#05222E" fill-rule="evenodd" d="M191.335 225.271a123.002 123.002 0 0 1-155.31-15.297 122.999 122.999 0 1 1 155.31 15.297zM86.79 114.72c0-12.92 10.35-22 23.15-22 7.81 0 13.88 3.52 17.48 8.6 3.72-5.08 9.97-8.6 17.88-8.6 12.51 0 22.18 8.89 22.18 21.49v22.51c0 3.91-2.25 7.13-6.45 7.13s-6.45-3.22-6.45-7.13v-20c0-7.04-4.39-11.33-10.26-11.33-6.15 0-10.74 4.33-10.74 11.33v20c0 3.91-2.25 7.13-6.45 7.13s-6.45-3.22-6.45-7.13v-20c0-7.04-4.59-11.33-10.74-11.33-5.86 0-10.26 4.33-10.26 11.33v20c0 3.91-2.25 7.13-6.45 7.13s-6.44-3.22-6.44-7.13v-22zm-13.1 29.09c-4.2 0-6.45-3.22-6.45-7.13v-27.74c0-2.25-.98-3.52-3.32-3.52-5.28 0-12.5 2.34-19.44 7.82-7.23 5.76-12.12 13.18-12.12 16.31 0 1.36.88 1.36 3.23 1.36H56.3c3.91 0 7.13 2 7.13 6.16s-3.22 6.16-7.13 6.16H24.06c-3.81 0-7.62-1.08-7.62-6.35 0-7.92 5.92-20.13 15.92-29.41a55.38 55.38 0 0 1 38.2-14.75c5.86 0 9.58 1.66 9.58 7.43v36.53c0 3.91-2.25 7.13-6.45 7.13zM219.5 122.3c3.73 1.7 4.39 5.37 2.73 8.7v-.01c-4.39 9.57-13.39 13.47-23.39 13.47-14.82 0-26.51-11.61-26.51-25.88s11.69-25.89 26.51-25.89c10.33 0 18.81 3.72 23.39 13 1.95 3.71 1.08 7.72-2.92 9.48-4 1.76-7.31-.49-9.07-4.11-1.95-4.39-6.4-6.54-11.4-6.54a14.22 14.22 0 0 0 0 28.43c5.07 0 9.94-1.86 12.28-7.13 1.65-3.23 4.65-5.22 8.38-3.52z" clip-rule="evenodd"/></g><defs><clipPath id="clip0"><path fill="#fff" d="M0 0h246.04v246.03H0z"/></clipPath></defs></svg>
