<svg xmlns="http://www.w3.org/2000/svg" viewBox="0 0 417.09 141.71"><defs><style>.cls-1{fill:#05222E}</style></defs><g id="Layer_2" data-name="Layer 2"><g id="Layer_1-2" data-name="Layer 1"><path d="M291.15 136.74h-9.27v2.87h27.83v-2.87h-7.48V88.28c-2.32 2.38-6 2.61-9.73 2.61h-9.21v2.84h7.86v43M115.32 136.74h-9.26v2.87h27.81v-2.87h-7.47V88.28c-2.32 2.38-6 2.61-9.72 2.61h-9.21v2.84h7.85v43M323.31 136.73h-8.93v2.87h28.25v-2.87h-8.14v-43h19.94v43H347v2.87h27.48v-2.87h-8.93V88.25c-2.33 2.39-6.36 2.62-10 2.62h-21V74.7c0-10.85 4-19.49 16.35-19.49 4.92 0 8.53 2 8.53 4.06 0 1.4-1.23 1.85-2.19 2.38a5.24 5.24 0 00-2.93 4.58c0 3.09 3 5.15 5.54 5.15 3.76 0 6.52-3 6.52-7.4 0-5.17-5.35-11.72-16.54-11.72-19.46 0-26.46 15.79-26.46 30.78v7.83h-10.15v2.84h10.09v43M28.52 104C40.59 106.5 46 113.77 46 121.74c0 9.11-7.31 16.53-18.43 16.53-11.35 0-22.37-9.25-24.13-28H.36v30.13h3.12c.22-2 1.07-3.52 3.46-3.52 4.46 0 9.28 4.7 20.86 4.7 16.78 0 26-10.16 26-25.73 0-12.17-6.11-21.21-22.23-25.15l-6.16-1.44C11.23 86 7.07 79.44 7.07 72.76c0-9.11 7.07-15.27 15.63-15.27 13.36 0 21.3 10.82 22.92 24.31h3.32V56.85H46c-.35 1.55-1.12 3.06-3.5 3.06-4.09 0-7.49-5.8-20-5.8S0 63.27 0 76.82C0 91.4 7.27 99 22.52 102.6l6 1.4M253.41 130.44c0 8.15 5.58 11.14 13 11.14 8.87 0 11.82-4.85 13.24-7.88l-2.27-1.55c-1.41 2.46-3.68 5.52-7.56 5.52-3 0-5.36-1.51-5.36-6.13V93.71h12.94v-2.84h-12.92V76h-2.19c-1.94 11.55-7.33 14.83-18.21 14.83v2.84h9.33v36.73M218.16 136.73h8.27v-36.1c0-5.78-3.15-8.14-7.19-8.14-7.26 0-12.7 7-15.17 10.36v33.88h8.5v2.86h-28.3v-2.86H193v-43h-8.72v-2.86h9.15c5.56 0 8.22 0 10.3-2.62v9.66h.27c2.39-2.86 8.07-9.66 17.93-9.66 10.46 0 15.62 6.8 15.62 15v33.5h8.71v2.86h-28.1v-2.86M99.72 123.54c-1.25 6.3-6.27 14.07-14.91 14.07-8.44 0-12.47-5-12.47-16v-11.23c0-10.84 4-18.56 13.09-18.56 5.44 0 8.46 2.66 8.46 4.74 0 1.13-.75 1.78-1.44 2.6A5.17 5.17 0 0091 102.7c0 2.51 1.93 5 5.42 5 3.25 0 5.91-2.58 5.91-6.57 0-5.89-7-12.11-17.84-12.11-13.72 0-24.37 10.5-24.37 26.38 0 14.49 7.45 26.36 23.45 26.36 10.84 0 17.77-8.76 19.23-18.17h-3.08M414 123.41c-1.23 6.31-6.27 14.08-14.9 14.08-8.44 0-12.48-5-12.48-16v-11.2c0-10.82 4-18.56 13.1-18.56 5.43 0 8.46 2.67 8.46 4.74 0 1.14-.75 1.79-1.44 2.6a5.18 5.18 0 00-1.45 3.56c0 2.5 1.91 4.93 5.41 4.93 3.25 0 5.91-2.58 5.91-6.58 0-5.89-7-12.09-17.85-12.09-13.7 0-24.37 10.49-24.37 26.38 0 14.49 7.47 26.35 23.45 26.35 10.85 0 17.78-8.76 19.24-18.17H414M177.23 123.29c-1.31 7.06-6.53 14.31-14.69 14.31s-12.51-5-12.51-15.22v-11.51h30.21a.94.94 0 001-1.08v-1.75c0-7.39-6.64-19.19-21.35-19.19-12.83 0-22.22 12.56-22.22 26.38 0 16.47 9.58 26.36 22.73 26.36 10.35 0 18-7.31 19.92-18.3zm-7-16.29a.73.73 0 01-.78.82h-19v-3.65c0-7.74 4-12.49 10-12.49 6.16 0 9.74 4.4 9.74 12.49V107M73.51 2.65h2.92c11.23 0 17.2 6.32 17.2 14.16 0 11.22-7.57 15.05-16.81 15.05h-3.31zM62.12 68.58H54.5v2.72h30.91c10.5 0 22.93-6 22.93-20 0-11.14-10-17.12-19.74-17.67v-.51c8.27-.71 16.57-6 16.57-17C105.17 6.57 97.07 0 82.29 0H54.45v2.65h7.67zm11.39-34h5.38c11.33 0 17.49 7.44 17.49 16.66 0 10.11-6.09 17.34-16.49 17.34h-6.38v-34M113 49.89C113 62.53 121.92 73 134.51 73S156 62.43 156 49.89s-8.91-23.12-21.51-23.12S113 37.19 113 49.89zm32.18 2.62c0 8.79-1 17.47-10.68 17.47s-10.69-8.68-10.69-17.47v-5.22c0-8.8.81-17.47 10.69-17.47 10.14 0 10.68 8.67 10.68 17.47v5.22M223.45 49.91C223.45 62.55 232.37 73 245 73s21.51-10.61 21.51-23.13-8.96-23.09-21.51-23.09-21.55 10.44-21.55 23.13zm32.19 2.61c0 8.8-1 17.48-10.68 17.48s-10.7-8.68-10.7-17.48V47.3c0-8.8.81-17.47 10.7-17.47 10.12 0 10.68 8.67 10.68 17.47v5.22M297.24 68.6h6.11V38.29c0-5.09-3.3-7.16-6.79-7.16-4.59 0-9.32 4.42-11.49 9.11V68.6h7.46v2.72h-26V68.6h8.18V31.27h-7.94v-2.66h7.71c4.68 0 8.54 0 10.29-2.29v8.29h.2c4-4.88 9.47-8.29 15.77-8.29 9.83 0 13.25 7 13.25 12.84V68.6h5.83v2.72h-22.6V68.6M176.6 53.87c5.89.84 8.4 4.33 8.4 8.08 0 5.35-4.32 8.19-9.09 8.19-9.16 0-12.44-8.11-13-13.48h-2.31l.3 15.73h2.25c.18-1.62.71-2.27 1.75-2.27 2.13 0 4.68 2.9 11.13 2.9 9.59 0 15.43-6 15.43-15 0-6.46-3.65-12.29-11.86-13.49l-4.92-.83c-6.44-1.07-8.7-3.3-8.7-7.12s3.16-6.94 8.63-6.94c6.34 0 10 4 11 10.15h2.21l-.25-12.4h-2c-.11.92-.5 1.87-1.53 1.87-1.8 0-4.29-2.48-9.65-2.48-7.61 0-13.46 5.32-13.46 12.82 0 9.52 6.21 13 12.73 13.88l2.83.41" class="cls-1"/><path d="M222.32 64.65c-1 1.7-3.18 4.29-6.43 4.29-2.68 0-5.08-1.21-5.08-5.47V31.26h11.48v-2.65h-11.48V14h-1.95c-1.66 10.22-7.4 14.59-15.66 14.59v2.66h7.26v32.09c0 7 5 9.74 11.95 9.74 6.44 0 9.8-3.28 11.54-6l-1.63-2.43" class="cls-1"/></g></g></svg>
