<svg xmlns="http://www.w3.org/2000/svg" width="124" height="25" viewBox="0 0 124 25"><g fill="#1A3135"><path d="M64.707 11.098a.556.556 0 0 0-.558-.558h-1.942a.556.556 0 0 0-.558.558v1.033c0 .455.103.682.785.786l3.12.64c2.17.352 3.08 1.178 3.08 3.038v2.935a2.377 2.377 0 0 1-2.377 2.377h-5.993a2.377 2.377 0 0 1-2.377-2.377v-2.273h3.534v1.24c0 .31.248.558.558.558h2.48c.31 0 .558-.248.558-.558v-1.344c0-.454-.103-.682-.785-.785l-3.12-.64c-2.17-.352-3.08-1.179-3.08-3.039v-2.583a2.395 2.395 0 0 1 2.418-2.418h5.353a2.443 2.443 0 0 1 2.438 2.439v1.942h-3.534v-.971zm36.394-.599c-.351 0-.558.206-.558.558v2.19h3.658v-2.17c0-.351-.206-.558-.558-.558h-2.521v-.02h-.02zm-.578 7.853c0 .31.248.558.558.558h2.521c.31 0 .558-.248.558-.558v-1.095h3.617v2.19a2.421 2.421 0 0 1-2.418 2.418h-6.056a2.395 2.395 0 0 1-2.418-2.418v-9.362a2.421 2.421 0 0 1 2.418-2.418h6.056a2.421 2.421 0 0 1 2.418 2.418v5.663h-7.275l.02 2.604zm10.044-15.831h3.534v19.323h-3.534zm6.51 0h3.534v19.323h-3.534zM52.163 7.936v10.25c0 .31-.248.538-.538.538h-2.294a.534.534 0 0 1-.537-.537V7.936h-3.513v11.511a2.421 2.421 0 0 0 2.418 2.418h5.6a2.421 2.421 0 0 0 2.418-2.418V7.936h-3.554zM38.895 9.424c0 .351-.29.64-.641.64h-2.48V5.643h2.48c.351 0 .64.29.64.64v3.142zm0 8.577c0 .351-.29.64-.641.64h-2.48v-5.559h2.48c.351 0 .64.29.64.64v4.279zm2.17-6.552c1.302-.289 1.839-1.178 1.839-2.914V4.92a2.421 2.421 0 0 0-2.418-2.42h-8.515v19.323h8.515a2.421 2.421 0 0 0 2.418-2.418v-4.753c0-1.819-.393-2.646-1.84-3.204zm81.715-8.39c.145 0 .29 0 .352.041a.327.327 0 0 1 .207.31c0 .103-.042.207-.145.248-.041.041-.103.041-.186.062.103 0 .186.062.207.145a.399.399 0 0 1 .062.206v.269h-.207v-.145c0-.144-.041-.248-.103-.289-.042-.041-.145-.041-.248-.041h-.186v.496h-.207V3.017h.455v.042zm.249.165c-.062-.041-.145-.041-.29-.041h-.186v.454h.207c.103 0 .186 0 .207-.041.062-.041.144-.103.144-.207.021-.062 0-.124-.082-.165zm.599 1.281a1.16 1.16 0 0 1-.806.352c-.31 0-.6-.104-.806-.352a1.16 1.16 0 0 1-.351-.806c0-.31.103-.599.351-.806a1.16 1.16 0 0 1 .806-.351c.31 0 .6.103.806.351.207.207.351.496.351.806 0 .31-.103.6-.351.806zm-1.509-1.529c-.186.207-.289.434-.289.703 0 .268.103.537.29.702.185.207.433.29.702.29.269 0 .496-.104.703-.29.186-.206.289-.434.289-.702 0-.269-.103-.496-.29-.703a.936.936 0 0 0-.702-.29.936.936 0 0 0-.703.29zm-45.012 8.039h-2.521v10.809h-3.534V2.501h3.534v5.414h4.505a2.421 2.421 0 0 1 2.418 2.418v11.491h-3.534v-9.961c-.02-.455-.413-.848-.868-.848m12.958 0h-2.542v10.809H83.99V7.936h8.122a2.377 2.377 0 0 1 2.377 2.377v11.511h-3.555v-9.961a.87.87 0 0 0-.868-.848M12.049 2.77a9.42 9.42 0 0 1 9.424 9.423 9.42 9.42 0 0 1-9.424 9.424c-5.208 0-9.445-4.216-9.445-9.424 0-5.208 4.216-9.424 9.445-9.424m0-2.624C5.394.145 0 5.539 0 12.193c0 6.655 5.394 12.049 12.049 12.049 6.654 0 12.048-5.394 12.048-12.049C24.118 5.54 18.703.145 12.05.145"/><path d="M12.4 13.04h.186c.041 0 .062.042.103.042.042.041.062.041.062.062.104.103.104.29.104.558v3.059c0 .351-.207.454-.641.454-.062 0-.93-.041-.992-.041v-4.175h.95c.125 0 .187.042.228.042m.145-5.663h.041c.041 0 .062.041.103.041l.042.042.041.041c.103.103.145.29.145.6v1.922c0 .35-.207.454-.641.454-.062 0-.93-.041-.992-.041V7.399h1.178c.041-.062.083-.062.083-.021m3.472 9.176v-2.377c0-1.384-.29-2.025-1.385-2.438.992-.207 1.385-.889 1.385-2.232v-1.53c0-2.583-.455-3.017-3.576-3.017H8.184v14.632h4.278c3.12 0 3.555-.455 3.555-3.038"/></g></svg>