<svg xmlns="http://www.w3.org/2000/svg" viewBox="0 0 65.98 40"><defs><style>.cls-1,.cls-2{fill:#05222E}</style></defs><g id="Layer_2" data-name="Layer 2"><g id="Layer_1-2" data-name="Layer 1"><path d="M15.9 11.89q-2.47-2.83-9.5-2.84H1.07C.35 9.05 0 9.43 0 10.2v8.66a1.54 1.54 0 00.05.39 2.5 2.5 0 00.09.25 1 1 0 001 .5h2.33c.65 0 1-.39 1-1.14v-6h1.64q4.73 0 6.12 1.75c.93 1.16 1.39 3 1.39 5.41q0 3.64-1.39 5.4t-6.12 1.74h-5c-.77 0-1.15.33-1.15 1v1.64a1.33 1.33 0 00.06.42.75.75 0 00.05.16 1 1 0 00.08.14.79.79 0 00.31.29c.05 0 .08.05.14.07h.11a1.53 1.53 0 00.32.05H6.4q6.89 0 9.4-2.78l.1-.09q2.47-2.86 2.48-8.08c0-3.49-.82-6.18-2.48-8.08M50.07 28.11q2.49 2.84 9.51 2.84h5.33c.71 0 1.07-.38 1.07-1.15v-8.66a2.18 2.18 0 000-.39 2.5 2.5 0 00-.09-.25 1 1 0 00-1-.5H62.5c-.65 0-1 .39-1 1.14v6.05h-1.63q-4.74 0-6.13-1.75c-.92-1.16-1.39-3-1.39-5.41q0-3.64 1.38-5.4t6.13-1.76h5c.76 0 1.15-.33 1.15-1V10.2a1.7 1.7 0 00-.06-.42.76.76 0 00-.06-.16s0-.09-.07-.14a.86.86 0 00-.31-.29l-.13-.07h-.12a1.44 1.44 0 00-.31 0h-5.37q-6.9 0-9.41 2.78l-.1.09c-1.65 1.91-2.47 4.6-2.48 8.08q0 5.24 2.48 8.08" class="cls-1"/><rect width="5.73" height="3.79" x="27.83" y="36.21" class="cls-2" rx=".91"/><rect width="5.73" height="3.79" x="32.41" class="cls-2" rx=".91"/><rect width="13.05" height="3.79" x="27.83" y="27.16" class="cls-1" rx=".91"/><rect width="13.05" height="3.79" x="25.09" y="9.05" class="cls-1" rx=".91"/><rect width="15.8" height="3.79" x="25.09" y="18.11" class="cls-1" rx=".91"/></g></g></svg>
