<svg xmlns="http://www.w3.org/2000/svg" viewBox="0 0 73.89 60.51"><defs><style>.cls-1{fill:#05222E}</style></defs><title>Asset 1</title><g id="Layer_2" data-name="Layer 2"><g id="Layer_1-2" data-name="Layer 1"><path d="M7.96 45.29h-5.2v2.45h3.18v2.15l-3.18.01v5.77H0V42.62h7.96v2.67zM13.07 49.59a1.53 1.53 0 00-.65-1 2.12 2.12 0 00-1.15-.37 2.16 2.16 0 00-1.16.37 1.56 1.56 0 00-.67 1zm2.71 2.16H9.22A2.15 2.15 0 0010 53a2.09 2.09 0 001.41.44 2.32 2.32 0 001.64-.67l1.83 1.36a4.33 4.33 0 01-3.49 1.69 4.7 4.7 0 01-3.49-1.36 4.92 4.92 0 01-1.35-3.57 5.33 5.33 0 01.62-2.54 4.23 4.23 0 011.74-1.79 4.87 4.87 0 012.36-.62 4.19 4.19 0 012.33.7 4.49 4.49 0 011.63 1.85 7.72 7.72 0 01.55 3.26M23.15 46.7l-.83 2.48a1.91 1.91 0 00-1.46-.58 1.67 1.67 0 00-1.22.54 1.81 1.81 0 00-.49 1.29v5.24H16.5v-9.5h2.65v.64a2 2 0 011.75-.87 3.46 3.46 0 012.25.76M30.21 46.7l-.83 2.48a1.91 1.91 0 00-1.46-.58 1.63 1.63 0 00-1.22.54 1.81 1.81 0 00-.5 1.29v5.24h-2.64v-9.5h2.64v.64a2 2 0 011.8-.87 3.46 3.46 0 012.25.76M36.3 49.59a1.59 1.59 0 00-.66-1 2.12 2.12 0 00-1.15-.37 2.18 2.18 0 00-1.16.37 1.56 1.56 0 00-.67 1zm2.7 2.16h-6.56a2.15 2.15 0 00.78 1.25 2.1 2.1 0 001.41.44 2.3 2.3 0 001.64-.67l1.83 1.36a4.33 4.33 0 01-3.49 1.69 4.66 4.66 0 01-3.48-1.39 4.89 4.89 0 01-1.36-3.57 5.33 5.33 0 01.62-2.54 4.23 4.23 0 011.74-1.79 4.87 4.87 0 012.36-.62 4.19 4.19 0 012.33.7 4.42 4.42 0 011.63 1.85 7.72 7.72 0 01.55 3.29M39.78 42.54h2.64v13.13h-2.64zM43.5 42.54h2.65v13.13H43.5zM53.18 52.43v-3.11a2.12 2.12 0 00-1.86-.92 1.58 1.58 0 00-1.3.68 2.86 2.86 0 00-.51 1.75 3 3 0 00.49 1.79 1.54 1.54 0 001.3.72 2.17 2.17 0 001.86-.91m2.47 3.24a4.94 4.94 0 01-4.15 4.84l-1.06-2.08c1.81-.65 2.73-1.57 2.74-2.76v-.45a4.14 4.14 0 01-2.27.62A3.4 3.4 0 0148 54.37a5.83 5.83 0 01-1.06-3.5 5.37 5.37 0 011.19-3.47 3.52 3.52 0 012.8-1.46 3.66 3.66 0 012.27.64v-.41h2.47zM62.52 53.07v-1.42a11.19 11.19 0 00-2.23-.23 1.73 1.73 0 00-1.06.31.91.91 0 00-.42.75.93.93 0 00.5.76 2.18 2.18 0 001.22.33 4.11 4.11 0 002-.5m2.47 2.6h-2.48v-.31a7.08 7.08 0 01-2.57.45 3.83 3.83 0 01-2.62-.9 2.88 2.88 0 01-1-2.29 3.13 3.13 0 011.14-2.46 4.2 4.2 0 012.85-1 10.74 10.74 0 012.27.25.88.88 0 00-.4-.83 2.4 2.4 0 00-1.36-.33 5.56 5.56 0 00-2.68.7l-1-2a8.11 8.11 0 013.71-1 5 5 0 013.06.87A3.1 3.1 0 0165 49.47zM73.89 52.78a2.72 2.72 0 01-1 2.25 5.14 5.14 0 01-3.19.79 10.32 10.32 0 01-4.25-1.06l1.1-2.25a6.79 6.79 0 003.27.83 6.38 6.38 0 001.18-.11.44.44 0 00.37-.49.52.52 0 00-.36-.52 6.35 6.35 0 00-1.39-.22 5 5 0 01-2.72-.82 2.42 2.42 0 01-1-2 2.86 2.86 0 011-2.33 4.06 4.06 0 012.8-.85 8.7 8.7 0 013.93 1l-1 2.22a8.24 8.24 0 00-2.85-.77 2.6 2.6 0 00-1 .15.5.5 0 00-.32.47.41.41 0 00.31.4 5.58 5.58 0 001.2.16 4.82 4.82 0 013 1.07 2.83 2.83 0 01.94 2.12M49.39 20.59c-5.5 2.63-11.8-.17-17.55 1.85a8.85 8.85 0 00-4.73 4.08C25.63 29 26 30.91 25.57 33.57a3.87 3.87 0 01-2 2.73s.21-.29.18-2.23-.28-7.43 1.54-10.83c1.44-2.69 3.6-4.79 6.56-5.35 8.15-1.53 17.21 1.46 22.79-6.49C57.06 8 57.49 4 57.23 0A10.15 10.15 0 0155 1.39c-9.54 3.53-20.25-2-29.43 3.72a11.3 11.3 0 00-5.23 6.73c-2.52 9.69-.52 17.8-1 27.49a19 19 0 01-.2 2 22.59 22.59 0 004-.45c3.63-.82 5.52-3.69 7.19-7.11a5.42 5.42 0 014.42-3c4-.67 7.62.15 11.67-.34A9.53 9.53 0 0053.65 26c2.18-3.5 2-7.22 1.4-11.65 0 0-.42 3.76-5.66 6.25" class="cls-1"/></g></g></svg>
