<svg xmlns="http://www.w3.org/2000/svg" width="500" height="125" fill="none" viewBox="0 0 500 125"><path fill="#1A3135" d="M181.373 26.96v4.903h313.725v88.235H4.902V31.863h61.317c-.427-1.6-.64-3.196-.747-4.902H0V125h500V26.96H181.373z"/><path fill="#1A3135" d="M42.639 79.948l-9.49 9.704V104.9h-11.09V45.186h11.09v30.603l29.537-30.603h12.476L50.103 71.95l26.658 33.056h-13.01L42.64 79.948z"/><path fill="#1A3135" d="M84.225 102.554c-3.732-2.026-6.611-4.799-8.637-8.317-2.027-3.52-3.093-7.571-3.093-12.05 0-4.479 1.066-8.53 3.093-12.05 2.026-3.518 5.011-6.29 8.637-8.317 3.732-2.026 7.89-2.986 12.476-2.986 4.692 0 8.85.96 12.582 2.986 3.732 2.026 6.612 4.799 8.638 8.318 2.026 3.518 3.092 7.57 3.092 12.049 0 4.479-1.066 8.53-3.092 12.05-2.026 3.518-5.012 6.291-8.638 8.317-3.732 2.026-7.997 2.986-12.582 2.986-4.692 0-8.85-.96-12.476-2.986zm22.179-10.024c2.559-2.665 3.839-6.078 3.839-10.343s-1.28-7.677-3.839-10.343c-2.559-2.666-5.758-3.946-9.703-3.946-3.946 0-7.145 1.28-9.704 3.946-2.559 2.666-3.839 6.078-3.839 10.343s1.28 7.678 3.84 10.343c2.558 2.666 5.757 3.946 9.703 3.946 3.838 0 7.144-1.28 9.703-3.946zM166.652 63.953c3.519 3.306 5.225 8.317 5.225 14.929v26.125h-10.663v-24.74c0-3.944-.959-6.93-2.772-8.956-1.92-2.026-4.585-2.986-7.998-2.986-3.945 0-7.037 1.173-9.277 3.519-2.239 2.346-3.412 5.758-3.412 10.237v23.032h-10.663V59.475h10.13v5.864c1.813-2.132 3.945-3.732 6.611-4.798 2.666-1.066 5.652-1.6 9.064-1.6 5.651 0 10.237 1.706 13.755 5.012zM220.933 63.953c3.519 3.305 5.225 8.317 5.225 14.928v26.125h-10.663V80.267c0-3.945-.96-6.93-2.773-8.957-1.919-2.026-4.585-2.985-7.997-2.985-3.946 0-7.038 1.172-9.277 3.519-2.24 2.345-3.413 5.758-3.413 10.236v23.033h-10.663V59.474h10.13v5.865c1.813-2.133 3.946-3.732 6.611-4.799 2.666-1.066 5.652-1.6 9.064-1.6 5.652 0 10.237 1.707 13.756 5.013zM278.403 85.6h-35.722c.64 3.305 2.239 5.97 4.905 7.997 2.666 1.92 5.971 2.986 9.81 2.986 5.012 0 9.17-1.6 12.369-4.906l5.759 6.612c-2.026 2.452-4.586 4.265-7.785 5.545-3.092 1.279-6.611 1.919-10.556 1.919-5.012 0-9.384-.96-13.223-2.986-3.838-2.026-6.717-4.798-8.85-8.317-2.026-3.519-3.092-7.571-3.092-12.05 0-4.478.959-8.424 2.985-11.942 2.026-3.52 4.799-6.292 8.424-8.318 3.626-2.026 7.571-2.986 12.156-2.986 4.479 0 8.424.96 11.943 2.986 3.519 1.92 6.185 4.692 8.211 8.318 1.919 3.519 2.986 7.677 2.986 12.369-.214.427-.214 1.386-.32 2.772zm-31.564-15.142c-2.345 2.026-3.838 4.691-4.265 8.104h25.805c-.426-3.306-1.813-5.972-4.158-7.998-2.346-2.026-5.225-3.092-8.744-3.092-3.413 0-6.292.96-8.638 2.986zM294.399 102.554c-3.732-2.026-6.718-4.799-8.744-8.317-2.133-3.52-3.199-7.571-3.199-12.05 0-4.479 1.066-8.53 3.199-12.05 2.133-3.518 5.012-6.29 8.744-8.317 3.732-2.026 7.997-2.986 12.796-2.986 4.478 0 8.424.96 11.836 2.773 3.412 1.813 5.971 4.478 7.678 7.89l-8.211 4.8c-1.28-2.133-2.986-3.733-4.905-4.693-1.92-1.066-4.159-1.6-6.398-1.6-3.946 0-7.251 1.28-9.917 3.84-2.666 2.559-3.945 6.078-3.945 10.343s1.279 7.784 3.838 10.343c2.56 2.56 5.865 3.84 9.917 3.84 2.346 0 4.479-.534 6.398-1.6 1.919-1.067 3.626-2.666 4.905-4.692l8.211 4.798c-1.813 3.412-4.372 6.078-7.678 7.891-3.412 1.813-7.251 2.773-11.729 2.773-4.799 0-9.064-.96-12.796-2.986zM357.524 102.554c-1.28 1.066-2.772 1.812-4.585 2.346-1.813.533-3.732.746-5.652.746-5.011 0-8.85-1.28-11.623-3.945-2.772-2.666-4.052-6.398-4.052-11.41V49.344h10.664v10.45h12.156v8.53h-12.156v21.647c0 2.24.533 3.945 1.706 5.118 1.066 1.173 2.666 1.707 4.692 1.707 2.345 0 4.371-.64 5.971-1.92l2.879 7.678zM404.015 85.6h-35.722c.64 3.305 2.239 5.97 4.905 7.997 2.666 1.92 5.972 2.986 9.81 2.986 5.012 0 9.171-1.6 12.37-4.906l5.758 6.612c-2.026 2.452-4.585 4.265-7.784 5.545-3.093 1.279-6.611 1.919-10.557 1.919-5.012 0-9.383-.96-13.222-2.986-3.839-2.026-6.718-4.798-8.851-8.317-2.026-3.519-3.092-7.571-3.092-12.05 0-4.478.96-8.424 2.986-11.942 2.026-3.52 4.798-6.292 8.424-8.318 3.625-2.026 7.57-2.986 12.156-2.986 4.478 0 8.424.96 11.943 2.986 3.518 1.92 6.184 4.692 8.21 8.318 1.92 3.519 2.986 7.677 2.986 12.369-.107.427-.213 1.386-.32 2.772zm-31.563-15.142c-2.346 2.026-3.839 4.691-4.266 8.104h25.806c-.427-3.306-1.813-5.972-4.159-7.998s-5.225-3.092-8.744-3.092c-3.306 0-6.185.96-8.637 2.986zM455.627 41.667v63.339H445.39v-5.864c-1.813 2.132-3.945 3.732-6.505 4.905-2.559 1.173-5.438 1.599-8.53 1.599-4.372 0-8.317-.959-11.836-2.879a20.288 20.288 0 01-8.211-8.21c-2.026-3.52-2.986-7.678-2.986-12.263s.96-8.638 2.986-12.156c2.026-3.52 4.692-6.292 8.211-8.211 3.519-1.92 7.464-2.88 11.836-2.88 2.986 0 5.758.534 8.317 1.494 2.453 1.066 4.585 2.559 6.398 4.585v-23.46h10.557zm-17.168 52.996c2.026-1.173 3.625-2.879 4.905-5.012 1.173-2.132 1.813-4.691 1.813-7.464 0-2.772-.64-5.331-1.813-7.464s-2.772-3.839-4.905-5.012c-2.026-1.173-4.372-1.706-6.931-1.706s-4.905.533-6.931 1.706-3.626 2.88-4.905 5.012c-1.173 2.133-1.813 4.692-1.813 7.464 0 2.773.64 5.332 1.813 7.464 1.173 2.133 2.772 3.84 4.905 5.012 2.026 1.173 4.372 1.706 6.931 1.706a12.647 12.647 0 006.931-1.706z"/><path fill="#1A3135" d="M455.627 41.667v63.339H445.39v-5.864c-1.813 2.132-3.945 3.732-6.505 4.905-2.559 1.066-5.438 1.599-8.53 1.599-4.372 0-8.317-.959-11.836-2.879a20.288 20.288 0 01-8.211-8.21c-2.026-3.52-2.986-7.678-2.986-12.263s.96-8.638 2.986-12.156c2.026-3.52 4.692-6.292 8.211-8.211 3.519-1.92 7.464-2.88 11.836-2.88 2.986 0 5.758.534 8.317 1.494 2.453 1.066 4.585 2.559 6.398 4.585v-23.46h10.557zm-17.168 52.996c2.026-1.173 3.625-2.879 4.905-5.012 1.173-2.132 1.813-4.691 1.813-7.464 0-2.879-.64-5.331-1.813-7.464s-2.772-3.839-4.905-5.012c-2.026-1.173-4.372-1.706-6.931-1.706s-4.905.533-6.931 1.706-3.626 2.88-4.905 5.012c-1.173 2.133-1.813 4.692-1.813 7.464 0 2.88.64 5.332 1.813 7.464 1.173 2.133 2.772 3.84 4.905 5.012 2.026 1.173 4.372 1.706 6.931 1.706a12.647 12.647 0 006.931-1.706zM466.183 103.62c-1.28-1.279-1.919-2.879-1.919-4.692 0-1.919.639-3.412 1.919-4.691 1.28-1.28 2.986-1.92 4.905-1.92 1.92 0 3.519.64 4.799 1.92 1.279 1.28 1.919 2.772 1.919 4.691 0 1.92-.64 3.413-1.919 4.692-1.28 1.28-2.879 1.92-4.799 1.92-1.919 0-3.625-.64-4.905-1.92zm-1.386-58.328h12.582l-2.132 39.88h-8.424l-2.026-39.88zM108.185 22.606h6.185v17.488c-2.24 1.813-4.799 3.199-7.785 4.265-2.985.96-5.971 1.493-9.17 1.493-4.479 0-8.637-.96-12.263-2.986-3.625-2.026-6.504-4.691-8.53-8.21-2.026-3.52-3.093-7.358-3.093-11.73 0-4.372 1.067-8.317 3.093-11.73 2.026-3.518 4.905-6.184 8.53-8.21C88.778.96 92.936 0 97.522 0c3.625 0 6.824.64 9.703 1.706 2.879 1.173 5.438 2.88 7.464 5.118l-3.945 3.946c-3.625-3.306-7.891-5.118-13.01-5.118-3.411 0-6.504.746-9.17 2.239-2.665 1.493-4.798 3.519-6.397 6.184-1.6 2.666-2.346 5.545-2.346 8.851 0 3.199.746 6.185 2.346 8.744 1.599 2.559 3.625 4.692 6.397 6.185 2.666 1.492 5.759 2.239 9.17 2.239 4.053 0 7.465-.96 10.451-2.88V22.607zM152.971 30.39H125.46c.426 2.986 1.706 5.438 3.945 7.251 2.24 1.813 5.012 2.666 8.318 2.666 4.052 0 7.357-1.386 9.81-4.052l3.412 3.945c-1.493 1.813-3.412 3.2-5.758 4.052-2.239.96-4.799 1.387-7.678 1.387-3.625 0-6.717-.747-9.49-2.24-2.772-1.492-4.905-3.518-6.398-6.184-1.493-2.666-2.239-5.652-2.239-8.957 0-3.306.746-6.292 2.239-8.85 1.493-2.667 3.519-4.693 6.078-6.186 2.559-1.492 5.438-2.239 8.744-2.239 3.199 0 6.078.747 8.637 2.24 2.559 1.492 4.479 3.518 5.972 6.184 1.386 2.666 2.132 5.652 2.132 9.064-.106.533-.106 1.173-.213 1.92zm-23.992-11.41c-2.026 1.813-3.199 4.16-3.519 7.038h21.753c-.32-2.879-1.493-5.225-3.519-7.037-2.026-1.813-4.479-2.773-7.358-2.773-2.985 0-5.438.96-7.357 2.773zM176.217 43.293c-.853.746-2.026 1.386-3.305 1.706a12.89 12.89 0 01-4.052.64c-3.413 0-6.079-.96-7.891-2.773-1.92-1.813-2.773-4.478-2.773-7.89V3.945h6.185v7.464h9.704v5.011h-9.704v18.341c0 1.813.426 3.2 1.386 4.265.96.96 2.239 1.493 3.946 1.493 1.919 0 3.518-.533 4.798-1.6l1.706 4.373z"/></svg>