<svg xmlns="http://www.w3.org/2000/svg" viewBox="0 0 198.65 27.92"><style>.fill{fill:#1a3135}</style><path d="M17.27 20.38a20.85 20.85 0 0 1-6.51 1.12c-3.41 0-6-.86-7.92-2.69A10.08 10.08 0 0 1 0 11.38C0 5 4.58.88 11.27.88a13.53 13.53 0 0 1 5.37 1l-.82 3a10.89 10.89 0 0 0-4.6-.86c-4.3 0-7.34 2.55-7.34 7.25s2.83 7.31 7 7.31a7.32 7.32 0 0 0 2.79-.4v-5.13h-3.54v-2.9h7.14zM21 11.39c0-2 0-3.39-.12-4.7h3.2l.14 2.78h.1a4.34 4.34 0 0 1 4-3.1 3.27 3.27 0 0 1 .86.08v3.47a5.37 5.37 0 0 0-1.08-.1 3.25 3.25 0 0 0-3.31 2.79 6.43 6.43 0 0 0-.09 1.12v7.57H21zm18.62 9.91l-.25-1.63h-.09a5.35 5.35 0 0 1-4.3 2 4.33 4.33 0 0 1-4.61-4.34c0-3.69 3.28-5.56 8.66-5.53v-.25c0-1-.38-2.55-3-2.54a7.8 7.8 0 0 0-3.93 1.09l-.73-2.4a10.55 10.55 0 0 1 5.33-1.33c4.69 0 6 3 6 6.15v5.26a22 22 0 0 0 .3 3.52zm-.49-7.15c-2.6 0-5.1.51-5.1 2.74A2 2 0 0 0 36.14 19 3 3 0 0 0 39 17a2.79 2.79 0 0 0 .1-.8zm9.52-7.46l2.63 7.83c.29.91.61 2 .83 2.84h.08c.23-.82.5-1.92.78-2.87l2.28-7.8h3.94l-3.66 10c-2 5.45-3.36 7.87-5.08 9.39a7.59 7.59 0 0 1-3.87 1.87l-.83-3.11a6.77 6.77 0 0 0 2.13-1 6.37 6.37 0 0 0 2-2.33 1.46 1.46 0 0 0 .23-.65 1.84 1.84 0 0 0-.11-.76L44.58 6.69zM74.41 0v17.2c0 1.5 0 3.11.12 4.1h-3.29l-.16-2.3H71a5.21 5.21 0 0 1-4.74 2.64c-3.49 0-6.25-3-6.25-7.46 0-4.9 3-7.8 6.55-7.8a4.61 4.61 0 0 1 4.09 1.9h.06V0zm-3.69 12.78a5.18 5.18 0 0 0-.08-1 3.25 3.25 0 0 0-3.18-2.6c-2.38 0-3.7 2.1-3.7 4.81s1.33 4.64 3.66 4.64A3.27 3.27 0 0 0 70.61 16a4.51 4.51 0 0 0 .11-1zm20.73 4.14c0 1.74 0 3.19.12 4.38h-3.23l-.17-2.21h-.09a5.29 5.29 0 0 1-4.68 2.54c-2.66 0-5.08-1.6-5.08-6.37V6.69H82v8c0 2.43.77 4 2.73 4a3.09 3.09 0 0 0 2.82-2 3.32 3.32 0 0 0 .19-1.14V6.69h3.7zm14.72 3.94a10.48 10.48 0 0 1-4.12.75c-4.58 0-7.53-2.93-7.53-7.46s3-7.78 8.12-7.78a9.54 9.54 0 0 1 3.57.67l-.66 2.78a6.18 6.18 0 0 0-2.79-.57c-2.82 0-4.48 2.05-4.47 4.73a4.35 4.35 0 0 0 4.48 4.71 7.24 7.24 0 0 0 2.9-.57zm6.44-7.76h.06c.35-.57.77-1.19 1.15-1.71l3.57-4.7h4.43l-5.41 6 6.18 8.64h-4.54l-4.19-6.46-1.25 1.48v5h-3.69V0h3.69zm13.46-12.02V10h11.16V1.08h1.42V21.3h-1.42V11.18h-11.16V21.3h-1.42V1.08zM143.71 14c0 4.6 2.51 6.42 5.48 6.42a8.42 8.42 0 0 0 4-.81l.37 1.12a9.71 9.71 0 0 1-4.54.92c-4.14 0-6.72-3-6.72-7.23 0-4.8 2.76-7.81 6.47-7.81 4.72 0 5.61 4.43 5.61 6.51a5.45 5.45 0 0 1 0 .88zm9.18-1.14c0-2-.8-5.07-4.3-5.07-3.17 0-4.54 2.85-4.8 5.07zm13.01 8.44l-.21-2.06h-.07a5.44 5.44 0 0 1-4.62 2.39 3.93 3.93 0 0 1-4.24-4c0-3.32 2.93-5.33 8.78-5.27V12c0-1.42-.27-4.27-3.68-4.24a6.27 6.27 0 0 0-3.61 1.07l-.45-1a7.7 7.7 0 0 1 4.22-1.24c4.15 0 4.95 3.12 4.95 5.69v5.62a22.77 22.77 0 0 0 .21 3.42zm-.33-7.7c-3.13-.09-7.27.39-7.27 3.84a2.75 2.75 0 0 0 2.87 3 4.32 4.32 0 0 0 4.25-2.88 2.65 2.65 0 0 0 .15-.87zM171.66 0h1.43v21.3h-1.43zM180 2.73V6.9h4.11v1.15H180v9.36c0 1.83.57 3 2.12 3a5.2 5.2 0 0 0 1.63-.22l.18 1.1a5.29 5.29 0 0 1-2 .34 3.05 3.05 0 0 1-2.48-1 5.2 5.2 0 0 1-.88-3.43V8.05h-2.43V6.9h2.43V3.19zM187.29 0h1.43v9.47h.06a5.25 5.25 0 0 1 2-2.07 5.42 5.42 0 0 1 2.91-.83c1.36 0 5 .68 5 6v8.73h-1.43v-8.53c0-2.59-1-5-4-5a4.74 4.74 0 0 0-4.35 3.27 4 4 0 0 0-.19 1.41v8.85h-1.43z" class="fill"/></svg>