<svg xmlns="http://www.w3.org/2000/svg" viewBox="0 0 620.64 254.9"><defs><style>.cls-1,.cls-2,.cls-3{fill:#1a3135}</style></defs><g id="Layer_2" data-name="Layer 2"><g id="Layer_1-2" data-name="Layer 1"><path d="M63.72 2.85h8V27.3h36.92V2.85h8.06v49.9h-8.06V33.93H71.77v18.82h-8zM135.27 2.57h7.06l36.71 39V2.85h7.7v50.47h-7L143 14.76v38h-7.7zM233.35 2.14c8.27 0 13.47.64 20 2.42l-1.64 6a74.88 74.88 0 00-17.75-2.07c-13.68 0-22.67 5.35-22.67 20.6 0 13.05 7.27 18.11 20.25 18.11A98.74 98.74 0 00254 44.55l1.5 5.92c-5.2 1.42-13 3-25.73 3-16.47 0-26.88-6.7-26.88-24.3.02-19.76 12.28-27.03 30.46-27.03zM.32 215.55h24.1v5.29H7.05v10.26h15.07v5.19H7.05v12.39H.32zM63.28 215.07c10 0 16 4.06 16 17.05 0 11.22-5.29 17.1-16 17.1-9.78 0-16-4.22-16-17.1s6-17.05 16-17.05zm0 29.29c5.23 0 9.14-2.46 9.14-12.19S68.51 220 63.28 220c-5.08 0-9.09 2.35-9.09 12.18 0 9.66 4.01 12.18 9.09 12.18zM104.11 215.55h6.79v22.87c0 4.6 3.69 5.78 7.85 5.78s7.75-1.29 7.75-5.78v-22.87h6.79v22.77c0 8.17-6 10.9-14.59 10.9s-14.59-2.73-14.59-10.9zM159.32 215.45h6.36l15.82 22.44v-22.34h6.73v33.51h-6.3l-15.88-22.18v21.8h-6.73zM214.9 215.55c4.44-.32 8.23-.42 12.56-.42 11 0 17.1 4.32 17.1 17.1 0 12.93-6 17-16.4 17-4.22 0-8.77-.16-13.26-.43zm13.31 28.75c5.08 0 9.46-2.35 9.46-12.07 0-10.16-4.38-12.24-9.83-12.24-2.41 0-4.76.16-6.15.21v23.89c1.39.05 4.76.21 6.52.21zM278.56 215.29h8l11.92 33.39h-7.32l-2.46-7.32h-12.28l-2.51 7.32h-7.22zm8.87 21l-4.86-15.77-4.92 15.77zM335.1 221v27.68h-6.73V221h-10.69v-5.45h28.06V221zM369.52 215.55h6.74v33.13h-6.74zM417.84 215.07c10 0 16 4.06 16 17.05 0 11.22-5.29 17.1-16 17.1-9.78 0-16-4.22-16-17.1s6-17.05 16-17.05zm0 29.29c5.23 0 9.13-2.46 9.13-12.19s-3.9-12.17-9.13-12.17c-5.08 0-9.09 2.35-9.09 12.18 0 9.66 4.01 12.18 9.09 12.18zM459.37 215.45h6.35l15.82 22.44v-22.34h6.73v33.51H482l-15.9-22.18v21.8h-6.73z" class="cls-1"/><circle cx="324.06" cy="17.59" r="17.59" class="cls-2"/><path d="M310.33 73.25c0 7.61-2.79 63.86-25.89 119.21h20.79C321 131 321.11 82.84 321.11 73.25V46.07l-56.77-20.51-3.26 7.28 49.25 20.51zM337.79 73.25c0 7.61 2.79 63.86 25.89 119.21h-20.79C327.1 131 327 82.84 327 73.25V46.07l56.77-20.51 3.23 7.28-49.21 20.51z" class="cls-2"/><path d="M0 29.48h46.6v121.93h56v41.05H0zM258 192.46h-44.65l-29.21-81.13c-7-19.32-8.45-31.15-8.45-43.22h40.56l18.83 61.09a26.14 26.14 0 011.69 8.45h.23a52.49 52.49 0 011.7-8.45l18.6-61.09h38.39c0 12.07-1.45 23.9-8.45 43.22zM445.66 122.44c0-12.32-5.32-19.56-13.77-19.56-8.69 0-14.24 6.76-14.24 19.32v70.26h-44.91V68.11h30.66a64.32 64.32 0 016.52 9.9 47.46 47.46 0 0133.32-13.28c31.63 0 47.32 23.66 47.32 49v78.71h-44.9zM117.3 68.11h44.91v124.34H117.3zM590 68a53.85 53.85 0 00-4.69 6 49.88 49.88 0 00-6.46-4.22 43.17 43.17 0 00-20.86-5A50.75 50.75 0 00520 82a62.91 62.91 0 00-12 20.86c-2.95 8.18-4.44 17.78-4.44 28.52s1.48 20.16 4.41 27.93a56.9 56.9 0 0011.82 19.53 46 46 0 0017.12 11.4 55.18 55.18 0 0019.35 3.53 53.56 53.56 0 0010.83-1.1 52.07 52.07 0 009.71-3 62 62 0 006.06-3v11.51c0 8.06-2.63 13.83-8 17.65-5.86 4.15-14.55 6.25-25.8 6.25a109.27 109.27 0 01-17-1.28 95.84 95.84 0 01-15.37-3.71l-6.69-2.17v33l3.21 1.26a62.83 62.83 0 007.2 2.23c2.73.7 5.79 1.32 9.08 1.85s6.81.93 10.52 1.21 7.51.43 11.36.43a112.85 112.85 0 0019.69-1.66 80.57 80.57 0 0017.38-5.05 58.53 58.53 0 0014.44-8.7 46.9 46.9 0 0010.68-12.59 51 51 0 005.33-14 82.52 82.52 0 001.76-18.18V68zm-7.17 85.26c-.7.67-1.48 1.35-2.34 2a30.68 30.68 0 01-4.86 3.1 32 32 0 01-5.93 2.31 24.32 24.32 0 01-6.57.86 19.31 19.31 0 01-8.95-2 16.92 16.92 0 01-6.28-5.62 29.13 29.13 0 01-4.15-9.77 59.81 59.81 0 01-1.49-14 62 62 0 011.11-12.51 41.22 41.22 0 012.84-8.93 21.17 21.17 0 013.69-5.6 19 19 0 014.37-3.47 16.72 16.72 0 014.44-1.63 19.34 19.34 0 014.29-.52 24.82 24.82 0 0111.55 3 33 33 0 018.31 6.23z" class="cls-3"/></g></g></svg>