<svg xmlns="http://www.w3.org/2000/svg" xmlns:xlink="http://www.w3.org/1999/xlink" viewBox="0 0 96 361.18"><defs><style>.fill{fill:#05222E}</style><symbol id="Primary_Lockup" data-name="Primary Lockup" viewBox="0 0 96 361.18"><path d="M41.75 40.78a10.79 10.79 0 11-1-19.17 11.82 11.82 0 001 19.17m6.38-17a7.11 7.11 0 11-7.1 7.1 7.1 7.1 0 017.1-7.1m0-19a7.11 7.11 0 11-7.1 7.1 7.1 7.1 0 017.1-7.1M60 20.66a10.8 10.8 0 11-5.43 20.12 11.82 11.82 0 001-19.17 10.73 10.73 0 014.43-.95M48.18 55.82A16.83 16.83 0 0042.31 46a16.22 16.22 0 005.82-3A16.38 16.38 0 0054 46a16.85 16.85 0 00-5.82 9.81m-11.81-44a11.88 11.88 0 00.68 4h-.68a15.68 15.68 0 00-8.19 29.06 20.65 20.65 0 005 2 14.56 14.56 0 016.1 3.57 11.11 11.11 0 013.47 6.27 18.15 18.15 0 01.05 5.76 8.54 8.54 0 00.64 4.39 43.56 43.56 0 002.83 3.77 1.26 1.26 0 01-.21 1.37c-.5.56-1.29 1-1.29 1.6 0 .78 1 .78 1 1.57s-1 .8-1 1.59 1 .79 1 1.57-1 .8-1 1.59.57 1.47.57 2.26A2.11 2.11 0 0144 84.29l-.41.12a2.54 2.54 0 00-1.44.81 1.5 1.5 0 00-.2.23 2.62 2.62 0 00-.5 1.53v.49a2.74 2.74 0 00.71 2 2.22 2.22 0 001.06.6 3.19 3.19 0 011.23.8 2.71 2.71 0 01.68 1.88V131a1 1 0 001 1h4a1 1 0 001-1v-2.28h9.93a.65.65 0 00.66-.66v-4.91a.65.65 0 00-.66-.66h-4.64v-4.79h4.66a.65.65 0 00.66-.67v-4.89a.65.65 0 00-.66-.66h-9.94V92.72a2.71 2.71 0 01.68-1.88 3.11 3.11 0 011.23-.8 2.29 2.29 0 001.06-.6 2.74 2.74 0 00.71-2V87a2.62 2.62 0 00-.5-1.53 2.36 2.36 0 00-.2-.23 2.54 2.54 0 00-1.44-.81l-.41-.12a2.14 2.14 0 01-1.34-2.08c0-.79.58-1.47.58-2.26s-1-.79-1-1.59 1-.78 1-1.57-1-.79-1-1.59 1-.79 1-1.57c0-.6-.79-1-1.29-1.6a1.27 1.27 0 01-.13-1.46 41.31 41.31 0 002.84-3.77 8.54 8.54 0 00.64-4.39 18.15 18.15 0 010-5.76 11.05 11.05 0 013.47-6.27 14.56 14.56 0 016.1-3.57 20.65 20.65 0 005-2A15.68 15.68 0 0060 15.77h-.68A11.84 11.84 0 0048.16 0h-.06a11.81 11.81 0 00-11.78 11.81M0 309.77v5.91h19.28v23.65H0v5.91h44.21v-5.91H24.42v-23.65h19.79v-5.91H0zM6.17 283.09v-.25l21.33-7.71v15.68zM0 279.37v6.94l44.21 16.45v-5.91l-11.56-4.18v-19.41l11.56-4.18v-6.16zM5.14 250h18.51v-11.06c0-6.43-4.37-9.51-9.51-9.51s-9 3.08-9 9.51zM0 255.91V239.2c0-10.09 5.85-15.68 14.14-15.68s14.65 5.59 14.65 15.68V250h15.42v5.92zM5.14 209.14h18.51v-11c0-6.42-4.37-9.51-9.51-9.51s-9 3.09-9 9.51zM0 215.06v-16.71c0-10.09 5.85-15.68 14.14-15.68s14.65 5.59 14.65 15.68v10.79h15.42v5.92zM0 150.15l20.82 12.47v.26L0 174.83v6.68l26.86-15.68h17.35v-5.91h-17.8L0 143.98v6.17zM51.79 159.92v6.56L96 182.67v-5.91l-38.04-13.24v-.26L96 150.03v-6.17l-44.21 16.06zM68.5 188.58l21.33 7.71v.26l-21.33 7.71zm-16.71-6l11.56 4.18v19.4l-11.56 4.14v6.17L96 200v-6.94l-44.21-16.43zM51.79 221.62v27.51h5.14v-21.59H96v-5.92H51.79zM51.79 255.91v27.5h5.14v-21.59H96v-5.91H51.79zM51.79 289.3v30.33h5.14v-24.42h14.78v19.02h5.14v-19.02h14.01v23.9H96V289.3H51.79zM69.14 339.33H51.79v5.91h17.8L96 361.18v-6.17l-20.82-12.47v-.25L96 330.33v-6.68l-26.86 15.68z" class="fill"/></symbol></defs><g id="Layer_2" data-name="Layer 2"><use id="Layer_1-2" width="96" height="361.18" data-name="Layer 1" xlink:href="#Primary_Lockup"/></g></svg>
