<svg xmlns="http://www.w3.org/2000/svg" viewBox="0 0 1205.25 306.47"><defs><style>.cls-1{fill:#1a3135}</style></defs><g id="Layer_2" data-name="Layer 2"><g id="Layer_2-2" data-name="Layer 2"><rect width="39" height="201.5" y="5.5" class="cls-1" rx="5"/><rect width="39" height="141.5" x="1108.5" y="65.5" class="cls-1" rx="5"/><rect width="154.5" height="37" x="1050.75" y="5.5" class="cls-1" rx="5"/><rect width="119.5" height="37" x="720.75" y="83.5" class="cls-1" rx="5"/><rect width="141.5" height="37" x="720.75" y="5.5" class="cls-1" rx="5"/><rect width="141.5" height="37" x="720.75" y="170" class="cls-1" rx="5"/><path d="M252 5.5h-29a5 5 0 0 0-5 5v129.89L124.75 6.57a2.51 2.51 0 0 0-2-1.07H87a5 5 0 0 0-5 5V202a5 5 0 0 0 5 5h29a5 5 0 0 0 5-5V65.15l96.26 140.76a2.48 2.48 0 0 0 2.06 1.09H252a5 5 0 0 0 5-5V10.5a5 5 0 0 0-5-5zM929 60c0-7 5-22 31-22 19.5 0 35.06 13.5 41.62 20.25a5 5 0 0 0 7.1 0l19-19a5 5 0 0 0 .12-6.94C1019.63 23.57 995.84 2 960 2c-36 0-71 18-71 55 0 69 106 54 106 90 0 6-7 26-34 26-23.48 0-43.28-18.37-50.78-26.36a5 5 0 0 0-7-.3l-20.83 18.6a5 5 0 0 0-.57 6.85C890.2 182.12 916.64 210 959 210c46 0 77.5-29 77.5-66 0-61-107.5-55-107.5-84zm-242 75V10.5a5 5 0 0 0-5-5h-29a5 5 0 0 0-5 5v117.76c0 24.68-19.56 45.32-44.23 45.73A45 45 0 0 1 558 129V10.5a5 5 0 0 0-5-5h-29a5 5 0 0 0-5 5V135c0 41.42 37.61 75 84 75s84-33.58 84-75zm-222.66 43.48A106 106 0 1 0 290.54 150h46A67 67 0 1 1 439 148.25l-7.77-9.25h-48l25.48 30.38A66.68 66.68 0 0 1 387 173h-82.14a106.05 106.05 0 0 0 130 27.59L452 221h48zm34.3 106.87l-16.32-24.45h-5.12v44.8h4.93v-36.22l16.32 23.93h.25l16.32-24v36.29h5.06v-44.8h-5.12l-16.32 24.45zm85.89-24.77l-20.42 45.12h5.19l5.31-11.84H599l5.25 11.84h5.44l-20.42-45.12zm-7.94 28.67l10.24-22.78L597 289.25zm112.58-14.91v-.13a12.36 12.36 0 0 0-3.46-8.83c-2.82-2.81-7.23-4.48-12.74-4.48h-19.26v44.8h5.06v-17.41h12.8l13 17.41h6.21L677 287.4c7.05-1.28 12.17-5.64 12.17-13.06zm-30.4 9.41v-18.18h13.82c7.23 0 11.46 3.33 11.46 8.84v.12c0 5.76-4.8 9.22-11.52 9.22zm113.72-22.85h-6.52l-25.73 26.75V260.9h-5.06v44.8h5.06v-12.03l9.53-9.67 17.22 21.7h6.34l-20.04-25.21 19.2-19.59zm48.97 24.51h24.44v-4.6h-24.44v-15.3h27.32v-4.61H816.4v44.8h32.7v-4.61h-27.64v-15.68zm69.82-19.84h15.04v40.13h5.12v-40.13h15.04v-4.67h-35.2v4.67zm80.32-4.67h5.06v44.8h-5.06zm86.33 35.9l-28.22-35.9h-4.74v44.8h4.93v-36.73l28.93 36.73h4.03v-44.8h-4.93v35.9zm73.07-10.49h13.63v11.13a21.07 21.07 0 0 1-12.93 4.48c-10.87 0-17.72-7.93-17.72-18.62v-.13c0-10 7.1-18.36 17-18.36a19 19 0 0 1 13.63 5.12l3.27-3.84c-4.48-3.78-9.16-6-16.71-6-13.44 0-22.46 10.88-22.46 23.17v.13c0 12.8 8.7 23 22.78 23a27.18 27.18 0 0 0 18-6.85v-17.78H1131z" class="cls-1"/></g></g></svg>