<svg xmlns="http://www.w3.org/2000/svg" width="600" height="100" fill="none" viewBox="0 0 600 100"><path fill="#1A3135" d="M157.771 57.024c-.876-10.507-6.293-16.417-17.348-16.417a16.909 16.909 0 0 0-17.621 16.417h34.969zm16.417 3.886a47.745 47.745 0 0 1-.875 9.631h-50.237c1.86 8.428 8.974 13.572 22.382 13.572h5.144a47.783 47.783 0 0 0 15.761-4.323l1.149-.547a30.328 30.328 0 0 0 2.9-1.642h.438v14.173a48.65 48.65 0 0 1-25.228 6.731h-.985c-25.337 0-39.128-14.392-39.128-35.351 0-22.492 14.228-37.323 34.914-37.323s33.82 14.667 33.82 35.079h-.055zM0 97.137h17.183l3.23-60.197.71-16.417h.274L25.01 36.94l13.955 60.197H60.47L74.59 36.94l3.502-16.417h.274l.711 16.417 3.338 60.197h17.895L94.455.713H65.943l-12.86 57.844-2.791 14.666-3.229-14.666L34.258.713H5.746L0 97.137zm295.786 1.368c-16.089 0-25.118-7.387-25.118-24.188V41.483H251.35v35.133c0 5.144 1.97 7.223 6.129 7.223 1.128.126 2.265.126 3.393 0h.383v13.736a39.62 39.62 0 0 1-7.497.821c-9.522 0-15.378-3.666-17.895-11.602a26.105 26.105 0 0 1-22.93 11.712c-17.731 0-32.342-13.846-32.342-36.447 0-22.601 14.393-36.228 32.123-36.228a26.378 26.378 0 0 1 21.124 9.522V.713h17.293v26.65h19.318V10.947h17.293v16.418h18.716v14.01h-18.607v32.122a9.094 9.094 0 0 0 2.527 7.735 9.08 9.08 0 0 0 7.707 2.608c2.678.04 5.348-.29 7.935-.985h.438v14.283a48.93 48.93 0 0 1-10.945 1.368h.273zM216.6 83.84c11.711 0 18.278-9.084 18.278-21.89 0-12.805-6.567-21.89-18.278-21.89-11.711 0-18.059 9.085-18.059 21.89 0 12.806 6.129 21.89 18.059 21.89zm114.921-23.312c0-11.328 5.856-17.622 17.02-17.622a22.76 22.76 0 0 1 6.074.876V27.364a19.262 19.262 0 0 0-6.84-1.095 18.117 18.117 0 0 0-16.91 13.681V27.364h-16.418v69.773h17.348l-.274-36.61zm60.197 37.978a35.349 35.349 0 0 1-34.25-22.165 35.365 35.365 0 0 1-2.525-14.172 36.724 36.724 0 0 1 36.693-35.302 36.719 36.719 0 0 1 36.693 35.302 35.308 35.308 0 0 1-22.301 33.881 35.295 35.295 0 0 1-14.091 2.456h-.219zm.219-14.94c12.423 0 18.825-9.084 18.825-21.397 0-12.313-6.402-21.342-18.825-21.342-12.422 0-19.044 9.084-19.044 21.342 0 12.259 6.895 21.398 19.044 21.398zm63.207-25.446c0-10.945 5.473-17.731 15.487-17.731 10.015 0 14.557 6.567 14.557 17.73v39.02h17.293v-39.73c0-16.746-8.647-31.577-27.362-31.577a21.887 21.887 0 0 0-20.905 12.478V27.364h-16.418v69.773h17.348V58.12zm77.928-47.939a10.284 10.284 0 0 1-6.262 9.577A10.288 10.288 0 1 1 522.729.001a10.182 10.182 0 0 1 9.553 6.246c.521 1.245.79 2.582.79 3.933zm9.631 86.957a43.28 43.28 0 0 1-8.482.93c-13.298 0-20.412-6.95-20.412-19.81V27.364h17.457v49.744c0 4.597 2.244 6.84 7.005 6.84a24.465 24.465 0 0 0 4.049-.437h.383v13.626zm1.697-34.969a35.407 35.407 0 0 1 36.884-36.337A40.389 40.389 0 0 1 600 30.32v15.377h-.383a32.342 32.342 0 0 0-17.074-4.76 19.482 19.482 0 0 0-20.412 21.232 19.482 19.482 0 0 0 20.412 21.233 32.834 32.834 0 0 0 17.074-4.706H600v15.323a40.387 40.387 0 0 1-18.716 4.487A35.404 35.404 0 0 1 544.4 62.168"/></svg>