<svg xmlns="http://www.w3.org/2000/svg" viewBox="0 0 432 231.77"><defs><style>.cls-1{fill:#1a3135}</style></defs><g id="Layer_2" data-name="Layer 2"><g id="Primary_Logo" data-name="Primary Logo"><g id="One_Global_Village" data-name="One Global Village"><path d="M264.92 80.28a14.79 14.79 0 01-12.15-5.54q-4.47-5.55-4.47-15t4.5-15q4.5-5.45 12.41-5.45a14.92 14.92 0 0112 5.31q4.47 5.31 4.47 14.37 0 9.81-4.53 15.58a14.77 14.77 0 01-12.23 5.73zM265 43.4a10 10 0 00-8.6 4.27q-3.06 4.28-3.06 12t3.06 12.14a10.48 10.48 0 0017.05-.17q3.15-4.47 3.15-12.15t-3-11.91a9.93 9.93 0 00-8.6-4.18zM293.18 51.92v1.64a11.19 11.19 0 019.24-4.39 11.62 11.62 0 015.88 1.59 8.29 8.29 0 013.75 4 13.67 13.67 0 01.81 5.14v11c0 1.66 0 2.64.06 3 .19 1.31.71 2 1.56 2a8 8 0 001.35-.15 9 9 0 011.19-.14 1.78 1.78 0 011.29.52 1.67 1.67 0 01.55 1.27 1.79 1.79 0 01-.69 1.44 2.5 2.5 0 01-1.67.58 25.4 25.4 0 01-2.66-.23 28.68 28.68 0 00-3.46-.23 23.79 23.79 0 00-2.48.11c-1.93.23-2.94.35-3.06.35-1.54 0-2.31-.67-2.31-2 0-1.19.67-1.79 2-1.79a5.29 5.29 0 011.06.12 10.69 10.69 0 001.41.23q1.41 0 1.53-3.18V61.75a20.65 20.65 0 00-.28-4.21 5.56 5.56 0 00-2.25-3.4 7.29 7.29 0 00-4.31-1.33c-3.06 0-5.27 1.1-6.61 3.29q-1.38 2.25-1.38 7.67v7.68a11.4 11.4 0 00.35 3.46 1.26 1.26 0 001.27.92 5.28 5.28 0 001.27-.2 6 6 0 011.32-.2c1.2 0 1.79.64 1.79 1.93s-.77 1.88-2.3 1.88c-.31 0-1.31-.12-3-.35a21.8 21.8 0 00-2.82-.17 30.75 30.75 0 00-3.23.23c-1.7.19-2.66.29-2.89.29-1.62 0-2.42-.65-2.42-2a1.65 1.65 0 011.88-1.85 6.57 6.57 0 011.08.17 7.05 7.05 0 001.56.18c1.18 0 1.78-1.12 1.82-3.35V57a7 7 0 00-.5-2.68 1.36 1.36 0 00-1.32-.72 8 8 0 00-1.2.14 7.06 7.06 0 01-1.21.15c-1.41 0-2.11-.62-2.11-1.85s.86-1.91 2.59-1.91a2.35 2.35 0 01.58.06l2.14.23a8.46 8.46 0 001.65-.12l1.56-.15c1.06 0 1.62.59 1.62 1.77zM345.51 62a7.2 7.2 0 01-.29 2.69c-.19.32-.75.49-1.67.49H325.2a1.56 1.56 0 00-1 .2.81.81 0 00-.24.66 10.41 10.41 0 002.6 7.22 8.62 8.62 0 0011.11 1.5 6.37 6.37 0 002.74-3.52l.59-1.64a1.79 1.79 0 011.9-1.38 1.91 1.91 0 012.1 2.19q0 3.75-3.81 6.67a13.88 13.88 0 01-8.67 2.92 12.19 12.19 0 01-9.63-4.07q-3.58-4.07-3.58-10.93 0-7 3.81-11.43a12.54 12.54 0 019.88-4.4 12 12 0 019 3.64 12.71 12.71 0 013.51 9.19zm-20.95-1.5c0 .54.42.81 1.27.81h13.79c.81 0 1.21-.27 1.21-.81a7.16 7.16 0 00-2.3-5.31A7.53 7.53 0 00333.1 53a8.67 8.67 0 00-5.88 2.34 6.88 6.88 0 00-2.66 5.2zM265.51 91.1A15.1 15.1 0 01276 95.43a7.46 7.46 0 01-.23-.93c-.08-.77-.12-1.19-.12-1.27a1.68 1.68 0 011.91-1.9c1.38 0 2.08.83 2.08 2.48a8.59 8.59 0 01-.07 1.21l-.44 2.77a17.75 17.75 0 00-.19 2.6c0 .73.08 2.29.23 4.67v.52c0 1.73-.71 2.6-2.13 2.6s-2-.94-2-2.83v-1.73a8 8 0 00-2.62-6.29 11.37 11.37 0 00-15.8 2q-3.17 4.34-3.16 11.89 0 8 3.26 12.52a10.52 10.52 0 009 4.5 8.92 8.92 0 006.87-2.61c1.61-1.73 2.42-4.21 2.42-7.41a4.36 4.36 0 00-.66-2.76 3 3 0 00-2.34-.78c-.31 0-.75 0-1.33.06s-1 .06-1.33.06c-1.84 0-2.77-.66-2.77-2s.79-2 2.37-2a13.11 13.11 0 011.67.13 44.23 44.23 0 005.83.51 36.7 36.7 0 006-.52 9.25 9.25 0 011.56-.12c1.54 0 2.31.64 2.31 1.91a1.81 1.81 0 01-.61 1.38 2 2 0 01-1.41.58h-1.9c-1.7 0-2.54 1.87-2.54 5.62v4.58c0 1 0 1.9.11 2.7s.12 1.43.12 1.89c0 1.57-.7 2.35-2.08 2.35a1.78 1.78 0 01-2-2l.12-1.38c0-.35.07-1 .11-1.79a19 19 0 01-2.08 2.48q-3.34 3-9.29 3a14.79 14.79 0 01-12-5.54q-4.56-5.53-4.56-14.49 0-9.57 4.66-15.29a15.36 15.36 0 0112.54-5.7z" class="cls-1"/><path d="M296 106.77v17.92c0 2 .56 2.94 1.57 2.94a7.89 7.89 0 001.46-.29 6.73 6.73 0 01.93-.12 1.72 1.72 0 011.92 2c0 1.27-.78 1.9-2.36 1.9-.61 0-1.59-.08-2.93-.23a30.32 30.32 0 00-3.11-.23 25 25 0 00-2.75.23 25.25 25.25 0 01-2.71.23h-.29c-1.61 0-2.41-.69-2.41-2.08 0-1.19.66-1.79 2-1.79h.41a2.11 2.11 0 00.52.08 14.14 14.14 0 001.69.33 1.21 1.21 0 001.31-.9 24.45 24.45 0 00.32-4.66l.06-4.06V98.73a19.67 19.67 0 00-.17-2.32 1.61 1.61 0 00-1.62-1.33c-.11 0-.62.08-1.5.23a5.8 5.8 0 01-1 .12c-1.31 0-2-.62-2-1.85s.77-1.9 2.31-1.9a8.68 8.68 0 011.09 0l1.39.18a14.16 14.16 0 001.56.11 13.72 13.72 0 001.73-.17 11.91 11.91 0 011.73-.17c.88 0 1.33.55 1.33 1.67a4.55 4.55 0 01-.06.86q-.42 4.49-.42 12.61zM315.63 131.84a12.2 12.2 0 01-9.7-4.18q-3.63-4.18-3.63-11.23t3.7-11.22a12.42 12.42 0 019.8-4.21 12.59 12.59 0 019.92 4.1q3.64 4.09 3.64 11.14t-3.75 11.31a12.62 12.62 0 01-9.98 4.29zm.28-27a7.74 7.74 0 00-6.34 2.83q-2.31 2.84-2.54 8v.75q0 5.43 2.28 8.51a7.46 7.46 0 006.37 3.09 7.9 7.9 0 006.61-3.09q2.4-3.07 2.4-8.57 0-11.52-8.78-11.53zM338.41 94.09q-.51 4.77-.57 11.32a11.58 11.58 0 013.76-3.41 10.49 10.49 0 014.8-1 11.42 11.42 0 019.2 4c2.28 2.7 3.42 6.27 3.42 10.74q0 7.32-3.61 11.68a12 12 0 01-9.72 4.36q-6 0-8.6-4.44c.15 1.11.23 1.73.23 1.84a1.81 1.81 0 01-2 2.08c-1.35 0-2-1-2-2.88v-4l.29-4.45V98.72a7.84 7.84 0 00-.44-2.89 1.32 1.32 0 00-1.29-.75c-.12 0-.62.08-1.5.23a6.1 6.1 0 01-1.1.12c-1.31 0-2-.62-2-1.85s.77-1.9 2.3-1.9a9.5 9.5 0 011.16 0l1.38.18a14.22 14.22 0 001.5.11 13.65 13.65 0 001.79-.17 12 12 0 011.73-.17c.85 0 1.27.53 1.27 1.6zm-.17 16.69a25.65 25.65 0 00-.4 5.19q0 5.72.93 7.85 1.8 4.22 6.85 4.21a7.55 7.55 0 006.37-3.14q2.36-3.15 2.35-8.46c0-3.61-.74-6.45-2.24-8.51a7.15 7.15 0 00-6.13-3.09 7.89 7.89 0 00-4.94 1.71 7.29 7.29 0 00-2.79 4.24zM402.36 127.22a6.73 6.73 0 00-.93.12 7.89 7.89 0 01-1.46.29c-1 0-1.53-1-1.57-2.94v-17.92q0-8.11.4-12.56a4.55 4.55 0 00.06-.86c0-1.12-.44-1.67-1.33-1.67a12 12 0 00-1.73.17 13.72 13.72 0 01-1.73.17 14.32 14.32 0 01-1.56-.11l-1.38-.18a9 9 0 00-1.1 0c-1.54 0-2.31.63-2.31 1.9s.65 1.85 2 1.85a5.8 5.8 0 001-.12c.89-.15 1.39-.23 1.5-.23a1.61 1.61 0 011.62 1.33 19.67 19.67 0 01.17 2.32V118l-.06 4.06a24.45 24.45 0 01-.32 4.66c-.37 1.26-2.68 1.54-4 1.54s-3.06 0-3.73-.81c-.57-.58-.72-1.38-.72-3.54V111.1q0-10.08-10.5-10.08a13 13 0 00-7.77 2.31 6.73 6.73 0 00-3.2 5.54 3.52 3.52 0 001 2.54 3.36 3.36 0 002.51 1 3 3 0 002.11-.75 2.46 2.46 0 00.83-1.9 2.28 2.28 0 00-.8-2c-.35-.23-.52-.42-.52-.57 0-.43.28-.83.86-1.22a8.84 8.84 0 014.85-1.44 7 7 0 014.59 1.36 4.57 4.57 0 011.64 3.72c0 1.65-.49 2.79-1.47 3.4s-3.09 1.1-6.32 1.45q-3.4.41-4.53.66a10.56 10.56 0 00-2.68 1.13 7.48 7.48 0 00-4.1 7 7.59 7.59 0 002.8 6.17 11.38 11.38 0 007.47 2.31c4.2 0 7.27-1.44 9.24-4.33.73 2.73 2.61 4.11 6.07 4.11 2.24 0 5.67-1 8.63-1 2.2 0 3.89.46 6 .46 1.58 0 2.36-.63 2.36-1.9a1.72 1.72 0 00-1.89-1.85zm-24-1.3a8.46 8.46 0 01-6.09 2.11 6.67 6.67 0 01-4.3-1.27 4.18 4.18 0 01-1.59-3.46c0-2.81 2.19-4.42 6.56-4.85a26.49 26.49 0 005-.81 7.29 7.29 0 002.67-1.61v4.1a7.77 7.77 0 01-2.28 5.79zM262.61 152.8l8.14 24.54 7.73-24.12a15.46 15.46 0 00.87-3.92c0-1.47-.77-2.2-2.31-2.2a8.37 8.37 0 00-1.27.15 9.48 9.48 0 01-1.27.14c-1.5 0-2.25-.67-2.25-2s.73-2 2.19-2a29.3 29.3 0 013.67.35 28.71 28.71 0 003.72.34 31.31 31.31 0 005.14-.52 11.14 11.14 0 011.84-.17c1.43 0 2.14.67 2.14 2s-.71 2-2.14 2a.94.94 0 01-.23-.06l-1.33-.11H287a1.82 1.82 0 00-1.59.95 23.36 23.36 0 00-1.7 4.13l-9.47 27.75a3.64 3.64 0 01-3.63 2.83 3.71 3.71 0 01-3.75-2.82l-10.33-29a11.07 11.07 0 00-1.22-2.71 3.11 3.11 0 00-2.54-1h-2.19c-1.5 0-2.25-.65-2.25-2s.77-2 2.31-2a8.42 8.42 0 011.56.16 32.54 32.54 0 005.71.59 35.16 35.16 0 004.27-.37 35.71 35.71 0 014.21-.38c1.43 0 2.14.63 2.14 1.9s-.73 2.08-2.19 2.08h-2.08c-1.69 0-2.54.54-2.54 1.61a5.6 5.6 0 00.29 1.73zM301 165.4v7.5c0 1.92 0 3.06.05 3.4.2 1.73.72 2.6 1.56 2.6a8.9 8.9 0 001.45-.29 2.63 2.63 0 01.86-.11c1.46 0 2.19.63 2.19 1.9a1.74 1.74 0 01-.72 1.39 2.85 2.85 0 01-1.82.57 21.29 21.29 0 01-2.81-.26 23.36 23.36 0 00-2.81-.26 28.31 28.31 0 00-3.36.23 27.92 27.92 0 01-3 .29c-1.54 0-2.32-.65-2.32-2s.66-1.9 2-1.9a7.43 7.43 0 011.37.17 8.43 8.43 0 001.37.17c.93 0 1.49-1.23 1.69-3.69v-14.73c-.2-2.43-.78-3.64-1.75-3.64a6.32 6.32 0 00-1.31.2 5.6 5.6 0 01-1.25.2c-1.4 0-2.1-.61-2.1-1.84s.85-2 2.54-2h1.56a23.46 23.46 0 002.37.23 9.7 9.7 0 001.41-.14 9.82 9.82 0 011.41-.14q1.68 0 1.68 2.25c0 .15 0 .38-.05.69s0 .54 0 .69c0 .31-.07 1.5-.1 3.58-.11 1.67-.11 3.28-.11 4.94zm-3-15.12a3.26 3.26 0 01-3.24-3.23 3 3 0 011-2.25 3.13 3.13 0 012.28-.93 3.17 3.17 0 012.28.93 3 3 0 011 2.25 3.24 3.24 0 01-3.23 3.23zM320.4 158v18c0 2 .57 2.94 1.57 2.94a7.74 7.74 0 001.46-.29 8.54 8.54 0 01.93-.11 1.72 1.72 0 011.93 2c0 1.27-.79 1.9-2.36 1.9a27.14 27.14 0 01-2.93-.23 30.52 30.52 0 00-3.11-.23 25.35 25.35 0 00-2.76.23 22.87 22.87 0 01-2.7.23h-.29c-1.61 0-2.41-.69-2.41-2.07 0-1.2.66-1.79 2-1.79h.4a3 3 0 00.53.08 15.39 15.39 0 001.69.32 1.22 1.22 0 001.31-.9 25.38 25.38 0 00.32-4.66l.06-4.05V150a16.71 16.71 0 00-.18-2.31 1.62 1.62 0 00-1.61-1.34c-.12 0-.62.08-1.5.23a5.9 5.9 0 01-1 .12c-1.31 0-2-.62-2-1.85s.76-1.9 2.3-1.9a8.66 8.66 0 011.1.06l1.39.17a12 12 0 001.55.11 11.91 11.91 0 001.73-.17 13.67 13.67 0 011.74-.17c.88 0 1.32.56 1.32 1.67a5.88 5.88 0 01-.05.86q-.42 4.44-.43 12.52zM339.44 158v18c0 2 .56 2.94 1.57 2.94a7.89 7.89 0 001.46-.29 8 8 0 01.93-.11 1.71 1.71 0 011.92 2c0 1.27-.78 1.9-2.36 1.9a27.14 27.14 0 01-2.93-.23 30.32 30.32 0 00-3.11-.23 25 25 0 00-2.75.23 22.84 22.84 0 01-2.71.23h-.29c-1.61 0-2.41-.69-2.41-2.07 0-1.2.66-1.79 2-1.79h.41a2.75 2.75 0 00.52.08 15.39 15.39 0 001.69.32 1.21 1.21 0 001.31-.9 24.45 24.45 0 00.32-4.66l.06-4.05V150a19.24 19.24 0 00-.17-2.31 1.62 1.62 0 00-1.62-1.34c-.12 0-.62.08-1.5.23a5.8 5.8 0 01-1 .12c-1.31 0-2-.62-2-1.85s.77-1.9 2.31-1.9a8.49 8.49 0 011.09.06l1.39.17a9.82 9.82 0 003.29-.06 13.55 13.55 0 011.73-.17c.88 0 1.33.56 1.33 1.67a4.55 4.55 0 01-.06.86q-.42 4.44-.42 12.52zM389.26 152.3a14.54 14.54 0 013.41.46q.29-5.65 6.57-5.66a7.1 7.1 0 014.45 1.39 4.28 4.28 0 011.79 3.52 3.4 3.4 0 01-.9 2.37 2.78 2.78 0 01-2.1 1 2.29 2.29 0 01-1.62-.64 2 2 0 01-.69-1.5 2.61 2.61 0 011.27-1.9 2.92 2.92 0 00-2.37-1.16q-3.06 0-3.12 3.81a9.08 9.08 0 014.39 7.91 8.47 8.47 0 01-3 6.63 11 11 0 01-7.52 2.66 16.4 16.4 0 01-6.6-1.5 4.1 4.1 0 00-1.56-.41 1.91 1.91 0 00-1.45.72 2.53 2.53 0 00-.63 1.71q0 3 6.07 3h2.08a31.57 31.57 0 018.91 1 10.89 10.89 0 015 3.05 6.79 6.79 0 011.85 4.66 7.51 7.51 0 01-3.89 6.65q-3.9 2.43-10.53 2.44t-10.42-2.31a7.11 7.11 0 01-3.78-6.35q0-4.67 5.25-6.63-4.72-1.84-4.73-5.54c0-2.7 1.58-4.54 4.73-5.54a7.74 7.74 0 01-1.5-4.73 8.25 8.25 0 013-6.53 11.25 11.25 0 017.64-2.58zm.23 26.2a15.91 15.91 0 00-7.27 1.38c-1.77.92-2.65 2.18-2.65 3.75a4.13 4.13 0 002.59 3.73 15.23 15.23 0 007 1.35 16.16 16.16 0 007.31-1.38c1.78-.93 2.68-2.16 2.68-3.7a4.18 4.18 0 00-2.54-3.78 15.32 15.32 0 00-7.12-1.35zm-.06-22.39a6.49 6.49 0 00-4.32 1.5 5.25 5.25 0 00-2 3.75v.34a5.26 5.26 0 001.73 4.1 6.49 6.49 0 004.51 1.56 7 7 0 004.7-1.56 5 5 0 001.82-4 5.23 5.23 0 00-1.85-4.1 6.79 6.79 0 00-4.59-1.59zM432 165.17a7.14 7.14 0 01-.29 2.68c-.19.33-.75.49-1.67.49h-18.35a1.64 1.64 0 00-1 .2.84.84 0 00-.24.67 10.38 10.38 0 002.6 7.21 8.62 8.62 0 0011.11 1.5 6.33 6.33 0 002.74-3.52l.52-1.67a1.79 1.79 0 011.91-1.39 1.91 1.91 0 012.13 2.19q0 3.76-3.81 6.67a13.87 13.87 0 01-8.65 2.91 12.18 12.18 0 01-9.64-4.06q-3.58-4.08-3.58-10.94 0-7 3.81-11.43a12.53 12.53 0 019.92-4.38 11.94 11.94 0 019 3.63 12.75 12.75 0 013.49 9.24zm-20.95-1.5c0 .53.42.8 1.27.8h13.79c.81 0 1.22-.27 1.22-.8a7.17 7.17 0 00-2.31-5.31 7.53 7.53 0 00-5.43-2.25 8.73 8.73 0 00-5.88 2.33 6.88 6.88 0 00-2.66 5.23zM364.86 171.4v-4.1a7.38 7.38 0 01-2.67 1.62 27.35 27.35 0 01-5 .81q-6.56.63-6.55 4.84a4.16 4.16 0 001.58 3.46 6.67 6.67 0 004.3 1.27 8.5 8.5 0 006.09-2.1 7.81 7.81 0 002.25-5.8zm8.44 9.69a1.79 1.79 0 01-1.79 1.79h-.24c-3.16 0-5.1-1.36-5.83-4.1-2 2.89-5 4.33-9.24 4.33a11.38 11.38 0 01-7.47-2.31 8.14 8.14 0 011.3-13.21 10.94 10.94 0 012.68-1.13q1.13-.26 4.53-.66 4.85-.53 6.32-1.44A3.71 3.71 0 00365 161a4.59 4.59 0 00-1.64-3.72 7.05 7.05 0 00-4.59-1.35 8.84 8.84 0 00-4.85 1.44 1.57 1.57 0 00-.86 1.21c0 .15.17.35.52.58a2.23 2.23 0 01.8 2 2.42 2.42 0 01-.83 1.9 3 3 0 01-2.11.75 3.36 3.36 0 01-2.51-1 3.53 3.53 0 01-1-2.54 6.7 6.7 0 013.2-5.54 13 13 0 017.77-2.31q10.5 0 10.5 10.07V174a26.51 26.51 0 00.11 3.28c.23 1.34.89 2 2 2a1.79 1.79 0 011.79 1.79z" class="cls-1"/></g><g id="fibonacci"><path d="M118.43 110.08a3.24 3.24 0 00-5.25-2.83c-3.49 2.42.58 7.78 3.94 4.92a3 3 0 001.31-2.09zM114.55 125.25a3.27 3.27 0 00-5.3-2.85c-3.52 2.44.58 7.86 4 5a3 3 0 001.3-2.15zM131.46 113.6a3.31 3.31 0 00-5.35-2.88c-3.61 2.51.68 7.85 4 5a3.07 3.07 0 001.35-2.12zM107.23 110.53a3.32 3.32 0 00-5.38-2.89c-3.58 2.48.59 8 4 5a3.07 3.07 0 001.38-2.11zM120 128.76c-3.6 2.5.59 8 4.06 5.07 3.54-2.41-.48-7.96-4.06-5.07zM126.29 100.75a3.36 3.36 0 00-5.44-2.93c-3.62 2.52.59 8.07 4.09 5.1a3.07 3.07 0 001.35-2.17zM102.88 125.05a3.38 3.38 0 00-5.47-2.94c-3.64 2.52.6 8.11 4.11 5.12a3.08 3.08 0 001.36-2.18zM139.2 122.73a3.39 3.39 0 00-5.49-3c-3.66 2.54.6 8.15 4.12 5.15a3.1 3.1 0 001.37-2.15zM103.4 95.45c-3.67 2.54.6 8.18 4.14 5.17 3.63-2.47-.54-8.08-4.14-5.17zM115.25 139.12a3.42 3.42 0 00-5.54-3c-3.69 2.56.6 8.21 4.16 5.19a3.16 3.16 0 001.38-2.19zM139.31 103a3.44 3.44 0 00-5.56-3c-3.68 2.55.64 8.22 4.17 5.21a3.18 3.18 0 001.39-2.21zM95.09 113.93a3.48 3.48 0 00-3.94-3.73 3.38 3.38 0 000 6.73 3.68 3.68 0 003.94-3zM136.94 136.68a3.46 3.46 0 00-5.6-3c-3.73 2.6.63 8.29 4.21 5.25a3.15 3.15 0 001.39-2.25zM120.8 89.78a3.47 3.47 0 00-5.62-3c-3.73 2.6.62 8.33 4.22 5.27a3.15 3.15 0 001.4-2.27zM94.66 134c-3.81 2.64.71 8.28 4.23 5.28 3.69-2.5-.5-8.28-4.23-5.28zM148.19 112.7c-2.91-3.86-9.15 1.68-4.75 5 3.25 2.4 7.56-2.05 4.75-5zM96.69 97.84A3.5 3.5 0 0091 94.78c-3.77 2.62.62 8.41 4.26 5.32a3.22 3.22 0 001.43-2.26zM123.54 145c-2.69-3.56-8.38.85-5.5 4.25a3.16 3.16 0 001.5 1.18c3.3 1.34 6.51-2.76 4-5.43zM138 90.52a3.52 3.52 0 00-5.71-3.07c-3.8 2.63.62 8.46 4.28 5.35a3.27 3.27 0 001.43-2.28zM88 124.4a3.53 3.53 0 00-5.72-3.08c-3.8 2.64.63 8.48 4.3 5.36A3.29 3.29 0 0088 124.4zM149.41 133.41a3.55 3.55 0 00-5.74-3.09c-3.81 2.65.63 8.5 4.31 5.38a3.31 3.31 0 001.43-2.29zM103.49 81c-3.83 2.65.63 8.53 4.32 5.39 3.76-2.58-.51-8.48-4.32-5.39zM99.7 146.07c-3.84 2.66.63 8.55 4.33 5.4 3.77-2.57-.51-8.47-4.33-5.4zM153.34 102.65a3.57 3.57 0 00-5.78-3.12c-3.84 2.67.63 8.58 4.34 5.42a3.28 3.28 0 001.44-2.3zM85.11 104.67a3.58 3.58 0 00-5.8-3.12c-3.85 2.67.66 8.57 4.35 5.43a3.32 3.32 0 001.45-2.31zM135.64 146.56c-3.29-1.31-6.52 2.65-4.21 5.38a3.3 3.3 0 001.53 1.21c4.47 1.78 7.14-4.92 2.68-6.59zM129.62 79.5a3.6 3.6 0 00-5.83-3.13c-3.87 2.68.64 8.63 4.37 5.45a3.3 3.3 0 001.46-2.32zM87.13 138.47a3.61 3.61 0 00-5.84-3.14c-3.88 2.69.64 8.65 4.38 5.47a3.29 3.29 0 001.46-2.33zM153.85 120.26c-3.89 2.7.64 8.67 4.39 5.48 3.83-2.6-.49-8.62-4.39-5.48zM94.82 84.78A3.62 3.62 0 0089 81.63c-3.9 2.7.64 8.69 4.4 5.49a3.37 3.37 0 001.42-2.34zM116.08 155.74c-2.78-3.68-8.64.89-5.68 4.39a3.45 3.45 0 003.37 1.42c2.76-.39 4.36-3.65 2.31-5.81zM150.09 85.24c-1.89-2.49-6.07-1.09-6.45 1.88a3.7 3.7 0 002.36 3.74c3.37 1.37 6.69-2.86 4.09-5.62zM77.06 117.44a3.65 3.65 0 00-5.9-3.18c-3.93 2.72.64 8.75 4.43 5.53a3.4 3.4 0 001.47-2.35zM151.85 143.41c-3-4-9.56 1.75-5 5.19 3.43 2.54 7.93-2.1 5-5.19zM115.73 72.66a3.66 3.66 0 00-5.93-3.19c-4 2.78.75 8.7 4.45 5.55a3.41 3.41 0 001.48-2.36zM93.08 153.09a3.67 3.67 0 00-5.94-3.2c-3.94 2.74.65 8.8 4.46 5.56a3.35 3.35 0 001.48-2.36zM162.86 104.64c-3.83-1.54-7.15 3.6-3.56 6.29a3.46 3.46 0 00.82.45c4.54 1.81 7.33-5.02 2.74-6.74zM80.62 92.39a3.68 3.68 0 00-6-3.2 3.5 3.5 0 00.86 6.17 3.87 3.87 0 005.14-2.97zM127 159.15c-4 2.76.65 8.86 4.48 5.6 3.87-2.66-.54-8.75-4.48-5.6zM141.76 74.2a3.7 3.7 0 00-6-3.22c-4 2.76.65 8.87 4.49 5.61a3.42 3.42 0 001.51-2.39zM74.79 134.07a3.71 3.71 0 00-6-3.23c-4 2.77.66 8.89 4.5 5.62a3.43 3.43 0 001.5-2.39zM164.92 132.45c-1.92-2.54-6.18-1.13-6.58 1.92a3.77 3.77 0 001.53 3.36c3.45 2.58 8.03-2.14 5.05-5.28zM92.58 68.8c-3.53 2.45-.3 7.91 3.65 6.17 5.32-2.35.64-9.62-3.65-6.17zM103.23 161.4c-3.41-1.37-6.76 2.75-4.37 5.58a3.44 3.44 0 001.59 1.25c4.63 1.85 7.41-5.1 2.78-6.83zM163.21 88.1c-3.11-4.12-9.76 1.79-5.07 5.3 3.47 2.6 8.06-2.15 5.07-5.3zM69.6 106.35a3.74 3.74 0 00-6-3.26c-4 2.79.66 9 4.54 5.67a3.48 3.48 0 001.46-2.41zM150.75 159.43a3.74 3.74 0 00-6.06-3.26c-4 2.8.67 9 4.55 5.68a3.45 3.45 0 001.51-2.42zM126.51 64.36a3.75 3.75 0 00-6.07-3.27c-3.31 2.29-.73 7.12 2.75 6.5a4 4 0 003.32-3.23zM73.55 148.58c-4.11 2.85.77 8.92 4.56 5.69 4.06-2.76-.65-8.84-4.56-5.69zM168.29 115.36c-4.12 2.86.77 8.94 4.57 5.71 4.05-2.76-.66-8.86-4.57-5.71zM75 75.4c-4.06 2.81.67 9 4.58 5.71C83.53 78.4 79 72.14 75 75.4zM123.33 172.2a3.76 3.76 0 00-6.1-3.28 3.59 3.59 0 00.88 6.33 4 4 0 005.22-3.05zM154.76 70.85c-3.15-4.18-9.89 1.82-5.14 5.38 3.52 2.63 8.18-2.18 5.14-5.38zM64.31 125a3.79 3.79 0 00-6.13-3.3c-4.08 2.83.67 9.09 4.6 5.74a3.51 3.51 0 001.53-2.44zM161.31 145.83c-4.08 2.83.67 9.1 4.61 5.75 4.08-2.77-.64-8.94-4.61-5.75zM106.17 58c-3.12-4.13-10 1.82-5.17 5.41 3.48 2.59 8.24-2.22 5.17-5.41zM90.17 164.3c-3.74-2.8-8.81 2.85-4.53 6 3.9 2.97 8.71-2.87 4.53-6zM170 95.25c-4.17 2.89.78 9 4.63 5.78 4.06-2.75-.52-9.03-4.63-5.78zM66.15 92.48A3.81 3.81 0 0060 89.16c-4.11 2.85.67 9.15 4.63 5.78a3.48 3.48 0 001.52-2.46zM143.92 172.06a3.83 3.83 0 00-6.19-3.33c-4.11 2.86.68 9.17 4.64 5.8a3.54 3.54 0 001.55-2.47zM140.32 59.81a3.82 3.82 0 00-6.19-3.33c-4.16 2.88.77 9.11 4.65 5.8a3.51 3.51 0 001.54-2.47zM60.27 142.46c-4.13 2.86.68 9.2 4.66 5.81 4.07-2.79-.62-9.07-4.66-5.81zM179.09 129.34c-2-2.63-6.4-1.17-6.81 2a3.89 3.89 0 001.59 3.48c3.57 2.65 8.3-2.23 5.22-5.48zM80.06 61.55c-4.14 2.87.68 9.23 4.67 5.83 4.08-2.77-.54-9.15-4.67-5.83zM104 175.49a3.6 3.6 0 00-1.55 2.5 3.84 3.84 0 006.23 3.34c4.03-2.77-.58-9.18-4.68-5.84zM163.83 74.46c-3.7 2.57-.24 8.18 3.78 6.41 5.67-2.51.5-9.87-3.78-6.41zM50.46 108.78c-4.16 2.89.68 9.27 4.69 5.86 4.1-2.79-.54-9.2-4.69-5.86zM161.91 159.88c-3.54-1.41-7 2.86-4.54 5.8A3.6 3.6 0 00159 167c4.84 1.9 7.72-5.32 2.91-7.12zM118.61 49.21c-3.18-4.22-10.16 1.85-5.27 5.5 3.66 2.71 8.37-2.23 5.27-5.5zM70.48 162.32c-4.18 2.9.68 9.31 4.71 5.88 4.11-2.8-.54-9.2-4.71-5.88zM184.36 106.89c-3.94-3-8.9 3-4.63 6.17 3.73 2.79 9.07-2.85 4.63-6.17zM67.16 77.12a3.89 3.89 0 00-6.3-3.38c-4.18 2.9.69 9.33 4.73 5.89a3.59 3.59 0 001.57-2.51zM131.83 179.89c-2-2.67-6.49-1.19-6.9 2a3.93 3.93 0 001.61 3.53c3.62 2.72 8.46-2.24 5.29-5.53zM156 59.58a3.9 3.9 0 00-6.31-3.39c-4.2 2.91.69 9.35 4.74 5.91a3.61 3.61 0 001.57-2.52zM54.9 135.34a3.91 3.91 0 00-6.32-3.4c-4.2 2.92.69 9.37 4.75 5.92a3.59 3.59 0 001.57-2.52zM181.55 147.86a3.9 3.9 0 00-6.32-3.41c-4.21 2.92.69 9.38 4.75 5.93a3.6 3.6 0 001.57-2.52zM96 52.36A3.91 3.91 0 0089.67 49a3.53 3.53 0 00-.77 5.25c2 2.9 6.69 1.35 7.1-1.89zM93.59 178.62c-2.06-2.72-6.55-1.1-7 2a4 4 0 003.46 4.28c3.31.41 6.1-3.57 3.54-6.28zM182.56 83.68c-2-2.7-6.54-1.19-7 2a4 4 0 001.62 3.56c3.69 2.76 8.53-2.24 5.38-5.56zM52.87 96.54a3.93 3.93 0 00-6.36-3.42c-4.23 2.94.69 9.43 4.77 6a3.66 3.66 0 001.59-2.58zM156.68 178.06a3.93 3.93 0 00-6.36-3.43c-4.24 2.94.69 9.44 4.78 6a3.63 3.63 0 001.58-2.57zM135.07 46.91a4 4 0 00-6.38-3.44c-4.24 3 .7 9.46 4.79 6a3.68 3.68 0 001.59-2.56zM60.92 156.07c-2-2.7-6.57-1.2-7 2a4 4 0 001.63 3.58c3.68 2.78 8.54-2.24 5.37-5.58zM190.82 122a4.09 4.09 0 00-6.34 2.69 4 4 0 001.64 3.58c4.05 3.02 9.04-3.04 4.7-6.27zM66.41 58.12c-4.25 3 .73 9.47 4.81 6 4.28-2.91-.71-9.3-4.81-6zM111.71 187a3.69 3.69 0 00-1.6 2.56 4 4 0 006.41 3.44c4.2-2.85-.52-9.44-4.81-6zM171.16 61.06c-3.3-4.38-10.38 1.9-5.39 5.64 3.69 2.76 8.57-2.29 5.39-5.64zM46.06 121.1a4 4 0 00-6.42-3.46c-4.28 3 .7 9.53 4.82 6a3.64 3.64 0 001.6-2.54zM177.49 161.52c-2.06-2.72-6.62-1.21-7.05 2a4 4 0 001.64 3.61c3.7 2.81 8.6-2.24 5.41-5.61zM109.71 42.26a4 4 0 00-6.44-3.47c-4.34 3 .82 9.44 4.83 6a3.65 3.65 0 001.61-2.53zM76.67 176.75c-2.09-2.75-6.67-1.18-7.07 2.05a4 4 0 004.54 4.32c3.02-.43 4.77-4 2.53-6.37zM188.42 96c-4.29 3 .71 9.57 4.85 6 4.23-2.79-.56-9.41-4.85-6zM53.42 79.31A4 4 0 0047 75.83c-4.33 3 .78 9.52 4.86 6.06a3.73 3.73 0 001.56-2.58zM143.64 187.51c-2.07-2.74-6.66-1.22-7.09 2.06a4 4 0 001.65 3.63c3.72 2.8 8.65-2.31 5.44-5.69zM151.54 43.06c-3.3-4.37-10.49 1.92-5.45 5.69 3.72 2.79 8.66-2.31 5.45-5.69zM48.5 147.8a4 4 0 00-6.5-3.49c-4.31 3 .71 9.61 4.87 6.07a3.71 3.71 0 001.63-2.58zM194.85 143a4 4 0 00-6.5-3.5c-4.32 3 .71 9.63 4.88 6.09a3.73 3.73 0 001.62-2.59zM82.06 44.14c-2.06-2.76-6.7-1.14-7.12 2.07a4.05 4.05 0 001.66 3.64c3.73 2.8 8.68-2.31 5.46-5.71zM99.8 191.23c-3.34-4.43-10.53 1.93-5.47 5.72 3.74 2.8 8.67-2.32 5.47-5.72zM186.6 70.09c-2.08-2.76-6.7-1.21-7.13 2.08a4.06 4.06 0 001.66 3.65c3.74 2.8 8.7-2.32 5.47-5.73zM40.93 103.92a4 4 0 00-6.52-3.52c-4.34 3 .71 9.68 4.9 6.12a3.73 3.73 0 001.62-2.6zM170.66 180.7a4 4 0 00-6.53-3.51c-4.35 3 .71 9.68 4.9 6.12a3.74 3.74 0 001.63-2.61zM125.65 32.65a3.91 3.91 0 00-5.54-.53c-3.5 2.42-.88 7.68 3 7 3.27-.48 4.07-4.85 2.54-6.47zM59.73 170.11c-2-2.72-6.74-1.28-7.17 2.08a4.09 4.09 0 001.67 3.67c3.77 2.81 8.77-2.33 5.5-5.75zM202 113c-3.38-4.48-10.62 1.93-5.51 5.76 3.76 2.79 8.74-2.36 5.51-5.76zM58.73 61.68a4.06 4.06 0 00-6.56-3.53c-4.36 3 .72 9.73 4.92 6.15a3.76 3.76 0 001.64-2.62zM127.8 196.93c-2.06-2.73-6.76-1.28-7.2 2.09a4.11 4.11 0 001.68 3.68c3.77 2.82 8.77-2.34 5.52-5.77zM164.19 46.31c-4.37 3 .72 9.75 4.94 6.16 4.3-2.92-.58-9.66-4.94-6.16zM37.74 132.6a4.07 4.07 0 00-6.58-3.55c-4.38 3 .72 9.76 4.94 6.17a3.78 3.78 0 001.64-2.62zM191.54 158.61c-3.4-4.49-10.67 2-5.54 5.79 3.78 2.83 8.8-2.34 5.54-5.79zM90.93 31.43c-4.39 3 .72 9.77 4.95 6.18 4.33-2.94-.57-9.71-4.95-6.18zM76.28 189.24c-5.29 2.28-1.57 9.4 3.07 7.36 5.36-2.38 1.53-9.38-3.07-7.36zM194.46 83c-3.92 2.71-.25 8.66 4 6.78 6.03-2.66.54-10.41-4-6.78zM36.65 80.38c-3.79-.45-6.66 4.48-3 7.25a4 4 0 004.93-.16c3.08-2.07 1.7-6.66-1.93-7.09zM157.24 192.28c-2.13-2.83-6.82-1.2-7.25 2.11a4.14 4.14 0 001.69 3.71c3.77 2.83 8.87-2.33 5.56-5.82zM144.83 30.3a4 4 0 00-5.61-.54c-3.55 2.47-.9 7.8 3 7.1 3.36-.48 4.16-4.86 2.61-6.56zM45.07 161.79a4.1 4.1 0 00-6.63-3.58c-4.42 3.07.72 9.84 5 6.22a3.74 3.74 0 001.63-2.64zM205.94 132c-3.42-4.54-10.76 2-5.58 5.83 3.74 2.81 8.91-2.33 5.58-5.83zM68.86 45a4.11 4.11 0 00-6.65-3.58c-4.43 3.07.75 9.83 5 6.23A3.81 3.81 0 0068.86 45zM106.38 201a4.36 4.36 0 00-4.66 3.56 4.11 4.11 0 005.69 4.17 4 4 0 00-1.03-7.73zM186.78 54.87a4.26 4.26 0 00-6.61 2.8 4.18 4.18 0 001.7 3.74c4.23 3.16 9.43-3.16 4.91-6.54zM24 110.54c-3.89 2.69-.42 8.81 4 6.85 6-2.64.74-10.66-4-6.85zM178.62 176.53c-3.88 2.69-.42 8.82 4 6.85 6.02-2.64.74-10.67-4-6.85zM114.53 23.23a4 4 0 00-5.66-.55c-3.58 2.49-.9 7.86 3 7.16 3.42-.48 4.23-4.95 2.66-6.61zM61.78 184.53c-2.16-2.87-6.9-1.17-7.33 2.13a4.12 4.12 0 006.69 3.59 3.73 3.73 0 00.64-5.72zM210.34 100.85c-3.41-4.52-10.87 2-5.63 5.89 3.85 2.88 8.95-2.39 5.63-5.89zM44.54 65.06a4.14 4.14 0 00-6.7-3.61c-3.9 2.7-.42 8.86 4.07 6.88a4.31 4.31 0 002.63-3.27zM140.71 204c-3.46-4.59-10.87 2-5.64 5.9 3.86 2.88 8.93-2.39 5.64-5.9zM165.1 32.85C163 30 158.19 31.6 157.75 35a4.18 4.18 0 001.71 3.77c3.86 2.88 8.97-2.4 5.64-5.92zM31.93 146.12a4.15 4.15 0 00-6.72-3.62c-3.91 2.72-.42 8.89 4.08 6.91a4.35 4.35 0 002.64-3.29zM206.12 155.59a4.18 4.18 0 00-5.78-4.21 4 4 0 00-.91 7.05 4.33 4.33 0 006.69-2.84zM83.55 30.38a4.16 4.16 0 00-6.74-3.63c-4.48 3.11.77 10 5.06 6.31a3.84 3.84 0 001.68-2.68zM89.36 206.28a4.16 4.16 0 00-6.74-3.63 3.86 3.86 0 00-1.68 2.7 4.17 4.17 0 005.77 4.23 4.4 4.4 0 002.65-3.3zM203.39 69c-3.48-4.6-10.93 2-5.67 5.94 3.87 2.89 9.01-2.42 5.67-5.94zM28.16 93.38a4.17 4.17 0 00-6.76-3.63c-3.93 2.72-.42 8.92 4.1 6.93a4.36 4.36 0 002.66-3.3zM172.11 194.12c-2.16-2.86-7-1.27-7.41 2.16a4.21 4.21 0 001.73 3.79c3.85 2.93 9.03-2.41 5.68-5.95zM135.2 18.87a4 4 0 00-5.73-.56c-3.62 2.52-.91 8 3.08 7.25 3.45-.49 4.24-5.02 2.65-6.69zM44.67 176.76a4.19 4.19 0 00-6.78-3.64c-4.47 3.1.78 10 5.09 6.35a3.88 3.88 0 001.69-2.71zM212.72 119.74a4.11 4.11 0 103.1 7.24c3.61-2.46.99-7.98-3.1-7.24zM53.93 45.88a4.2 4.2 0 00-6.79-3.66c-4.55 3.17.82 10 5.1 6.37a3.88 3.88 0 001.69-2.71zM121.86 214.9a3.77 3.77 0 00-1-3.1c-2.13-2.82-7-1.32-7.44 2.16a3.75 3.75 0 00.87 2.92c2.1 3.12 7.13 1.49 7.57-1.98zM179.44 40c-4 2.75-.42 9 4.13 7 6.08-2.69.69-10.86-4.13-7zM22.43 126.77a4.2 4.2 0 00-6.8-3.66c-4 2.74-.43 9 4.13 7a4.41 4.41 0 002.67-3.34zM199 173.28c-2.19-2.91-7-1.21-7.46 2.17a4.19 4.19 0 006.81 3.65 3.79 3.79 0 00.65-5.82zM101.18 16a4.07 4.07 0 00-5.77-.56c-3.65 2.54-.92 8 3.1 7.31 3.49-.46 4.27-5.02 2.67-6.75zM61.19 198.25c-4 2.76-.43 9 4.14 7 6.11-2.69.67-10.89-4.14-7zM214.62 85.5a4.42 4.42 0 00-5.83 3.4 4.31 4.31 0 002.69 4.34c5.21 2.09 8.42-5.76 3.14-7.74zM30.78 71.54a4.23 4.23 0 00-6.84-3.69c-4.59 3.19.82 10.08 5.13 6.41a3.92 3.92 0 001.71-2.72zM156.46 211.62a4.23 4.23 0 00-6.85-3.68c-4 2.76-.42 9 4.15 7a4.42 4.42 0 002.7-3.32zM157.4 19.56a4.09 4.09 0 00-5.8-.56c-3.67 2.54-.93 8.06 3.11 7.34 3.46-.5 4.29-5.08 2.69-6.78zM27.07 157.35c-4.11-3.07-9.84 3.15-5.05 6.73 4.12 3.08 9.84-3.14 5.05-6.73zM217.66 143.45c-2.22-2.93-7.07-1.25-7.52 2.19a4.3 4.3 0 001.75 3.85c3.95 2.95 9.17-2.49 5.77-6.04zM68.28 28.62a4.25 4.25 0 00-6.87-3.7c-4 2.77-.43 9.08 4.17 7a4.42 4.42 0 002.7-3.3zM97.85 214.11c-4.14-3.1-9.84 3.18-5.06 6.75 4.11 3.08 9.88-3.14 5.06-6.75zM204.84 56.57a4.25 4.25 0 00-6.88-3.7c-4 2.78-.43 9.09 4.17 7.07a4.46 4.46 0 002.71-3.37zM17.53 104.66a4.26 4.26 0 00-6.89-3.66c-4 2.78-.43 9.11 4.18 7.08a4.5 4.5 0 002.71-3.42zM188.77 196.1a4.26 4.26 0 00-6.89-3.71c-4 2.78-.43 9.11 4.18 7.08a4.43 4.43 0 002.71-3.37zM123 9.15a4.12 4.12 0 00-5.84-.56c-3.7 2.56-.94 8.11 3.13 7.39 3.49-.5 4.32-5.12 2.71-6.83zM41.39 187.89c-5.42 2.34-1.82 9.91 3.21 7.7 5.57-2.47 1.67-9.84-3.21-7.7zM224.33 107.25c-3.9-2.91-9 2.25-6 5.87a4 4 0 001.83 1.44c4.48 1.78 8.37-4.16 4.17-7.31zM31.9 46.17c-4 2.79-.43 9.14 4.19 7.1 6.22-2.75.63-10.98-4.19-7.1zM134.84 219c-2.21-2.93-7.13-1.29-7.58 2.21a4.33 4.33 0 001.77 3.88c3.97 3.01 9.24-2.43 5.81-6.09zM179.12 25c-4.27-3.19-9.88 3.23-5.11 6.8 4.4 3.28 9.81-3.29 5.11-6.8zM16.52 141.42a4.28 4.28 0 00-6.93-3.73c-4 2.8-.44 9.16 4.2 7.12a4.46 4.46 0 002.73-3.39zM214.48 169.59a4.29 4.29 0 00-6.94-3.73 3.87 3.87 0 00-.84 5.75c2.19 3.24 7.3 1.53 7.78-2.02zM84.36 10.12c-3.75-1.5-7.86 3.09-5 6.43a4.1 4.1 0 004 1.68c3.88-.56 4.91-6.64 1-8.11zM76.23 215.63a4.3 4.3 0 00-7-3.75c-4 2.81-.43 9.19 4.22 7.14a4.48 4.48 0 002.78-3.39zM219.56 71c-2.23-3-7.17-1.3-7.63 2.22a4.38 4.38 0 001.78 3.9c4 3.03 9.29-2.44 5.85-6.12zM17.92 81a4.3 4.3 0 00-7-3.75c-4 2.81-.43 9.2 4.23 7.15a4.51 4.51 0 002.77-3.4zM170.67 209.5c-4.3-3.21-9.9 3.28-5.13 6.85 4.18 3.12 10.01-3.19 5.13-6.85zM146.85 7.44a4.16 4.16 0 00-5.9-.57c-3.74 2.6-.95 8.21 3.17 7.47 3.52-.5 4.37-5.17 2.73-6.9zM28.62 177.29a4.32 4.32 0 00-7-3.76 4 4 0 000 6.71c2.82 2.07 6.64-.09 7-2.95zM229.88 134.87a3.92 3.92 0 00-1.07-3.19c-2.24-3-7.2-1.3-7.66 2.23a3.84 3.84 0 00.9 3c2.2 3.25 7.38 1.53 7.83-2.04zM45.24 26.06c-4.65 3.22.8 10.34 5.25 6.55 4.68-3.18-.77-10.16-5.25-6.55zM110.64 224.06c-4.21-3.16-10 3.22-5.15 6.87 4.18 3.12 10.06-3.2 5.15-6.87zM201.15 37.37c-2.24-3-7.21-1.31-7.67 2.23a4.35 4.35 0 001.79 3.92c4.02 3.02 9.36-2.52 5.88-6.15zM8.78 118.34a4.33 4.33 0 00-7-3.77c-4.08 2.83-.44 9.27 4.25 7.2a4.53 4.53 0 002.75-3.43zM204.62 191.94a3.9 3.9 0 00-1.08-3.2c-2.26-3-7.23-1.28-7.69 2.23a3.88 3.88 0 00.91 3c2.24 3.26 7.4 1.58 7.86-2.03zM108.56 1.54a4.2 4.2 0 00-5.94-.54c-3.76 2.61-1 8.26 3.19 7.52 3.55-.52 4.4-5.24 2.75-6.98z" class="cls-1"/></g></g></g></svg>