<svg xmlns="http://www.w3.org/2000/svg" viewBox="0 0 240.05 150.61"><defs><style>.cls-1{fill:#1a3135}.cls-1,.cls-2,.cls-3{fill-rule:evenodd}.cls-2,.cls-3,.cls-4{fill:#1a3135}</style></defs><g id="Layer_2" data-name="Layer 2"><g id="Layer_1-2" data-name="Layer 1"><g id="Qwally_Logo_-_Pantone" data-name="Qwally Logo - Pantone"><path d="M151.25 77V51.61H128a2.58 2.58 0 0 0-2.58 2.58v20.64a2.58 2.58 0 0 0 2.58 2.58h21.09a5.24 5.24 0 0 0 2.16-.41z" class="cls-1"/><path d="M177.05 51.61V25.8h-23.22a2.58 2.58 0 0 0-2.58 2.58V77a5.39 5.39 0 0 0 1.51-1z" class="cls-2"/><path d="M177.05 2.58A2.59 2.59 0 0 1 179.63 0h20.64a2.58 2.58 0 0 1 2.58 2.58v21.09a5.17 5.17 0 0 1-1.51 3.65l-24.29 24.29z" class="cls-3"/><path id="y" d="M236.18 93.84a3.86 3.86 0 0 0-3.57 2.4l-11.25 27.22-11-27.18a3.89 3.89 0 1 0-7.21 2.93l14 34-4.78 12.28a3.75 3.75 0 0 0 6.95 2.8l20.43-49.09a3.87 3.87 0 0 0-3.57-5.36z" class="cls-4"/><path id="l" d="M173.75 77.49a3.91 3.91 0 0 0-3.9 3.9v48.23a3.9 3.9 0 0 0 7.8 0V81.39a3.91 3.91 0 0 0-3.9-3.9z" class="cls-4"/><path id="l-2" d="M192.25 77.49a3.9 3.9 0 0 0-3.89 3.9v48.23a3.9 3.9 0 1 0 7.79 0V81.39a3.9 3.9 0 0 0-3.9-3.9z" class="cls-4" data-name="l"/><path id="a" d="M152.39 95.63a17.07 17.07 0 0 0-8.89-2.16 33.24 33.24 0 0 0-13.06 2.72 3.36 3.36 0 0 0-2.24 3.3 3.3 3.3 0 0 0 3.26 3.34c1.21 0 2.33-.76 5.9-1.5a25.37 25.37 0 0 1 4.95-.44c3.36 0 5.71.71 7.16 2s2.28 3.48 2.28 6.67v.08h-9.14c-10 0-16.94 4.52-16.94 12.56 0 6.71 5.23 11.66 12.63 11.66 8.84 0 13.39-5 13.39-5v.68a3.93 3.93 0 1 0 7.86 0v-21a15.74 15.74 0 0 0-1.76-7.36 13.25 13.25 0 0 0-5.4-5.55zm-.7 26.11s-4.27 5.17-10.86 5.17c-4.66 0-7.37-1.59-7.37-5.43 0-4.57 5.75-5.35 10.72-5.35h7.51z" class="cls-4"/><path id="W" d="M117.82 93.83a3.85 3.85 0 0 0-3.69 2.73L106 123.21l-8.09-26.33a4.33 4.33 0 0 0-8.27 0l-8.12 26.33-8.1-26.65a3.85 3.85 0 1 0-7.33 2.36L76.69 130a5.18 5.18 0 0 0 9.85-.14l7.23-23.45 7.23 23.46a5.18 5.18 0 0 0 9.85.14l10.6-31.09a3.85 3.85 0 0 0-3.63-5.09z" class="cls-4"/><path id="Q" d="M31 73.33h-1.67A29.33 29.33 0 0 0 0 102.66v1.9a29.33 29.33 0 0 0 29.33 29.33H31a29.12 29.12 0 0 0 17-5.43l3.66 3.64a3.28 3.28 0 0 0 2.34 1.05 3.36 3.36 0 0 0 2.37-5.71L53 124a29.24 29.24 0 0 0 7.39-19.45v-1.9A29.33 29.33 0 0 0 31 73.33zm22.57 30.78a23.15 23.15 0 0 1-5.52 15l-7.79-7.76a3.37 3.37 0 0 0-5.71 2.38 3.29 3.29 0 0 0 1 2.37l7.47 7.43a23.17 23.17 0 0 1-12.74 3.8h-.4a23.25 23.25 0 0 1-23.2-23.22v-1a23.25 23.25 0 0 1 23.25-23.25h.4a23.25 23.25 0 0 1 23.25 23.25z" class="cls-4"/></g></g></g></svg>