<svg xmlns="http://www.w3.org/2000/svg" viewBox="0 0 162 85.54"><defs><style>.cls-1{fill:#05222E}</style></defs><g id="Layer_2" data-name="Layer 2"><g id="Logo"><path d="M80.47 0h4.42v4.53h-4.42zM80.47 9.27h4.1v26.27h-4.1zM111.1 8.42c-3.52-.05-4.64.64-5 3a9.6 9.6 0 012.5 6.35c0 5.11-4.21 8.74-10.07 8.74a9.66 9.66 0 01-1.81-.16 16.17 16.17 0 00-1.72-.29 2.83 2.83 0 00-2.77 2.51 2 2 0 001.33 1.91c.91.43 2 .54 6.82.7 5.44.16 7.2.42 8.85 1.54a6 6 0 012.88 5.22c0 5-4.48 7.52-13.22 7.52-7.83 0-12-2.4-12-6.93 0-2.56 1.23-4.16 4-5.22-1.89-1.39-2.55-2.45-2.55-4.31 0-2.13 1-3.35 3.62-4.63-2.45-2.13-3.41-4.11-3.41-7 0-5.12 4.27-9 10-9A11.59 11.59 0 01104 9.7a5.58 5.58 0 011.66-3.41c.9-.91 2-1.17 4.42-1.17a9.41 9.41 0 011.07 0zM90.84 38.1a3 3 0 001 2.24c1.44 1.23 4.32 2 7.41 2a21.52 21.52 0 006.24-1c1.81-.59 2.77-1.76 2.77-3.26a2.58 2.58 0 00-1.81-2.5c-1.28-.59-1.76-.64-6.35-.75-2.66-.05-5.11-.21-6.34-.37-2.22 1.09-2.92 1.99-2.92 3.64zm1.92-20.51a5.48 5.48 0 005.86 5.75 5.54 5.54 0 005.87-5.65 5.73 5.73 0 00-5.81-6 5.64 5.64 0 00-5.92 5.9zM131 35.55V19.61c0-2.72-.11-3.68-.53-4.74a4.9 4.9 0 00-4.59-2.93 7.06 7.06 0 00-5.11 2.5c-1.55 1.76-2.19 3.84-2.19 6.93v14.18h-4.1V0h4.1v14.12c2.13-4 4.42-5.59 8-5.59a8 8 0 016.88 3.47c1.34 1.92 1.6 3.25 1.6 7.62v15.93zM153.05 36a22.81 22.81 0 01-3.89.32c-5 0-7.52-2.72-7.52-8V12.47H137v-3.2h4.63l.16-6.61 3.84-.32v6.93h5.91v3.2h-5.91v16.47c0 2.72 1.44 4.1 4.26 4.1a15 15 0 003.15-.32zM65.26 20.8a10.11 10.11 0 008.23-10.19 10.9 10.9 0 00-3.89-8.37A11.92 11.92 0 0062 0H46.47v35.55h4.42V3.73H62.3c3.94 0 6.66 2.83 6.66 6.88s-2.77 6.82-7 6.82h-2.65v3.67l14.45 14.45h2.6V31.9zM17.53 75.62V44H7.35v-3.92h24.79V44H22v31.62zM31.17 75.62V49.35h3.58v6.13a19.55 19.55 0 012.71-4.58 6.92 6.92 0 015.17-2.3c.32 0 .91.06 1.49.11v3.89c-4.95-.43-8.74 3.52-8.84 9.11v13.91zM46.47 40.08h4.42v4.53h-4.42zM46.63 49.35h4.1v26.27h-4.1zM72.9 75.62a30.5 30.5 0 01-.48-4.74c-2.13 3.89-4.74 5.44-9.22 5.44-5.43 0-9.17-3.26-9.17-7.95a8.14 8.14 0 014.43-7.19c2.4-1.28 6-1.92 10.55-1.92 1 0 1.76 0 3.41.11v-.85c0-5-1.86-6.77-6.87-6.77-3.95 0-6.35 1.65-7 4.79l-3.78-.64a6.77 6.77 0 012-4.1c2.08-2.13 5.38-3.2 9.75-3.2 4 0 6.61 1 8.16 3.09 1.28 1.76 1.75 3.84 1.75 7.68v11.14a19.07 19.07 0 00.57 5.11zM69 62.35c-6.82 0-10.55 2.13-10.55 6.13 0 2.83 2.18 4.69 5.59 4.69 4.8 0 8.47-3.94 8.47-9v-1.7c-1.51-.06-2.91-.12-3.51-.12zM97.36 75.62V58.73c0-4.26-1.92-6.56-5.44-6.56-4.26 0-7.35 3.84-7.35 9v14.45h-4.1V49.35h3.78v4.85c2.72-4.16 4.8-5.54 8.42-5.54a8.3 8.3 0 017.57 4.58c.69 1.33 1 3.3 1 7.19v15.19zM127.42 48.5c-3.52-.06-4.64.64-5 3a9.57 9.57 0 012.5 6.34c0 5.12-4.21 8.74-10.07 8.74a8.89 8.89 0 01-1.85-.18 15.13 15.13 0 00-1.71-.26 2.82 2.82 0 00-2.77 2.5 2 2 0 001.33 1.92c.91.43 2 .53 6.82.69 5.44.16 7.2.43 8.85 1.55a6 6 0 012.91 5.2c0 5-4.48 7.52-13.22 7.52-7.83 0-12-2.4-12-6.93 0-2.56 1.23-4.16 4-5.23-1.92-1.38-2.56-2.45-2.56-4.26 0-2.13 1-3.36 3.62-4.64-2.45-2.13-3.41-4.1-3.41-7 0-5.11 4.27-9 10-9a11.47 11.47 0 015.38 1.23 5.63 5.63 0 011.66-3.42c.9-.9 2-1.17 4.42-1.17a7.86 7.86 0 011.07.06zm-20.26 29.68a3 3 0 001 2.24c1.44 1.22 4.32 2 7.41 2a21.18 21.18 0 006.24-1c1.81-.58 2.77-1.76 2.77-3.25a2.58 2.58 0 00-1.81-2.5c-1.28-.59-1.76-.64-6.35-.75-2.66-.05-5.11-.21-6.34-.37-2.22 1.07-2.92 1.98-2.92 3.63zm1.92-20.52a5.49 5.49 0 005.92 5.76 5.55 5.55 0 005.86-5.65 5.73 5.73 0 00-5.81-6 5.64 5.64 0 00-5.97 5.89zM131 75.62V40.08h4.1v35.54zM161.52 68.59a11.27 11.27 0 01-11.14 7.73c-7.19 0-12-5.49-12-13.7s5-14 12.2-14a10.63 10.63 0 019.91 6.07 18.16 18.16 0 011.55 8.1h-19.17c0 3.09.26 4.48 1.06 6.13a7.56 7.56 0 006.72 4 7.2 7.2 0 005.49-2.4 9.29 9.29 0 001.6-2.77zm-4-8.8a8.18 8.18 0 00-1.52-5.22 6.25 6.25 0 00-5.43-2.77 7.06 7.06 0 00-5.57 2.72 8.88 8.88 0 00-1.87 5.27zM0 0v35.17h42.21V0zm3.52 31.65l8.07-28.13h4.68L8.21 31.65zm13.55 0h-4.69l8.07-28.13h4.69zm9.55-18.75l2.69-9.38h9.38z" class="cls-1"/></g></g></svg>
