<svg xmlns="http://www.w3.org/2000/svg" viewBox="0 0 148 44.03"><defs><style>.cls-1{fill:none}.cls-2{fill:#1a3135}.cls-3{clip-path:url(#clip-path)}.cls-4{opacity:.32}</style><clipPath id="clip-path"><path d="M4.78.68h23.89v42.67h-7.19A42.13 42.13 0 0 0 9.15 23.17a37 37 0 0 0-8.47-5.94z" class="cls-1"/></clipPath></defs><g id="Layer_2" data-name="Layer 2"><g id="Design"><path d="M43 19.51l-2.87-5.2H37.8v5.2h-3.12V4.88h6.85a4.57 4.57 0 014.93 4.72 4.23 4.23 0 01-3.22 4.34l3.31 5.57zm.31-9.94a2 2 0 00-2.17-1.95H37.8v4h3.29a2 2 0 002.17-2.05zM47.85 12.21a7.35 7.35 0 017.65-7.57 7.35 7.35 0 017.64 7.57 7.34 7.34 0 01-7.64 7.56 7.34 7.34 0 01-7.65-7.56zm12.08 0c0-2.75-1.73-4.81-4.43-4.81s-4.45 2.06-4.45 4.81S52.78 17 55.5 17s4.43-2.07 4.43-4.79zM65.09 13.65V4.88h3.16v8.69a3.44 3.44 0 106.87 0V4.88h3.18v8.77c0 3.62-2.15 6.12-6.61 6.12s-6.6-2.5-6.6-6.12zM91 19.51l-7-9.54v9.54h-3V4.88h3.21l6.77 9.19V4.88h3.12v14.63zM96.78 19.51V4.88h5.77c4.59 0 7.77 2.92 7.77 7.3s-3.18 7.33-7.75 7.33zm10.36-7.33a4.27 4.27 0 00-4.57-4.56H99.9v9.15h2.65a4.39 4.39 0 004.59-4.59zM112.61 19.51V4.88h3.11v14.63zM128.79 19.51l-7-9.54v9.54h-3.09V4.88h3.2l6.78 9.19V4.88h3.11v14.63zM134 12.21c0-4.63 3.51-7.57 7.81-7.57a6.8 6.8 0 016 3.27l-2.56 1.4a4.21 4.21 0 00-3.47-1.91 4.56 4.56 0 00-4.6 4.81 4.56 4.56 0 004.6 4.8 4.89 4.89 0 003.1-1.12v-1.75H141v-2.72h7V17a8.09 8.09 0 01-6.21 2.74c-4.3.03-7.79-2.93-7.79-7.53zM34.68 31.93v-8.77h3.16v8.68a3.18 3.18 0 003.45 3.45 3.16 3.16 0 003.42-3.45v-8.68h3.18v8.77c0 3.62-2.15 6.12-6.6 6.12s-6.61-2.5-6.61-6.12zM50.54 37.79V23.16h6.85a4.56 4.56 0 014.91 4.71 4.58 4.58 0 01-4.91 4.7h-3.73v5.22zm8.58-9.92a2 2 0 00-2.17-2h-3.29v3.93H57a2 2 0 002.12-1.93zM68.25 31.93v-8.77h3.16v8.68a3.43 3.43 0 106.86 0v-8.68h3.18v8.77c0 3.62-2.14 6.12-6.6 6.12s-6.6-2.5-6.6-6.12zM94.2 37.79l-7-9.54v9.54h-3.09V23.16h3.2l6.78 9.19v-9.19h3.12v14.63zM99.94 37.79V23.16h5.77c4.59 0 7.77 2.91 7.77 7.3s-3.18 7.33-7.75 7.33zm10.36-7.33a4.27 4.27 0 00-4.57-4.56h-2.67v9.15h2.65a4.39 4.39 0 004.59-4.59zM115.77 37.79V23.16h3.11v14.63zM122 37.79V23.16h10.36v2.74h-7.24V29h7.08v2.74h-7.08v3.34h7.24v2.74zM133.85 35.73l1.71-2.44a6.4 6.4 0 004.65 2c1.73 0 2.54-.77 2.54-1.63 0-2.54-8.42-.76-8.42-6.27 0-2.43 2.11-4.45 5.55-4.45a8.1 8.1 0 015.7 2l-1.73 2.32a6.3 6.3 0 00-4.25-1.6c-1.32 0-2.07.57-2.07 1.45 0 2.3 8.41.74 8.41 6.21 0 2.67-1.93 4.69-5.86 4.69a8.45 8.45 0 01-6.23-2.28z" class="cls-2"/><g class="cls-3"><g class="cls-4"><path d="M24.36 10.86l.2-.13.14-.12.1-.06a.2.2 0 00.07-.09.16.16 0 01.07-.07H25a2.56 2.56 0 01.26-.34l.29-.33.06-.05v-.05l.1-.1.1-.1.19-.16.1-.1a.78.78 0 01.16-.16l.13-.09a1.52 1.52 0 00.28-.19 1.74 1.74 0 01.22-.18l.25-.18a1.82 1.82 0 00.25-.2 1.92 1.92 0 00.23-.2c.08-.08.08-.16 0-.24h-.11l-.2.07a2.18 2.18 0 00-.23.09l-.21.12a3.34 3.34 0 00-.41.14l-.36.14a6.89 6.89 0 00-.73.46 5.32 5.32 0 00-.56.46l-.52.51c-.14.15-.3.31-.46.5a3.88 3.88 0 01-.26.31 1.46 1.46 0 01-.27.24.35.35 0 01-.13 0 .1.1 0 00-.08.07l.64.11a.83.83 0 00.63-.08zM22.71 22.69H23.02a.16.16 0 00.07 0h.06a1.13 1.13 0 01.26 0h.94a.77.77 0 00.19.05h.72c.07 0 .11 0 .11-.1h-.05a.52.52 0 00-.11-.07l-.13-.07-.08.23-.22-.14-.21-.11a4 4 0 00-.49-.16 2 2 0 00-.43-.07l-.43-.05h-.41a1 1 0 01-.24 0 .78.78 0 01-.22 0h-.07a.06.06 0 00-.07 0 2.77 2.77 0 01.2.34.51.51 0 00.3.15zM9.78 21.18a.07.07 0 010 .05H10l.14-.06h.06l.1-.07h.06l.04-.1a.29.29 0 01.08-.08.13.13 0 01.06-.05s0-.13.05-.13 0 0 .07-.07a.53.53 0 00.11-.09l.13-.07a.4.4 0 00.12-.07l.14-.11.13-.11a1.85 1.85 0 00.34-.23 2.16 2.16 0 01.33-.27 1.65 1.65 0 01.31-.2 1.41 1.41 0 00.29-.18L13 19l.34-.25v-.18a.21.21 0 01.1-.16.29.29 0 010-.24c0-.07 0-.13-.08-.17s0-.09 0-.18 0-.13-.09-.12v-.06h-.05a.21.21 0 000-.21l-.11.12-.15.14a.22.22 0 01-.09.07.2.2 0 01-.13 0h-.15l-.19-.16a1.41 1.41 0 00-.36-.11 2.14 2.14 0 01-.38-.12l-.18-.07a.49.49 0 00-.17-.06 7 7 0 00-1-.2 5.51 5.51 0 01-.91-.23h-.3a1 1 0 01-.28-.05.32.32 0 01-.19-.07l-.18-.07c-.05 0-.11 0-.16.07a.15.15 0 00-.09.1.17.17 0 01-.08.11.15.15 0 01-.05.1h.06a.11.11 0 000 .08s0 .05-.05.07l.22.18a1 1 0 00.24.15h.12a.53.53 0 00.16 0l.24.12.24.12a.33.33 0 01.14 0l.16.05h.08a.12.12 0 01.07.05h.05a.17.17 0 01.2.18h.09l.09.06a.58.58 0 01.32.16.25.25 0 01.09 0l.1.06a.75.75 0 00.26 0 .52.52 0 01.29.09c0 .06-.05.11-.13.15a2.37 2.37 0 01-.23.3 3.07 3.07 0 00-.25.26L10 20l-.55.72a2.53 2.53 0 01-.76.63.79.79 0 00.38 0 1.8 1.8 0 00.4-.1.1.1 0 01.14 0h.08a.21.21 0 00.09-.07zM14.9 9.33a1 1 0 01-.12.27 1.12 1.12 0 00-.08.17.33.33 0 00.08.18s.06.07.07.07h1.5a.65.65 0 01.19 0 .75.75 0 01.21 0h.23a4 4 0 00-.64.66l-.53.69a4.51 4.51 0 01-.53.69l-.11.19-.12.19-.15.16a.29.29 0 00-.1.16.34.34 0 00.33.08 1.51 1.51 0 00.4-.18l.21-.12.19-.12.3-.22.3-.2a.06.06 0 01.08 0c.11-.12.25-.25.41-.4s.3-.29.43-.44l.09-.11a.2.2 0 00.08-.1h.05l.07-.05a1.57 1.57 0 01.15-.19 1.4 1.4 0 00.14-.22.75.75 0 00.1-.2q0-.11.12-.09a.15.15 0 01.14 0 .38.38 0 00.15 0 .21.21 0 00-.12-.19.71.71 0 01-.18-.15.38.38 0 010-.15s0-.07-.08-.1a.16.16 0 00-.07.07.06.06 0 01-.06.05.15.15 0 01-.17 0 .84.84 0 00-.2 0 3 3 0 00-.56-.12l-.56-.06h-.36l-.37-.08h-.18a.41.41 0 01-.19-.06h-.25a.29.29 0 01-.21-.12c.02-.07-.06-.04-.08.04z" class="cls-2"/><path d="M17.68 8.62H17.97l.25.1.25.1H18.86a.1.1 0 01.07 0h.11a.14.14 0 01.13 0h.09l.1.06a.53.53 0 01.33.13.19.19 0 01.1 0 .23.23 0 00.1 0 .57.57 0 00.26 0 .47.47 0 01.3.06.21.21 0 01-.12.17 2.11 2.11 0 01-.21.31c-.08.09-.15.19-.22.28l-.56.81c-.15.25-.32.51-.49.77a2.43 2.43 0 01-.7.69.81.81 0 00.38 0 2.23 2.23 0 00.39-.13s.07-.06.14 0a.1.1 0 01.08 0h.1c.04 0 0 0 0 0v.05h.13a.56.56 0 00.13-.07h.06l.09-.08h.06v-.08a.29.29 0 01.08-.08v-.06-.14l.07-.07.1-.1.12-.08a.49.49 0 00.12-.08l.13-.12a.69.69 0 00.11-.13 1.14 1.14 0 00.32-.26c.1-.1.2-.2.31-.29a1.63 1.63 0 01.29-.23 2 2 0 00.28-.2l.33-.3c.1-.1.21-.19.32-.28a1.11 1.11 0 000-.19.26.26 0 01.09-.16.26.26 0 010-.24c0-.07 0-.13-.1-.16s0-.09 0-.18-.06-.12-.1-.11 0-.07 0-.06 0 0-.05 0a.24.24 0 00-.06-.21l-.1.13-.14.16a.17.17 0 01-.09.07.13.13 0 01-.12 0h-.15a1.53 1.53 0 00-.21-.14 1.16 1.16 0 00-.36-.09 1.88 1.88 0 01-.4-.08l-.18-.06a.53.53 0 00-.18 0 8.45 8.45 0 00-1-.12 5.63 5.63 0 01-.93-.14h.09a1 1 0 01-.29 0 .45.45 0 01-.2-.06.61.61 0 01-.18 0c-.05 0-.11 0-.16.09a.13.13 0 00-.07.1.25.25 0 01-.07.12.15.15 0 010 .1l-.05.07a.21.21 0 000 .08.07.07 0 010 .08l.22.16a1.26 1.26 0 00.18.09zM7.71 18l-.19-.14-.18-.12L7 17.5l-.31-.22a4.86 4.86 0 00-.69-.37 3.89 3.89 0 00-.66-.22l-.69-.17c-.2-.05-.42-.09-.66-.13l-.38-.05a1.2 1.2 0 01-.35-.1.27.27 0 01-.1-.08.11.11 0 00-.11 0 4.39 4.39 0 01.24.58.86.86 0 00.42.48.81.81 0 00.21.09h.16l.11.06h.11a.13.13 0 01.09 0h.06a3.05 3.05 0 01.41.05l.42.06a.13.13 0 01.08 0H5.93a.81.81 0 01.21.05.61.61 0 01.14.07 2.58 2.58 0 00.31.13l.27.09.27.11a2.52 2.52 0 00.29.1 1.1 1.1 0 00.29.09c.11 0 .17 0 .19-.14s0 0-.06-.09zM22.22 18.4a6.12 6.12 0 00.76.26 2.7 2.7 0 00.48.16 2.24 2.24 0 00.46.07.47.47 0 00.35-.17.52.52 0 00-.18-.18l-.2-.11-.18-.15a1.35 1.35 0 01-.19-.16c-.13-.09-.25-.19-.37-.29s-.24-.2-.37-.29L22 17a4.71 4.71 0 00-.85-.49 1.09 1.09 0 01.23-.09l.22-.06.19-.06.19-.06h.23a.26.26 0 00.1 0H22.67l.1-.05h.09a.77.77 0 00.2-.07l.17-.12c.08 0 .14 0 .16-.07s0 0 0-.07h.05c0-.12.06-.19 0-.23l-.14-.16a1.44 1.44 0 01-.18-.25.21.21 0 00-.26-.06.37.37 0 01-.16.21l-.27.1-.37.17-.37.18-.35.19-.58.22a3.4 3.4 0 00-.54.27.82.82 0 00-.2.12c-.07.06-.12.08-.17.07a.24.24 0 01-.09-.06.24.24 0 00-.11-.06q-.07.09 0 .15a.24.24 0 010 .17.34.34 0 01-.13.19.19.19 0 000 .25l.13-.05c.06 0 .1-.05.14 0A.29.29 0 0120 17a.71.71 0 00.15.15 2.49 2.49 0 00.47.33.17.17 0 00.06.06h.06l.13.07.12.07c.19.11 1 .54 1.14.62s.08.08.09.1z" class="cls-2"/><path d="M19.28 19.28a.11.11 0 01.08 0 .16.16 0 00.09 0 1.23 1.23 0 00.43 0 .84.84 0 00.37-.1 3.08 3.08 0 01-.92-.53c-.26-.22-.51-.45-.76-.68a3.9 3.9 0 00-.38-.33l-.42-.32a1.94 1.94 0 00-.33-.23 2.49 2.49 0 01-.31-.23.32.32 0 00-.08-.09.16.16 0 01-.06-.08.47.47 0 01.28-.16.66.66 0 00.27-.12l.08-.07.08-.06.17-.13.16-.12.09-.06.09-.07h.13s0-.05.07-.08l.09-.07.16-.1.12-.08.25-.16.24-.16a1.75 1.75 0 00.27-.16 3 3 0 00.42-.45s-.05 0-.06-.07a.28.28 0 000-.09l-.08-.06-.11-.07-.07-.12a.4.4 0 00-.12-.1c-.08-.05-.15-.06-.2 0a.33.33 0 01-.15.1l-.1.05h-.1l-.29.11-.29.12a7.09 7.09 0 01-1 .42c-.33.12-.66.24-1 .38l-.17.1a.67.67 0 01-.17.13l-.4.19a1.53 1.53 0 00-.35.21 1.46 1.46 0 00-.16.19c-.05.07-.1.11-.15.11a.17.17 0 01-.14 0h-.11l-.1-.24-.15-.12c0 .06-.05.1 0 .13l.06.11a.07.07 0 01-.06 0v.07c0 .07.05 0 .07.05s-.08.07-.07.15a.48.48 0 000 .18.14.14 0 000 .2.23.23 0 01.05.24.23.23 0 01.14.17.37.37 0 00.08.19 3.79 3.79 0 01.42.18l.43.22.39.23.39.14.4.21.41.19a.51.51 0 01.16.09l.16.09.16.05a.48.48 0 01.15.07l.14.05h.1v.06a.47.47 0 00.05.1h.11l.09.09.09.1h.11l.22.08a.65.65 0 00.24 0h.06a.06.06 0 000-.06v-.05a.11.11 0 00.12 0 .13.13 0 01.12.07zM27.59 24.21v-.66V22.6v-.38c0-.13-.06 0-.06 0a.08.08 0 010 .07.81.81 0 000-.19v-.15a.67.67 0 010-.2h-.05c.01 0 0 0 0 0v-.11a.21.21 0 010-.12v-.15-.13a.31.31 0 01-.09-.19 1.87 1.87 0 010-.25v-.26a1.29 1.29 0 000-.23 12.76 12.76 0 00-.3-1.32c-.12-.43-.25-.85-.38-1.28a.29.29 0 01-.06-.1 1.18 1.18 0 01-.07-.2 1.6 1.6 0 00-.05-.21.43.43 0 00-.05-.16.26.26 0 010-.12.15.15 0 000-.11.16.16 0 00-.07-.14.1.1 0 010-.14v-.35a1.52 1.52 0 00-.06-.32.21.21 0 00-.06-.1.23.23 0 01-.29-.06.74.74 0 010-.14.24.24 0 00-.05-.14v-.13a.29.29 0 00-.09-.13.61.61 0 00-.09-.31c-.05-.1-.1-.2-.15-.28a1 1 0 01-.14-.3 3.43 3.43 0 00-.12-.33l-.33-.65a3.3 3.3 0 00-.42-.61.34.34 0 00-.07.18.62.62 0 000 .19.76.76 0 00.06.2 1.89 1.89 0 00.06.18v-.07a8.351 8.351 0 00.38 1.45L25 15a2.14 2.14 0 01.1.22 2.49 2.49 0 01.18.63 2.86 2.86 0 00.13.61.43.43 0 000 .11.17.17 0 000 .1h.09a.1.1 0 000 .14h-.07a.53.53 0 010-.16 1.27 1.27 0 010-.2.46.46 0 010-.14.78.78 0 01-.09-.27c0-.09-.05-.19-.08-.29a2.09 2.09 0 00-.14-.3c0-.1-.08-.2-.11-.3a.23.23 0 000 .25 1.15 1.15 0 01.11.29.37.37 0 000 .21.59.59 0 00.06.19s.07.09.06.19a1.63 1.63 0 000 .24l.11.32a1 1 0 01.06.36.34.34 0 01.12.26 2.36 2.36 0 000 .3 1 1 0 00.1.33.51.51 0 01.06.33.41.41 0 000 .22.06.06 0 000 .07.5.5 0 010 .12.44.44 0 010-.09.71.71 0 010 .14.3.3 0 000 .21.75.75 0 010 .2.51.51 0 010 .21.66.66 0 000 .2v-.13a.22.22 0 000 .22.36.36 0 010 .25.12.12 0 010 .05 1 1 0 00.06.44 1.14 1.14 0 01.07.43.12.12 0 01.06.05.67.67 0 01.06.12v.13a.08.08 0 010 .07.2.2 0 010 .17.22.22 0 00.07.22.19.19 0 000 .1.25.25 0 00.05.07.19.19 0 000 .07.15.15 0 000 .07v.1c0 .1.06 0 .08.08a.62.62 0 010 .16v.18a.84.84 0 000 .14.34.34 0 010 .17v.2a1.48 1.48 0 000 .21.4.4 0 00.07.18.43.43 0 010 .17 1.28 1.28 0 000 .19.65.65 0 000 .19.36.36 0 00.12.16.7.7 0 00.18.14l.25.11.27.08a.56.56 0 00.22 0 .22.22 0 000-.16.32.32 0 01.34-.12zm-2.36-7.83a.08.08 0 000-.09.08.08 0 010-.08l.07.1c-.03.05-.04.07-.07.07zm.48 2.87a.06.06 0 010-.09v.2a.14.14 0 000-.11zm0 .33a.28.28 0 010-.13c0-.05 0-.06.05-.05a.28.28 0 000 .2.2.2 0 010 .19 1 1 0 01-.03-.21zm.08.68a1.16 1.16 0 010-.18 1.56 1.56 0 010-.2s0 .06.07.16a.2.2 0 01-.05.22zM22.69 27.63a1.6 1.6 0 00.11-.19c0-.07.08-.1.13-.08a.14.14 0 01.14 0 .4.4 0 00.15 0 .22.22 0 00-.1-.21A.66.66 0 0123 27a.24.24 0 010-.15s0-.07-.08-.11a.23.23 0 00-.07.07.13.13 0 01-.07.05.19.19 0 01-.17 0 .73.73 0 00-.19-.07 2.81 2.81 0 00-.54-.17l-.56-.11a2 2 0 01-.35-.07l-.36-.11h-.18a.46.46 0 01-.19-.09h-.25a.27.27 0 01-.19-.13c-.11 0-.19 0-.21.07a1 1 0 01-.15.26.54.54 0 00-.09.16.3.3 0 00.06.19h.05c.05 0 .05.08.06.08a.17.17 0 00.15 0h.15L20 27a.18.18 0 01.1 0h1.53a4 4 0 00-.69.6c-.2.23-.4.44-.59.64a4.56 4.56 0 01-.59.65l-.13.17a1.5 1.5 0 01-.14.18 1 1 0 01-.15.14.48.48 0 00-.12.16.36.36 0 00.32.11 2 2 0 00.42-.15l.22-.1.19-.1.32-.19.32-.17a.09.09 0 01.08-.06l.45-.35.47-.4a.32.32 0 01.1-.1.39.39 0 00.08-.1h.13a1.62 1.62 0 01.17-.19 1.26 1.26 0 00.2-.11z" class="cls-2"/><path d="M27.07 26.05c0-.08 0-.12-.09-.11s0-.07 0-.06 0 0-.05 0a.21.21 0 000-.21l-.11.12a1 1 0 01-.15.14.24.24 0 01-.09.08.15.15 0 01-.13 0h-.15l-.19-.15a1.09 1.09 0 00-.35-.12 2.1 2.1 0 01-.39-.11l-.18-.08a.49.49 0 00-.17-.06 8.81 8.81 0 00-1-.2 4.67 4.67 0 01-.91-.23h-.3a1 1 0 01-.28 0 .32.32 0 01-.19-.07.67.67 0 01-.18-.07c-.05 0-.1 0-.16.08a.12.12 0 00-.08.09.23.23 0 01-.08.12.29.29 0 01-.06.1.17.17 0 00-.06.06.11.11 0 000 .08.07.07 0 010 .07l.21.18a1.43 1.43 0 00.24.16H22.46l.23.12.24.12h.14a.67.67 0 00.17.06h.19v.05a.18.18 0 01.13 0h.09l.09.07a.47.47 0 01.32.16.29.29 0 01.1 0l.1.06a.53.53 0 00.26 0 .46.46 0 01.28.1c0 .06 0 .11-.13.15a1.63 1.63 0 01-.23.29l-.25.26-.63.76c-.17.24-.36.48-.55.72a2.27 2.27 0 01-.76.63.79.79 0 00.38 0 1.67 1.67 0 00.4-.09.12.12 0 01.14 0 .09.09 0 01.09 0h.1c.04 0 0 0 0 .05h.13l.14-.06a.09.09 0 00.06 0 .46.46 0 00.1-.07h.06l.05-.08a.25.25 0 01.09-.07.1.1 0 01.05-.06c0-.09 0-.13.05-.14l.07-.07.12-.09.12-.06.12-.07.14-.12a.69.69 0 00.13-.11 1.46 1.46 0 00.34-.23 3 3 0 01.33-.27 1.61 1.61 0 01.31-.19 2.45 2.45 0 00.29-.18l.36-.27.34-.25a.8.8 0 000-.18.21.21 0 01.1-.15.31.31 0 010-.25c0-.07 0-.13-.08-.17s.31-.09.29-.18zM2.72 13.54c0 .1-.07.21-.1.32a.37.37 0 01-.12.14c0 .05-.08.09-.08.13a.43.43 0 00.2.06 1.37 1.37 0 00.29 0h.28a.73.73 0 00.21-.07.39.39 0 00.26-.27.73.73 0 01.15-.32.65.65 0 00.19-.37.58.58 0 01.17-.33.31.31 0 00.09-.12l.08-.17.09-.15s.06-.05.11-.05a.14.14 0 010-.09.11.11 0 00.06-.06.14.14 0 000-.06.22.22 0 01.07-.06l.06-.07a.22.22 0 00.12-.19.34.34 0 01.1-.22v.05c0 .05 0 0 0 0v-.07a.28.28 0 01.08-.11l.09-.1h.08a1.23 1.23 0 01.21-.36 1.19 1.19 0 00.14-.3.19.19 0 010-.08 1.12 1.12 0 010-.13.77.77 0 01.1-.15.73.73 0 01-.07.21.43.43 0 000 .05h.07a.43.43 0 01.12-.22.23.23 0 00.06-.22v.13s0 .05 0 0a.8.8 0 00.07-.2 1.77 1.77 0 010-.2.78.78 0 01.1-.26.29.29 0 00.06-.19.39.39 0 01.06-.15.58.58 0 010 .1.28.28 0 010-.12.07.07 0 000-.06.4.4 0 00.15-.21.55.55 0 01.16-.31 1.31 1.31 0 00.2-.28l.12-.28c0-.12.1-.19.19-.21a1.17 1.17 0 01.17-.31l.2-.29.09-.21A.26.26 0 017.52 7a.55.55 0 00.1-.14 1.16 1.16 0 00.08-.2.94.94 0 01.18-.24.29.29 0 00.12-.29.91.91 0 01-.19.26 1.57 1.57 0 00-.2.25 2 2 0 00-.18.25.83.83 0 01-.19.23.37.37 0 010 .14 1.71 1.71 0 01-.07.18.5.5 0 01-.1.14H7a.12.12 0 000-.16.09.09 0 00.1 0 .16.16 0 000-.09.14.14 0 000-.09 3.3 3.3 0 00.32-.55 2.21 2.21 0 01.36-.54L8 5.92c.06-.06.11-.12.16-.16a5 5 0 00.43-.6q.18-.33.39-.66h-.07c-.02 0 0 0 0 0A1.3 1.3 0 019 4.43a.61.61 0 00.12-.16.48.48 0 00.08-.18.28.28 0 000-.2 2.45 2.45 0 00-.59.44L8 4.85l-.2.27a1.78 1.78 0 01-.22.26l-.24.21a.64.64 0 00-.19.27s-.06 0-.11.08a.32.32 0 00-.04.11.22.22 0 00-.09.13.42.42 0 01-.08.12.39.39 0 01-.1.08.2.2 0 00-.09.09 1.6 1.6 0 00-.16.27l-.15.32a.09.09 0 010 .12.14.14 0 00-.1.1.25.25 0 000 .11.23.23 0 01-.05.1 1 1 0 00-.1.14l-.11.19a1.4 1.4 0 01-.28.18.2.2 0 01-.1.07l-.77 1.1a11.75 11.75 0 00-.69 1.13 1.6 1.6 0 00-.1.23c0 .09-.07.17-.11.25L3.8 11a.4.4 0 01-.15.14l-.06.14c-.06.14 0 .13-.07.13V11.58a.37.37 0 010 .12.56.56 0 010 .08v.16a.62.62 0 00-.1.17.08.08 0 010-.08 11.85 11.85 0 00-.45 1.25 1.67 1.67 0 01-.25.26zM7.42 7a.18.18 0 01-.06.08.12.12 0 000 .09v-.08A.38.38 0 017.42 7zM6 9.67v.07a.22.22 0 000 .1v-.07a.23.23 0 000-.1zm-.18.39a.41.41 0 00.06-.19v.05a.56.56 0 010 .12l-.1.19s-.05-.1-.01-.17zM8.15 9.75L8 10a2.18 2.18 0 01-.12.22.29.29 0 01-.15.14s0 .05-.06.14 0 .13-.07.13v.12a.5.5 0 010 .12v.23a.82.82 0 00-.1.17.06.06 0 010-.07 12.87 12.87 0 00-.46 1.25 1.57 1.57 0 01-.08.31c0 .1-.06.2-.1.31a.4.4 0 01-.12.15.19.19 0 00-.08.12.77.77 0 00.2.07 1.38 1.38 0 00.29 0 1.27 1.27 0 00.28 0l.21-.07a.37.37 0 00.26-.27.78.78 0 01.15-.33.62.62 0 00.18-.35.65.65 0 01.05-.39.35.35 0 00.09-.11.89.89 0 01.08-.17l.09-.15a.1.1 0 01.11 0v-.09l.07-.07v-.05l.07-.07a.27.27 0 00.07-.08A.22.22 0 009 11a.33.33 0 01.09-.22v.05c0 .05 0 0 0 0v-.07a.59.59 0 01.08-.11l.1-.1h.07a1.06 1.06 0 01.2-.38 1.57 1.57 0 00.13-.29.11.11 0 010-.08.5.5 0 010-.13.77.77 0 01.1-.15.77.77 0 01-.07.2h.07l.05-.05a.53.53 0 01.18-.19.22.22 0 000-.22v.13s0 .06-.05 0a.69.69 0 00.07-.2v-.2a1 1 0 01.11-.17.34.34 0 00.06-.2.45.45 0 01.06-.14.55.55 0 010 .09.25.25 0 010-.11v-.07c0-.07 0 0 0 0a.44.44 0 00.08-.21.55.55 0 01.16-.3 1.62 1.62 0 00.2-.28l.12-.28c0-.13.1-.2.19-.22a1.46 1.46 0 01.17-.3l.2-.29s.06-.12.09-.21.07-.15.12-.17a.5.5 0 00.1-.15.64.64 0 00.08-.19.83.83 0 01.24-.2.29.29 0 00.11-.25 1.57 1.57 0 01-.19.26 1.55 1.55 0 00-.21.25 2 2 0 00-.18.26.79.79 0 01-.19.22.23.23 0 010 .14c0 .07-.05.13-.07.19a.45.45 0 01-.1.13h-.07a.11.11 0 000-.15.08.08 0 00.1 0 .1.1 0 000-.08v-.09c0-.02 0 0 0 0a3.39 3.39 0 00.32-.56 2.36 2.36 0 01.36-.53l.18-.2.22-.18a5 5 0 00.43-.6l.39-.66-.07.06c-.07.06 0 0 0 0a.72.72 0 01.11-.15l.12-.17a.48.48 0 00.07-.18.24.24 0 000-.2 2.5 2.5 0 00-.59.45c-.18.18-.36.35-.52.52a2.56 2.56 0 00-.2.26 1.38 1.38 0 01-.22.26l-.24.22a.61.61 0 00-.19.26s-.06 0-.11.09a.2.2 0 00-.07.11.24.24 0 00-.09.12.42.42 0 01-.08.12.19.19 0 01-.1.08.2.2 0 00-.09.09 2.32 2.32 0 00-.16.28l-.15.32s0 .11-.05.13a.17.17 0 00-.1.1.23.23 0 00-.05.1.25.25 0 010 .11.48.48 0 00-.09.13l-.12.19a1.4 1.4 0 01-.12.18.13.13 0 01-.1.07l-.76 1.1a9.72 9.72 0 00-.69 1.13c-.22.07-.26.14-.29.23zm3.39-3.53a.28.28 0 01-.06.08v0zm-1.47 2.66a.05.05 0 010 .08.16.16 0 000 .09L10 9a.19.19 0 00.07-.12zm-.18.39a.38.38 0 00.11-.19v.18a1 1 0 00-.1.19.22.22 0 01-.01-.18zM12.71 8.78a.23.23 0 00-.05.1.17.17 0 01-.05.11.48.48 0 00-.09.13 2.12 2.12 0 01-.12.2l-.12.17a.13.13 0 01-.1.07c-.26.36-.51.73-.76 1.09a10.64 10.64 0 00-.69 1.13c0 .07-.07.14-.1.23l-.11.24a1.45 1.45 0 01-.12.22.36.36 0 01-.15.15l-.06.13c-.06.13 0 .14-.07.14s0 .06 0 .11v.05c0 .05 0 0 0 0a.5.5 0 010 .12.22.22 0 010 .08v.15a.82.82 0 00-.1.17.06.06 0 010-.07c-.18.42-.33.84-.46 1.24a1.57 1.57 0 01-.08.31l-.1.32a.6.6 0 01-.11.14.17.17 0 00-.09.13l.21.06a1.29 1.29 0 00.28 0 1.27 1.27 0 00.28 0 .73.73 0 00.21-.07.37.37 0 00.26-.27.84.84 0 01-.02-.36.62.62 0 00.18-.35.65.65 0 01.17-.33.26.26 0 00.09-.11c0-.06.05-.12.08-.17l.09-.15a.1.1 0 01.11 0v-.09l.07-.07a.09.09 0 000-.05l.07-.07.07-.07a.23.23 0 00.13-.2.26.26 0 01.1-.21v-.07a.42.42 0 01.08-.12.47.47 0 01.1-.1.1.1 0 01.08 0 1.13 1.13 0 01.19-.38 1 1 0 00.13-.29.11.11 0 010-.08.5.5 0 010-.13v.09a.3.3 0 010-.1.38.38 0 01.08-.13.86.86 0 01-.07.21H12.27a.53.53 0 01.12-.22.21.21 0 00.06-.21.7.7 0 010 .12s0 .06-.05 0a.6.6 0 00.07-.2v-.2a1 1 0 01.11-.17.31.31 0 00.06-.19.42.42 0 01.06-.15v.09a.23.23 0 010-.11v-.06c0-.06 0 0 0 0a.33.33 0 00.08-.21.55.55 0 01.16-.3 1.62 1.62 0 00.2-.28 2.9 2.9 0 00.12-.28c0-.13.1-.2.19-.22a1.46 1.46 0 01.17-.3c.07-.09.13-.19.2-.29a1.09 1.09 0 00.18-.24c0-.1.07-.15.12-.17a.55.55 0 00.1-.14.8.8 0 00.08-.2.69.69 0 01.18-.24.31.31 0 00.11-.26 1 1 0 01-.19.26 2.32 2.32 0 00-.21.25c-.07.09-.12.17-.18.26a.79.79 0 01-.19.22.23.23 0 010 .14 1.07 1.07 0 01-.07.19.48.48 0 01-.09.13h-.08a.12.12 0 000-.16.08.08 0 00.1 0 .16.16 0 00.06-.08.14.14 0 000-.09 3.76 3.76 0 00.32-.55 2.54 2.54 0 01.36-.54l.18-.19.16-.17a5 5 0 00.43-.6q.2-.32.39-.66s-.05 0-.07.06a.72.72 0 01.11-.15l.12-.16a.62.62 0 00.07-.19.25.25 0 000-.2 3.08 3.08 0 00-.59.45l-.52.52a1.89 1.89 0 00-.2.27 1.31 1.31 0 01-.22.25l-.28.21a.61.61 0 00-.19.26s-.06 0-.11.09a.2.2 0 00-.07.11.24.24 0 00-.09.12.42.42 0 01-.08.12.28.28 0 01-.1.09s-.07 0-.08.08a1.48 1.48 0 00-.17.28l-.15.32v.13a.17.17 0 00-.25.11zm-.29 2.74a.67.67 0 00-.09.19.21.21 0 010-.18.38.38 0 00.06-.19v.06a.28.28 0 01.03.12zm.09-.21v-.07a.19.19 0 000-.1.05.05 0 010 .08.12.12 0 000 .09zM14 8.48a.28.28 0 01-.06.08.14.14 0 000 .09v-.09zM13.29 22.62c0-.1.07-.15.12-.17a.5.5 0 00.1-.15 1.13 1.13 0 00.08-.19.69.69 0 01.18-.24.3.3 0 00.1-.26.79.79 0 01-.19.26 2.19 2.19 0 00-.2.25 2 2 0 00-.18.26.79.79 0 01-.19.22.36.36 0 010 .14c0 .07 0 .13-.07.19a.45.45 0 01-.1.13h-.07a.12.12 0 000-.16.08.08 0 00.1 0 .14.14 0 00.05-.08.15.15 0 000-.09 3.76 3.76 0 00.32-.55 2.18 2.18 0 01.35-.54l.19-.19.16-.17a5 5 0 00.43-.6l.39-.66-.07.06c-.07.06 0 .05 0 0a1.3 1.3 0 01.1-.15.83.83 0 00.12-.16.46.46 0 00.08-.19.29.29 0 000-.2 2.5 2.5 0 00-.59.45l-.52.52a2.56 2.56 0 00-.2.26 1.38 1.38 0 01-.22.26l-.24.22a.61.61 0 00-.19.26s-.06 0-.11.09a.2.2 0 00-.07.11.24.24 0 00-.09.12.42.42 0 01-.08.12.28.28 0 01-.1.09.18.18 0 00-.09.08 2.32 2.32 0 00-.16.28l-.15.32s0 .11-.05.13a.14.14 0 00-.1.1.23.23 0 000 .1.25.25 0 01-.05.11l-.1.13a2 2 0 01-.11.2l-.12.17a.13.13 0 01-.1.07c-.26.36-.51.73-.76 1.09a10.64 10.64 0 00-.89 1.13 1.22 1.22 0 00-.1.23l-.11.24a2.18 2.18 0 01-.12.22.36.36 0 01-.15.15l-.06.13c-.06.13-.05.14-.07.14a.53.53 0 000 .11.5.5 0 010 .12s0 .06-.05.07 0 .09 0 .16a.82.82 0 00-.1.17.06.06 0 010-.07 11.7 11.7 0 00-.45 1.24 1.57 1.57 0 01-.08.31c0 .1-.07.2-.1.32a.47.47 0 01-.12.14.19.19 0 00-.08.12.57.57 0 00.2.07 1.38 1.38 0 00.29 0 1.17 1.17 0 00.49-.1.39.39 0 00.26-.27.78.78 0 01.05-.29.62.62 0 00.18-.35.65.65 0 01.17-.33.35.35 0 00.09-.11.89.89 0 01.08-.17 1 1 0 01.09-.15.09.09 0 01.11-.05v-.09a.23.23 0 00.06-.07.17.17 0 000-.05l.07-.07.07-.07a.23.23 0 00.12-.2.34.34 0 01.1-.22v.05c0 .05 0 0 0 0v-.08a.59.59 0 01.08-.11l.09-.1h.08a1.35 1.35 0 01.19-.38 1.12 1.12 0 00.14-.29.24.24 0 010-.08.5.5 0 01.05-.13.77.77 0 01.1-.15 1 1 0 01-.07.21h.08v-.05a.53.53 0 01.12-.22.22.22 0 00.06-.22v.13c0 .05 0 .06 0 0a.6.6 0 00.07-.2v-.2a.62.62 0 01.11-.17.33.33 0 00.06-.19.3.3 0 01.06-.15.55.55 0 010 .09.25.25 0 010-.11v-.07c0-.07 0 0 0 0a.44.44 0 00.08-.21.55.55 0 01.16-.3 1.16 1.16 0 00.19-.28 2.61 2.61 0 00.13-.28c0-.13.1-.2.19-.22a1.11 1.11 0 01.17-.3l.2-.29zm0-.13a.28.28 0 01-.06.08v0zm-1.59 3a1 1 0 00-.1.19.22.22 0 010-.18.38.38 0 00.06-.19v.06a.56.56 0 01.06.16zm.09-.21s-.05-.05 0-.07a.19.19 0 00.05-.1.05.05 0 010 .08.16.16 0 00-.03.13zM10.06 29.13V29s.01.09 0 .13zM14.8 28a.5.5 0 010-.13s.01.04 0 .13zM12.55 29.26a.11.11 0 010-.06v-.06.06c0 .06-.02.05 0 .06z" class="cls-2"/><path d="M14.66 26.78h-.05a.8.8 0 00.07-.2 1.77 1.77 0 010-.2.78.78 0 01.11-.18.29.29 0 00.06-.19.67.67 0 01.06-.15V26a.27.27 0 010-.12v-.06a.33.33 0 00.08-.2.55.55 0 01.16-.31 1.56 1.56 0 00.2-.27 1.7 1.7 0 00.12-.29.29.29 0 01.19-.21 1.54 1.54 0 01.17-.31c.07-.09.13-.18.2-.29a.72.72 0 00.09-.21.26.26 0 01.12-.17.55.55 0 00.1-.14.43.43 0 00.08-.2.94.94 0 01.18-.24.29.29 0 00.11-.25 1.15 1.15 0 01-.19.26 1.64 1.64 0 00-.21.25l-.18.25a.83.83 0 01-.19.23.24.24 0 010 .14.75.75 0 01-.07.18.85.85 0 01-.09.14h-.08a.11.11 0 000-.16.09.09 0 00.1 0 .18.18 0 00.06-.09.14.14 0 000-.09 3.3 3.3 0 00.32-.55 2.54 2.54 0 01.36-.54l.18-.19.16-.16a5 5 0 00.43-.6l.39-.66a.06.06 0 00-.06 0s0 .05 0 0l.11-.15.12-.16a.67.67 0 00.07-.18.24.24 0 000-.2 2.66 2.66 0 00-.59.44c-.18.19-.35.36-.52.52l-.2.27a1.78 1.78 0 01-.22.26l-.24.21a.64.64 0 00-.19.27s-.06 0-.11.08a.26.26 0 00-.07.12.18.18 0 00-.09.12.42.42 0 01-.08.12.39.39 0 01-.1.08.14.14 0 00-.08.09 1.14 1.14 0 00-.17.27l-.15.32s0 .1-.05.12a.17.17 0 00-.1.1.21.21 0 000 .11.18.18 0 01-.06.1.56.56 0 00-.09.14l-.12.19a1.4 1.4 0 01-.12.18.2.2 0 01-.1.07l-.76 1.09a11.75 11.75 0 00-.69 1.13c0 .07-.07.15-.1.23a1.89 1.89 0 01-.11.25l-.12.22a.33.33 0 01-.15.14s0 .05-.06.14-.05.13-.06.13 0 .07 0 .11a.42.42 0 010 .06.37.37 0 010 .12.16.16 0 01-.05.08c.05 0 .05.09 0 .16a.62.62 0 00-.1.17.08.08 0 010-.08c-.18.43-.33.84-.46 1.25 0 .1 0 .2-.07.3s-.07.21-.11.32a.45.45 0 01-.11.14c-.06 0-.09.09-.09.13a.53.53 0 00.21.06 1.27 1.27 0 00.28 0h.28a.73.73 0 00.21-.07.37.37 0 00.26-.27.73.73 0 01.15-.32.65.65 0 00.18-.35.58.58 0 01.17-.33.31.31 0 00.09-.12s.05-.11.08-.17l.09-.15a.12.12 0 01.11 0 .14.14 0 010-.09l.07-.06a.09.09 0 000-.06l.07-.06.07-.08a.23.23 0 00.13-.19.3.3 0 01.1-.22v.05c0 .05 0 0 0 0v-.07a.44.44 0 01.08-.11l.1-.1h.08a1 1 0 01.19-.38 1.18 1.18 0 00.13-.3.11.11 0 010-.08.93.93 0 010-.13.77.77 0 01.1-.15.73.73 0 01-.07.21.43.43 0 000 .05h.07a.43.43 0 01.12-.22.26.26 0 00.07-.22s-.2-.06-.21-.01zm1.55-3.18a.18.18 0 01-.06.08.2.2 0 000 .09v-.08a.38.38 0 01.06-.09zm-1.47 2.67v.08a.12.12 0 000 .09s-.05-.05 0-.07a.23.23 0 000-.1zm-.18.39a.45.45 0 00.07-.19v.05a.28.28 0 010 .12 1.14 1.14 0 00-.09.19.19.19 0 01.02-.17zM20.15 23.24a.29.29 0 00.11-.25 1.15 1.15 0 01-.19.26 1.64 1.64 0 00-.21.25c-.07.08-.12.17-.18.25a.83.83 0 01-.19.23.24.24 0 010 .14.75.75 0 01-.07.18.56.56 0 01-.09.14h-.08a.11.11 0 000-.15.11.11 0 00.1 0 .15.15 0 00.06-.09.14.14 0 000-.09 3.3 3.3 0 00.32-.55 2.54 2.54 0 01.36-.54l.18-.19.16-.16a5 5 0 00.43-.6l.39-.66s-.05 0-.07.05 0 .05 0 0l.11-.15.12-.16a.67.67 0 00.07-.18.24.24 0 000-.2 2.26 2.26 0 00-.59.45l-.52.51-.2.27a1.38 1.38 0 01-.22.26l-.24.22a.55.55 0 00-.19.26s-.06 0-.11.08a.26.26 0 00-.07.12.18.18 0 00-.09.12.42.42 0 01-.08.12.39.39 0 01-.1.08.14.14 0 00-.08.09 1.14 1.14 0 00-.17.27l-.15.32s0 .1-.05.12a.19.19 0 00-.1.1.31.31 0 00-.05.11.19.19 0 01-.05.11.36.36 0 00-.09.13 2 2 0 01-.12.19 1.4 1.4 0 01-.12.18.2.2 0 01-.1.07l-.9 1.05a10.78 10.78 0 00-.69 1.14 2.35 2.35 0 00-.1.22c0 .09-.07.17-.11.25l-.12.22a.33.33 0 01-.15.14s0 .05-.06.14 0 .13-.07.13a.61.61 0 010 .11.42.42 0 010 .06.37.37 0 010 .12.16.16 0 010 .08v.16a.62.62 0 00-.1.17.06.06 0 010-.07 12 12 0 00-.46 1.25 1.67 1.67 0 01-.08.3c0 .1-.06.21-.1.32a.36.36 0 01-.11.14c-.06.05-.09.09-.09.13a.53.53 0 00.21.06 1.27 1.27 0 00.28 0h.28a.73.73 0 00.21-.07.34.34 0 00.26-.27.73.73 0 01.15-.32.65.65 0 00.18-.35.58.58 0 01.17-.33.31.31 0 00.09-.12c0-.05.05-.11.08-.17l.09-.14a.09.09 0 01.11-.05.16.16 0 010-.1l.07-.06a.09.09 0 000-.06l.07-.06a.27.27 0 00.07-.08.23.23 0 00.13-.19.3.3 0 01.1-.22v-.07a.38.38 0 01.08-.11.47.47 0 01.1-.1h.08a1 1 0 01.19-.38 1.18 1.18 0 00.13-.3.11.11 0 010-.08.93.93 0 010-.13.53.53 0 01.1-.14.77.77 0 01-.07.2v.05h.07a.48.48 0 01.12-.22.22.22 0 00.06-.22.79.79 0 010 .13c0 .05 0 .06-.05 0a.8.8 0 00.07-.2v-.2a.78.78 0 01.11-.18.29.29 0 00.06-.19.67.67 0 01.06-.15v.14a.27.27 0 010-.12v-.06a.4.4 0 00.08-.2.55.55 0 01.16-.31 1.56 1.56 0 00.2-.27A2.35 2.35 0 0019 25c0-.12.1-.19.19-.21a1.46 1.46 0 01.17-.3c.07-.09.13-.19.2-.29a1 1 0 00.09-.22.26.26 0 01.12-.17s.05-.05.1-.14a.59.59 0 00.08-.2.94.94 0 01.2-.23zm-2 3.66a1.83 1.83 0 00-.1.2.26.26 0 010-.18.41.41 0 00.06-.19v.05a.56.56 0 01-.01.12zm.09-.2s-.05-.05 0-.07a.19.19 0 000-.1v.08a.16.16 0 00-.05.09zm1.44-2.76a.22.22 0 000 .1s-.05-.05 0-.09a.38.38 0 01.09-.09.18.18 0 01-.14.08z" class="cls-2"/></g></g><path d="M28.64 44h-7.16a.67.67 0 0 1-.65-.5A41.69 41.69 0 0 0 8.69 23.68 36.43 36.43 0 0 0 .4 17.85a.67.67 0 0 1-.4-.78L4.12.52a.69.69 0 0 1 .32-.43.7.7 0 0 1 .37-.09h23.86a.66.66 0 0 1 .48.2.67.67 0 0 1 .2.48v42.67a.67.67 0 0 1-.71.65zM22 42.66h6V1.37H5.32L1.48 16.86a39.21 39.21 0 0 1 8.13 5.81A43.07 43.07 0 0 1 22 42.66z" class="cls-2"/><path d="M17.34 33.75a.25.25 0 01-.18-.08.22.22 0 010-.32 7.5 7.5 0 011.16-.8.23.23 0 01.31.08.23.23 0 01-.08.31 8.41 8.41 0 00-1.09.75.24.24 0 01-.12.06zm2.33-1.42a.22.22 0 01-.21-.13.23.23 0 01.11-.3c.41-.19.83-.37 1.27-.54a.23.23 0 11.17.42c-.43.17-.85.34-1.24.53a.2.2 0 01-.1.02zm2.55-1a.22.22 0 01-.06-.44c.43-.13.88-.25 1.33-.35a.22.22 0 01.27.17.22.22 0 01-.17.27c-.44.1-.88.22-1.3.34zm2.66-.6a.22.22 0 01-.22-.19.22.22 0 01.19-.26c.44-.08.9-.14 1.36-.18a.22.22 0 01.25.2.21.21 0 01-.2.25l-1.34.17zm2.72-.28a.23.23 0 01-.23-.21.23.23 0 01.22-.24h1.17a.23.23 0 010 .46h-1.15zM26.11 4.88h-1.36a.23.23 0 00-.23.23.23.23 0 00.23.23h1.36a.23.23 0 00.23-.23.23.23 0 00-.23-.23zM28.76 4.88h-1.37a.23.23 0 00-.23.23.24.24 0 00.23.23h1.37a.23.23 0 00.24-.23.23.23 0 00-.24-.23zM23.47 4.88H22.1a.23.23 0 00-.23.23.24.24 0 00.23.23h1.37a.24.24 0 00.23-.23.23.23 0 00-.23-.23zM20.82 4.88h-1.36a.23.23 0 00-.23.23.23.23 0 00.23.23h1.36a.23.23 0 00.23-.23.23.23 0 00-.23-.23zM18.18 4.88h-1.37a.23.23 0 00-.23.23.24.24 0 00.23.23h1.37a.24.24 0 00.23-.23.23.23 0 00-.23-.23zM15.53 4.88h-1.36a.23.23 0 00-.23.23.23.23 0 00.23.23h1.36a.23.23 0 00.23-.23.23.23 0 00-.23-.23zM12.89 4.88h-1.37a.23.23 0 00-.23.23.24.24 0 00.23.23h1.37a.24.24 0 00.23-.23.23.23 0 00-.23-.23zM10.24 4.88H8.88a.23.23 0 00-.23.23.23.23 0 00.23.23h1.36a.23.23 0 00.23-.23.23.23 0 00-.23-.23zM7.6 4.88H6.23a.23.23 0 00-.23.23.24.24 0 00.23.23H7.6a.23.23 0 00.23-.23.23.23 0 00-.23-.23zM5 4.88H3.59a.23.23 0 00-.23.23.23.23 0 00.23.23H5a.23.23 0 00.23-.23.23.23 0 00-.23-.23z" class="cls-2"/></g></g></svg>