<svg xmlns="http://www.w3.org/2000/svg" width="125" height="30" fill="none" viewBox="0 0 125 30"><path fill="#1A3135" fill-rule="evenodd" d="M112.906 15.425a3.817 3.817 0 00-1.062-.796c-.371-.181-.813-.272-1.325-.272-.499 0-.934.09-1.305.272a2.66 2.66 0 00-.931.746 3.35 3.35 0 00-.566 1.087 4.27 4.27 0 00-.192 1.28c0 .444.074.864.222 1.26.149.396.357.742.627 1.038.27.295.593.527.971.695.378.168.803.252 1.275.252.513 0 .951-.091 1.315-.272a3.37 3.37 0 001.012-.797l1.294 1.29c-.472.524-1.022.9-1.648 1.129a5.793 5.793 0 01-1.993.342c-.742 0-1.42-.12-2.033-.363a4.68 4.68 0 01-1.589-1.017 4.495 4.495 0 01-1.032-1.572 5.452 5.452 0 01-.364-2.025c0-.74.122-1.417.364-2.035a4.664 4.664 0 011.022-1.592c.439-.443.964-.79 1.578-1.038.614-.249 1.298-.373 2.054-.373.701 0 1.372.124 2.013.373.64.249 1.197.628 1.669 1.139l-1.376 1.249zM95.608 12.886h1.821v1.47h.04c.23-.51.628-.923 1.194-1.238.567-.316 1.22-.474 1.963-.474.458 0 .9.07 1.325.212.425.14.796.36 1.113.655.316.295.569.675.758 1.138.189.464.284 1.01.284 1.642v6.146h-1.821v-5.642c0-.443-.061-.822-.182-1.138a2.066 2.066 0 00-.486-.766 1.824 1.824 0 00-.698-.423 2.583 2.583 0 00-.819-.131c-.378 0-.729.06-1.053.18a2.198 2.198 0 00-.849.576 2.694 2.694 0 00-.566.997c-.136.403-.203.88-.203 1.43v4.917h-1.82v-9.551zM91.886 16.876a3.836 3.836 0 00-.192-1.109 2.45 2.45 0 00-.516-.876 2.385 2.385 0 00-.86-.585c-.344-.14-.746-.21-1.204-.21-.445 0-.853.083-1.224.25a2.987 2.987 0 00-1.537 1.553c-.142.329-.213.654-.213.977h5.746zm-5.746 1.45c0 .417.09.796.273 1.14.182.342.422.634.718.876.297.242.64.43 1.032.564.391.135.796.201 1.214.201.567 0 1.059-.13 1.477-.392a4.738 4.738 0 001.153-1.038l1.376 1.047c-1.011 1.304-2.428 1.955-4.248 1.955-.756 0-1.44-.128-2.055-.382a4.47 4.47 0 01-1.557-1.059 4.683 4.683 0 01-.981-1.591 5.59 5.59 0 01-.344-1.985c0-.712.125-1.374.374-1.985a4.91 4.91 0 011.032-1.592c.438-.45.96-.803 1.568-1.058a5.06 5.06 0 011.983-.383c.85 0 1.568.148 2.154.443a4.26 4.26 0 011.446 1.159c.378.477.652 1.014.82 1.612.169.598.253 1.206.253 1.824v.645H86.14zM77.38 20.986c.486 0 .924-.084 1.315-.252.39-.167.72-.396.991-.684.27-.289.479-.638.627-1.048a3.92 3.92 0 00.223-1.34c0-.484-.075-.93-.222-1.34a3.033 3.033 0 00-.628-1.048c-.27-.289-.6-.517-.991-.685a3.299 3.299 0 00-1.315-.253c-.486 0-.924.085-1.315.252a2.908 2.908 0 00-.992.686c-.27.289-.478.639-.627 1.048-.149.41-.222.856-.222 1.34 0 .483.073.93.222 1.34.149.41.357.76.627 1.048.27.288.6.517.992.684.391.168.829.252 1.315.252zM72.403 7.204h1.821v7.053h.04c.324-.497.79-.89 1.396-1.179a4.463 4.463 0 011.942-.433c.742 0 1.413.128 2.013.383a4.52 4.52 0 011.538 1.058c.425.45.751.98.981 1.591.23.612.344 1.274.344 1.986s-.114 1.37-.344 1.975a4.835 4.835 0 01-.98 1.591 4.453 4.453 0 01-1.539 1.069c-.6.254-1.27.382-2.013.382a4.488 4.488 0 01-1.892-.423c-.613-.282-1.095-.678-1.446-1.189h-.04v1.37h-1.821V7.203zM68.68 16.876a3.836 3.836 0 00-.192-1.109 2.45 2.45 0 00-.516-.876 2.385 2.385 0 00-.86-.585c-.343-.14-.745-.21-1.204-.21-.445 0-.853.083-1.223.25a2.986 2.986 0 00-1.538 1.553c-.142.329-.212.654-.212.977h5.745zm-5.745 1.45c0 .417.09.796.273 1.14.182.342.421.634.718.876.296.242.64.43 1.031.564.392.135.797.201 1.215.201.566 0 1.058-.13 1.477-.392a4.738 4.738 0 001.153-1.038l1.376 1.047c-1.012 1.304-2.428 1.955-4.249 1.955-.756 0-1.44-.128-2.054-.382a4.469 4.469 0 01-1.557-1.059 4.681 4.681 0 01-.981-1.591 5.588 5.588 0 01-.344-1.985c0-.712.124-1.374.373-1.985a4.91 4.91 0 011.032-1.592c.439-.45.961-.803 1.568-1.058a5.06 5.06 0 011.983-.383c.85 0 1.568.148 2.155.443a4.26 4.26 0 011.446 1.159c.378.477.651 1.014.82 1.612.168.598.252 1.206.252 1.824v.645h-7.687zM54.235 20.986c.486 0 .924-.084 1.315-.252.391-.167.721-.396.992-.684.269-.289.478-.638.627-1.048a3.92 3.92 0 00.222-1.34c0-.484-.074-.93-.222-1.34a3.031 3.031 0 00-.627-1.048c-.27-.289-.6-.517-.992-.685a3.299 3.299 0 00-1.315-.253c-.486 0-.924.085-1.315.252a2.91 2.91 0 00-.992.686c-.27.289-.478.639-.627 1.048-.148.41-.222.856-.222 1.34 0 .483.074.93.222 1.34.149.41.358.76.627 1.048.27.288.601.517.992.684.39.168.83.252 1.315.252zm4.977 1.451h-1.82v-1.37h-.041c-.351.51-.833.907-1.446 1.189a4.49 4.49 0 01-1.892.423c-.742 0-1.413-.128-2.013-.382a4.453 4.453 0 01-1.538-1.069 4.823 4.823 0 01-.981-1.591 5.523 5.523 0 01-.344-1.975c0-.712.114-1.373.344-1.985.229-.611.556-1.142.98-1.592A4.52 4.52 0 0152 13.027c.6-.255 1.27-.383 2.013-.383.687 0 1.335.145 1.942.433.607.29 1.072.682 1.396 1.179h.04V7.203h1.821v15.234zM45.293 22.437h1.821v-9.551h-1.82v9.551zM44.868 9.46c0-.363.132-.675.395-.937s.576-.393.94-.393.678.131.942.393c.262.262.393.574.393.937 0 .363-.13.675-.393.937a1.288 1.288 0 01-.941.394c-.365 0-.678-.132-.941-.394a1.28 1.28 0 01-.395-.937zM35.197 19.455c.351.524.8.91 1.345 1.159.547.248 1.11.372 1.69.372.324 0 .654-.05.992-.15.336-.102.643-.252.92-.454.276-.202.503-.45.678-.746.175-.295.263-.638.263-1.027 0-.55-.176-.97-.526-1.26a4.58 4.58 0 00-1.305-.725 25.335 25.335 0 00-1.7-.564 6.903 6.903 0 01-1.7-.756 4.134 4.134 0 01-1.304-1.3c-.35-.544-.526-1.28-.526-2.206 0-.416.091-.86.273-1.33.182-.47.469-.9.86-1.29.391-.389.894-.715 1.507-.977.614-.262 1.352-.393 2.216-.393.781 0 1.53.108 2.246.322.714.216 1.341.652 1.881 1.31l-1.578 1.43a2.624 2.624 0 00-1.032-.906c-.445-.228-.95-.342-1.517-.342-.54 0-.989.07-1.346.211-.357.14-.644.323-.86.544-.215.222-.367.46-.455.715-.088.256-.131.491-.131.706 0 .604.175 1.068.526 1.39.35.322.786.584 1.305.786a15.8 15.8 0 001.7.544c.612.162 1.179.386 1.699.675.519.29.953.679 1.305 1.17.35.49.525 1.165.525 2.024 0 .685-.13 1.303-.394 1.854a4.111 4.111 0 01-1.062 1.39 4.713 4.713 0 01-1.578.867 6.116 6.116 0 01-1.943.302c-.917 0-1.786-.16-2.61-.484-.822-.322-1.477-.819-1.962-1.49l1.599-1.37zM116.204 22.437h1.82v-4.916c0-.551.068-1.028.203-1.431a2.69 2.69 0 01.567-.997c.242-.262.525-.454.849-.575.324-.12.674-.181 1.052-.181.283 0 .556.044.82.131.262.087.495.229.697.423.203.195.364.45.486.766.121.316.182.695.182 1.138v5.642h1.821v-6.146c0-.631-.095-1.178-.283-1.642a3.172 3.172 0 00-.759-1.138 3.009 3.009 0 00-1.113-.656 4.184 4.184 0 00-1.325-.211c-.742 0-1.396.158-1.962.473-.567.316-.965.73-1.194 1.24h-.041V7.203h-1.82v15.234zM14.09 0l-.103.03-.11-.023-.062.071-5.264 1.495-.284.298-1.4 5.067-4.983 1.415-.197.063-.017.094-.16.15L0 14.13l.107.406 3.66 3.63L2.4 23.122l-.065.073.025.09-.017.074.05.05.073.268 3.947 3.913.405.104 5.1-1.448 3.67 3.638.2.023.093.092 5.48-1.557.303-.127-.026-.093.085-.062 1.41-5.098 5.086-1.444.113-.152.12-.032 1.54-5.57-.111-.406-3.65-3.619 1.413-5.116-.124-.413-3.935-3.901-.408-.103-5.1 1.448L14.41.123l-.255-.056L14.09 0zM9.253 2.548l3.994-1.134-1.11 4.028L8.14 6.576l1.112-4.028zM3.124 9.176l9.645-2.739.189-.071.025-.104.144-.157 1.227-4.446 2.914 2.888-1.289 4.666-9.965 2.829-2.89-2.866zm15.873-4.507l4.088-1.162 2.892 2.867-4.09 1.161-2.89-2.866zm-3.389 10.138l2.582-9.346 2.939 2.913-2.582 9.347-2.939-2.914zm3.86 3.828l2.768-10.023 4.027-1.145-2.696 9.762.1.419 3.206 3.178-4.038 1.146-3.366-3.337zM1.203 14.03l1.12-4.057 2.911 2.885-1.12 4.058-2.91-2.886zm5.13-.903l9.295-2.638-1.112 4.031-9.296 2.639 1.112-4.032zm18.432 4.016l1.121-4.052 2.903 2.878-1.12 4.054-2.904-2.88zm-13.993-.385l4.042-1.147 6.774 6.715-4.043 1.148-6.773-6.716zm-5.904 1.677l4.655-1.323 7.217 7.155-1.12 4.058-7.01-6.952-.18-.116-.094.026-.205-.028-4.387 1.247 1.124-4.067zm-.87 5.169l4.086-1.16 2.914 2.89-4.086 1.16-2.914-2.89zm13.833.964l4.027-1.143-1.11 4.016-4.027 1.144 1.11-4.017z" clip-rule="evenodd"/></svg>