<svg xmlns="http://www.w3.org/2000/svg" viewBox="0 0 117.13 29.39"><defs><style>.cls-1{isolation:isolate}.cls-2{fill:#1a3135}</style></defs><g id="Layer_2" data-name="Layer 2"><g id="Layer_1-2" data-name="Layer 1"><g class="cls-1"><path d="M117.13 29.39H0V0h117.13zM1.42 28h114.29V1.44H1.42z" class="cls-2"/><path d="M37.73 20a.46.46 0 01-.45.34H36c-.27 0-.37-.16-.26-.4l5-10.81a.27.27 0 01.17-.13H41c.13 0 .17 0 .22.15l4.98 10.7c.15.32 0 .5-.34.5h-1c-.38 0-.62-.1-.73-.34l-.7-1.63a.53.53 0 00-.52-.28h-4.06c-.25 0-.35.1-.39.23zm1.69-3.88c-.11.24 0 .39.29.39h2.44c.33 0 .41-.2.31-.42L41.09 13c-.1-.2-.19-.2-.29 0zM50 20.35a.27.27 0 01-.29-.26V9.42c0-.23.07-.34.35-.34h1.29c.19 0 .33.08.33.3v8.72c0 .28.11.42.44.42h4.52c.19 0 .32.11.32.35V20a.33.33 0 01-.37.31zM62.12 20.35h-1.3a.27.27 0 01-.29-.26V9.42c0-.23.07-.34.35-.34h6.47c.27 0 .42.11.42.35v1.08c0 .3-.14.4-.36.4H62.8a.31.31 0 00-.32.32v2.71c0 .2.14.25.29.25h4.07c.19 0 .33.08.33.31v1.14c0 .25-.14.32-.36.32h-4c-.19 0-.29.09-.29.27V20a.33.33 0 01-.36.31M71.62 9.38c0-.22.14-.3.33-.3h3.24c3 0 4.45 1.65 4.45 4a3.51 3.51 0 01-2 3.43s-.07 0 0 .06c.86.77 1.1 2 2.41 2h.16a.25.25 0 01.29.28v1.28c0 .16-.12.24-.29.25a4 4 0 01-.78.05c-2.77 0-2.61-2.58-4-3.35a5.52 5.52 0 01-.58 0h-1.12a.12.12 0 00-.14.14V20a.33.33 0 01-.37.31H72a.33.33 0 01-.36-.31zM74 10.91c-.27 0-.42.08-.42.4V15a.34.34 0 00.38.36H75c1.84 0 2.48-1 2.48-2.22s-.58-2.23-2.48-2.23zM86.54 10.91a.31.31 0 00-.31.32v2.58c0 .21.14.25.28.25h4.17c.19 0 .33.08.33.31v1.14c0 .25-.14.32-.36.32h-4.14c-.19 0-.28.09-.28.27v2.1c0 .22.12.32.35.32h4.58a.31.31 0 01.34.35v1.21c0 .16 0 .27-.28.27h-6.67a.27.27 0 01-.29-.26V9.42c0-.23.07-.34.35-.34h6.47c.27 0 .42.11.42.35v1.08c0 .3-.14.4-.36.4zM99.71 9.08H96c-.37 0-.46.13-.46.46V19.9c0 .3.08.45.43.45h3.77a5.67 5.67 0 006-5.64 5.61 5.61 0 00-6-5.63m0 9.44h-1.93c-.21 0-.32-.14-.32-.4V11.2a.27.27 0 01.3-.29h1.93a3.71 3.71 0 013.84 3.83 3.72 3.72 0 01-3.84 3.78M11.9 16.18a4.25 4.25 0 01-2-.52.23.23 0 01-.14-.33l.26-.68c0-.16.21-.1.29-.05a3.3 3.3 0 001.6.46c.79 0 1.15-.39 1.15-.83s-.25-.72-1.46-1.17S9.88 12 9.88 11.15a2 2 0 012.25-2 4 4 0 011.63.35.24.24 0 01.15.29l-.24.67a.18.18 0 01-.27.11 3.24 3.24 0 00-1.3-.36c-.7 0-1 .4-1 .87s.36.7 1.3 1.05c1.5.58 1.93 1.18 1.93 2.06 0 1.21-.91 1.95-2.4 1.95M17.92 10.67c0-.22-.06-.27-.22-.27h-1.79c-.13 0-.22 0-.22-.2v-.72c0-.13.09-.18.2-.18h5.22c.11 0 .2 0 .2.18v.73a.18.18 0 01-.2.19h-1.77c-.16 0-.23 0-.23.27v5.24a.15.15 0 01-.17.15h-.8a.2.2 0 01-.22-.18zM23 15.86a.28.28 0 01-.27.2h-.79c-.16 0-.22-.09-.15-.24l3-6.48a.13.13 0 01.14-.1H25a.13.13 0 01.14.09l3 6.43c.09.2 0 .3-.21.3h-.58c-.22 0-.37-.06-.43-.2l-.42-1a.31.31 0 00-.31-.16h-2.55c-.15 0-.21 0-.24.13zm1-2.33c-.06.15 0 .23.18.23h1.46c.2 0 .25-.11.19-.25L25 11.64c-.05-.13-.11-.13-.17 0zM28.43 9.5c-.07-.1 0-.2.2-.2h.84a.31.31 0 01.28.15l1.51 2.64a.11.11 0 00.22 0L33 9.45a.31.31 0 01.29-.15h.87c.18 0 .2.09.12.22L32 13.22a.68.68 0 00-.09.33v2.33a.2.2 0 01-.22.18H31a.2.2 0 01-.22-.18v-2.32a.69.69 0 00-.08-.33z" class="cls-2"/></g></g></g></svg>