<svg xmlns="http://www.w3.org/2000/svg" width="81" height="71" fill="none" viewBox="0 0 81 71"><mask id="a" fill="#fff"><path d="M9.27 40.62v3.44h1.28L8.1 51.59l-2.13-7.53h1.28v-3.44H0v3.44h1.61l4.03 13.27h4.59l4.42-13.27h1.62v-3.44h-7zm11.02 16.71v-3.44h1.62v-9.83h-1.62v-3.44h7.35v3.44h-1.61v9.83h1.61v3.44h-7.35zm17.88.3a3.72 3.72 0 0 1-2.85-1.07v.77h-3.23v-5.4h3.77c0 1.48.72 2.15 1.8 2.15a1.58 1.58 0 0 0 1.71-1.59c0-1.94-3.07-1.5-5.53-3.46A4.59 4.59 0 0 1 32 45.42a5.19 5.19 0 0 1 5.2-5.18 3.72 3.72 0 0 1 2.69 1v-.65H43v4.84h-3.68a1.582 1.582 0 0 0-1.59-1.68 1.429 1.429 0 0 0-1.57 1.43c0 1.87 2.6 1.59 5 3a4.51 4.51 0 0 1 2.36 4.1 5.232 5.232 0 0 1-5.36 5.33M57.95 46.4v-2.16h-1.73v9.65h1.61v3.44h-7.35v-3.44h1.62v-9.65h-1.66v2.16h-3.25v-5.78h13.99v5.78h-3.23zm15.31 10.93v-3h1.59l-.49-1.5h-4.68l-.45 1.5h1.59v3h-7.37v-3.4h1.62l4.05-9.83h-1.6v-3.48h6.39l5.39 13.31h1.59v3.4h-7.63zM72 45.44l-1.34 4.21h2.67L72 45.44zM24.32 67.21a2.829 2.829 0 0 1-2.94 3 2.852 2.852 0 0 1-2.785-3.975 2.851 2.851 0 0 1 2.785-1.715 2.84 2.84 0 0 1 2.94 2.74v-.05zm-4.45.05a1.51 1.51 0 1 0 2.999.347 1.51 1.51 0 0 0-2.999-.347zm10.57-2.61v3a2.418 2.418 0 0 1-.56 1.88 2.94 2.94 0 0 1-3.53 0 2.42 2.42 0 0 1-.56-1.88v-3h1.38v2.8c0 .7 0 1.45.94 1.45s.94-.75.94-1.45v-2.8h1.39zm3.99 5.33h-1.39v-4.16H31.9v-1.18h3.67v1.18h-1.14v4.16zm2.78-5.33h2a2.67 2.67 0 1 1 0 5.33h-2v-5.33zm1.38 4.16h.31a1.5 1.5 0 0 0 0-3h-.33l.02 3zM49 67.21a3 3 0 1 1-3-2.74 2.837 2.837 0 0 1 3 2.74zm-4.45 0a1.51 1.51 0 1 0 2.999.347 1.51 1.51 0 0 0-2.999-.347zm11.57 0a3 3 0 1 1-2.95-2.74 2.838 2.838 0 0 1 2.95 2.74zm-4.45 0a1.51 1.51 0 1 0 2.999.347 1.51 1.51 0 0 0-2.999-.347zm10.24 2.77h-1.73l-1.31-2v2h-1.4v-5.33h2.07c1.06 0 1.86.5 1.86 1.64a1.43 1.43 0 0 1-1.17 1.5l1.68 2.19zm-3-2.94H59c.46 0 1-.09 1-.67 0-.58-.5-.66-1-.66h-.13l.04 1.33zm18.03-25.08h-.41v-1.22h-.33v-.34h1.08v.34h-.34v1.22zm.78-1.56h.4l.32.83.33-.83h.41l.24 1.56h-.41l-.12-.9-.37.9h-.17l-.36-.9-.13.9h-.41l.27-1.56zM56.9 10.93l-4.16-5.54a.65.65 0 0 0-1.09 0l-6 8-5.79 7.74v13.8L42 32.14l14.89-19.71a1.31 1.31 0 0 0 0-1.46"/><path d="M28.05 5.38a.64.64 0 0 0-1.08 0l-4.15 5.55a1.31 1.31 0 0 0 0 1.46l17.04 22.54v-13.8L28.05 5.38zm6 7l5.81 7.75 5.81-7.79 3.44-4.58L45.2 2.5a.48.48 0 0 0-.8 0l-.81 1.09a.47.47 0 0 1-.79 0L40.29.22a.48.48 0 0 0-.8 0L37 3.59a.48.48 0 0 1-.8 0l-.81-1.09a.48.48 0 0 0-.8 0l-4 5.22 3.46 4.66zM44.9 4.45c0-.35.18-.4.39-.12l1.58 2.11c.21.28.11.42-.22.31l-1.14-.38a1 1 0 0 1-.61-.84V4.45zM40 2.35c0-.35.17-.4.38-.12l4.16 5.56c.21.28.1.42-.23.31l-1.47-.49a.44.44 0 0 0-.61.44v1c0 .35-.17.4-.37.12l-1.49-2A2.371 2.371 0 0 1 40 5.93V2.35zm-4.88 2.1c0-.35.18-.4.39-.12l1.58 2.11c.21.28.11.42-.22.31l-1.17-.38a1 1 0 0 1-.61-.84l.03-1.08z"/></mask><path fill="#05222E" d="M9.27 40.62v3.44h1.28L8.1 51.59l-2.13-7.53h1.28v-3.44H0v3.44h1.61l4.03 13.27h4.59l4.42-13.27h1.62v-3.44h-7zm11.02 16.71v-3.44h1.62v-9.83h-1.62v-3.44h7.35v3.44h-1.61v9.83h1.61v3.44h-7.35zm17.88.3a3.72 3.72 0 0 1-2.85-1.07v.77h-3.23v-5.4h3.77c0 1.48.72 2.15 1.8 2.15a1.58 1.58 0 0 0 1.71-1.59c0-1.94-3.07-1.5-5.53-3.46A4.59 4.59 0 0 1 32 45.42a5.19 5.19 0 0 1 5.2-5.18 3.72 3.72 0 0 1 2.69 1v-.65H43v4.84h-3.68a1.582 1.582 0 0 0-1.59-1.68 1.429 1.429 0 0 0-1.57 1.43c0 1.87 2.6 1.59 5 3a4.51 4.51 0 0 1 2.36 4.1 5.232 5.232 0 0 1-5.36 5.33M57.95 46.4v-2.16h-1.73v9.65h1.61v3.44h-7.35v-3.44h1.62v-9.65h-1.66v2.16h-3.25v-5.78h13.99v5.78h-3.23zm15.31 10.93v-3h1.59l-.49-1.5h-4.68l-.45 1.5h1.59v3h-7.37v-3.4h1.62l4.05-9.83h-1.6v-3.48h6.39l5.39 13.31h1.59v3.4h-7.63zM72 45.44l-1.34 4.21h2.67L72 45.44zM24.32 67.21a2.829 2.829 0 0 1-2.94 3 2.852 2.852 0 0 1-2.785-3.975 2.851 2.851 0 0 1 2.785-1.715 2.84 2.84 0 0 1 2.94 2.74v-.05zm-4.45.05a1.51 1.51 0 1 0 2.999.347 1.51 1.51 0 0 0-2.999-.347zm10.57-2.61v3a2.418 2.418 0 0 1-.56 1.88 2.94 2.94 0 0 1-3.53 0 2.42 2.42 0 0 1-.56-1.88v-3h1.38v2.8c0 .7 0 1.45.94 1.45s.94-.75.94-1.45v-2.8h1.39zm3.99 5.33h-1.39v-4.16H31.9v-1.18h3.67v1.18h-1.14v4.16zm2.78-5.33h2a2.67 2.67 0 1 1 0 5.33h-2v-5.33zm1.38 4.16h.31a1.5 1.5 0 0 0 0-3h-.33l.02 3zM49 67.21a3 3 0 1 1-3-2.74 2.837 2.837 0 0 1 3 2.74zm-4.45 0a1.51 1.51 0 1 0 2.999.347 1.51 1.51 0 0 0-2.999-.347zm11.57 0a3 3 0 1 1-2.95-2.74 2.838 2.838 0 0 1 2.95 2.74zm-4.45 0a1.51 1.51 0 1 0 2.999.347 1.51 1.51 0 0 0-2.999-.347zm10.24 2.77h-1.73l-1.31-2v2h-1.4v-5.33h2.07c1.06 0 1.86.5 1.86 1.64a1.43 1.43 0 0 1-1.17 1.5l1.68 2.19zm-3-2.94H59c.46 0 1-.09 1-.67 0-.58-.5-.66-1-.66h-.13l.04 1.33zm18.03-25.08h-.41v-1.22h-.33v-.34h1.08v.34h-.34v1.22zm.78-1.56h.4l.32.83.33-.83h.41l.24 1.56h-.41l-.12-.9-.37.9h-.17l-.36-.9-.13.9h-.41l.27-1.56zM56.9 10.93l-4.16-5.54a.65.65 0 0 0-1.09 0l-6 8-5.79 7.74v13.8L42 32.14l14.89-19.71a1.31 1.31 0 0 0 0-1.46"/><path fill="#05222E" d="M28.05 5.38a.64.64 0 0 0-1.08 0l-4.15 5.55a1.31 1.31 0 0 0 0 1.46l17.04 22.54v-13.8L28.05 5.38zm6 7l5.81 7.75 5.81-7.79 3.44-4.58L45.2 2.5a.48.48 0 0 0-.8 0l-.81 1.09a.47.47 0 0 1-.79 0L40.29.22a.48.48 0 0 0-.8 0L37 3.59a.48.48 0 0 1-.8 0l-.81-1.09a.48.48 0 0 0-.8 0l-4 5.22 3.46 4.66zM44.9 4.45c0-.35.18-.4.39-.12l1.58 2.11c.21.28.11.42-.22.31l-1.14-.38a1 1 0 0 1-.61-.84V4.45zM40 2.35c0-.35.17-.4.38-.12l4.16 5.56c.21.28.1.42-.23.31l-1.47-.49a.44.44 0 0 0-.61.44v1c0 .35-.17.4-.37.12l-1.49-2A2.371 2.371 0 0 1 40 5.93V2.35zm-4.88 2.1c0-.35.18-.4.39-.12l1.58 2.11c.21.28.11.42-.22.31l-1.17-.38a1 1 0 0 1-.61-.84l.03-1.08z"/><path fill="#05222E" d="M39.36 21.13v13.8h1v-13.8h-1zM9.27 40.62v-1h-1v1h1zm0 3.44h-1v1h1v-1zm1.28 0l.95.31.427-1.31H10.55v1zM8.1 51.59l-.962.272.895 3.166 1.018-3.129-.951-.309zm-2.13-7.53v-1H4.648l.36 1.272.962-.272zm1.28 0v1h1v-1h-1zm0-3.44h1v-1h-1v1zm-7.25 0v-1h-1v1h1zm0 3.44h-1v1h1v-1zm1.61 0l.957-.29-.216-.71H1.61v1zm4.03 13.27l-.957.29.216.71h.741v-1zm4.59 0v1h.72l.229-.684-.949-.316zm4.42-13.27v-1h-.72l-.229.684.949.316zm1.62 0v1h1v-1h-1zm0-3.44h1v-1h-1v1zm4.02 16.71h-1v1h1v-1zm0-3.44v-1h-1v1h1zm1.62 0v1h1v-1h-1zm0-9.83h1v-1h-1v1zm-1.62 0h-1v1h1v-1zm0-3.44v-1h-1v1h1zm7.35 0h1v-1h-1v1zm0 3.44v1h1v-1h-1zm-1.61 0v-1h-1v1h1zm0 9.83h-1v1h1v-1zm1.61 0h1v-1h-1v1zm0 3.44v1h1v-1h-1zm7.68-.77l.704-.71-1.704-1.688v2.398h1zm0 .77v1h1v-1h-1zm-3.23 0h-1v1h1v-1zm0-5.4v-1h-1v1h1zm3.77 0h1v-1h-1v1zm1.8 2.15l.082-.997-.04-.003h-.042v1zm1.71-1.59h-1v.01l1-.01zm-5.53-3.46l.623-.782-.012-.01-.012-.009-.599.801zM32 45.42l-1-.002v.016l1-.014zm5.2-5.18l-.002 1h.042l-.04-1zm2.69 1l-.683.73 1.683 1.574V41.24h-1zm0-.65v-1h-1v1h1zm3.11 0h1v-1h-1v1zm0 4.84v1h1v-1h-1zm-3.68 0l-.998-.063-.068 1.063h1.066v-1zm-1.59-1.68l-.098.995.053.005h.053l-.008-1zm-1.57 1.43h1v-.005l-1 .005zm5 3l-.506.862.014.009.016.008.476-.879zm2.36 4.1l-1-.03v.049l1-.019zm14.43-5.88h-1v1h1v-1zm0-2.16h1v-1h-1v1zm-1.73 0v-1h-1v1h1zm0 9.65h-1v1h1v-1zm1.61 0h1v-1h-1v1zm0 3.44v1h1v-1h-1zm-7.35 0h-1v1h1v-1zm0-3.44v-1h-1v1h1zm1.62 0v1h1v-1h-1zm0-9.65h1v-1h-1v1zm-1.66 0v-1h-1v1h1zm0 2.16v1h1v-1h-1zm-3.25 0h-1v1h1v-1zm0-5.78v-1h-1v1h1zm13.99 0h1v-1h-1v1zm0 5.78v1h1v-1h-1zm12.08 10.93h-1v1h1v-1zm0-3v-1h-1v1h1zm1.59 0v1h1.379l-.428-1.31-.951.31zm-.49-1.5l.95-.31-.225-.69h-.725v1zm-4.68 0v-1h-.744l-.214.713.958.287zm-.45 1.5l-.958-.287-.386 1.287h1.344v-1zm1.59 0h1v-1h-1v1zm0 3v1h1v-1h-1zm-7.37 0h-1v1h1v-1zm0-3.4v-1h-1v1h1zm1.62 0v1h.67l.255-.62-.925-.38zm4.05-9.83l.925.38.569-1.38H69.12v1zm-1.6 0h-1v1h1v-1zm0-3.48v-1h-1v1h1zm6.39 0l.927-.375-.253-.625h-.674v1zm5.39 13.31l-.927.375.253.625h.674v-1zm1.59 0h1v-1h-1v1zm0 3.4v1h1v-1h-1zM72 45.44l.954-.301-.95-3.007-.957 3.005.953.303zm-1.34 4.21l-.953-.303-.415 1.303h1.368v-1zm2.67 0v1h1.365l-.411-1.301-.954.301zM24.32 67.21l.998-.06-1.998.06h1zm-2.94 3l.04-1-.05-.001-.05.003.06.998zm-3.019-2.845h1-1zm3.019-2.845l-.06.998.048.003.048-.002-.036-.999zm2.94 2.74l-1 .034 2-.034h-1zm-4.45 0l.993.115-.993-.115zm1.5 1.683v-1 1zm1.5-1.683l-.993.115.993-.115zm-1.5-1.337v-1 1zm9.07-1.273h1v-1h-1v1zm0 3h-1v.064l.008.063.992-.127zm-.56 1.88l.6.8.089-.067.071-.084-.76-.649zm-3.53 0l-.76.65.071.083.089.067.6-.8zm-.56-1.88l.992.127.008-.063v-.064h-1zm0-3v-1h-1v1h1zm1.38 0h1v-1h-1v1zm1.88 0v-1h-1v1h1zm5.38 5.33v1h1v-1h-1zm-1.39 0h-1v1h1v-1zm0-4.16h1v-1h-1v1zm-1.14 0h-1v1h1v-1zm0-1.18v-1h-1v1h1zm3.67 0h1v-1h-1v1zm0 1.18v1h1v-1h-1zm-1.14 0v-1h-1v1h1zm2.78-1.17v-1h-1v1h1zm2 0v1h.03l.031-.002-.061-.998zm0 5.33l.061-.998-.03-.002h-.031v1zm-2 0h-1v1h1v-1zm1.38-1.17l-1 .007.007.993h.993v-1zm-.02-3v-1h-1.007l.007 1.007 1-.007zM49 67.21l-1 .034.002.026.002.027.996-.087zm-3-2.74l.004 1h.026l.027-.002L46 64.47zm-1.45 2.74l.993.115-.993-.115zm1.5 1.684v-1 1zm1.5-1.684l-.993.115.993-.115zm-1.5-1.336v-1 1zm10.07 1.336l-1 .034.002.026.002.026.996-.086zm-2.95-2.74l-.013 1h.052l-.039-1zm-1.5 2.74l.993.115-.993-.115zm1.5 1.683v-1 1zm1.5-1.683l-.993.115.993-.115zm-1.5-1.336v-1 1zm8.74 4.106v1h2.028l-1.235-1.609-.793.609zm-1.73 0l-.837.548.297.452h.54v-1zm-1.31-2l.837-.548-1.837-2.804v3.352h1zm0 2v1h1v-1h-1zm-1.4 0h-1v1h1v-1zm0-5.33v-1h-1v1h1zm3.93 1.64h-1v.033l.002.032.998-.065zm-1.17 1.5l-.18-.984-1.61.294.997 1.299.793-.609zm-1.32-.75l-1 .03.03.97h.97v-1zm-.04-1.33v-1h-1.03l.03 1.03 1-.03zm18.07-23.75v1h1v-1h-1zm-.41 0h-1v1h1v-1zm0-1.22h1v-1h-1v1zm-.33 0h-1v1h1v-1zm0-.34v-1h-1v1h1zm1.08 0h1v-1h-1v1zm0 .34v1h1v-1h-1zm-.34 0v-1h-1v1h1zm.78-.34v-1h-.842l-.143.83.985.17zm.4 0l.933-.36-.247-.64h-.686v1zm.32.83l-.933.36.919 2.383.943-2.374-.929-.369zm.33-.83v-1h-.679l-.25.63.929.37zm.41 0l.988-.152-.13-.848h-.858v1zm.24 1.56v1h1.166l-.178-1.152-.988.152zm-.41 0l-.991.132.115.868h.876v-1zm-.12-.9l.991-.132-.494-3.707-1.422 3.459.925.38zm-.37.9v1h.67l.255-.62-.925-.38zm-.17 0l-.928.371.251.629h.677v-1zm-.36-.9l.928-.371-1.385-3.463L77 40.917l.99.143zm-.13.9v1h.866l.124-.857-.99-.143zm-.41 0l-.985-.17-.203 1.17h1.188v-1zM52.74 5.39l-.839.545.04.056.799-.601zm-.545-.296v1-1zm-.545.296l.8.6.038-.055-.838-.545zm-6 8l-.8-.6v.001l.8.599zm-5.79 7.74l-.8.6a1 1 0 0 0 1.6-.001l-.8-.599zm0 13.8l-.798.603a1 1 0 0 0 1.592.006l-.794-.609zM42 32.14l.794.609.004-.006L42 32.14zm14.89-19.71l.798.603a.913.913 0 0 0 .032-.046l-.83-.557zM28.05 5.38l-.844.537.044.063.8-.6zm-1.08 0l.8.599c.016-.02.03-.041.044-.062l-.844-.537zm-4.15 5.55l-.801-.599-.03.042.83.557zm-.222.73h1-1zm.222.73l-.83.557c.01.016.02.031.032.046l.798-.603zm11.23-.01l-.803.596.003.004.8-.6zm5.81 7.75l-.8.6.802 1.07.8-1.072-.802-.598zm5.81-7.79l-.8-.6-.002.002.802.598zm3.44-4.58l.8.6.448-.597-.446-.6-.802.597zM45.2 2.5l-.834.553.015.022.016.022.803-.597zm-.4-.215v-1 1zm-.4.215l.803.596.015-.02.015-.023L44.4 2.5zm-.81 1.09l-.803-.596-.02.026-.018.028.84.542zm-.395.215v-1 1zM42.8 3.59l.84-.542-.018-.028-.02-.027-.802.597zM40.29.22l-.834.553.016.023.016.021.802-.597zm-.4-.215v1-1zm-.4.215l.804.594.015-.02.014-.021L39.49.22zM37 3.59l-.804-.594-.015.02-.014.021.833.553zm-.4.215v1-1zm-.4-.215l.833-.553-.015-.022-.016-.021-.802.596zm-.81-1.09l-.834.553.015.022.016.021.803-.596zm-.8 0l.794.608.02-.027.02-.028-.834-.553zm-4 5.22l-.794-.608-.459.599.45.605.803-.596zm14.7-3.39l.8-.6-.8.6zm1.58 2.11l-.8.6.8-.6zm-.22.31l.316-.949-.316.949zm-1.14-.38l-.387.922.035.015.036.012.316-.949zm-.61-.84h-1v.041l.003.041.997-.082zm-4.52-3.3l.8-.599V1.63l-.8.6zm4.16 5.56l-.8.6.8-.6zm-.23.31l.316-.949-.316.949zm-1.47-.49l-.39.921.036.015.038.013.316-.949zm-.61.44h1v-.04l-.003-.039-.997.079zm-.37 1.12l.814-.581-.006-.008-.006-.008-.802.597zm-1.49-2l-.844.537.02.03.022.03.802-.597zM40 5.93h-1v.014l1-.014zm-4.88-1.48l1 .028V4.45h-1zm.39-.12l.8-.6-.8.6zm1.58 2.11l-.8.6.8-.6zm-.22.31l.316-.949-.007-.002-.31.951zm-1.17-.38l-.387.922.038.016.04.013.309-.951zm-.61-.84l-1-.028-.001.055.004.055.997-.082zM8.27 40.62v3.44h2v-3.44h-2zm1 4.44h1.28v-2H9.27v2zm.33-1.31l-2.45 7.53 1.9.62 2.45-7.53-1.9-.62zm-.538 7.568l-2.13-7.53-1.924.544 2.13 7.53 1.924-.544zM5.97 45.06h1.28v-2H5.97v2zm2.28-1v-3.44h-2v3.44h2zm-1-4.44H0v2h7.25v-2zm-8.25 1v3.44h2v-3.44h-2zm1 4.44h1.61v-2H0v2zm.653-.71l4.03 13.27 1.914-.58-4.03-13.27-1.914.58zM5.64 58.33h4.59v-2H5.64v2zm5.539-.684l4.42-13.27-1.898-.632-4.42 13.27 1.898.632zM14.65 45.06h1.62v-2h-1.62v2zm2.62-1v-3.44h-2v3.44h2zm-1-4.44h-7v2h7v-2zm5.02 17.71v-3.44h-2v3.44h2zm-1-2.44h1.62v-2h-1.62v2zm2.62-1v-9.83h-2v9.83h2zm-1-10.83h-1.62v2h1.62v-2zm-.62 1v-3.44h-2v3.44h2zm-1-2.44h7.35v-2h-7.35v2zm6.35-1v3.44h2v-3.44h-2zm1 2.44h-1.61v2h1.61v-2zm-2.61 1v9.83h2v-9.83h-2zm1 10.83h1.61v-2h-1.61v2zm.61-1v3.44h2v-3.44h-2zm1 2.44h-7.35v2h7.35v-2zm10.468.302a2.721 2.721 0 0 1-1.126-.168l-.703 1.872a4.72 4.72 0 0 0 1.953.292l-.124-1.996zm-1.126-.168a2.72 2.72 0 0 1-.958-.614l-1.408 1.42a4.72 4.72 0 0 0 1.663 1.066l.703-1.872zm-2.662.096v.77h2v-.77h-2zm1-.23h-3.23v2h3.23v-2zm-2.23 1v-5.4h-2v5.4h2zm-1-4.4h3.77v-2h-3.77v2zm2.77-1c0 .889.216 1.7.75 2.296.548.614 1.298.854 2.05.854v-2c-.328 0-.478-.095-.56-.186-.096-.108-.24-.373-.24-.964h-2zm2.718 3.147a2.58 2.58 0 0 0 1.056-.134l-.654-1.89a.58.58 0 0 1-.238.03l-.164 1.994zm1.056-.134c.34-.117.65-.304.913-.548l-1.362-1.465a.579.579 0 0 1-.205.123l.654 1.89zm.913-.548a2.58 2.58 0 0 0 .613-.87l-1.837-.79a.579.579 0 0 1-.138.195l1.362 1.465zm.613-.87c.142-.33.213-.686.21-1.045l-2 .02a.59.59 0 0 1-.047.234l1.837.79zm.21-1.035a2.3 2.3 0 0 0-.892-1.863c-.475-.382-1.088-.617-1.62-.803-1.153-.405-2.33-.728-3.395-1.576l-1.246 1.564c1.396 1.112 2.983 1.55 3.98 1.899.543.191.851.333 1.028.475.11.088.145.146.145.304h2zm-5.931-4.26a3.591 3.591 0 0 1-1.048-1.245l-1.782.908a5.589 5.589 0 0 0 1.632 1.938l1.198-1.602zm-1.048-1.245a3.59 3.59 0 0 1-.391-1.58l-2 .03c.012.855.22 1.696.61 2.458l1.781-.908zM33 45.422c.001-.55.11-1.095.322-1.603l-1.846-.769A6.19 6.19 0 0 0 31 45.418l2 .004zm.322-1.603a4.19 4.19 0 0 1 .91-1.358l-1.41-1.416a6.192 6.192 0 0 0-1.346 2.005l1.846.77zm.91-1.358a4.19 4.19 0 0 1 1.362-.905l-.762-1.85a6.191 6.191 0 0 0-2.01 1.339l1.41 1.416zm1.362-.905a4.19 4.19 0 0 1 1.604-.316l.004-2a6.19 6.19 0 0 0-2.37.467l.762 1.849zm1.646-.317c.36-.014.72.043 1.057.169l.697-1.875a4.721 4.721 0 0 0-1.834-.292l.08 1.998zm1.057.169c.338.125.647.316.91.562l1.366-1.46a4.72 4.72 0 0 0-1.58-.977l-.696 1.874zm2.593-.168v-.65h-2v.65h2zm-1 .35H43v-2h-3.11v2zm2.11-1v4.84h2v-4.84h-2zm1 3.84h-3.68v2H43v-2zm-2.682 1.063a2.58 2.58 0 0 0-.149-1.041l-1.88.68a.577.577 0 0 1 .033.235l1.996.126zm-.149-1.041a2.58 2.58 0 0 0-.552-.895l-1.453 1.374a.578.578 0 0 1 .124.202l1.881-.681zm-.552-.895a2.58 2.58 0 0 0-.864-.601l-.783 1.84a.56.56 0 0 1 .194.135l1.453-1.374zm-.864-.601a2.582 2.582 0 0 0-1.031-.206l.016 2a.58.58 0 0 1 .232.046l.783-1.84zm-.925-.201a2.429 2.429 0 0 0-1.003.112l.63 1.898a.429.429 0 0 1 .177-.02l.196-1.99zm-1.003.112a2.43 2.43 0 0 0-.871.51l1.346 1.478a.43.43 0 0 1 .155-.09l-.63-1.898zm-.871.51a2.43 2.43 0 0 0-.59.82l1.832.803a.431.431 0 0 1 .104-.145l-1.346-1.478zm-.59.82a2.43 2.43 0 0 0-.204.988l2-.01c0-.06.012-.12.036-.175l-1.831-.803zm-.204.983c0 .743.277 1.344.767 1.795.438.403 1 .642 1.496.819 1.095.392 2.138.606 3.23 1.248l1.014-1.724c-1.308-.768-2.765-1.119-3.57-1.407-.454-.163-.691-.293-.816-.408-.072-.066-.121-.13-.121-.323h-2zm5.524 3.88a3.51 3.51 0 0 1 1.37 1.335l1.733-.998a5.51 5.51 0 0 0-2.15-2.096l-.953 1.758zm1.37 1.335a3.51 3.51 0 0 1 .466 1.855l2 .06a5.51 5.51 0 0 0-.733-2.913l-1.733.998zm.466 1.904a4.229 4.229 0 0 1-.308 1.669l1.854.75a6.23 6.23 0 0 0 .454-2.457l-2 .038zm-.308 1.669a4.228 4.228 0 0 1-.938 1.413l1.41 1.418a6.231 6.231 0 0 0 1.382-2.081l-1.854-.75zm-.938 1.413a4.23 4.23 0 0 1-1.419.93l.74 1.86a6.232 6.232 0 0 0 2.089-1.372l-1.41-1.418zm-1.419.93a4.23 4.23 0 0 1-1.67.3l-.05 1.999a6.23 6.23 0 0 0 2.46-.44l-.74-1.858zM58.95 46.4v-2.16h-2v2.16h2zm-1-3.16h-1.73v2h1.73v-2zm-2.73 1v9.65h2v-9.65h-2zm1 10.65h1.61v-2h-1.61v2zm.61-1v3.44h2v-3.44h-2zm1 2.44h-7.35v2h7.35v-2zm-6.35 1v-3.44h-2v3.44h2zm-1-2.44h1.62v-2h-1.62v2zm2.62-1v-9.65h-2v9.65h2zm-1-10.65h-1.66v2h1.66v-2zm-2.66 1v2.16h2v-2.16h-2zm1 1.16h-3.25v2h3.25v-2zm-2.25 1v-5.78h-2v5.78h2zm-1-4.78h13.99v-2H47.19v2zm12.99-1v5.78h2v-5.78h-2zm1 4.78h-3.23v2h3.23v-2zm13.08 11.93v-3h-2v3h2zm-1-2h1.59v-2h-1.59v2zm2.54-1.31l-.49-1.5-1.9.62.49 1.5 1.9-.62zm-1.44-2.19h-4.68v2h4.68v-2zm-5.638.713l-.45 1.5 1.916.574.45-1.5-1.916-.574zm.508 2.787h1.59v-2h-1.59v2zm.59-1v3h2v-3h-2zm1 2h-7.37v2h7.37v-2zm-6.37 1v-3.4h-2v3.4h2zm-1-2.4h1.62v-2h-1.62v2zm2.545-.62l4.05-9.83-1.85-.76-4.05 9.83 1.85.76zM69.12 43.1h-1.6v2h1.6v-2zm-.6 1v-3.48h-2v3.48h2zm-1-2.48h6.39v-2h-6.39v2zm5.463-.625l5.39 13.31 1.854-.75-5.39-13.31-1.854.75zM79.3 54.93h1.59v-2H79.3v2zm.59-1v3.4h2v-3.4h-2zm1 2.4h-7.63v2h7.63v-2zm-9.843-11.193l-1.34 4.21 1.906.606 1.34-4.21-1.906-.606zm-.387 5.513h2.67v-2h-2.67v2zm3.624-1.301l-1.33-4.21-1.907.602 1.33 4.21 1.907-.602zM23.322 67.27c.015.255-.023.511-.112.751l1.873.7a3.829 3.829 0 0 0 .235-1.573l-1.996.122zm-.112.751a1.84 1.84 0 0 1-.408.641l1.429 1.4a3.83 3.83 0 0 0 .852-1.342l-1.873-.699zm-.408.641a1.83 1.83 0 0 1-.632.42l.737 1.86a3.83 3.83 0 0 0 1.324-.88l-1.429-1.4zm-.632.42a1.83 1.83 0 0 1-.75.128l-.08 1.998a3.83 3.83 0 0 0 1.567-.266l-.737-1.86zm-.85.129a1.85 1.85 0 0 1-.74-.108l-.683 1.88a3.855 3.855 0 0 0 1.542.224l-.118-1.996zm-.74-.108a1.852 1.852 0 0 1-.638-.393l-1.371 1.456c.382.36.833.638 1.326.817l.683-1.88zm-.638-.393a1.852 1.852 0 0 1-.43-.613l-1.835.793c.207.482.512.916.894 1.276l1.371-1.456zm-.43-.613a1.851 1.851 0 0 1-.15-.733h-2c0 .525.107 1.044.315 1.526l1.836-.793zm-.15-.733c0-.252.05-.502.15-.733l-1.835-.793a3.85 3.85 0 0 0-.316 1.526h2zm.15-.733c.1-.232.247-.44.43-.613l-1.371-1.456a3.85 3.85 0 0 0-.895 1.276l1.837.793zm.43-.613c.184-.173.4-.307.638-.393l-.683-1.88a3.85 3.85 0 0 0-1.326.817l1.371 1.456zm.638-.393a1.85 1.85 0 0 1 .74-.108l.12-1.996a3.85 3.85 0 0 0-1.543.224l.683 1.88zm.836-.107c.241-.008.482.03.709.115l.7-1.873a3.839 3.839 0 0 0-1.48-.24l.07 1.998zm.709.115c.227.085.434.213.611.378L24.1 64.55a3.84 3.84 0 0 0-1.276-.789l-.699 1.874zm.611.378c.177.165.32.363.42.583l1.82-.83a3.84 3.84 0 0 0-.876-1.216l-1.364 1.463zm.42.583c.1.22.156.458.165.7l1.998-.07c-.017-.504-.134-1-.343-1.46l-1.82.83zm2.164.665v-.05h-2v.05h2zm-6.443-.115a2.51 2.51 0 0 0 .1 1.045l1.907-.603a.511.511 0 0 1-.02-.212l-1.987-.23zm.1 1.045c.107.338.284.649.519.913l1.493-1.33a.511.511 0 0 1-.105-.186l-1.907.603zm.519.913c.235.265.524.476.847.62l.818-1.824a.51.51 0 0 1-.172-.126l-1.493 1.33zm.847.62c.323.146.673.22 1.027.22v-2a.511.511 0 0 1-.209-.044l-.818 1.825zm1.027.22a2.51 2.51 0 0 0 1.027-.22l-.818-1.824a.511.511 0 0 1-.209.044v2zm1.027-.22c.323-.144.612-.355.847-.62l-1.493-1.33a.51.51 0 0 1-.172.126l.818 1.825zm.847-.62c.236-.264.412-.575.52-.913l-1.908-.603a.511.511 0 0 1-.105.186l1.493 1.33zm.52-.913a2.51 2.51 0 0 0 .1-1.045l-1.987.23a.511.511 0 0 1-.02.212l1.906.603zm.1-1.045a2.51 2.51 0 0 0-.824-1.586l-1.33 1.494a.51.51 0 0 1 .167.322l1.986-.23zm-.824-1.586a2.51 2.51 0 0 0-1.67-.636v2a.51.51 0 0 1 .34.13l1.33-1.494zm-1.67-.636a2.51 2.51 0 0 0-1.67.636l1.33 1.494a.51.51 0 0 1 .34-.13v-2zm-1.67.636a2.51 2.51 0 0 0-.823 1.586l1.986.23a.51.51 0 0 1 .168-.322l-1.33-1.494zm9.74-.909v3h2v-3h-2zm.008 3.127c.025.197.01.397-.047.587l1.916.57a3.42 3.42 0 0 0 .115-1.412l-1.984.255zm-.047.587c-.057.19-.153.366-.281.516l1.52 1.3a3.43 3.43 0 0 0 .677-1.245l-1.916-.571zm-.121.366a1.94 1.94 0 0 1-1.165.389v2a3.94 3.94 0 0 0 2.365-.79l-1.2-1.599zm-1.165.389a1.94 1.94 0 0 1-1.165-.389l-1.2 1.6a3.94 3.94 0 0 0 2.365.789v-2zm-1.005-.239a1.418 1.418 0 0 1-.28-.516l-1.917.57a3.4 3.4 0 0 0 .677 1.245l1.52-1.299zm-.28-.516a1.421 1.421 0 0 1-.048-.587l-1.984-.255a3.42 3.42 0 0 0 .115 1.413l1.916-.571zm-.04-.714v-3h-2v3h2zm-1-2h1.38v-2h-1.38v2zm.38-1v2.8h2v-2.8h-2zm0 2.8c0 .285-.017.878.198 1.38a1.7 1.7 0 0 0 .675.794c.33.203.702.276 1.067.276v-2c-.105 0-.086-.02-.02.02.076.046.11.108.117.125 0 0-.016-.041-.026-.16a5.264 5.264 0 0 1-.011-.435h-2zm1.94 2.45c.365 0 .737-.073 1.067-.276a1.7 1.7 0 0 0 .675-.794c.215-.502.198-1.095.198-1.38h-2c0 .184 0 .317-.01.435a.686.686 0 0 1-.027.16.309.309 0 0 1 .117-.125c.066-.04.085-.02-.02-.02v2zm1.94-2.45v-2.8h-2v2.8h2zm-1-1.8h1.39v-2h-1.39v2zm5.38 3.33h-1.39v2h1.39v-2zm-.39 1v-4.16h-2v4.16h2zm-1-5.16H31.9v2h1.14v-2zm-.14 1v-1.18h-2v1.18h2zm-1-.18h3.67v-2H31.9v2zm2.67-1v1.18h2v-1.18h-2zm1 .18h-1.14v2h1.14v-2zm-2.14 1v4.16h2v-4.16h-2zm3.78-.17h2v-2h-2v2zm2.061-.002c.228-.014.456.019.67.096l.68-1.88a3.672 3.672 0 0 0-1.472-.212l.122 1.996zm.67.096c.214.078.41.198.576.355l1.37-1.457a3.67 3.67 0 0 0-1.266-.779l-.68 1.881zm.576.355c.166.156.299.344.39.553l1.835-.793a3.67 3.67 0 0 0-.854-1.217l-1.37 1.457zm.39.553c.09.21.136.435.136.663h2c0-.5-.102-.996-.3-1.456l-1.837.793zm.136.663c0 .228-.046.453-.137.663l1.836.793a3.67 3.67 0 0 0 .301-1.456h-2zm-.137.663c-.09.209-.222.397-.389.553l1.37 1.457c.366-.343.656-.757.855-1.217l-1.836-.793zm-.389.553a1.668 1.668 0 0 1-.576.354l.68 1.881a3.68 3.68 0 0 0 1.267-.778l-1.37-1.457zm-.576.354c-.214.078-.442.11-.67.097l-.122 1.996c.5.03 1-.041 1.472-.212l-.68-1.88zm-.731.095h-2v2h2v-2zm-1 1v-5.33h-2v5.33h2zm.38-.17h.31v-2h-.31v2zm.31 0a2.5 2.5 0 0 0 1.768-.732l-1.414-1.415a.5.5 0 0 1-.354.147v2zm1.768-.732a2.5 2.5 0 0 0 .732-1.768h-2a.5.5 0 0 1-.146.353l1.414 1.415zm.732-1.768a2.5 2.5 0 0 0-.732-1.768l-1.414 1.414a.5.5 0 0 1 .146.354h2zm-.732-1.768a2.5 2.5 0 0 0-1.768-.732v2a.5.5 0 0 1 .354.146l1.414-1.414zM38.9 64.81h-.33v2h.33v-2zm-1.33 1.007l.02 3 2-.014-.02-3-2 .014zm10.434 1.48a2 2 0 0 1-.25 1.154l1.743.98a4 4 0 0 0 .5-2.308l-1.993.174zm-.25 1.154a2 2 0 0 1-.857.812l.886 1.793a4 4 0 0 0 1.714-1.624l-1.743-.981zm-.857.812a2 2 0 0 1-1.166.187l-.28 1.98a4 4 0 0 0 2.331-.374l-.885-1.793zm-1.166.187a2 2 0 0 1-1.069-.503l-1.348 1.477a4 4 0 0 0 2.136 1.006l.28-1.98zm-1.069-.503a2 2 0 0 1-.597-1.019l-1.947.459a4 4 0 0 0 1.196 2.037l1.349-1.477zm-.597-1.019a2 2 0 0 1 .08-1.178l-1.866-.72a3.999 3.999 0 0 0-.161 2.357l1.947-.459zm.08-1.178a2 2 0 0 1 .732-.927l-1.135-1.647a4 4 0 0 0-1.463 1.854l1.866.72zm.732-.927a2 2 0 0 1 1.127-.353l-.008-2a4 4 0 0 0-2.254.706l1.135 1.647zm1.18-.355c.245-.014.49.022.721.104l.67-1.885a3.842 3.842 0 0 0-1.505-.215l.114 1.996zm.721.104c.231.082.443.21.625.375l1.348-1.477a3.84 3.84 0 0 0-1.303-.783l-.67 1.885zm.625.375c.18.165.327.365.43.588l1.816-.838a3.838 3.838 0 0 0-.898-1.227l-1.348 1.477zm.43.588c.102.222.16.463.168.709l1.998-.068a3.84 3.84 0 0 0-.35-1.479l-1.816.838zm-4.276.56a2.51 2.51 0 0 0 .1 1.045l1.907-.603a.511.511 0 0 1-.02-.212l-1.987-.23zm.1 1.045c.107.338.284.649.519.913l1.493-1.33a.511.511 0 0 1-.105-.186l-1.907.603zm.519.913c.235.264.524.476.847.62l.818-1.824a.51.51 0 0 1-.172-.126l-1.493 1.33zm.847.62c.323.146.673.22 1.027.22v-2a.51.51 0 0 1-.209-.044l-.818 1.825zm1.027.22a2.51 2.51 0 0 0 1.027-.22l-.818-1.824a.511.511 0 0 1-.209.044v2zm1.027-.22c.323-.144.612-.356.847-.62l-1.493-1.33a.51.51 0 0 1-.172.126l.818 1.825zm.847-.62a2.51 2.51 0 0 0 .52-.913l-1.908-.603a.511.511 0 0 1-.105.186l1.493 1.33zm.52-.913a2.53 2.53 0 0 0 .1-1.045l-1.987.23a.511.511 0 0 1-.02.212l1.906.603zm.1-1.045a2.51 2.51 0 0 0-.824-1.586l-1.33 1.494a.51.51 0 0 1 .167.322l1.986-.23zm-.824-1.586a2.51 2.51 0 0 0-1.67-.635v2a.51.51 0 0 1 .34.129l1.33-1.494zm-1.67-.635a2.51 2.51 0 0 0-1.67.635l1.33 1.494a.51.51 0 0 1 .34-.13v-2zm-1.67.635a2.51 2.51 0 0 0-.823 1.586l1.986.23a.51.51 0 0 1 .168-.322l-1.33-1.494zm10.744 1.787a2 2 0 0 1-.252 1.158l1.74.985a4 4 0 0 0 .504-2.316l-1.992.173zm-.252 1.158a2 2 0 0 1-.863.813l.878 1.797a4 4 0 0 0 1.726-1.625l-1.741-.985zm-.863.813a2 2 0 0 1-1.17.181l-.294 1.979a4 4 0 0 0 2.342-.363l-.878-1.797zm-1.17.181a2 2 0 0 1-1.069-.513L50.41 70.4a4 4 0 0 0 2.135 1.027l.293-1.979zm-1.069-.513a2 2 0 0 1-.59-1.027l-1.952.438A4 4 0 0 0 50.41 70.4l1.361-1.465zm-.59-1.027a2 2 0 0 1 .095-1.181l-1.857-.744a4 4 0 0 0-.19 2.363l1.952-.438zm.095-1.181a2 2 0 0 1 .746-.92l-1.11-1.664a4 4 0 0 0-1.493 1.84l1.857.743zm.746-.92a2 2 0 0 1 1.136-.337l.026-2a4 4 0 0 0-2.273.673l1.11 1.663zm1.188-.338c.242-.01.484.03.711.113l.695-1.875a3.84 3.84 0 0 0-1.484-.236l.078 1.998zm.711.113c.228.084.436.213.614.378l1.361-1.466a3.841 3.841 0 0 0-1.28-.787l-.695 1.875zm.614.378c.178.165.32.363.421.584l1.82-.831a3.85 3.85 0 0 0-.88-1.219l-1.361 1.466zm.421.584c.101.22.157.458.166.7l1.998-.069a3.84 3.84 0 0 0-.344-1.462l-1.82.83zm-4.278.551c-.041.352-.007.708.1 1.045l1.907-.603a.511.511 0 0 1-.02-.212l-1.987-.23zm.1 1.045a2.5 2.5 0 0 0 .519.913l1.493-1.33a.511.511 0 0 1-.105-.186l-1.907.603zm.519.913c.235.264.524.476.847.62l.818-1.824a.51.51 0 0 1-.172-.126l-1.493 1.33zm.847.62c.323.146.673.22 1.027.22v-2a.51.51 0 0 1-.209-.044l-.818 1.825zm1.027.22a2.51 2.51 0 0 0 1.027-.22l-.818-1.824a.51.51 0 0 1-.209.044v2zm1.027-.22c.323-.144.612-.356.847-.62l-1.493-1.33a.51.51 0 0 1-.172.126l.818 1.825zm.847-.62c.236-.264.412-.575.52-.913l-1.908-.603a.511.511 0 0 1-.105.186l1.493 1.33zm.52-.913a2.51 2.51 0 0 0 .1-1.045l-1.987.23a.511.511 0 0 1-.02.212l1.906.603zm.1-1.045a2.51 2.51 0 0 0-.824-1.586l-1.33 1.494a.51.51 0 0 1 .167.322l1.986-.23zm-.824-1.586a2.51 2.51 0 0 0-1.67-.635v2a.51.51 0 0 1 .34.129l1.33-1.494zm-1.67-.635a2.51 2.51 0 0 0-1.67.635l1.33 1.494a.51.51 0 0 1 .34-.13v-2zm-1.67.635a2.51 2.51 0 0 0-.823 1.586l1.986.23a.51.51 0 0 1 .168-.322l-1.33-1.494zm10.41 3.471h-1.73v2h1.73v-2zm-.893.452l-1.31-2-1.674 1.096 1.31 2 1.673-1.096zM57.87 67.98v2h2v-2h-2zm1 1h-1.4v2h1.4v-2zm-.4 1v-5.33h-2v5.33h2zm-1-4.33h2.07v-2h-2.07v2zm2.07 0c.39 0 .604.094.7.172.063.05.16.154.16.468h2c0-.826-.303-1.542-.906-2.027-.568-.457-1.284-.613-1.954-.613v2zm.862.705a.43.43 0 0 1-.09.293l1.577 1.23a2.43 2.43 0 0 0 .509-1.653l-1.996.13zm-.09.293a.43.43 0 0 1-.262.158l.36 1.968a2.43 2.43 0 0 0 1.48-.896l-1.578-1.23zm-.875 1.75l1.68 2.19 1.586-1.217-1.68-2.19-1.586 1.218zm-.527-.358H59v-2h-.09v2zm.09 0c.258 0 .705-.018 1.115-.22.224-.111.46-.287.635-.56.177-.276.25-.585.25-.89h-2c0-.016.006-.096.067-.191a.43.43 0 0 1 .163-.153c.025-.013.022-.006-.03.002a1.394 1.394 0 0 1-.2.012v2zm2-1.67c0-.291-.064-.595-.234-.871a1.534 1.534 0 0 0-.636-.573c-.413-.204-.871-.216-1.13-.216v2c.102 0 .175.004.227.012.055.007.052.014.018-.003a.47.47 0 0 1-.237-.298C59 66.388 59 66.37 59 66.37h2zm-2-1.66h-.13v2H59v-2zm-1.13 1.03l.04 1.33 2-.06-.04-1.33-2 .06zm19.07-24.78h-.41v2h.41v-2zm.59 1v-1.22h-2v1.22h2zm-1-2.22h-.33v2h.33v-2zm.67 1v-.34h-2v.34h2zm-1 .66h1.08v-2H76.2v2zm.08-1v.34h2v-.34h-2zm1-.66h-.34v2h.34v-2zm-1.34 1v1.22h2v-1.22h-2zm1.78.66h.4v-2h-.4v2zm-.533-.64l.32.83 1.866-.72-.32-.83-1.866.72zm2.182.84l.33-.83-1.858-.74-.33.83 1.858.74zm-.599-.2h.41v-2h-.41v2zm-.578-.848l.24 1.56 1.976-.304-.24-1.56-1.976.304zm1.228.408h-.41v2h.41v-2zm.581.868l-.12-.9-1.982.264.12.9L80 41.828zm-2.036-1.148l-.37.9 1.85.76.37-.9-1.85-.76zm.555.28h-.17v2h.17v-2zm.758.629l-.36-.9-1.857.742.36.9 1.857-.742zM77 40.917l-.13.9 1.98.286.13-.9-1.98-.286zm.86.043h-.41v2h.41v-2zm.575 1.17l.27-1.56-1.97-.34-.27 1.56 1.97.34zM57.7 10.33l-4.16-5.54-1.6 1.2 4.16 5.54 1.6-1.2zm-4.122-5.485a1.65 1.65 0 0 0-.596-.55l-.954 1.757a.35.35 0 0 1-.127-.117l1.677-1.09zm-.596-.55a1.65 1.65 0 0 0-.787-.2v2a.35.35 0 0 1-.167-.043l.954-1.758zm-.787-.2a1.65 1.65 0 0 0-.787.2l.954 1.757a.35.35 0 0 1-.167.042v-2zm-.787.2a1.65 1.65 0 0 0-.596.55l1.677 1.09a.35.35 0 0 1-.127.117l-.954-1.758zm-.558.495l-6 8 1.6 1.2 6-8-1.6-1.2zm-6 8.001l-5.79 7.74 1.6 1.198 5.79-7.74-1.6-1.198zm-4.197 22.748l2.14-2.79-1.587-1.218-2.14 2.79 1.587 1.218zm2.145-2.796l14.89-19.71-1.596-1.206-14.89 19.71 1.596 1.206zM57.72 12.987a2.31 2.31 0 0 0 .392-1.287h-2a.31.31 0 0 1-.052.173l1.66 1.114zm.392-1.287a2.31 2.31 0 0 0-.392-1.287l-1.66 1.114a.31.31 0 0 1 .052.173h2zM28.894 4.843a1.64 1.64 0 0 0-.595-.557l-.962 1.753a.36.36 0 0 1-.13-.122l1.687-1.074zm-.595-.557a1.64 1.64 0 0 0-.79-.202v2a.36.36 0 0 1-.172-.045l.962-1.753zm-.79-.202c-.275 0-.547.07-.788.202l.962 1.753a.36.36 0 0 1-.173.045v-2zm-.788.202a1.64 1.64 0 0 0-.595.557l1.688 1.074a.36.36 0 0 1-.13.122l-.963-1.753zm-.552.495l-4.15 5.55 1.602 1.198 4.15-5.55-1.602-1.198zm-4.18 5.592a2.31 2.31 0 0 0-.391 1.287h2a.31.31 0 0 1 .052-.173l-1.66-1.114zm-.391 1.287c0 .458.136.907.392 1.287l1.66-1.114a.31.31 0 0 1-.052-.173h-2zm11.652 1.32l5.81 7.75 1.6-1.2-5.81-7.75-1.6 1.2zm7.411 7.748l5.81-7.79-1.603-1.196-5.81 7.79 1.603 1.196zm5.808-7.787l3.44-4.58-1.599-1.202-3.44 4.58 1.6 1.202zm3.443-5.778l-3.91-5.26-1.605 1.194 3.91 5.26 1.605-1.194zm-3.879-5.216a1.48 1.48 0 0 0-.533-.486l-.946 1.763a.52.52 0 0 1-.188-.171l1.667-1.106zm-.533-.486a1.48 1.48 0 0 0-.7-.176v2a.52.52 0 0 1-.246-.061L45.5 1.46zm-.7-.176c-.244 0-.485.06-.7.176l.946 1.763a.52.52 0 0 1-.246.061v-2zm-.7.176a1.48 1.48 0 0 0-.534.486l1.667 1.106a.52.52 0 0 1-.187.17L44.1 1.462zm-.503.443l-.81 1.09 1.605 1.192.81-1.09-1.605-1.192zm-.848 1.144a.53.53 0 0 1 .192-.178l.957 1.756a1.47 1.47 0 0 0 .532-.494l-1.68-1.084zm.192-.178a.53.53 0 0 1 .254-.065v2c.246 0 .487-.061.703-.179l-.957-1.756zm.254-.065a.53.53 0 0 1 .254.065l-.958 1.756c.216.118.458.18.704.18v-2zm.254.065a.53.53 0 0 1 .191.178l-1.68 1.084c.133.207.316.376.531.494l.958-1.756zm.153.123l-2.51-3.37L39.488.817l2.51 3.37 1.604-1.194zM41.123-.333a1.48 1.48 0 0 0-.533-.486L39.644.944a.52.52 0 0 1-.188-.171l1.667-1.106zm-.533-.486a1.48 1.48 0 0 0-.7-.176v2a.52.52 0 0 1-.246-.061L40.59-.82zm-.7-.176c-.244 0-.485.06-.7.176l.946 1.763a.52.52 0 0 1-.246.061v-2zm-.7.176a1.48 1.48 0 0 0-.533.486L40.322.773a.52.52 0 0 1-.187.17L39.19-.818zm-.504.445l-2.49 3.37 1.608 1.188 2.49-3.37-1.608-1.188zm-2.52 3.411a.52.52 0 0 1 .188-.17l.946 1.762a1.48 1.48 0 0 0 .533-.486l-1.666-1.106zm.188-.17a.52.52 0 0 1 .246-.062v2c.244 0 .484-.06.7-.176l-.946-1.762zm.246-.062a.52.52 0 0 1 .246.062L35.9 4.629c.215.115.456.176.7.176v-2zm.246.062c.075.04.14.099.187.17l-1.666 1.106c.135.203.318.37.533.486l.946-1.762zm.157.127l-.81-1.09-1.606 1.192.81 1.09 1.605-1.192zm-.78-1.047a1.48 1.48 0 0 0-.533-.486l-.946 1.763a.52.52 0 0 1-.188-.171l1.667-1.106zm-.533-.486a1.48 1.48 0 0 0-.7-.176v2a.52.52 0 0 1-.246-.061l.946-1.763zm-.7-.176c-.244 0-.485.06-.7.176l.946 1.763a.52.52 0 0 1-.246.061v-2zm-.7.176a1.48 1.48 0 0 0-.533.486l1.666 1.106a.52.52 0 0 1-.187.17l-.946-1.762zm-.494.43l-4 5.22 1.588 1.217 4-5.22-1.588-1.216zm-4.009 6.425l3.46 4.66 1.606-1.192-3.46-4.66-1.606 1.192zM45.9 4.45c0-.017.004.057-.042.171a.863.863 0 0 1-.556.491.853.853 0 0 1-.694-.084c-.094-.06-.129-.112-.118-.098l1.6-1.2a1.584 1.584 0 0 0-.417-.395 1.149 1.149 0 0 0-.943-.14 1.138 1.138 0 0 0-.725.672 1.546 1.546 0 0 0-.105.583h2zm-1.41.48l1.58 2.11 1.6-1.2-1.58-2.11-1.6 1.2zm1.58 2.11c.014.02-.027-.028-.059-.135a.87.87 0 0 1 .136-.743.873.873 0 0 1 .667-.374c.114-.004.174.02.152.013L46.334 7.7c.142.047.339.096.558.088a1.13 1.13 0 0 0 .885-.466 1.13 1.13 0 0 0 .152-.982 1.593 1.593 0 0 0-.26-.499l-1.6 1.2zm.896-1.239l-1.14-.38-.632 1.898 1.14.38.632-1.898zm-1.07-.353l-1.618 1.175a2 2 0 0 0 .845.67l.774-1.845zm0 0l-1.993.164a2 2 0 0 0 .375 1.011l1.619-1.175zm.004.082V4.45h-2v1.08h2zM41 2.35c0-.022.005.046-.038.156a.867.867 0 0 1-.556.503.86.86 0 0 1-.715-.086c-.092-.06-.125-.11-.111-.093l1.6-1.2a1.596 1.596 0 0 0-.407-.39 1.142 1.142 0 0 0-.957-.142 1.134 1.134 0 0 0-.719.685A1.57 1.57 0 0 0 39 2.35h2zm-1.42.48l4.16 5.56 1.6-1.199-4.16-5.56-1.6 1.198zm4.16 5.56c.012.017-.033-.036-.065-.151a.871.871 0 0 1 .155-.75.865.865 0 0 1 .647-.35c.11-.005.169.019.15.012l-.633 1.898c.145.048.34.096.559.088.206-.008.597-.079.872-.443a1.13 1.13 0 0 0 .178-.989 1.563 1.563 0 0 0-.263-.515l-1.6 1.2zm.886-1.239l-1.47-.49-.632 1.898 1.47.49.632-1.898zM43.23 6.69a1.44 1.44 0 0 0-.722-.105l.224 1.988a.56.56 0 0 1-.28-.04l.778-1.843zm-.722-.105a1.44 1.44 0 0 0-.68.263l1.17 1.622a.56.56 0 0 1-.266.103l-.224-1.988zm-.68.263a1.44 1.44 0 0 0-.465.564l1.815.84a.56.56 0 0 1-.18.218l-1.17-1.622zm-.465.564a1.44 1.44 0 0 0-.129.718l1.994-.158a.56.56 0 0 1-.05.28l-1.815-.84zm-.132.639v1h2v-1h-2zm0 1c0 .021-.005-.045.037-.153a.868.868 0 0 1 .553-.505.866.866 0 0 1 .735.093c.095.063.13.12.119.104l-1.629 1.16c.089.125.22.28.403.401.177.117.537.285.971.148a1.13 1.13 0 0 0 .713-.685 1.57 1.57 0 0 0 .097-.565h-2zm1.432-.477l-1.49-2-1.604 1.194 1.49 2 1.604-1.194zm-1.448-1.94A1.37 1.37 0 0 1 41 5.917l-2 .027a3.37 3.37 0 0 0 .526 1.763l1.688-1.074zM41 5.93V2.35h-2v3.58h2zm-4.88-1.48c0-.017.004.057-.042.171a.863.863 0 0 1-.556.491.853.853 0 0 1-.694-.084c-.094-.06-.129-.112-.118-.098l1.6-1.2a1.584 1.584 0 0 0-.417-.395 1.149 1.149 0 0 0-.943-.14 1.138 1.138 0 0 0-.725.672 1.546 1.546 0 0 0-.105.583h2zm-1.41.48l1.58 2.11 1.6-1.2-1.58-2.11-1.6 1.2zm1.58 2.11c.014.02-.027-.028-.059-.135a.87.87 0 0 1 .136-.743.873.873 0 0 1 .667-.374c.114-.004.174.02.152.013L36.554 7.7c.142.047.339.096.558.088a1.13 1.13 0 0 0 .885-.466c.272-.382.21-.785.153-.982a1.594 1.594 0 0 0-.26-.499l-1.6 1.2zm.889-1.241l-1.17-.38-.618 1.902 1.17.38.618-1.902zm-1.093-.351l-1.618 1.175a2 2 0 0 0 .845.67l.773-1.845zm0 0l-1.993.164a2 2 0 0 0 .375 1.011l1.618-1.175zm.004.11l.03-1.08-2-.056-.03 1.08 2 .056zm4.57 14.972L28.85 4.78l-1.6 1.2 11.81 15.75 1.6-1.2zm-18.638-7.537l17.04 22.54 1.596-1.206-17.04-22.54-1.596 1.206z" mask="url(#a)"/></svg>
