<svg xmlns="http://www.w3.org/2000/svg" width="612" height="185" fill="none" viewBox="0 0 612 185"><path fill="#1A3135" d="M435.45 62.94c2.82 1.43 5.16 3.39 7.03 5.88L440.99 70c-3.57-4.85-8.46-7.27-14.68-7.27-5.35 0-9.81 1.83-13.37 5.5-3.56 3.67-5.35 8.22-5.35 13.65s1.78 10 5.35 13.71c3.57 3.71 8.04 5.57 13.43 5.57 3.4 0 6.5-.77 9.3-2.3 2.8-1.53 5-3.65 6.62-6.34v-7.84h-16.04v-1.87h18.04v10.01c-1.82 3.23-4.34 5.75-7.56 7.56-3.21 1.8-6.71 2.7-10.48 2.7-5.84 0-10.77-2.04-14.77-6.13-4-4.08-6-9.09-6-15.02 0-5.97 2.01-10.99 6.03-15.05 4.02-4.06 8.93-6.09 14.74-6.09 3.31.01 6.38.72 9.2 2.15zM482.15 102.46L467.6 83.12h-11.01v19.34h-1.99V61.42h13.62c3.69 0 6.58 1.02 8.68 3.05 2.09 2.03 3.14 4.62 3.14 7.77 0 2.9-.88 5.35-2.64 7.34-1.76 1.99-4.22 3.15-7.37 3.48l14.55 19.4h-2.43zm-25.56-21.14h11.51c3.19 0 5.64-.84 7.34-2.52 1.7-1.68 2.55-3.85 2.55-6.5s-.85-4.83-2.55-6.53c-1.7-1.7-4.14-2.55-7.34-2.55h-11.51v18.1zM524.19 66.89c4.06 4.06 6.09 9.08 6.09 15.05 0 5.93-2.03 10.94-6.09 15.02-4.06 4.08-9 6.13-14.8 6.13-5.8 0-10.72-2.04-14.74-6.13-4.02-4.08-6.03-9.09-6.03-15.02 0-5.97 2.01-10.99 6.03-15.05 4.02-4.06 8.93-6.09 14.74-6.09 5.81 0 10.73 2.03 14.8 6.09zm-28.08 1.34c-3.59 3.67-5.38 8.22-5.38 13.65s1.79 10 5.38 13.71c3.59 3.71 8.03 5.57 13.34 5.57 5.31 0 9.75-1.85 13.34-5.57 3.59-3.71 5.38-8.28 5.38-13.71 0-5.39-1.79-9.93-5.38-13.62-3.59-3.69-8.03-5.53-13.34-5.53-5.31 0-9.76 1.83-13.34 5.5zM570.26 86.79c0 5.02-1.38 8.99-4.14 11.91s-6.48 4.38-11.16 4.38c-4.77 0-8.53-1.46-11.29-4.38s-4.14-6.89-4.14-11.91V61.42h1.99v25.37c0 4.52 1.22 8.04 3.67 10.57 2.45 2.53 5.7 3.79 9.76 3.79 4.02 0 7.24-1.27 9.67-3.79 2.43-2.53 3.64-6.05 3.64-10.57V61.42h1.99v25.37h.01zM604.68 64.47c2.09 2.03 3.14 4.62 3.14 7.77 0 3.19-1.05 5.8-3.14 7.84-2.1 2.03-4.99 3.05-8.68 3.05h-11.63v19.34h-1.99V61.42H596c3.69 0 6.59 1.02 8.68 3.05zm-20.3-1.25v18.1h11.51c3.19 0 5.64-.84 7.34-2.52 1.7-1.68 2.55-3.85 2.55-6.5s-.85-4.83-2.55-6.53c-1.7-1.7-4.14-2.55-7.34-2.55h-11.51z"/><path stroke="#1A3135" stroke-miterlimit="10" stroke-width="2" d="M435.45 62.94c2.82 1.43 5.16 3.39 7.03 5.88L440.99 70c-3.57-4.85-8.46-7.27-14.68-7.27-5.35 0-9.81 1.83-13.37 5.5-3.56 3.67-5.35 8.22-5.35 13.65s1.78 10 5.35 13.71c3.57 3.71 8.04 5.57 13.43 5.57 3.4 0 6.5-.77 9.3-2.3 2.8-1.53 5-3.65 6.62-6.34v-7.84h-16.04v-1.87h18.04v10.01c-1.82 3.23-4.34 5.75-7.56 7.56-3.21 1.8-6.71 2.7-10.48 2.7-5.84 0-10.77-2.04-14.77-6.13-4-4.08-6-9.09-6-15.02 0-5.97 2.01-10.99 6.03-15.05 4.02-4.06 8.93-6.09 14.74-6.09 3.31.01 6.38.72 9.2 2.15zM482.15 102.46L467.6 83.12h-11.01v19.34h-1.99V61.42h13.62c3.69 0 6.58 1.02 8.68 3.05 2.09 2.03 3.14 4.62 3.14 7.77 0 2.9-.88 5.35-2.64 7.34-1.76 1.99-4.22 3.15-7.37 3.48l14.55 19.4h-2.43zm-25.56-21.14h11.51c3.19 0 5.64-.84 7.34-2.52 1.7-1.68 2.55-3.85 2.55-6.5s-.85-4.83-2.55-6.53c-1.7-1.7-4.14-2.55-7.34-2.55h-11.51v18.1zM524.19 66.89c4.06 4.06 6.09 9.08 6.09 15.05 0 5.93-2.03 10.94-6.09 15.02-4.06 4.08-9 6.13-14.8 6.13-5.8 0-10.72-2.04-14.74-6.13-4.02-4.08-6.03-9.09-6.03-15.02 0-5.97 2.01-10.99 6.03-15.05 4.02-4.06 8.93-6.09 14.74-6.09 5.81 0 10.73 2.03 14.8 6.09zm-28.08 1.34c-3.59 3.67-5.38 8.22-5.38 13.65s1.79 10 5.38 13.71c3.59 3.71 8.03 5.57 13.34 5.57 5.31 0 9.75-1.85 13.34-5.57 3.59-3.71 5.38-8.28 5.38-13.71 0-5.39-1.79-9.93-5.38-13.62-3.59-3.69-8.03-5.53-13.34-5.53-5.31 0-9.76 1.83-13.34 5.5zM570.26 86.79c0 5.02-1.38 8.99-4.14 11.91s-6.48 4.38-11.16 4.38c-4.77 0-8.53-1.46-11.29-4.38s-4.14-6.89-4.14-11.91V61.42h1.99v25.37c0 4.52 1.22 8.04 3.67 10.57 2.45 2.53 5.7 3.79 9.76 3.79 4.02 0 7.24-1.27 9.67-3.79 2.43-2.53 3.64-6.05 3.64-10.57V61.42h1.99v25.37h.01zM604.68 64.47c2.09 2.03 3.14 4.62 3.14 7.77 0 3.19-1.05 5.8-3.14 7.84-2.1 2.03-4.99 3.05-8.68 3.05h-11.63v19.34h-1.99V61.42H596c3.69 0 6.59 1.02 8.68 3.05zm-20.3-1.25v18.1h11.51c3.19 0 5.64-.84 7.34-2.52 1.7-1.68 2.55-3.85 2.55-6.5s-.85-4.83-2.55-6.53c-1.7-1.7-4.14-2.55-7.34-2.55h-11.51z"/><path fill="#1A3135" d="M173.96 184.33H41.02C18.4 184.33 0 165.93 0 143.31V41.02C0 18.4 18.4 0 41.02 0h132.94c22.62 0 41.02 18.4 41.02 41.02v102.29c0 22.62-18.4 41.02-41.02 41.02zM41.02 6.31c-19.14 0-34.71 15.57-34.71 34.71v102.29c0 19.14 15.57 34.71 34.71 34.71h132.94c19.14 0 34.71-15.57 34.71-34.71V41.02c0-19.14-15.57-34.71-34.71-34.71H41.02z"/><path fill="#1A3135" d="M121.1 97.81c-1.57 1.37-2.36 3.15-2.36 4.93h48.02c2.5 0 4.55-2.51 4.55-5.62V57.57c0-.17-.03-.33-.04-.5-2.04.01-4.07.69-5.62 2.05L121.1 97.81zM44.41 57.08c-.01.17-.04.33-.04.5v39.54c0 3.12 2.03 5.62 4.55 5.62h48.01c0-1.78-.78-3.57-2.35-4.93L50.02 59.13c-1.55-1.36-3.58-2.04-5.61-2.05zM100.75 92.85c3.77 3.29 9.89 3.29 13.66 0l53.68-46.52c1.88-1.63 2.82-3.78 2.82-5.92h-33.6c-.17.78-.51 1.53-1.2 2.14l-25.89 22.88c-1.82 1.61-4.77 1.61-6.6 0L77.74 42.54c-.68-.6-1.03-1.36-1.2-2.14h-32.3c0 2.14.94 4.29 2.83 5.92l53.68 46.53zM52.46 143.19h110.76c4.61 0 8.36-3.76 8.36-8.39v-4.79c-.36.07-.69.18-1.07.18H90.68c-2.56 0-4.65-1.73-4.65-3.87s2.08-3.88 4.65-3.88h79.83c.38 0 .72.11 1.07.18v-4.78c0-4.64-3.76-8.37-8.36-8.37H52.46a8.36 8.36 0 00-8.37 8.37v16.96c0 4.62 3.76 8.39 8.37 8.39zM289.26 61.42l-18.1 41.729h-2.24l-18.1-41.73h7.4l11.82 28.55 11.82-28.55h7.4zM334.78 60.74v41.729h-6.59v-25.75l-11.75 15.42h-2.24l-11.82-15.42v25.75h-6.59v-41.73h2.3l17.23 22.95 17.23-22.95h2.23zM374.48 63.29c3.09 1.7 5.52 4 7.31 6.9l-4.97 3.67c-3.07-4.73-7.26-7.09-12.56-7.09-4.23 0-7.75 1.44-10.57 4.32-2.82 2.88-4.23 6.5-4.23 10.85s1.41 7.97 4.23 10.85c2.82 2.88 6.34 4.32 10.57 4.32 5.31 0 9.49-2.36 12.56-7.09l4.97 3.67c-1.74 2.9-4.16 5.2-7.25 6.909-3.09 1.7-6.54 2.55-10.35 2.55-6.05 0-11.16-2.03-15.33-6.09-4.17-4.06-6.25-9.1-6.25-15.11 0-5.97 2.09-11 6.28-15.08s9.29-6.13 15.3-6.13c3.77 0 7.2.85 10.29 2.55zM277.83 134.59h-5.26l-2.37 13.38h-2.51l2.37-13.38h-5.26l.4-2.25h13.03l-.4 2.25zM292.76 147.98h-2.51l1.26-7.15h-7.87l-1.25 7.15h-2.51l2.75-15.63h2.51l-1.07 6.23h7.86l1.07-6.23h2.51l-2.75 15.63zM311.34 134.59h-7.77l-.71 4h5.83l-.38 2.18h-5.83l-.85 4.95h8.03l-.38 2.25h-10.57l2.75-15.63h10.28l-.4 2.25zM334.49 133.56c.91.81 1.36 1.9 1.36 3.26 0 1.52-.56 2.75-1.68 3.7-1.12.95-2.59 1.42-4.41 1.42h-3.34l-1.07 6.04h-2.51l2.75-15.63h5.12c1.61-.01 2.87.4 3.78 1.21zm-2.04 5.39c.55-.51.82-1.18.82-2.01 0-.74-.22-1.32-.67-1.74-.45-.42-1.11-.63-1.98-.63h-2.89l-.92 5.14h3.32c1 0 1.78-.25 2.32-.76zM353.46 134.22c1.42 1.43 2.13 3.22 2.13 5.36 0 2.38-.86 4.42-2.59 6.11-1.73 1.69-3.8 2.53-6.2 2.53-2.19 0-4-.71-5.42-2.14-1.42-1.43-2.13-3.22-2.13-5.37 0-2.4.87-4.44 2.59-6.12 1.73-1.68 3.8-2.52 6.22-2.52 2.18.01 3.98.73 5.4 2.15zm-9.88 1.97c-1.17 1.21-1.75 2.68-1.75 4.42 0 1.55.48 2.82 1.43 3.83.96 1 2.18 1.51 3.68 1.51 1.69 0 3.12-.61 4.3-1.82 1.17-1.22 1.76-2.69 1.76-4.43 0-1.55-.48-2.82-1.45-3.81-.96-.99-2.19-1.49-3.69-1.49-1.68-.02-3.11.58-4.28 1.79zM383.15 132.34l-8.88 15.9h-.83l-2.63-11.06-6.73 11.06h-.83l-3.32-15.9h2.6l2.06 10.54 6.56-10.8h.85l2.54 10.76 5.76-10.5h2.85zM397.88 134.59h-7.77l-.71 4h5.83l-.38 2.18h-5.83l-.85 4.95h8.03l-.38 2.25h-10.57l2.75-15.63h10.28l-.4 2.25zM412.67 139.83c-.73.87-1.7 1.47-2.91 1.8l3.7 6.35h-2.75l-3.58-6.04h-2.79l-1.07 6.04h-2.51l2.75-15.63h5.12c1.61 0 2.87.4 3.78 1.21.91.8 1.36 1.87 1.36 3.2-.01 1.17-.37 2.2-1.1 3.07zm-7.94-.12h3.29c1.01 0 1.79-.25 2.33-.76.55-.51.82-1.18.82-2.01 0-.74-.22-1.32-.67-1.74-.45-.42-1.11-.63-1.98-.63h-2.89l-.9 5.14zM441.02 134.22c1.42 1.43 2.13 3.22 2.13 5.36 0 2.38-.86 4.42-2.59 6.11-1.73 1.69-3.8 2.53-6.2 2.53-2.19 0-4-.71-5.42-2.14-1.42-1.43-2.13-3.22-2.13-5.37 0-2.4.87-4.44 2.59-6.12 1.73-1.68 3.8-2.52 6.22-2.52 2.18.01 3.98.73 5.4 2.15zm-9.88 1.97c-1.17 1.21-1.75 2.68-1.75 4.42 0 1.55.48 2.82 1.43 3.83.96 1 2.18 1.51 3.68 1.51 1.69 0 3.12-.61 4.3-1.82 1.17-1.22 1.76-2.69 1.76-4.43 0-1.55-.48-2.82-1.45-3.81-.96-.99-2.19-1.49-3.69-1.49-1.68-.02-3.11.58-4.28 1.79zM459.19 134.59h-7.53l-.83 4.67h6.21l-.38 2.27h-6.21l-1.14 6.44h-2.51l2.75-15.63h10.04l-.4 2.25zM481.93 134.59h-5.26l-2.37 13.38h-2.51l2.37-13.38h-5.26l.4-2.25h13.03l-.4 2.25zM498.45 134.22c1.42 1.43 2.13 3.22 2.13 5.36 0 2.38-.86 4.42-2.59 6.11-1.73 1.69-3.8 2.53-6.2 2.53-2.19 0-4-.71-5.42-2.14-1.42-1.43-2.13-3.22-2.13-5.37 0-2.4.87-4.44 2.59-6.12 1.73-1.68 3.8-2.52 6.22-2.52 2.18.01 3.98.73 5.4 2.15zm-9.87 1.97c-1.17 1.21-1.75 2.68-1.75 4.42 0 1.55.48 2.82 1.43 3.83.96 1 2.18 1.51 3.68 1.51 1.69 0 3.12-.61 4.3-1.82 1.17-1.22 1.76-2.69 1.76-4.43 0-1.55-.48-2.82-1.45-3.81-.96-.99-2.19-1.49-3.69-1.49-1.69-.02-3.12.58-4.28 1.79zM520.34 139.71l-.85 4.88c-.76 1.11-1.77 1.99-3.03 2.65-1.26.66-2.65 1-4.14 1-2.21 0-4.03-.71-5.46-2.13-1.43-1.42-2.14-3.21-2.14-5.38 0-2.4.87-4.44 2.61-6.12 1.73-1.68 3.82-2.52 6.25-2.52 1.41 0 2.66.32 3.76.95 1.1.63 1.98 1.52 2.64 2.65l-1.92 1.42c-1.09-1.82-2.63-2.72-4.62-2.72-1.72 0-3.17.6-4.35 1.81-1.18 1.21-1.76 2.69-1.76 4.44 0 1.58.48 2.86 1.44 3.85.96.99 2.23 1.48 3.79 1.48 1.8 0 3.31-.66 4.53-1.99l.35-2.04h-4.81l.4-2.23h7.31zM536.6 134.59h-7.77l-.71 4h5.83l-.38 2.18h-5.83l-.85 4.95h8.03l-.38 2.25h-10.57l2.75-15.63H537l-.4 2.25zM553.33 134.59h-5.26l-2.37 13.38h-2.51l2.37-13.38h-5.26l.4-2.25h13.03l-.4 2.25zM568.26 147.98h-2.51l1.26-7.15h-7.87l-1.25 7.15h-2.51l2.75-15.63h2.51l-1.07 6.23h7.86l1.07-6.23h2.51l-2.75 15.63zM586.84 134.59h-7.77l-.71 4h5.83l-.38 2.18h-5.83l-.85 4.95h8.03l-.38 2.25h-10.57l2.75-15.63h10.28l-.4 2.25zM601.63 139.83c-.73.87-1.7 1.47-2.92 1.8l3.7 6.35h-2.75l-3.58-6.04h-2.79l-1.07 6.04h-2.51l2.75-15.63h5.12c1.61 0 2.87.4 3.78 1.21.91.8 1.36 1.87 1.36 3.2 0 1.17-.36 2.2-1.09 3.07zm-7.94-.12h3.29c1.01 0 1.79-.25 2.33-.76.55-.51.82-1.18.82-2.01 0-.74-.22-1.32-.67-1.74-.45-.42-1.11-.63-1.98-.63h-2.89l-.9 5.14zM606.82 132.99v3.08h-.52v-3.08h-1.22v-.48h2.97v.48h-1.23zm5.18 3.08h-.53v-2.33l-1.06 1.42h-.18l-1.05-1.42v2.33h-.54v-3.62h.19l1.49 2.02 1.49-2.02h.19v3.62z"/></svg>