<svg width="122" height="36" viewBox="0 0 122 36" fill="none" xmlns="http://www.w3.org/2000/svg">
<path d="M120.396 26.7124H117.408C117.282 26.7124 117.192 26.6224 117.192 26.4965V13.8431C117.192 12.8711 116.562 12.2591 115.663 12.2591C115.159 12.2591 114.691 12.4211 114.259 12.9431L101.515 27.0004C101.263 27.3424 101.047 27.6304 101.047 28.0624C101.047 28.8723 101.695 29.4303 102.451 29.4303H113.755C113.881 29.4303 113.971 29.5203 113.971 29.6463V34.2001C113.971 35.1 114.655 35.784 115.591 35.784C116.49 35.784 117.174 35.1 117.174 34.2001V29.6463C117.174 29.5203 117.264 29.4303 117.39 29.4303H120.378C121.188 29.4303 121.782 28.8363 121.782 28.0624C121.782 27.2884 121.17 26.7124 120.396 26.7124ZM114.007 26.4965C114.007 26.6224 113.917 26.7124 113.791 26.7124H105.835C105.673 26.7124 105.529 26.4965 105.673 26.3705L113.647 17.5149C113.773 17.3889 114.025 17.4789 114.025 17.6409V26.4965H114.007Z" fill="#05222E"/>
<path d="M96.3854 12.2231H91.4897C90.6797 12.2231 89.9958 12.9071 89.9958 13.7171C89.9958 14.527 90.6797 15.211 91.4897 15.211H94.3876C94.5135 15.211 94.6035 15.301 94.6035 15.427V30.5463C94.6035 31.4462 95.2335 32.1662 96.2234 32.1662C97.1954 32.1662 97.8434 31.4462 97.8434 30.5463L97.9694 13.7171C97.9514 12.9071 97.1954 12.2231 96.3854 12.2231Z" fill="#05222E"/>
<path d="M85.9639 12.4031C85.6579 12.3131 85.406 12.2771 85.064 12.2771C84.128 12.2771 83.2821 12.7811 82.9761 13.6811L78.2963 26.4245C78.2063 26.5864 77.9543 26.5864 77.9183 26.4245L73.6165 13.8071C73.2745 12.9071 72.7706 12.2771 71.5286 12.2771C70.2867 12.2771 69.6027 13.2491 69.4407 13.8071L65.1389 26.4245C65.0489 26.5864 64.7969 26.6404 64.7609 26.4245L60.0811 13.6811C59.7752 12.7811 58.9292 12.2771 57.9932 12.2771C57.6513 12.2771 57.3993 12.3131 57.0933 12.4031C56.2473 12.7451 55.6894 13.5911 55.6894 14.527C55.6894 14.869 55.7254 15.085 55.8153 15.373L62.925 34.2901C63.177 35.19 64.113 35.784 65.0489 35.784C65.9849 35.784 66.7948 35.19 67.1368 34.2541L71.3126 22.1947C71.4026 22.0327 71.6546 22.0327 71.6906 22.1947L75.8664 34.2541C76.2084 35.154 77.0183 35.784 77.9543 35.784C78.8903 35.784 79.8802 35.226 80.1322 34.2901L87.2419 15.373C87.3319 15.067 87.3679 14.869 87.3679 14.527C87.3679 13.5911 86.8099 12.7451 85.9639 12.4031Z" fill="#05222E"/>
<path d="M42.478 12.0611C35.8723 12.0611 30.5086 17.4249 30.5086 24.0306C30.5086 30.6363 35.8363 36 42.478 36C49.1197 36 54.4474 30.6723 54.4474 24.0306C54.4474 17.4249 49.1197 12.0611 42.478 12.0611ZM42.478 31.4462C38.2662 31.4462 35.5843 28.0804 35.5843 24.0306C35.5843 19.9808 38.3022 16.6149 42.478 16.6149C46.6538 16.6149 49.3717 19.9808 49.3717 24.0306C49.3717 28.0804 46.6538 31.4462 42.478 31.4462Z" fill="#05222E"/>
<path d="M16.8652 0.00170502C10.4755 0.181697 5.20175 5.79743 5.20175 12.1871C5.20175 12.4931 5.20175 12.7811 5.20175 13.0331H2.1419C0.935956 13.0331 0 13.969 0 15.175C0 16.3629 0.935956 17.2989 2.1239 17.2989H5.23775C5.23775 23.3826 5.23775 30.2043 5.23775 33.1021C5.23775 34.5421 6.4257 35.784 7.82963 35.784C9.23356 35.748 10.3495 34.6681 10.3495 33.2641V17.2809H14.6873C15.8752 17.2809 16.8112 16.3449 16.8112 15.157C16.8112 13.969 15.8752 13.0331 14.6873 13.0331H10.3495V11.5932C10.3495 7.79534 13.2114 4.51949 17.1712 4.51949C19.3311 4.51949 21.095 5.41945 22.2469 6.85938C22.3009 6.91338 22.3189 6.98538 22.3189 7.05737C22.3189 8.6233 22.3189 26.4785 22.3189 33.2281C22.3189 34.6321 23.4709 35.784 24.8748 35.784C26.2788 35.784 27.4307 34.6321 27.4307 33.2281V6.08542C27.4307 5.88743 27.3767 5.70744 27.2687 5.54544C25.1628 2.1436 21.311 -0.0702916 16.8652 0.00170502Z" fill="#05222E"/>
</svg>
