<?xml version="1.0" encoding="utf-8"?>
<!-- Generator: Adobe Illustrator 19.2.1, SVG Export Plug-In . SVG Version: 6.00 Build 0)  -->
<svg version="1.1" id="Layer_1" xmlns="http://www.w3.org/2000/svg" xmlns:xlink="http://www.w3.org/1999/xlink" x="0px" y="0px"
	 viewBox="0 0 300 97" style="enable-background:new 0 0 300 97;" xml:space="preserve">
<style type="text/css">
	.st0{fill:#343434;}
	.st1{fill-rule:evenodd;clip-rule:evenodd;fill:#343434;}
</style>
<g>
	<path class="st0" d="M97.9,81.1c-15.1,0-27.2-12.1-27.2-27.2s12.1-27.2,27.2-27.2c15.1,0,27.2,12.1,27.2,27.2S112.9,81.1,97.9,81.1
		 M97.9,37.1c-9.5,0-15.7,7.6-15.7,16.9c0,9.3,6.2,16.8,15.7,16.8c9.5,0,15.7-7.6,15.7-16.8C113.5,44.7,107.4,37.1,97.9,37.1"/>
	<path class="st0" d="M199.9,34.4l-16.1,43c-0.7,2-2.7,3.3-4.9,3.3c-2.1,0-4.2-1.4-4.9-3.4l-9.7-28.6l-9.7,28.6
		c-0.7,2-2.6,3.4-4.7,3.4s-4.3-1.3-5-3.3l-16.1-43c-0.2-0.6-0.4-1.2-0.4-1.9c0-2.1,1.3-4,3.2-4.9c0.6-0.2,1.3-0.4,2-0.4
		c2.1,0,4,1.2,4.7,3.2l11,30.1l10.2-29.9c0.7-2,2.5-3.4,4.7-3.4c2.1,0,4,1.4,4.7,3.4l10.2,29.9l11.2-30c0.7-2,2.6-3.3,4.7-3.3
		c0.7,0,1.4,0.1,2,0.4c1.9,0.8,3.2,2.7,3.2,4.9C200.4,33.1,200.1,33.8,199.9,34.4"/>
	<path class="st1" d="M219.5,33.8v42.4c0,3,1.3,4.5,3.5,4.5c2.3,0,3.5-1.6,3.5-4.5V30.5c0-1.8-1.5-3.3-3.7-3.3h-12.3
		c-2.3,0-3.7,1.5-3.7,3.3c0,1.8,1.5,3.3,3.7,3.3H219.5z"/>
	<path class="st1" d="M280.2,80.6h-39.8c-4.6,0-6.9-2.3-6.9-5.2c0-2.1,1.2-4.6,3.5-6.9l38.2-38.3c2-2,4.1-3,6.1-3c3.4,0,6,2.9,6,8
		l0,38.9h9c2.3,0,3.7,1.5,3.7,3.3c0,1.8-1.5,3.3-3.7,3.3h-9V92c0,3-1.3,4.5-3.5,4.5c-2.3,0-3.5-1.6-3.5-4.5L280.2,80.6z M280.2,34.5
		l0,39.6h-39.6L280.2,34.5z"/>
	<path class="st0" d="M39,0C23.9,0,11.8,12.1,11.8,27.2v1.5H8H4.7c-2.6,0-4.7,2.1-4.7,4.7s2.1,4.8,4.7,4.8h7.1v36.7
		c0,3.2,2.6,5.8,5.8,5.8c3.2,0,5.8-2.6,5.8-5.8V38.2h10c2.6,0,4.7-2.2,4.7-4.8s-2.1-4.7-4.7-4.7h-10v-2.2c0-8.6,6.6-16.1,15.6-16.1
		c5,0,9.1,2.1,11.9,5.5v59.5c0,3.2,2.6,5.7,5.8,5.7c3.2,0,5.7-2.5,5.7-5.7V13.1C57.5,5.3,48.9,0,39,0"/>
</g>
</svg>
