<svg xmlns="http://www.w3.org/2000/svg" viewBox="0 0 416 316"><defs><style>.cls-1{fill:#f2f8fa;}.cls-2{fill:#8691a7;}.cls-3{fill:#7e879a;}.cls-4{fill:#e0e7eb;}</style></defs><title>ic--flag</title><g id="Layer_2" data-name="Layer 2"><g id="build"><rect class="cls-1" x="80" y="-20" width="256" height="416" transform="translate(396 -20) rotate(90)"/><rect class="cls-2" x="8" y="66.74" width="400" height="240"/><path class="cls-3" d="M8,247s57-8,100-8,58-24,100-24,65,24,100,24,100,24,100,24v45H8Z"/><path class="cls-1" d="M124,247.15a8,8,0,0,1-8,8h0a8,8,0,0,1-8-8v-192a8,8,0,0,1,8-8h0a8,8,0,0,1,8,8Z"/><path class="cls-1" d="M314.56,115.49,193.4,145.7h0V30.28s0,0,0,0L314.56.06c1.42-.35,2.36,1,1.77,2.48L293.11,62.26a2.22,2.22,0,0,0,0,1.72l23.22,48.15A2.61,2.61,0,0,1,314.56,115.49Z"/><path class="cls-4" d="M210.85,124.86a1.49,1.49,0,0,1-1.94-1.52V44.89a2.68,2.68,0,0,1,1.94-2.48L291.48,22.3c1.06-.26,1.61.36,1.21,1.38L276.4,65.6a5.33,5.33,0,0,0,.14,3.67l16,33.2a1.56,1.56,0,0,1-1.07,2.28Z"/><path class="cls-1" d="M232.2,123.64a0,0,0,0,1,0,0L108,154.62h0V40.75a2,2,0,0,1,1.52-1.94l120.19-30a2,2,0,0,1,2.49,1.94Z"/><path class="cls-4" d="M123.53,134.26h0V51.82h0l93.13-23.22s0,0,0,0V111a0,0,0,0,1,0,0Z"/><polygon class="cls-3" points="232.2 123.66 193.39 133.33 193.39 145.7 232.2 123.66"/></g></g></svg>