<svg xmlns="http://www.w3.org/2000/svg" viewBox="0 0 416 316"><defs><style>.cls-1{isolation:isolate;}.cls-2{fill:#f2f8fa;}.cls-3,.cls-4{fill:#8691a7;}.cls-4{opacity:0.16;mix-blend-mode:multiply;}</style></defs><polygon class="cls-2" points="0 32 107.38 0 307.38 32 416 0 416 284 308.62 316 108.62 284 0 316 0 32"/><polygon class="cls-3" points="199.38 22.72 194.04 39.26 223.21 39.26 218.87 25.84 207.38 24 199.38 22.72"/><circle class="cls-3" cx="104" cy="115" r="12"/><circle class="cls-3" cx="304" cy="201" r="12"/><path class="cls-3" d="M307.38,40l-47.7-7.63L280.2,88h-42l-5-16.5H184.06l-5,16.5H137l26.21-71.06L107.38,8,8,37.62v268L108.62,276l77.63,12.42,20.45-26.64H158V228h100v30.51l-28.3,36.85,79,12.64L408,278.38v-268ZM82.83,225.17a4,4,0,0,1-5.66,5.66L64,217.66,50.83,230.83a4,4,0,0,1-5.66-5.66L58.34,212,45.17,198.83a4,4,0,0,1,5.66-5.66L64,206.34l13.17-13.17a4,4,0,0,1,5.66,5.66L69.66,212ZM284,201a20,20,0,1,1,20,20A20,20,0,0,1,284,201Zm33,63H291l9.17,9.17a4,4,0,0,1-5.66,5.66l-16-16a4,4,0,0,1,0-5.66l16-16a4,4,0,0,1,5.66,5.66L291,256h26a47,47,0,0,0,0-94H99A55,55,0,0,1,99,52h16.06a10,10,0,1,1,0,8H99a47,47,0,0,0,0,94H317a55,55,0,0,1,0,110ZM124,115a20,20,0,1,1-20-20A20,20,0,0,1,124,115Zm246.83,2.17a4,4,0,0,1-5.66,5.66L352,109.66l-13.17,13.17a4,4,0,0,1-5.66-5.66L346.34,104,333.17,90.83a4,4,0,0,1,5.66-5.66L352,98.34l13.17-13.17a4,4,0,0,1,5.66,5.66L357.66,104Z"/><polygon class="cls-4" points="307.38 40 107.38 8 108.62 276 308.62 308 307.38 40"/></svg>