<svg xmlns="http://www.w3.org/2000/svg" xmlns:xlink="http://www.w3.org/1999/xlink" viewBox="0 0 423.81 297.12"><defs><style>.cls-1{fill:none;}.cls-2{fill:#f2f8fa;}.cls-3{fill:#8691a7;}.cls-4{clip-path:url(#clip-path);}.cls-5{fill:#7e879a;}.cls-6{fill:#e0e7eb;}</style><clipPath id="clip-path"><rect class="cls-1" x="11.64" y="45.93" width="400" height="240"/></clipPath></defs><title>ic--star</title><g id="Layer_2" data-name="Layer 2"><g id="build"><rect class="cls-2" x="83.64" y="-42.07" width="256" height="416" transform="translate(377.58 -45.71) rotate(90)"/><rect class="cls-3" x="11.64" y="45.93" width="400" height="240"/><rect class="cls-1" x="11.64" y="45.93" width="400" height="240"/><g class="cls-4"><circle class="cls-5" cx="156.54" cy="162.54" r="6.67"/><circle class="cls-5" cx="208.79" cy="218.32" r="6.67"/><circle class="cls-5" cx="272.03" cy="168.42" r="6.67"/><circle class="cls-5" cx="184.73" cy="224.18" r="6.67"/><circle class="cls-5" cx="275.03" cy="193.67" r="6.67"/><circle class="cls-5" cx="140.86" cy="178.88" r="6.67"/><circle class="cls-5" cx="251.62" cy="97.82" r="6.67"/><circle class="cls-5" cx="224.25" cy="234.6" r="6.67"/><circle class="cls-5" cx="288.95" cy="153.85" r="6.67"/><circle class="cls-5" cx="129.63" cy="152.68" r="6.67"/><circle class="cls-5" cx="196.38" cy="243.23" r="6.67"/><circle class="cls-5" cx="166" cy="88.01" r="6.67"/><circle class="cls-5" cx="294.81" cy="183.11" r="6.67"/><circle class="cls-5" cx="133.68" cy="200.18" r="6.67"/><circle class="cls-5" cx="242.22" cy="77.34" r="6.67"/><circle class="cls-5" cx="245.19" cy="243.11" r="6.67"/><circle class="cls-5" cx="298.82" cy="133.33" r="6.67"/><circle class="cls-5" cx="164.77" cy="239.97" r="6.67"/><circle class="cls-5" cx="288.33" cy="214.87" r="6.67"/><circle class="cls-5" cx="116.98" cy="172.05" r="6.67"/><circle class="cls-5" cx="273.79" cy="87.05" r="6.67"/><circle class="cls-5" cx="215.01" cy="257.27" r="6.67"/><circle class="cls-5" cx="142.7" cy="90.48" r="6.67"/><circle class="cls-5" cx="310.23" cy="165.32" r="6.67"/><circle class="cls-5" cx="134.56" cy="223.82" r="6.67"/><circle class="cls-5" cx="269.06" cy="243.9" r="6.67"/><circle class="cls-5" cx="111.67" cy="137.3" r="6.67"/><circle class="cls-5" cx="179.34" cy="259.32" r="6.67"/><circle class="cls-5" cx="167.91" cy="64.75" r="6.67"/><circle class="cls-5" cx="308.9" cy="201.6" r="6.67"/><circle class="cls-5" cx="110.93" cy="195.88" r="6.67"/><circle class="cls-5" cx="261.94" cy="65.36" r="6.67"/><circle class="cls-5" cx="238.57" cy="265.15" r="6.67"/><circle class="cls-5" cx="119.96" cy="100.8" r="6.67"/><circle class="cls-5" cx="319.92" cy="142.17" r="6.67"/><circle class="cls-5" cx="293.57" cy="236.96" r="6.67"/><circle class="cls-5" cx="98.34" cy="159.16" r="6.67"/><circle class="cls-5" cx="296.22" cy="84.14" r="6.67"/><circle class="cls-5" cx="200.33" cy="274.42" r="6.67"/><circle class="cls-5" cx="142.11" cy="67.95" r="6.67"/><circle class="cls-5" cx="325.73" cy="181.63" r="6.67"/><circle class="cls-5" cx="112.14" cy="222.1" r="6.67"/><circle class="cls-5" cx="243.15" cy="46.85" r="6.67"/><circle class="cls-5" cx="265.07" cy="265.97" r="6.67"/><circle class="cls-5" cx="99.86" cy="118.27" r="6.67"/><circle class="cls-5" cx="322.83" cy="115.57" r="6.67"/><circle class="cls-5" cx="159.23" cy="269.12" r="6.67"/><circle class="cls-5" cx="176.25" cy="44.01" r="6.67"/><circle class="cls-5" cx="316.6" cy="222.57" r="6.67"/><circle class="cls-5" cx="91.16" cy="185.49" r="6.67"/><circle class="cls-5" cx="283.57" cy="59.81" r="6.67"/><circle class="cls-5" cx="226.25" cy="283.75" r="6.67"/><circle class="cls-5" cx="116.62" cy="78.73" r="6.67"/><circle class="cls-5" cx="337.19" cy="156.3" r="6.67"/><circle class="cls-5" cx="120.94" cy="248.61" r="6.67"/><circle class="cls-5" cx="218.59" cy="33.27" r="6.67"/><circle class="cls-5" cx="292.45" cy="259.25" r="6.67"/><circle class="cls-5" cx="84.21" cy="141.88" r="6.67"/><circle class="cls-5" cx="318.3" cy="87.47" r="6.67"/><circle class="cls-5" cx="181.71" cy="286.77" r="6.67"/><circle class="cls-5" cx="147.63" cy="46.29" r="6.67"/><circle class="cls-5" cx="336.18" cy="201.4" r="6.67"/><circle class="cls-5" cx="91.12" cy="214.46" r="6.67"/><circle class="cls-5" cx="263.88" cy="38.39" r="6.67"/><circle class="cls-5" cx="255.37" cy="286.17" r="6.67"/><circle class="cls-5" cx="93.47" cy="96.77" r="6.67"/><circle class="cls-5" cx="342.01" cy="127.21" r="6.67"/><circle class="cls-5" cx="137.18" cy="273.37" r="6.67"/><circle class="cls-5" cx="318.67" cy="244.97" r="6.67"/><circle class="cls-5" cx="74.56" cy="170.27" r="6.67"/><circle class="cls-5" cx="306.11" cy="59.94" r="6.67"/><circle class="cls-5" cx="118.95" cy="56.26" r="6.67"/><circle class="cls-5" cx="350.58" cy="174.53" r="6.67"/><circle class="cls-5" cx="98.76" cy="244.1" r="6.67"/><circle class="cls-5" cx="285.79" cy="280.96" r="6.67"/><circle class="cls-5" cx="74.54" cy="121.31" r="6.67"/><circle class="cls-5" cx="339.31" cy="96.23" r="6.67"/><circle class="cls-5" cx="341.74" cy="223.57" r="6.67"/><circle class="cls-5" cx="72.07" cy="201.76" r="6.67"/><circle class="cls-5" cx="286.55" cy="34.98" r="6.67"/><circle class="cls-5" cx="92.24" cy="73.82" r="6.67"/><circle class="cls-5" cx="358.38" cy="143.41" r="6.67"/><circle class="cls-5" cx="114.14" cy="272.38" r="6.67"/><circle class="cls-5" cx="315.48" cy="267.89" r="6.67"/><circle class="cls-5" cx="61.49" cy="151.13" r="6.67"/><circle class="cls-5" cx="328.69" cy="65.32" r="6.67"/><circle class="cls-5" cx="359.85" cy="195.93" r="6.67"/><circle class="cls-5" cx="77.46" cy="234.48" r="6.67"/><circle class="cls-5" cx="69.46" cy="98.37" r="6.67"/><circle class="cls-5" cx="358.54" cy="109.78" r="6.67"/><circle class="cls-5" cx="342.44" cy="247.21" r="6.67"/><circle class="cls-5" cx="55.62" cy="184.71" r="6.67"/><circle class="cls-5" cx="310.23" cy="36.52" r="6.67"/><circle class="cls-5" cx="96.03" cy="50.3" r="6.67"/><circle class="cls-5" cx="371.44" cy="163.39" r="6.67"/><circle class="cls-5" cx="90.99" cy="266.39" r="6.67"/><circle class="cls-5" cx="307.31" cy="290.45" r="6.67"/><circle class="cls-5" cx="52.33" cy="128.91" r="6.67"/><circle class="cls-5" cx="350.47" cy="75.61" r="6.67"/><circle class="cls-5" cx="364.75" cy="219.66" r="6.67"/><circle class="cls-5" cx="57.83" cy="220.21" r="6.67"/><circle class="cls-5" cx="69.04" cy="73.97" r="6.67"/><circle class="cls-5" cx="375.31" cy="127.58" r="6.67"/><circle class="cls-5" cx="338.29" cy="271.45" r="6.67"/><circle class="cls-5" cx="42.33" cy="163.96" r="6.67"/><circle class="cls-5" cx="334.08" cy="42.93" r="6.67"/><circle class="cls-5" cx="380.73" cy="186.41" r="6.67"/><circle class="cls-5" cx="68.57" cy="255.61" r="6.67"/><circle class="cls-5" cx="47.4" cy="104.37" r="6.67"/><circle class="cls-5" cx="370.68" cy="90.45" r="6.67"/><circle class="cls-5" cx="365.09" cy="244.87" r="6.67"/><circle class="cls-5" cx="40.56" cy="201.77" r="6.67"/><circle class="cls-5" cx="73.37" cy="48.93" r="6.67"/><circle class="cls-5" cx="389.01" cy="149.04" r="6.67"/><circle class="cls-5" cx="87.8" cy="288.83" r="6.67"/><circle class="cls-5" cx="32.72" cy="140.18" r="6.67"/><circle class="cls-5" cx="357.25" cy="54.05" r="6.67"/><circle class="cls-5" cx="385.88" cy="211.75" r="6.67"/><circle class="cls-5" cx="47.66" cy="240.33" r="6.67"/><circle class="cls-5" cx="46.96" cy="78.33" r="6.67"/><circle class="cls-5" cx="388.59" cy="109.42" r="6.67"/><circle class="cls-5" cx="360.75" cy="270.75" r="6.67"/><circle class="cls-5" cx="26.3" cy="179.69" r="6.67"/><circle class="cls-5" cx="399.09" cy="173.53" r="6.67"/><circle class="cls-5" cx="63.8" cy="277.52" r="6.67"/><circle class="cls-5" cx="27.21" cy="114.07" r="6.67"/><circle class="cls-5" cx="378.96" cy="69.64" r="6.67"/><circle class="cls-5" cx="386.58" cy="238.62" r="6.67"/><circle class="cls-5" cx="28.99" cy="220.92" r="6.67"/><path class="cls-5" d="M57.83,51.58a6.67,6.67,0,1,1-6.66-6.66A6.67,6.67,0,0,1,57.83,51.58Z"/><circle class="cls-5" cx="403.55" cy="132.06" r="6.67"/><circle class="cls-5" cx="15.59" cy="154.54" r="6.67"/><circle class="cls-5" cx="405.12" cy="200.4" r="6.67"/><circle class="cls-5" cx="41.19" cy="261.72" r="6.67"/><circle class="cls-5" cx="26.11" cy="86.36" r="6.67"/><circle class="cls-5" cx="398.49" cy="89.4" r="6.67"/><circle class="cls-5" cx="382.64" cy="266.27" r="6.67"/><circle class="cls-5" cx="13.23" cy="197.81" r="6.67"/><circle class="cls-5" cx="414.98" cy="157.81" r="6.67"/><circle class="cls-5" cx="8.93" cy="126.96" r="6.67"/><circle class="cls-5" cx="383.68" cy="47.77" r="6.67"/><circle class="cls-5" cx="406.74" cy="228.92" r="6.67"/><circle class="cls-5" cx="20.72" cy="241.72" r="6.67"/><circle class="cls-5" cx="29.65" cy="57.81" r="6.67"/><circle class="cls-5" cx="415.16" cy="112.9" r="6.67"/><path class="cls-5" d="M44.85,284a6.67,6.67,0,1,1-6.67-6.66A6.67,6.67,0,0,1,44.85,284Z"/><circle class="cls-5" cx="6.67" cy="97.65" r="6.67"/><circle class="cls-5" cx="405.17" cy="67.92" r="6.67"/><circle class="cls-5" cx="403.71" cy="258.36" r="6.67"/><circle class="cls-5" cx="15.63" cy="263.78" r="6.67"/><circle class="cls-5" cx="9.08" cy="67.33" r="6.67"/><circle class="cls-5" cx="395.89" cy="287.95" r="6.67"/><circle class="cls-5" cx="408.67" cy="45.37" r="6.67"/><circle class="cls-5" cx="13.69" cy="286.73" r="6.67"/><circle class="cls-5" cx="417.14" cy="278.82" r="6.67"/></g><path class="cls-2" d="M209.33,208.38l-76.71,54.5a4,4,0,0,1-6.15-4.4l27.14-91.6a4,4,0,0,0-1.39-4.3L77.59,104.81A4,4,0,0,1,80,97.64l93.46-1.94a4,4,0,0,0,3.7-2.71L207.86,2.71a4,4,0,0,1,7.57,0L246.16,93a4,4,0,0,0,3.71,2.71l93.46,1.94a4,4,0,0,1,2.37,7.17l-74.63,57.77a4,4,0,0,0-1.39,4.3l27.14,91.6a4,4,0,0,1-6.15,4.4L214,208.38A4,4,0,0,0,209.33,208.38Z"/><path class="cls-2" d="M211.64,8.12l31.59,92.79,96.19,2-76.66,59.35,27.86,94-79-56.11-79,56.11,27.86-94L83.86,102.91l96.2-2Z"/><path class="cls-6" d="M211.64,14.16v126l30.9-38.43a2,2,0,0,0,.34-1.9l-29.29-86A1,1,0,0,0,211.64,14.16Z"/><path class="cls-6" d="M287.49,251.69,211.64,140.2,135.8,251.69a1,1,0,0,0,1.41,1.38l74.43-52.89,74.44,52.89A1,1,0,0,0,287.49,251.69Z"/><path class="cls-6" d="M334.36,104.39,211.64,140.2l50,21.59a2,2,0,0,0,2-.25l71.56-55.4A1,1,0,0,0,334.36,104.39Z"/><path class="cls-6" d="M211.64,140.2,88.93,104.39a1,1,0,0,0-.9,1.75l71.57,55.4a2,2,0,0,0,2,.25Z"/></g></g></svg>