<svg xmlns="http://www.w3.org/2000/svg" viewBox="0 0 416 316"><defs><style>.cls-1{fill:#f2f8fa;}.cls-2{fill:#8691a7;}.cls-3{fill:#7e879a;}.cls-4{fill:#e0e7eb;}</style></defs><rect class="cls-1" y="40" width="416" height="276"/><rect class="cls-2" x="8" y="48" width="400" height="260"/><rect class="cls-3" x="8" y="231" width="400" height="77"/><path class="cls-4" d="M354.33,252.5h-80a22,22,0,0,0-21.61,17.92A47.07,47.07,0,0,1,208.94,231H199a28,28,0,0,1-26.68,19.5h-68a4,4,0,1,0,0,8h47.54a18,18,0,0,1-17.54,14h-80a2,2,0,1,0,0,4h80a22,22,0,0,0,21.63-18h16.37A36,36,0,0,0,203.2,241a55.09,55.09,0,0,0,52.13,37.5h49a4,4,0,0,0,0-8H256.8a18,18,0,0,1,17.53-14h80a2,2,0,0,0,0-4Z"/><path class="cls-1" d="M263,133.89c-15.19,4.07-36.16,33.33-43.3,43.87l-11.32,3V164.2c12.06-13.88,47.25-56.44,47.25-80.33,0-25.9-41.33-73.72-49.76-83.2a2,2,0,0,0-3,0c-8.43,9.48-49.75,57.3-49.75,83.2,0,23.89,35.18,66.45,47.24,80.33v16.59l-11.31-3c-7.14-10.54-28.11-39.8-43.3-43.87-16.17-4.33-52.3,12.8-61.39,17.3a2.1,2.1,0,0,0-.81,3c5.62,8.44,28.35,41.33,44.51,45.66,15.18,4.07,48-10.78,59.43-16.34L200.33,187v35.5A27.79,27.79,0,0,1,199,231h9.93a47.54,47.54,0,0,1-.61-7.5V187l12.88-3.45c11.46,5.56,44.24,20.41,59.42,16.34,16.23-4.34,39.06-37.45,44.57-45.75a2,2,0,0,0-.77-2.9C315.5,146.81,279.17,129.55,263,133.89Z"/><path class="cls-4" d="M204.33,8.57l2,75.3-2,75.29a1,1,0,0,0,1.77.65c14.32-17,43.48-54.19,43.48-75.94s-29.16-59-43.48-75.95A1,1,0,0,0,204.33,8.57Z"/><path class="cls-4" d="M94.13,155.57l42.23,13.25,43.19,9.63a1,1,0,0,1,.18,1.9c-14.78,6.48-37.66,15-49.63,11.82s-27.52-22-37.07-35.06A1,1,0,0,1,94.13,155.57Z"/><path class="cls-4" d="M314.53,155.57l-42.22,13.25-43.19,9.63a1,1,0,0,0-.19,1.9c14.78,6.48,37.67,15,49.63,11.82s27.52-22,37.08-35.06A1,1,0,0,0,314.53,155.57Z"/></svg>