<svg xmlns="http://www.w3.org/2000/svg" xmlns:xlink="http://www.w3.org/1999/xlink" viewBox="0 0 416 298"><defs><style>.cls-1,.cls-8{fill:#179bcf;}.cls-2{fill:#fff;}.cls-3{opacity:0.25;fill:url(#linear-gradient);}.cls-4{opacity:0.2;}.cls-5,.cls-6{fill:#1278a1;}.cls-6{opacity:0.4;}.cls-7{opacity:0.1;fill:url(#New_Gradient_Swatch_1);}.cls-8{opacity:0.06;}</style><linearGradient id="linear-gradient" x1="208" y1="210" x2="208" y2="50" gradientUnits="userSpaceOnUse"><stop offset="0" stop-color="#1278a1" stop-opacity="0"/><stop offset="1" stop-color="#1278a1"/></linearGradient><linearGradient id="New_Gradient_Swatch_1" x1="208" y1="257.26" x2="208" y2="17.16" gradientUnits="userSpaceOnUse"><stop offset="0" stop-color="#179bcf"/><stop offset="0.8" stop-color="#fff"/></linearGradient></defs><g id="Layer_2" data-name="Layer 2"><g id="output_07_2020" data-name="output 07 2020"><g id="ic-distinguish"><rect id="frame" class="cls-1" x="80" y="-38" width="256" height="416" transform="translate(378 -38) rotate(90)"/><rect id=":_color" data-name=": color" class="cls-2" x="8" y="50" width="400" height="240"/><rect id="shade" class="cls-3" x="8" y="50" width="400" height="160"/><g id="shadow_-_bottom" data-name="shadow - bottom" class="cls-4"><path class="cls-5" d="M288.33,275.63a9.9,9.9,0,0,1-5.78-1.86L208,221.09l-74.55,52.68a9.93,9.93,0,0,1-5.78,1.86,10.09,10.09,0,0,1-8-4.06,9.85,9.85,0,0,1-1.55-8.79l26.75-91.29L70.28,114.55c-3.4-1.63-4.73-6-3.38-10a9.88,9.88,0,0,1,9.29-6.86H339.81a10,10,0,0,1,5.92,17.9l-74.55,56.94,26.75,90.29a9.88,9.88,0,0,1-1.55,8.79A10.09,10.09,0,0,1,288.33,275.63Z"/></g><g class="cls-4"><polygon class="cls-5" points="181.98 50 164.25 101.91 251.6 101.91 233.95 50 181.98 50"/></g><polygon class="cls-6" points="181.98 50 233.95 50 231.23 42 184.71 42 181.98 50"/><g id="star"><path class="cls-2" d="M289.33,269.63a6,6,0,0,1-3.46-1.12L209.16,214a2,2,0,0,0-2.32,0l-76.71,54.5a6,6,0,0,1-3.46,1.12,6.08,6.08,0,0,1-4.85-2.45,5.92,5.92,0,0,1-.91-5.27l27.14-91.6a2,2,0,0,0-.7-2.15L72.72,110.39a6,6,0,0,1,3.55-10.75l93.47-1.94a2,2,0,0,0,1.85-1.35L202.32,6.07a6,6,0,0,1,11.36,0l30.73,90.28a2,2,0,0,0,1.85,1.35l93.47,1.94a6,6,0,0,1,3.55,10.75l-74.63,57.77a2,2,0,0,0-.7,2.15l27.14,91.6a5.92,5.92,0,0,1-.91,5.27A6.08,6.08,0,0,1,289.33,269.63Z"/><path class="cls-1" d="M208,4a3.93,3.93,0,0,1,3.79,2.71L242.52,97a4,4,0,0,0,3.7,2.71l93.47,1.94a4,4,0,0,1,2.36,7.17l-74.63,57.77a4,4,0,0,0-1.39,4.3l27.15,91.6a4,4,0,0,1-6.16,4.4l-76.7-54.5a4,4,0,0,0-4.64,0L129,266.88a4,4,0,0,1-6.16-4.4L150,170.88a4,4,0,0,0-1.38-4.3L74,108.81a4,4,0,0,1,2.36-7.17l93.47-1.94a4,4,0,0,0,3.7-2.71L204.21,6.71A3.93,3.93,0,0,1,208,4m0-4a7.9,7.9,0,0,0-7.57,5.42L169.69,95.7,76.23,97.64A8,8,0,0,0,71.5,112l74.63,57.77L119,261.34a7.89,7.89,0,0,0,1.23,7,8.08,8.08,0,0,0,6.45,3.25,7.9,7.9,0,0,0,4.62-1.49L208,215.64l76.71,54.5a7.9,7.9,0,0,0,4.62,1.49,8.09,8.09,0,0,0,6.45-3.25,7.89,7.89,0,0,0,1.23-7l-27.14-91.6L344.5,112a8,8,0,0,0-4.73-14.33L246.31,95.7,215.57,5.42A7.9,7.9,0,0,0,208,0Z"/></g><path id="shading" class="cls-7" d="M238.9,105.77,208,144.2v-126a1,1,0,0,1,1.95-.33l29.28,86A2,2,0,0,1,238.9,105.77ZM133.56,257.07,208,204.18l74.44,52.89a1,1,0,0,0,1.4-1.38L208,144.2,132.16,255.69A1,1,0,0,0,133.56,257.07ZM260,165.54l71.57-55.4a1,1,0,0,0-.89-1.75L208,144.2l50,21.59A2,2,0,0,0,260,165.54ZM84.39,110.14,156,165.54a2,2,0,0,0,2,.25l50-21.59L85.28,108.39A1,1,0,0,0,84.39,110.14Z"/><path id="shade-2" data-name="shade" class="cls-8" d="M208,204.18l74.44,52.89a1,1,0,0,0,1.4-1.38L208,144.2Z"/></g></g></g></svg>