<svg xmlns="http://www.w3.org/2000/svg" xmlns:xlink="http://www.w3.org/1999/xlink" viewBox="0 0 416 294"><defs><style>.cls-1,.cls-10,.cls-7{fill:#179bcf;}.cls-2{fill:#fff;}.cls-3{opacity:0.15;}.cls-4{fill:url(#New_Gradient_Swatch_1);}.cls-5{fill:url(#New_Gradient_Swatch_1-2);}.cls-6,.cls-8,.cls-9{fill:none;stroke-width:8px;}.cls-6{stroke:#d3ebf4;}.cls-6,.cls-7,.cls-9{stroke-linecap:round;stroke-linejoin:round;}.cls-7,.cls-8,.cls-9{stroke:#179bcf;}.cls-7{stroke-width:4px;}.cls-8{stroke-miterlimit:10;}.cls-10{opacity:0.1;}</style><linearGradient id="New_Gradient_Swatch_1" x1="208" y1="11.3" x2="208" y2="280.3" gradientUnits="userSpaceOnUse"><stop offset="0" stop-color="#179bcf"/><stop offset="0.8" stop-color="#fff"/></linearGradient><linearGradient id="New_Gradient_Swatch_1-2" x1="208" y1="25.68" x2="208" y2="39.56" xlink:href="#New_Gradient_Swatch_1"/></defs><g id="Layer_2" data-name="Layer 2"><g id="output_07_2020" data-name="output 07 2020"><g id="ic-focus"><polygon id="Frame" class="cls-1" points="0 38.4 107.22 3.45 307.23 35.45 416 0 416 255.6 308.77 290.55 108.78 258.55 0 294 0 38.4"/><g id="A_Z" data-name="A — Z"><polygon id="Z" class="cls-2" points="308 43.3 260.16 35.65 279.58 88.3 237.55 88.3 232.56 71.8 183.44 71.8 178.45 88.3 136.42 88.3 161.65 19.89 108 11.3 10 43.3 10 280.3 108 248.3 185.63 260.72 206.08 234.08 157.34 234.08 157.34 200.3 257.32 200.3 257.32 230.81 229.02 267.66 308 280.3 406 248.3 406 11.3 308 43.3"/><polygon id="A" class="cls-2" points="197.9 25.68 193.42 39.56 222.59 39.56 219.2 29.09 208 27.3 197.9 25.68"/></g><g id="gradient" class="cls-3"><polygon id="Z-2" data-name="Z" class="cls-4" points="308 43.3 260.16 35.65 279.58 88.3 237.55 88.3 232.56 71.8 183.44 71.8 178.45 88.3 136.42 88.3 161.65 19.89 108 11.3 10 43.3 10 280.3 108 248.3 185.63 260.72 206.08 234.08 157.34 234.08 157.34 200.3 257.32 200.3 257.32 230.81 229.02 267.66 308 280.3 406 248.3 406 11.3 308 43.3"/><polygon id="A-2" data-name="A" class="cls-5" points="197.9 25.68 193.42 39.56 222.59 39.56 219.2 29.09 208 27.3 197.9 25.68"/></g><g id="_" data-name="×"><line class="cls-6" x1="43" y1="224.68" x2="75" y2="192.68"/><line class="cls-6" x1="75" y1="224.68" x2="43" y2="192.68"/></g><g id="_2" data-name="×"><line class="cls-6" x1="341" y1="94.68" x2="373" y2="62.68"/><line class="cls-6" x1="373" y1="94.68" x2="341" y2="62.68"/></g><circle id="circle" class="cls-6" cx="108.22" cy="99.68" r="12"/><circle id="circle-2" data-name="circle" class="cls-6" cx="308" cy="187.68" r="12"/><circle id="start" class="cls-7" cx="124.22" cy="55.68" r="8"/><path id="Line" class="cls-8" d="M273.32,231.68H324a44,44,0,0,0,0-88H86.22a44,44,0,0,1,0-88h30"/><polyline id="arrowhead" class="cls-9" points="289.32 247.68 273.32 231.68 289.32 215.68"/><polygon id="shade" class="cls-10" points="108 11.3 108 248.3 308 280.3 308 43.3 108 11.3"/></g></g></g></svg>