<svg xmlns="http://www.w3.org/2000/svg" xmlns:xlink="http://www.w3.org/1999/xlink" viewBox="0 0 416 295.5"><defs><style>.cls-1,.cls-4,.cls-5{fill:#179bcf;}.cls-2,.cls-8{fill:#fff;}.cls-3{opacity:0.25;fill:url(#linear-gradient);}.cls-4,.cls-9{opacity:0.1;}.cls-5,.cls-8{stroke:#179bcf;stroke-linejoin:round;stroke-width:3px;}.cls-5{stroke-linecap:round;}.cls-6,.cls-7{fill:#1278a1;}.cls-6{opacity:0.2;}.cls-7{opacity:0.4;}.cls-9{fill:url(#New_Gradient_Swatch_1);}</style><linearGradient id="linear-gradient" x1="208" y1="187.5" x2="208" y2="47.5" gradientUnits="userSpaceOnUse"><stop offset="0" stop-color="#1278a1" stop-opacity="0"/><stop offset="1" stop-color="#1278a1"/></linearGradient><linearGradient id="New_Gradient_Swatch_1" x1="230.6" y1="161.66" x2="230.6" y2="9.07" gradientUnits="userSpaceOnUse"><stop offset="0" stop-color="#179bcf"/><stop offset="0.8" stop-color="#fff"/></linearGradient></defs><g id="Layer_2" data-name="Layer 2"><g id="output_07_2020" data-name="output 07 2020"><g id="ic-grow"><rect id="frame" class="cls-1" y="39.5" width="416" height="256"/><rect id=":_color" data-name=": color" class="cls-2" x="8" y="47.5" width="400" height="240"/><rect id="shade" class="cls-3" x="8" y="47.5" width="400" height="140"/><rect id="ground" class="cls-4" x="8" y="210.5" width="400" height="77"/><path id="roots" class="cls-5" d="M358,232H278a22,22,0,0,0-21.62,17.92,47.07,47.07,0,0,1-43.77-39.42h-9.93A28,28,0,0,1,176,230H108a4,4,0,0,0,0,8h47.54A18,18,0,0,1,138,252H58a2,2,0,0,0,0,4h80a22,22,0,0,0,21.63-18H176a36,36,0,0,0,30.87-17.5A55.09,55.09,0,0,0,259,258h49a4,4,0,0,0,0-8H260.44A18,18,0,0,1,278,236h80a2,2,0,0,0,0-4Z"/><g id="Plant"><path id="shadow_-_bottom" data-name="shadow - bottom" class="cls-6" d="M332,155a5,5,0,0,0-2.6-3.18c-8.67-4.31-38.39-18.36-56.78-18.36a26.43,26.43,0,0,0-6.81.79c-5.27,1.41-19.07,8.54-43.38,44.16L215,181.13H201l-7.46-2.73c-24.32-35.62-38.12-42.75-43.38-44.16a26.49,26.49,0,0,0-6.81-.79c-18.35,0-48,14-56.68,18.31a5.08,5.08,0,0,0-2,7.38,269.34,269.34,0,0,0,18.52,24.66C114.1,196.56,123.43,204,130.9,206a26.52,26.52,0,0,0,6.81.8c16.56,0,42.28-11.38,53.65-16.83l8.22,2.47v18h16v-18l9-2.53c11.36,5.44,37.1,16.84,53.67,16.84a26.55,26.55,0,0,0,6.82-.8c7.49-2,16.85-9.52,27.8-22.34a272,272,0,0,0,18.49-24.65A5,5,0,0,0,332,155Z"/><path id="shadow" class="cls-6" d="M167.2,47.5c-9.6,15.7-14.47,28.41-14.47,37.87,0,24.22,32.27,64.45,47.25,81.82v14.89h16V167.19c15-17.37,47.25-57.6,47.25-81.82,0-9.46-4.88-22.17-14.47-37.87Z"/><path id="shadow_-_top" data-name="shadow - top" class="cls-7" d="M248.76,47.5c-1.59-2.59-3.28-5.25-5.12-8H172.32c-1.84,2.75-3.53,5.41-5.12,8Z"/><path id="plant-2" data-name="plant" class="cls-8" d="M212.58,210.5v-22l12.27-3.45c11.47,5.56,44.25,20.41,59.43,16.34,16.22-4.34,39.06-37.45,44.57-45.75a2,2,0,0,0-.78-2.9c-8.92-4.43-45.25-21.69-61.48-17.35-15.18,4.07-36.16,33.33-43.3,43.87l-11.31,3V165.7c12.06-13.88,47.25-56.44,47.25-80.33,0-25.9-41.33-73.72-49.76-83.2a2,2,0,0,0-3,0c-8.43,9.48-49.76,57.3-49.76,83.2,0,23.89,35.19,66.45,47.25,80.33v16.59l-11.31-3c-7.15-10.54-28.12-39.8-43.31-43.87-16.16-4.33-52.3,12.8-61.38,17.3a2.1,2.1,0,0,0-.81,3c5.61,8.44,28.34,41.33,44.51,45.66,15.18,4.07,48-10.78,59.42-16.34l11.48,3.45v22"/><path id="shade_-_l" data-name="shade - l" class="cls-4" d="M97.78,157.07,140,170.32,183.19,180a1,1,0,0,1,.19,1.9c-14.78,6.48-37.67,15-49.63,11.82s-27.52-22-37.08-35.06A1,1,0,0,1,97.78,157.07Z"/><path id="shade_-_m" data-name="shade - m" class="cls-9" d="M208,10.07l2,75.3-2,75.29a1,1,0,0,0,1.76.65c14.33-17,43.49-54.19,43.49-75.94s-29.16-59-43.49-75.95A1,1,0,0,0,208,10.07Z"/><path id="shade_-_r" data-name="shade - r" class="cls-4" d="M318.18,157.07,276,170.32,232.77,180a1,1,0,0,0-.19,1.9c14.78,6.48,37.67,15,49.63,11.82s27.52-22,37.08-35.06A1,1,0,0,0,318.18,157.07Z"/></g></g></g></g></svg>