<svg xmlns="http://www.w3.org/2000/svg" viewBox="0 0 300 195"><defs><style>.cls-1{fill-rule:evenodd;fill:#05222E56;}</style></defs><path class="cls-1" d="M298.53,31.45l-10-10a5,5,0,0,0-7.07,0,4.72,4.72,0,0,0-.37.41l-9,11.25-15.95,4.55a5,5,0,0,0-2.93,2.25l-6,10.06H235a5,5,0,0,0-3.54,1.46L213.18,69.74l-10.55-1.33,11.84-23.68a5,5,0,0,0-1.21-6l-17.5-15a5,5,0,0,0-7,.52,5.11,5.11,0,0,0-.51.71l-6,10.06h-6.59l3.89-7.76a5,5,0,0,0-2.24-6.7,4.84,4.84,0,0,0-.47-.21l-20-7.5a4.88,4.88,0,0,0-2.07-.31l-79,4.94L26.66.28a5.06,5.06,0,0,0-2-.27h0A5,5,0,0,0,20.2,3.62l-20,70a5,5,0,0,0,.15,3.24l20,50a5,5,0,0,0,1.88,2.29l30,20A5,5,0,0,0,55,150H73.83l18.92,9.47a4.27,4.27,0,0,0,.67.27l15,5a2.29,2.29,0,0,0,.37.12l7.77,1.94,9,18a5,5,0,0,0,2.22,2.22l15,7.5a5,5,0,0,0,7-6.05l-2-5.92,1.06-3.16,9.64-1.94a4.68,4.68,0,0,0,1.8-.74l12.58-8.38,2.4,1.2a5.16,5.16,0,0,0,2.25.53h15a5,5,0,0,0,5-5v-2.5h22.05l11.07,19.94A5,5,0,0,0,235,185h17.5a5,5,0,0,0,4.48-7.23l-12-24v-9.59l26.42-33.63A5,5,0,0,0,271,104l-7.58-7.56,7.83-17.62L292,69.56a5,5,0,0,0,2.54-6.6,5.19,5.19,0,0,0-1-1.51l-4.83-4.82,10.67-19.2A5,5,0,0,0,298.53,31.45ZM278.12,55.06a5,5,0,0,0,.84,6l2.36,2.36-15.86,7.05A5.07,5.07,0,0,0,262.92,73l-10,22.5a5,5,0,0,0,1,5.57l6.86,6.88-24.75,31.5a5,5,0,0,0-1.07,3.09V155a4.89,4.89,0,0,0,.52,2.25L244.41,175h-6.47l-11.07-19.92a5,5,0,0,0-4.37-2.58h-30a5,5,0,0,0-5,5V160h-8.83l-3.95-2a5,5,0,0,0-5,.31l-14.18,9.45L144,170.08a5,5,0,0,0-3.77,3.33l-2.46,7.4-4.06-2-9.26-18.52a5,5,0,0,0-3.26-2.62l-9.8-2.46-14.5-4.82-19.68-9.85A5.22,5.22,0,0,0,75,140H56.5L29.06,121.7l-18.78-47L28.34,11.47l45,15.74a5.06,5.06,0,0,0,2,.27l78.93-4.94L168,27.71l-5,10A5,5,0,0,0,167.5,45H185a5,5,0,0,0,4.27-2.42l4.46-7.42,10.06,8.61L190.52,70.26a5,5,0,0,0,2.25,6.7,5.39,5.39,0,0,0,1.6.49l20,2.5a5,5,0,0,0,4.16-1.43L237.07,60H250a5,5,0,0,0,4.27-2.42l6.49-10.8,15.6-4.45a5.09,5.09,0,0,0,2.54-1.7l6.5-8.13,3.38,3.38Z"/><path class="cls-1" d="M160,90a5,5,0,0,0-5,5h0a5,5,0,0,0,5,5h0a5,5,0,0,0,0-10Z"/></svg>
