<svg width="34" height="33" viewBox="0 0 34 33" fill="none" xmlns="http://www.w3.org/2000/svg">
<path fill-rule="evenodd" clip-rule="evenodd" d="M34 0H0V32C0 32.5523 0.447716 33 1 33H33C33.5523 33 34 32.5523 34 32V0ZM7 15C5.89543 15 5 15.8954 5 17C5 18.1046 5.89543 19 7 19H27C28.1046 19 29 18.1046 29 17C29 15.8954 28.1046 15 27 15H7ZM5 25C5 23.8954 5.89543 23 7 23H19C20.1046 23 21 23.8954 21 25C21 26.1046 20.1046 27 19 27H7C5.89543 27 5 26.1046 5 25ZM27 23C25.8954 23 25 23.8954 25 25C25 26.1046 25.8954 27 27 27C28.1046 27 29 26.1046 29 25C29 23.8954 28.1046 23 27 23Z" fill="#E53B34"/>
</svg>
