<svg width="34" height="33" viewBox="0 0 34 33" fill="none" xmlns="http://www.w3.org/2000/svg">
<path fill-rule="evenodd" clip-rule="evenodd" d="M34 0H0V32C0 32.5523 0.447693 33 1 33H33C33.5523 33 34 32.5523 34 32V0ZM22.728 25.3848C23.509 26.1658 24.7753 26.1658 25.5564 25.3848C26.3374 24.6037 26.3374 23.3374 25.5564 22.5563L19.8284 16.8284L25.3848 11.2721C26.1658 10.491 26.1658 9.2247 25.3848 8.44365C24.6038 7.6626 23.3374 7.6626 22.5563 8.44365L17 14L11.4142 8.41421C10.6332 7.63316 9.36688 7.63316 8.58582 8.41421C7.80475 9.19526 7.80475 10.4616 8.58582 11.2426L14.1716 16.8284L8.41425 22.5858C7.63318 23.3668 7.63318 24.6332 8.41425 25.4142C9.19525 26.1953 10.4616 26.1953 11.2426 25.4142L17 19.6568L22.728 25.3848Z" fill="#EDF8FD"/>
</svg>
