<svg width="40" height="40" viewBox="0 0 40 40" fill="none" xmlns="http://www.w3.org/2000/svg">
<path d="M2.58885 0C1.73164 0 1.30303 0 1.04489 0.180543C0.81949 0.338194 0.668977 0.581729 0.628773 0.85384C0.582732 1.16546 0.774412 1.54882 1.15777 2.31554L9.64223 19.2845C9.77341 19.5468 9.839 19.678 9.86482 19.8156C9.88768 19.9375 9.88768 20.0625 9.86482 20.1844C9.839 20.322 9.77341 20.4532 9.64223 20.7155L1.15777 37.6845C0.774411 38.4512 0.582732 38.8345 0.628773 39.1462C0.668977 39.4183 0.81949 39.6618 1.04489 39.8195C1.30303 40 1.73164 40 2.58885 40H29.0111C29.3701 40 29.5496 40 29.708 39.9453C29.8482 39.897 29.9758 39.8181 30.0817 39.7144C30.2014 39.5971 30.2817 39.4366 30.4422 39.1155L39.6422 20.7155C39.7734 20.4532 39.839 20.322 39.8648 20.1844C39.8877 20.0625 39.8877 19.9375 39.8648 19.8156C39.839 19.678 39.7734 19.5468 39.6422 19.2845L30.4422 0.884458C30.2817 0.563397 30.2014 0.402866 30.0817 0.285582C29.9758 0.181865 29.8482 0.102987 29.708 0.0546548C29.5496 0 29.3701 0 29.0111 0H2.58885Z" fill="#F2F8FA"/>
</svg>
